<?xml version="1.0" encoding="UTF-8" standalone="no"?>
<!-- Created with Inkscape (http://www.inkscape.org/) -->
<svg xmlns:rdf="http://www.w3.org/1999/02/22-rdf-syntax-ns#" xmlns="http://www.w3.org/2000/svg" height="9" width="9" version="1.1" xmlns:cc="http://creativecommons.org/ns#" xmlns:dc="http://purl.org/dc/elements/1.1/" viewBox="0 0 2.3812499 2.3812501">
 <metadata>
  <rdf:RDF>
   <cc:Work rdf:about="">
    <dc:format>image/svg+xml</dc:format>
    <dc:type rdf:resource="http://purl.org/dc/dcmitype/StillImage"/>
    <dc:title/>
   </cc:Work>
  </rdf:RDF>
 </metadata>
 <g transform="translate(0 -295.1)">
  <g id="clock" fill="#727272" transform="matrix(.263 0 0 .262 .0142 295)">
   <path d="m7.73 8.11c0.82-0.85 1.27-1.96 1.27-3.14 0-1.12-0.41-2.18-1.15-3.01l0.326-0.326 0.306 0.306c0.046 0.046 0.107 0.069 0.167 0.069s0.121-0.023 0.167-0.069c0.092-0.092 0.092-0.243 0-0.335l-0.95-0.939c-0.0924-0.0924-0.243-0.0924-0.335 0-0.0924 0.0924-0.0924 0.243 0 0.335l0.32 0.304-0.33 0.33c-0.83-0.748-1.89-1.16-3.01-1.16s-2.18 0.408-3.01 1.15l-0.326-0.326 0.306-0.306c0.092-0.0924 0.092-0.243 0-0.335-0.092-0.0924-0.243-0.0924-0.335 0l-0.952 0.957c-0.0924 0.0924-0.0924 0.243 0 0.335 0.0464 0.0464 0.107 0.0692 0.168 0.0692 0.0606 0 0.121-0.0232 0.168-0.0692l0.306-0.306 0.32 0.33c-0.742 0.83-1.15 1.89-1.15 3.01 0 1.18 0.45 2.29 1.27 3.13l-0.964 0.97c-0.0924 0.0924-0.0924 0.243 0 0.335 0.0464 0.0464 0.107 0.0696 0.168 0.0696 0.0606 0 0.121-0.0232 0.168-0.0696l0.978-0.97c0.808 0.676 1.82 1.04 2.88 1.04 1.07 0 2.08-0.369 2.88-1.04l0.975 0.975c0.0464 0.0464 0.107 0.0696 0.168 0.0696 0.0606 0 0.121-0.0232 0.167-0.0696 0.09-0.09 0.09-0.24-0.01-0.33zm-7.26-3.14c0-2.22 1.81-4.03 4.03-4.03s4.03 1.81 4.03 4.03-1.81 4.03-4.03 4.03-4.03-1.81-4.03-4.03z"/>
   <path d="m7.17 3.43c-0.07-0.11-0.21-0.15-0.33-0.08l-2.33 1.34-1.81-1.27c-0.11-0.07-0.26-0.05-0.33 0.06-0.08 0.11-0.05 0.25 0.05 0.33l1.94 1.36c0.000474 0.000474 0.000947 0.000474 0.000947 0.000947 0.00426 0.00284 0.00853 0.00568 0.0128 0.00805 0.000947 0.000474 0.00189 0.00142 0.00284 0.00189 0.00426 0.00237 0.00853 0.00474 0.0128 0.00711 0.000947 0.000474 0.00189 0.000947 0.00284 0.00142 0.00474 0.00237 0.00947 0.00426 0.0147 0.00663 0.00284 0.00142 0.00616 0.00237 0.009 0.00332 0.00189 0.000474 0.00379 0.00142 0.00616 0.00237 0.00332 0.000947 0.00663 0.00189 0.00995 0.00284 0.00189 0.000474 0.00379 0.000947 0.00568 0.00142 0.00332 0.000947 0.00663 0.00142 0.0104 0.00237 0.00189 0.000474 0.00379 0.000947 0.00568 0.000947 0.00332 0.000474 0.00663 0.000947 0.00995 0.00142 0.00237 0.000474 0.00474 0.000474 0.00711 0.000947 0.00284 0.000474 0.00568 0.000474 0.00853 0.000947 0.00426 0.000474 0.00853 0.000474 0.0128 0.000474h0.003314c0.009 0 0.0175-0.000474 0.0265-0.00142h0.00142c0.00853-0.000947 0.0171-0.00237 0.0256-0.00474 0.000947 0 0.00142-0.000474 0.00237-0.000474 0.00805-0.00189 0.0161-0.00426 0.0237-0.00711 0.00142-0.000474 0.00284-0.000947 0.00379-0.00142 0.00758-0.00284 0.0147-0.00568 0.0218-0.00947 0.00189-0.000947 0.00332-0.00189 0.00521-0.00284 0.00237-0.00142 0.00521-0.00237 0.00758-0.00379l2.47-1.42c0.11-0.07 0.15-0.21 0.09-0.32z"/>
  </g>
 </g>
</svg>
