<?xml version="1.0" encoding="UTF-8" standalone="no"?>
<!-- Created with Inkscape (http://www.inkscape.org/) -->
<svg xmlns:rdf="http://www.w3.org/1999/02/22-rdf-syntax-ns#" xmlns="http://www.w3.org/2000/svg" height="32" width="32" version="1.1" xmlns:cc="http://creativecommons.org/ns#" xmlns:dc="http://purl.org/dc/elements/1.1/" viewBox="0 0 8.4666664 8.466667">
 <metadata>
  <rdf:RDF>
   <cc:Work rdf:about="">
    <dc:format>image/svg+xml</dc:format>
    <dc:type rdf:resource="http://purl.org/dc/dcmitype/StillImage"/>
    <dc:title/>
   </cc:Work>
  </rdf:RDF>
 </metadata>
 <g stroke-width=".2646" transform="translate(0 -288.5)">
  <path id="Shape" d="m4.233 295.7c-0.03737 0-0.07278-0.0171-0.09598-0.0466-0.01392-0.0178-0.3463-0.443-0.6831-1.071-0.1983-0.3696-0.3566-0.7325-0.4701-1.079-0.1434-0.4364-0.2159-0.848-0.2159-1.223 0-0.8079 0.6575-1.465 1.465-1.465 0.8079 0 1.465 0.6575 1.465 1.465 0 0.3751-0.07278 0.7864-0.2159 1.223-0.1136 0.3461-0.2718 0.709-0.4701 1.079-0.337 0.6279-0.6692 1.053-0.6831 1.071-0.0232 0.0296-0.05862 0.0466-0.09598 0.0466zm0-4.64c-0.6733 0-1.221 0.5478-1.221 1.221 0 0.7947 0.3573 1.628 0.6572 2.186 0.2203 0.4106 0.4418 0.7361 0.5639 0.9061 0.1226-0.1707 0.3456-0.4982 0.5661-0.91 0.2987-0.5576 0.655-1.389 0.655-2.182 0-0.6733-0.5478-1.221-1.221-1.221z"/>
  <path d="m4.233 293c-0.404 0-0.7327-0.3287-0.7327-0.7327s0.3287-0.7327 0.7327-0.7327 0.7327 0.3287 0.7327 0.7327-0.3287 0.7327-0.7327 0.7327zm0-1.221c-0.2694 0-0.4885 0.2191-0.4885 0.4885s0.2191 0.4885 0.4885 0.4885 0.4885-0.2191 0.4885-0.4885-0.2191-0.4885-0.4885-0.4885z"/>
 </g>
</svg>
