<?xml version="1.0" encoding="UTF-8" standalone="no"?>
<!-- Created with Inkscape (http://www.inkscape.org/) -->

<svg
   xmlns:dc="http://purl.org/dc/elements/1.1/"
   xmlns:cc="http://creativecommons.org/ns#"
   xmlns:rdf="http://www.w3.org/1999/02/22-rdf-syntax-ns#"
   xmlns:svg="http://www.w3.org/2000/svg"
   xmlns="http://www.w3.org/2000/svg"
   xmlns:sodipodi="http://sodipodi.sourceforge.net/DTD/sodipodi-0.dtd"
   xmlns:inkscape="http://www.inkscape.org/namespaces/inkscape"
   width="180"
   height="214"
   viewBox="0 0 47.624997 56.620832"
   version="1.1"
   id="svg4532"
   inkscape:version="0.92.1 r15371"
   sodipodi:docname="logo-big.svg">
  <defs
     id="defs4526" />
  <sodipodi:namedview
     id="base"
     pagecolor="#ffffff"
     bordercolor="#666666"
     borderopacity="1.0"
     inkscape:pageopacity="0.0"
     inkscape:pageshadow="2"
     inkscape:zoom="1.4"
     inkscape:cx="-12.452789"
     inkscape:cy="139.37773"
     inkscape:document-units="mm"
     inkscape:current-layer="layer1"
     showgrid="false"
     units="px"
     inkscape:window-width="1366"
     inkscape:window-height="672"
     inkscape:window-x="0"
     inkscape:window-y="28"
     inkscape:window-maximized="1" />
  <metadata
     id="metadata4529">
    <rdf:RDF>
      <cc:Work
         rdf:about="">
        <dc:format>image/svg+xml</dc:format>
        <dc:type
           rdf:resource="http://purl.org/dc/dcmitype/StillImage" />
        <dc:title></dc:title>
      </cc:Work>
    </rdf:RDF>
  </metadata>
  <g
     inkscape:label="Camada 1"
     inkscape:groupmode="layer"
     id="layer1"
     transform="translate(0,-240.37918)">
    <g
       id="g5092"
       transform="translate(0.79375025,203.76698)">
      <g
         id="g5087">
        <path
           inkscape:connector-curvature="0"
           style="fill:#ffffff;fill-rule:nonzero;stroke-width:0.26458332"
           d="m 12.7934,37.376239 c 1.469501,3.35348 2.825964,4.86066 0.82895,9.532924 -2.110055,4.936019 -4.2201087,5.764969 -2.825967,7.083756 1.394142,1.318784 4.144751,1.883976 4.144751,1.883976 0,0 -0.07536,0.86663 -0.640554,1.69558 -0.602872,0.82895 -0.489834,2.034696 0.678233,2.750606 0.866629,0.527513 1.017347,0.602874 1.055026,0.602874 0,0 -0.452154,0.414472 -0.71591,1.318784 -0.301437,0.979667 0.339117,1.921655 1.394143,2.223092 1.055029,0.301438 1.50718,0.414475 1.733259,0.753589 0.263758,0.376796 0.07536,0.452157 0,2.034696 -0.07536,1.582542 -0.376796,3.089723 1.69558,4.257789 2.072375,1.168067 5.68961,0.150717 8.666294,-1.695579 2.562209,-1.582542 8.892369,-3.617236 13.790709,-0.979668 -3.42883,4.408506 -8.55325,7.498228 -14.506622,8.25182 C 16.1092,78.597661 5.1444523,70.119763 3.6372713,58.137667 2.5068843,49.73513 6.3125183,41.860103 12.7934,37.376239 Z"
           id="Shape" />
        <path
           inkscape:connector-curvature="0"
           style="fill:#ffffff;stroke-width:0.26458332"
           d="m 1.3008535,90.941704 v 1.467868 h -1.04296 v -4.32635 h 1.726381 c 0.330816,0 0.623496,0.06091 0.878046,0.18274 0.25455,0.121827 0.451652,0.295158 0.591309,0.519993 0.139655,0.224838 0.209482,0.47988 0.209482,0.765136 0,0.421939 -0.151043,0.75919 -0.453136,1.011758 -0.302094,0.252572 -0.7166,0.378855 -1.243529,0.378855 z m 0,-0.805249 h 0.683421 c 0.202054,0 0.356071,-0.05051 0.462052,-0.15154 0.105979,-0.101029 0.15897,-0.243655 0.15897,-0.427882 0,-0.202057 -0.05447,-0.3635 -0.163428,-0.484338 -0.10895,-0.120835 -0.257519,-0.182245 -0.445709,-0.184227 h -0.695306 z m 9.5391595,-2.053233 v 2.831738 c 0,0.320913 -0.06834,0.598736 -0.205029,0.833477 -0.136683,0.234741 -0.332792,0.413517 -0.588335,0.536337 C 9.7911095,92.407593 9.4890195,92.469 9.1403755,92.469 c -0.526931,0 -0.94193,-0.136683 -1.245016,-0.410054 -0.303083,-0.273367 -0.457594,-0.64776 -0.463537,-1.123185 v -2.852539 h 1.048904 v 2.873338 c 0.01188,0.473445 0.231764,0.710163 0.659649,0.710163 0.215921,0 0.379346,-0.05943 0.49028,-0.178284 0.110932,-0.118856 0.166397,-0.311994 0.166397,-0.579422 v -2.825795 z m 5.486175,2.799054 h -0.564565 v 1.527296 h -1.042959 v -4.32635 h 1.70261 c 0.513061,0 0.914196,0.113901 1.203415,0.341709 0.289216,0.227809 0.433824,0.549707 0.433824,0.965703 0,0.301104 -0.06091,0.550699 -0.182743,0.748792 -0.121827,0.198094 -0.312488,0.358548 -0.571992,0.481367 l 0.903304,1.744208 v 0.04457 h -1.117246 z m -0.564565,-0.805249 h 0.659651 c 0.198093,0 0.347157,-0.052 0.447193,-0.155999 0.100039,-0.103999 0.150056,-0.249099 0.150056,-0.435308 0,-0.186208 -0.05051,-0.332301 -0.15154,-0.43828 -0.101029,-0.105981 -0.249597,-0.158972 -0.445709,-0.158972 h -0.659651 z m 8.837911,0.499194 h -1.64021 v 1.031074 h 1.93735 v 0.802277 h -2.980311 v -4.32635 h 2.986254 v 0.805246 h -1.943293 v 0.91222 h 1.64021 z m 4.992922,1.031074 h 1.81552 v 0.802277 h -2.858478 v -4.32635 h 1.042958 z m 7.99701,-0.006 h -1.42924 l -0.2496,0.80823 h -1.11427 l 1.58672,-4.32635 h 0.98056 l 1.59861,4.32635 h -1.12021 z m -1.17965,-0.805249 h 0.93005 l -0.46651,-1.500553 z m 8.32684,0.463539 c 0,-0.152532 -0.054,-0.271388 -0.16195,-0.356568 -0.10796,-0.08518 -0.29763,-0.173331 -0.56902,-0.264454 -0.27139,-0.09112 -0.49325,-0.179273 -0.66559,-0.264453 -0.56061,-0.275352 -0.84091,-0.653706 -0.84091,-1.135074 0,-0.239694 0.0698,-0.451156 0.20949,-0.634391 0.13965,-0.183237 0.33725,-0.325863 0.59279,-0.427882 0.25554,-0.102018 0.54277,-0.153027 0.86171,-0.153027 0.311,0 0.58982,0.05546 0.83644,0.166397 0.24663,0.110934 0.43828,0.268912 0.57497,0.473937 0.13668,0.205029 0.20502,0.439272 0.20502,0.702736 h -1.03998 c 0,-0.176302 -0.054,-0.312986 -0.16194,-0.410053 -0.10797,-0.09707 -0.25406,-0.145598 -0.43829,-0.145598 -0.18621,0 -0.33329,0.04111 -0.44125,0.123314 -0.10796,0.08221 -0.16194,0.186701 -0.16194,0.313481 0,0.110932 0.0594,0.211463 0.17829,0.301596 0.11885,0.09013 0.32784,0.183237 0.62696,0.279313 0.29912,0.09607 0.54475,0.199578 0.7369,0.31051 0.467511,0.269409 0.70125,0.640828 0.70125,1.114274 0,0.378359 -0.142619,0.675494 -0.42788,0.891418 -0.28525,0.215921 -0.67648,0.323882 -1.173699,0.323882 -0.350621,0 -0.668071,-0.06289 -0.952331,-0.188683 -0.28426,-0.12579 -0.4982,-0.298129 -0.641819,-0.517024 -0.14362,-0.218893 -0.21543,-0.470964 -0.21543,-0.756219 h 1.04593 c 0,0.231769 0.0599,0.402621 0.17977,0.512566 0.11985,0.10994 0.31447,0.164913 0.58388,0.164913 0.17234,0 0.30853,-0.03714 0.408569,-0.11143 0.100041,-0.07428 0.15006,-0.178776 0.15006,-0.313481 z"
           id="PURELAS" />
      </g>
    </g>
  </g>
</svg>
