<?xml version="1.0" encoding="UTF-8" standalone="no"?>
<!-- Created with Inkscape (http://www.inkscape.org/) -->
<svg xmlns:rdf="http://www.w3.org/1999/02/22-rdf-syntax-ns#" xmlns="http://www.w3.org/2000/svg" height="350" width="190" version="1.1" xmlns:cc="http://creativecommons.org/ns#" xmlns:dc="http://purl.org/dc/elements/1.1/" viewBox="0 0 50.270832 92.604169">
 <metadata>
  <rdf:RDF>
   <cc:Work rdf:about="">
    <dc:format>image/svg+xml</dc:format>
    <dc:type rdf:resource="http://purl.org/dc/dcmitype/StillImage"/>
    <dc:title/>
   </cc:Work>
  </rdf:RDF>
 </metadata>
 <g transform="translate(0 -204.4)">
  <g id="Shape" transform="matrix(.2447 0 0 .2447 .7588 208.4)">
   <g fill="#fff">
    <path d="m208.9 251.3c-2.921 4.626-4.869 9.495-6.086 14.61-1.217 4.869-3.895 9.008-7.303 12.66-0.7303 0.9738-2.191 2.191-3.408 2.191-2.921 0-5.356 1.217-7.79 1.948-3.165 0.9738-6.086 0.9738-9.007-0.9738-2.434-1.704-5.112-2.678-7.303-3.895-3.652 0.4869-5.842 2.191-7.303 5.113-0.7303 1.461-1.704 2.678-2.434 4.139-4.382 9.251-11.68 15.58-20.94 19.48-1.947 0.7304-3.895 1.704-5.842 2.678-3.895 1.461-7.79 2.678-11.93 1.704-5.599-0.9738-11.2-1.948-16.55-3.652-8.033-2.435-13.39-8.034-18.01-14.36-1.461-1.948-2.434-4.139-3.408-6.086-1.704-2.922-2.678-3.165-6.086-1.948-4.382 1.461-8.52 1.461-12.17-1.704-2.191-1.948-4.382-3.895-6.329-6.086-0.9737-0.9738-1.947-1.704-3.408-1.704-3.652-0.2435-5.842-2.435-7.79-5.6-2.191-3.652-4.869-7.06-7.06-10.47-2.191-0.4869-3.895-0.9738-5.599-1.217-4.382-0.9738-7.06 0.7304-7.06 5.356-0.2434 5.6-0.2434 11.44 0.9737 17.04 1.704 8.034 2.921 16.07 4.382 24.35 0.4869 3.408 0.4869 7.06 0.9737 10.47 0.4869 4.869 1.217 9.738 2.191 14.61 0.7303 3.895 0.9737 8.034 0.9737 11.93 2.434 1.461 5.112 2.678 8.033 3.652 5.842 1.948 11.93 3.408 18.01 4.382-1.947-2.922-3.165-6.086-2.921-9.738-2.678-8.278-2.678-17.04-4.625-25.32-0.4869-2.191-1.217-4.626-1.704-6.817-0.2434-0.7304-0.2434-1.461-0.2434-2.191 0-0.2435 0.4869-0.7304 0.7303-1.217 0.2434 0.4869 0.7303 0.7304 0.9737 0.9738 1.217 3.165 2.434 6.573 3.652 9.738 0.4869 1.217 1.217 2.435 1.461 3.895 1.461 7.304 2.921 14.85 4.625 22.4 0.4869 2.922 0.9737 5.843 1.217 9.008 0.9737 0.2435 1.947 0.2435 3.165 0.4869 15.58 1.948 31.16 2.191 46.98 1.704 23.13-0.7304 46.74-2.191 68.89-8.278-0.2434-0.7304-0.2434-1.461-0.2434-2.191 0-4.139 0.2434-8.278 0.7303-12.17 0.4869-4.382 1.461-8.764 2.191-13.15 0.7303-4.869 2.434-9.251 6.573-14.12 0 1.704 0.2434 2.678 0 3.165-1.947 3.408-1.947 7.06-1.947 10.71 0 2.678-0.2434 5.356-0.4869 8.278-0.2434 5.113-0.7303 9.982-1.217 15.09 0 0.9738-0.2434 1.948-0.4869 2.922 6.086-1.948 11.93-4.139 17.77-6.817 1.947-7.06 3.652-14.12 5.599-21.18 3.408-13.88 5.599-28 5.599-42.36v-6.573c0.2434-4.626-0.4869-9.008-2.678-13.15-2.678-2.191-4.382-2.191-6.329-1.704z"/>
    <path d="m56.28 269.2c-5.109-2.911-9.001-7.279-11.68-12.37-4.622-1.456-4.622-1.456-6.325-5.58-1.216-2.911-2.433-5.823-3.892-8.492-1.946-4.125-3.162-8.492-3.892-12.86-0.2433-1.941-0.4865-3.882-1.216-5.823-2.189-5.095-2.433-10.19-2.433-15.53 0-1.213-0.2433-2.669-0.4865-4.852-0.9731 0.9705-1.703 1.456-1.703 1.941-0.2433 1.213-0.2433 2.426-0.2433 3.397 0.4865 6.308 0.2433 12.62 1.46 18.68 1.216 5.58 3.649 11.16 5.595 16.5 0.9731 2.669 2.433 5.338 3.892 8.492-1.703 0-2.433-0.2426-3.406-0.2426-1.46 0-3.162 0-4.622 0.2426-2.919 0.4852-5.109 1.941-5.838 5.095-0.2433 0.9705-0.7298 2.184-1.216 3.154-3.649 0.2426-7.055-0.2426-10.22-2.426-2.195-1.7-5.357-1.7-7.06-4.6 0-0.7279 0-1.698 0.2433-2.669 1.703-5.095 3.649-9.948 6.568-14.31 1.946-2.911 3.162-6.308 4.136-9.705 2.433-8.734 5.109-17.23 5.838-26.2 0.2433-2.669 0.4865-5.338 0.4865-8.249 0-8.734-0.2433-17.47 0-26.2 0.4865-8.249-0.2433-16.5-0.4865-24.5-0.2433-7.521-0.2433-14.8-0.4865-22.32 0-3.397-0.4865-6.551-0.4865-9.948-0.2433-5.338-0.4865-10.43-0.4865-15.77 0-1.456 0.2433-2.669 0.7298-4.125 2.433-8.977 4.622-18.2 7.055-27.17 0.4865-1.941 1.216-3.639 1.946-5.58 0.4865-1.213 0.9731-2.184 1.216-3.154 1.216-6.066 4.865-11.16 8.514-15.77 4.865-6.308 10.22-12.37 16.79-16.98 3.406-2.426 6.812-4.61 10.7-6.066 9.244-3.397 18.73-5.823 28.71-5.58 7.055 0 14.11-0.2426 21.16-0.2426 0.2433 0 0.7298-0.2426 0.9731-0.4852 0.4865-0.9705-0.4865-1.213-0.9731-1.698-1.216-0.9705-0.9731-2.184 0.2433-2.669 1.3-0.157 2.3-0.4 3.5-0.4 4.865 0.2426 9.731 0 14.6 0.7279 9.001 1.456 17.76 3.154 25.79 7.521 3.649 1.941 7.298 3.882 10.7 6.066 7.785 4.852 14.84 10.92 20.43 18.2 0.7298 0.9705 1.703 2.184 2.676 3.154 6.325 5.58 10.22 13.1 14.84 20.14 0.9731 1.456 1.46 3.154 2.189 4.852 4.379 10.19 7.055 21.11 9.244 32.03 1.703 8.977 3.162 17.95 2.919 27.42 0 4.61 0.2433 9.22 1.703 13.83 0.9731 2.669 0.4865 5.823 0.4865 8.734-0.2433 10.19-0.2433 20.38-0.4865 30.57-0.2433 9.948 1.46 19.9 2.676 29.6 0.2433 2.426 0.7298 5.095 0.7298 7.521 0 4.367 0.7298 8.492 1.946 12.62 1.703 6.793 3.649 13.59 6.082 20.14 1.216 3.639 0.9731 6.793-2.189 9.462-2.433 2.184-4.136 4.61-4.622 8.007-0.2433 0.9705-0.4865 1.941-1.216 2.669-0.9731 1.213-2.189 2.184-4.136 1.698-0.9731-2.669-0.7298-5.338-0.4865-8.007 0.2433-4.367-1.46-8.007-2.919-11.89-0.9731-2.426-2.919-4.125-5.838-4.367-0.7298 0-1.46-0.2426-2.433-0.2426-1.216-2.669-2.189-5.338-3.406-8.007-1.946 1.698-2.189 4.125-2.676 6.308-2.189 7.279-4.136 14.56-6.325 21.84-1.703 6.066-6.325 9.705-11.92 12.13-3.649 1.698-7.541 1.698-11.19-0.7279-0.2433-0.2426-0.7298-0.2426-0.9731-0.4852-5.109-3.639-10.46-3.639-16.06-1.941-4.379 1.456-8.028 0.2426-11.43-2.426-1.216-0.9705-2.189-1.941-3.892-3.397 1.216-0.4852 2.189-0.9705 2.919-0.9705 5.838-0.7279 10.46-4.367 15.33-7.279 1.216-0.7279 1.946-1.941 2.676-3.154 4.865-8.977 10.22-17.71 12.89-27.66 1.46-5.338 2.433-10.68 3.406-16.01 1.216-7.036 2.676-14.31 2.433-21.59 2.189-13.1 1.46-26.2 1.216-39.06-0.2433-9.462-0.2433-19.17-0.9731-28.63-0.7298-8.007-1.946-15.77-5.109-23.29-0.9731-2.426-1.703-5.095-2.676-7.521-0.7298 5.338 1.703 10.43 1.46 16.01-0.9731-0.4852-1.46-0.4852-1.946-0.9705-2.676-2.669-5.838-4.61-8.514-7.036-5.595-4.852-12.41-7.279-18.97-10.19-6.568-2.911-13.38-5.58-19.95-8.492-4.865-2.184-9.487-4.61-12.41-9.948-0.9731-4.125 0.9731-8.249 2.433-12.37 0.4865-1.213 1.216-2.426 1.46-3.882 0.2433-3.154-0.4865-5.823-3.892-7.036-0.2433-9.462-0.4865-18.44-0.7298-27.66 0-1.213-0.2433-2.426-0.4865-3.397-0.2433-0.4852-0.9731-0.9705-1.216-1.456-1.703 0.4852-1.703 1.456-1.703 2.426v15.29c0 0.7279 0.2433 1.456 0.4865 2.184 1.46 3.882 1.216 7.521 0 11.4-0.2433 0.4852-0.2433 1.213-0.2433 2.184 1.46 0.9705 2.919 2.184 4.136 3.397 0.7298 1.941-0.4865 3.154-1.216 4.367-1.703 2.911-2.919 5.823-1.703 9.462 0.7298 2.426-1.703 6.793-3.892 8.007-2.676 1.456-5.595 2.669-8.514 3.882-4.379 1.698-8.758 3.154-13.14 4.852-9.731 4.125-17.76 9.948-22.38 19.41-0.2433 0.7279-0.7298 1.213-1.216 1.941 0 0-0.2433 0-0.7298 0.2426-0.7298-2.426-0.2433-4.852 0.4865-7.279 1.216-4.367 2.433-8.734 3.649-12.86 0.2433-0.7279 0-1.698-0.2433-2.911-2.189 1.213-2.676 2.911-3.162 4.61-1.703 4.367-3.162 8.734-4.865 13.1-0.7298 1.941-0.7298 3.882-1.216 5.823-1.703 8.492-2.189 16.98-2.919 25.48 0 1.456 0 2.669 0.2433 4.125 0.9731 5.338 0.9731 10.43 0 15.77-0.2433 1.941-0.2433 3.882-0.2433 5.823 0 2.911 0.4865 5.823 0.4865 8.734 0 10.92 1.46 21.84 3.406 32.51 0.9731 5.095 0.9731 10.19 1.703 15.04 1.216 8.492 3.649 16.74 7.055 24.75 0.7298 1.941 1.703 3.882 2.433 6.066 2.433 7.764 6.325 14.8 11.19 21.11 0.9731 1.213 1.946 2.426 1.216 4.125 1.703 1.213 3.406 2.669 5.109 3.639 1.46 0.9705 3.162 1.698 5.352 2.911-2.189 1.456-4.379 1.941-6.325 2.184-1.216 0.2426-2.433 0-3.406 0.2426-6.568 1.698-12.89 0.7279-18.73-2.184-3.892-1.698-6.812-3.397-7.785-6.793 1.703-0.9705 2.676 2.426 5.109 0.9705-1.946-3.639-3.892-7.036-5.595-10.68-1.946-3.882-3.406-7.764-5.109-11.89-1.703-3.639-1.946-7.764-4.136-11.89-0.4865 1.213-0.7298 1.698-0.9731 1.941-0.4865 3.639 0 7.036 1.46 10.43 2.189 5.338 4.379 10.43 6.812 15.53 0.7298 1.941 1.46 3.639 2.433 5.58zm136.4-11.9c4.136-11.16 8.271-22.32 12.65-33.48 2.189-5.58 3.649-11.4 4.622-17.47 0.2433-1.456 0.4865-3.154 0.7298-4.61 3.649-17.95 5.109-36.39 4.865-54.59 0-3.397 0-6.551-0.2433-9.948 0-1.456 0-2.669-0.2433-4.125-1.216-5.095-1.946-10.43-1.703-15.77 0-1.698-0.2433-3.397-2.189-5.095v16.5c0 4.125 0.4865 8.249 0.4865 12.37v26.93c0 4.367-0.2433 8.492-0.9731 12.86-0.9731 7.036-2.189 14.31-3.406 21.35-1.216 8.007-3.162 15.77-5.838 23.29-2.919 8.977-5.595 17.95-8.514 26.93-0.2433 1.456-0.7298 3.154-0.2433 4.852-0.2433 0.2426-0.4865 0.4852-0.7298 0.7279 0.2433-0.2426 0.4865-0.4852 0.7298-0.7279zm-15.33-4.852c0.4865-0.2426 0.9731-0.4852 1.216-0.7279 1.946-3.154 3.649-6.551 4.622-10.19 2.676-9.705 5.352-19.17 8.271-28.63 3.892-11.89 6.325-24.26 8.758-36.39 0.2433-1.698 0.2433-3.397 0.4865-5.338 0.4865-18.68-0.7298-37.36-2.433-56.05 0-0.4852-0.2433-0.9705-0.4865-1.456-1.46 0.4852-1.46 1.456-1.46 2.426-0.2433 4.367-0.2433 8.492-0.2433 12.86 0 14.07 0.2433 28.14 0.2433 42.22 0 1.456 0 3.154-0.2433 4.61-1.703 8.492-3.162 16.98-5.352 25.23-2.919 11.65-6.082 23.29-9.244 35.18-1.216 4.367-2.433 8.734-3.649 12.86-0.7298 1.213-1.216 2.184-0.4865 3.397zm-138.4-127.8c-0.4865 0-0.7298 0-1.216-0.2426-9.487 25.72-7.541 52.16-4.136 78.85 0 0.7279 0.2433 1.456 1.46 1.213 0-0.4852 0.2433-0.9705 0.2433-1.698-0.9731-15.29-1.46-30.33-0.9731-45.61 0.2433-7.521 1.46-15.04 2.676-22.56 0.4865-3.397 1.216-6.551 1.946-9.948zm10.46-33.5c-0.7298 0.4852-1.216 0.7279-1.46 1.213-1.216 1.698-1.216 3.639-1.216 5.58 0 2.426-0.2433 5.095-0.4865 7.521-0.2433 3.154-0.7298 6.308-0.7298 9.22-0.2433 3.882 0 7.764 0 11.65 0.2433 10.68 0.7298 21.35 1.216 32.27 0.4865-0.4852 0.7298-0.9705 0.7298-1.456 0.2433-14.56 0.2433-28.87 0.4865-43.43 0-2.426 0.4865-4.61 0.4865-7.036 0.2433-2.426 0.2433-5.095 0.4865-7.521 0.2433-2.184 0.4865-4.125 0.7298-6.308 0.2433-0.4852 0-0.9705-0.2433-1.698z"/>
    <path d="m113.6 76c0.9699 1.215 1.697 1.7 1.94 2.429 1.455 2.672 3.88 4.13 6.547 5.587 7.759 4.373 16 7.288 24 10.93 4.364 1.943 9.214 3.401 13.09 6.073 6.062 4.13 12.12 8.259 16.73 14.33 0.7274 0.9717 1.455 1.943 1.455 3.158 0.7274 4.615 1.94 9.231 1.697 13.85 0 3.887 0.4849 7.773 0.4849 11.66 0 1.943 0.2425 3.887 0.4849 5.83v22.35c0 3.401-0.7274 6.073-2.667 8.745-2.667 3.644-5.092 7.531-7.759 10.93-3.637 5.101-7.517 9.96-11.64 14.82-1.697 1.943-3.879 3.644-6.062 5.344-1.697 1.458-3.637 2.429-5.092 3.887-3.88 3.644-8.486 5.83-13.58 7.773-5.819 2.429-11.4 2.672-17.22 1.943-3.395-0.4858-6.789-1.458-10.18-2.672-9.214-3.644-18.19-7.773-27.16-12.63-2.91-1.458-5.577-3.401-8.486-5.344-0.7274-0.4858-0.9699-1.215-1.455-1.7-0.7274-0.9717-1.455-2.186-2.425-3.158-3.152-3.401-5.819-6.802-5.092-11.9 0.2425-1.458-0.9699-2.915-1.212-4.373-1.212-5.344-1.697-10.69-1.94-16.28-0.2425-11.42 0.7274-22.59 1.212-34.01 0.2425-4.13 0.4849-8.259 0.7274-12.39 0-1.943 0.4849-3.644 1.697-5.587 2.667-4.373 4.849-8.988 7.517-13.12 1.94-2.915 4.122-5.587 6.789-8.016 4.34-3.71 9.43-6.63 15-8.57 7.76-2.43 15.49-4.86 22.59-9.72zm34.67 102.8c-6.062-0.9717-11.64-1.215-17.22-0.4858-5.092 0.4858-9.941 1.458-15.03 1.943-8.486 0.7288-16.97 1.7-25.7 1.215-1.212 0-2.425 0.2429-3.395 0.4858-0.4849 0.2429-0.9699 0.7288-1.697 1.215 1.697 1.215 3.395 1.943 4.364 3.401 3.395 4.858 7.032 9.231 11.64 12.87 2.667 2.186 5.577 3.401 8.971 3.644 3.637 0.2429 7.274 0.2429 11.15 0.2429 4.607 0 8.244-1.943 11.15-5.344 1.455-1.458 3.152-2.915 4.607-4.373 3.152-2.915 6.789-5.344 8.001-9.717 0.7274-1.943 2.182-2.672 3.152-5.101zm-70.38-32.4c-0.2425 3.158-0.2425 5.587-0.2425 8.259 0 1.458 0.7274 2.915 2.425 2.915 2.91 0.4858 6.062 1.458 8.244-0.7288 2.182-2.429 1.212-5.587 0.7274-8.259-0.2425-0.9717-0.7274-1.7-1.455-2.672-0.4849-0.7288-0.9699-1.215-1.697-1.458-2.91-1.215-5.819-2.186-8.971-1.7-1.455 0.2429-2.667 0.7288-3.637 1.7-0.2425 0.4858-0.4849 1.215-0.4849 1.458 0.2425 0.4858 0.7274 0.9717 1.212 0.9717 1.212 0 2.425-0.2429 3.879-0.4858zm32.01-8.259c-0.7274 1.458-1.212 2.186-1.455 2.915-0.4849 4.13-0.7274 8.259-0.9699 12.15-0.2425 4.13 0 8.259-2.182 11.9-0.7274 1.215-0.4849 3.158 0.2425 4.373 1.455 3.401 6.547 4.858 10.18 3.401 0.4849-0.2429 1.212-0.9717 1.212-1.215 0-0.7288-0.4849-1.458-0.9699-1.943-1.697-0.7288-3.395-1.458-5.092-1.943 0.4849-3.644 0.9699-6.802 1.212-10.2 0.2425-3.158 0-6.316-0.2425-9.474-0.4849-2.915-0.2425-6.316-1.94-9.96zm39.76 6.559c1.212 0 2.182 0.2429 2.91 0.2429 1.212 0 1.94-1.458 1.212-2.672-0.7274-0.9717-1.455-1.7-2.91-1.7-2.425 0-4.607 0-7.032-0.2429-2.667 0-4.849 0.9717-5.577 3.401-0.9699 2.672-1.212 5.587 0.4849 8.502 0.2425 0.2429 0.4849 0.4858 0.7274 0.7288 3.637 2.429 8.729 0.2429 9.456-4.13 0.7274-1.458 0.7274-2.672 0.7274-4.13zm-17.7-21.62c0.2425 0.2429 0.4849 0.7288 0.7274 0.9717 1.455-0.2429 2.91-0.4858 4.364-0.7288 8.486-1.943 16.73-3.158 25.22-0.4858 0.4849 0.2429 1.212-0.2429 2.425-0.4858-0.7274-0.9717-1.212-1.7-1.697-2.186-2.182-1.215-4.607-2.186-7.274-2.186h-7.517c-4.849 0-9.456 1.458-14.06 2.915-0.9699 0.4858-1.455 1.458-2.182 2.186zm-64.98 1.458c2.425 0.7288 3.637 1.458 4.849 1.215 5.819-1.215 11.4-0.7288 17.22 0 1.94 0.2429 3.637 0.2429 6.062 0.2429-0.7274-2.186-2.182-2.672-3.637-2.915-4.607-1.215-9.456-1.7-14.31-1.7-3.152 0.2429-6.062 0.9717-10.18 3.158zm45.58 83.32c2.667 2.915 6.062 2.672 8.971 2.429 3.152-0.4858 6.304-1.458 8.486-4.373-1.697-1.215-3.152-0.4858-4.607 0-3.152 1.215-6.304 1.943-9.699 1.7-0.7274 0-1.94 0.2429-3.152 0.2429z"/>
    <path d="m83.9 282.6c3.415-1.218 6.587-2.192 9.758-3.166 2.683-0.9741 4.879-2.679 6.587-4.871 0.244-0.4871 0.7318-0.9742 0.7318-1.461 0-0.7306-0.244-1.461-0.7318-2.192-0.244-0.2435-1.22-0.4871-1.708-0.2435-2.927 2.435-5.611 0.9742-8.05-0.7306-4.391-3.653-8.05-8.037-10.49-13.15 3.415-1.705 6.343 0 9.514 0.4871 0.7318 0.7306 1.464 1.705 2.196 2.679 4.635 6.332 11.22 10.23 18.54 12.66 4.147 1.461 8.294 2.192 12.69 2.192 3.659 0.2435 7.074-0.7306 10-2.679 2.439-1.461 4.879-2.435 7.806-3.166 0.9758 1.461 2.196 2.922 2.683 4.627 0.9758 2.679 2.927 4.14 5.367 5.114 1.952 0.7306 4.147 1.461 6.099 2.192 0 0.4871 0.244 1.218 0 1.705-3.659 8.28-9.27 14.61-17.56 18.02-3.903 1.461-7.318 3.653-11.47 4.627-1.952 0.4871-3.903 0.9742-5.855 0.7306-8.05-1.218-15.86-2.192-22.93-6.332-3.903-2.192-7.562-4.871-9.514-9.254-0.7318-1.461-1.708-2.679-2.439-3.897-0.4879-1.705-0.7318-2.679-1.22-3.897z"/>
    <path d="m163.1 247.6c-5.839 0.7237-10.46 4.342-16.54 3.136-0.2433-2.171-0.2433-4.101-0.4866-6.272s-0.7299-4.101-0.9732-6.272c-0.4866-2.895-0.9732-3.619-4.136-3.619h-2.919c-0.7299 0-1.46-0.2412-2.19-0.2412-0.9732-2.654-0.9732-2.654-0.7299-5.066 0.2433-0.2412 0.4866-0.7237 0.9732-0.7237 5.109-0.9649 8.758-3.86 12.41-7.237 0.4866-0.4825 0.9732-0.7237 1.46-0.9649 10.95-6.755 18.49-16.65 25.55-27.02 0.9732-1.447 1.946-2.895 3.163-4.342 1.216 3.86 1.703 7.478 0.9732 10.13-2.433 9.408-4.866 18.82-7.299 27.98-1.946 7.237-5.596 13.51-9.245 20.5z"/>
    <path d="m77.95 253c-2.437-2.203-2.925-4.895-4.143-7.342-1.219-3.182-2.437-6.118-3.899-9.3-2.925-6.363-5.118-13.22-6.58-20.07-0.7311-2.937 0-6.118 0-9.3 1.95-0.2447 2.925 1.224 3.899 2.203 3.412 4.405 7.555 7.587 12.67 9.789 8.043 3.182 15.6 7.097 23.64 10.52 1.219 2.447 0.9748 5.139 1.462 7.831-1.462 0.7342-2.681 1.713-4.143 2.203-1.95 0.9789-3.168 2.447-2.925 4.65 0.4874 3.671-1.219 6.363-2.437 9.055-3.412 1.958-5.849-0.7342-8.774-0.4895-3.168 0.4895-6.093 0.2447-8.774 0.2447z"/>
    <path d="m102.8 243.3c3.178-1.222 4.156-0.9779 5.134 0.9779 0.4889 1.222 0.7334 2.689 1.222 3.912 0.9778 2.689 2.445 3.178 4.889 1.711 0.7334-0.489 1.711-0.9779 2.689-1.711 0.9778 1.222 1.711 2.2 2.445 3.178 1.467 1.711 2.689 1.956 4.4 0.489 0.4889-0.2445 0.7334-0.7334 1.222-1.222 0.4889-0.489 0.9778-0.7334 1.222-0.9779 0.4889 0 0.9778-0.2445 1.222 0 1.467 0.2445 2.934 1.467 4.4 0.2445 1.711-1.222 3.422-2.445 3.178-4.645 0-2.689 1.467-4.401 2.689-6.356 0.7334-1.222 0.7334-0.9779 3.667-0.489-0.2445 3.667 1.467 7.09 0.2445 11.25 0.7334 0.489 1.467 0.9779 2.2 1.711 1.711 1.956 1.711 3.667 0.4889 5.867-2.2 3.667-5.378 6.112-8.801 8.312-1.467 0.9779-2.934 1.711-4.645 2.689-4.4 2.689-9.045 3.423-14.18 2.2-1.711-0.489-3.422-0.9779-5.134-1.222-5.378-1.222-10.02-3.423-13.2-8.068-0.9778-1.222-1.956-2.445-3.178-3.912 2.689-1.467 4.645-3.178 5.623-5.867 2.2-5.134 2.445-4.89 2.2-8.068z"/>
    <path d="m132 231c-0.24 3.449 0.48 6.406-1.2 9.609-0.96 1.725-0.96 3.696-1.2 5.913-2.64 0.4928-5.52 0.9855-8.64 1.478 0 0-0.48 0-0.72-0.2464-4.08-3.449-4.08-3.449-9.36-1.725-1.44-2.217-0.48-4.928-0.96-7.391-0.48-2.217-1.2-4.435-1.92-7.391 8.16 0.9855 15.6 1.478 24-0.2464z"/>
    <path d="m147 263.3c1.25-2.244 2.25-4.489 3.5-6.733 0-0.2494 0.25-0.2494 0.5-0.4988 2.75-1.746 5.75-3.242 10-2.993-1 1.247-1.5 2.244-2.25 2.743-3.5 2.743-7 5.736-10.75 8.23-0.5-0.2494-0.75-0.4988-1-0.7481z"/>
    <path d="m141 183c-1.937 4.673-4.358 8.116-7.989 10.82-1.937 1.476-3.389 3.197-4.842 4.919-1.695 1.722-3.389 2.459-5.811 2.214-4.6-0.4919-9.2-0.9838-13.8-1.722-1.211-0.2459-2.421-0.7378-3.147-1.476-3.632-3.443-7.989-6.149-10.41-11.07 0.4842-1.23 1.695-0.7378 2.421-0.4919 1.453 0.4919 2.663 1.476 4.116 1.968 9.442 2.951 18.88 3.935 28.08-1.23 0.9684-0.4919 2.179-1.23 3.147-1.23 2.179-0.2459 4.116-1.23 5.568-2.705h2.663z"/>
    <path d="m127 183.2c-2.857 2.95-9.524 3.372-20 2.318 0.4762-0.4215 0.7143-0.843 1.19-1.054 1.19-0.2107 2.143-0.4215 3.333-0.4215 4.048-0.4215 8.095-0.6322 11.9-0.843 1.19-0.2107 2.381-0.2107 3.571 0z"/>
   </g>
   <g fill="#3c3c3c">
    <path d="m39.08 258.5c-2.184-0.485-3.883-0.9701-5.582-1.213-4.369-0.9701-7.039 0.7276-7.039 5.335-0.2427 5.578-0.2427 11.4 0.9709 16.98 1.699 8.003 2.913 16.01 4.369 24.25 0.4854 3.395 0.4854 7.033 0.9709 10.43 0.4854 4.85 1.214 9.701 2.184 14.55 0.9709 4.85 1.214 9.701 0.7282 14.55 0 0.7276-0.4854 1.455-0.7282 2.668-0.9709-0.9701-1.699-1.455-1.699-1.94-3.155-8.973-5.582-17.95-5.825-27.4-0.2427-8.488-1.699-16.73-2.913-24.98-0.7282-4.608-1.699-9.216-2.427-13.82-0.2427-1.94-0.2427-3.88-0.4854-5.82v-6.063c-0.9709-1.455-2.184-0.9701-2.913-0.9701-3.155 0.2425-6.068-0.2425-8.738-2.183-2.184-1.455-4.854-2.668-7.282-3.638-1.942-0.7-2.67-2.2-2.67-4.1 0.2427-1.94 0.4854-3.88 0.9709-5.82 1.456-4.85 3.641-9.458 6.311-13.82 1.699-2.91 3.155-5.82 3.883-9.216 2.184-8.731 5.34-17.22 6.311-26.19 0.7282-7.276 0.4854-14.31 0.7282-21.58 0-0.485 0-1.455-0.4854-1.698-2.184-1.94-1.699-4.608-1.699-7.033-0.2427-22.07-0.4854-44.14-0.7282-66.21 0-6.791 0.4854-13.58 2.67-20.13 3.155-10.19 6.068-20.61 7.524-31.29 0.4854-2.91 1.699-5.578 3.155-8.003 3.9-6.83 8.76-13.13 14.34-18.71 7.04-7.28 14.81-13.34 24.76-16.01 4.61-1.21 8.98-2.423 13.59-3.636 6.31-1.455 12.86-0.97 19.19-0.727 1.456 0 2.67 0 4.126 0.2425 3.155 0.485 6.068-0.2425 8.738-2.425 2.913-2.668 6.553-3.153 10.44-2.668 1.942 0.2425 3.883 0.485 5.825 0.485 12.62 0 24.76 2.91 35.92 8.973 5.097 2.91 10.19 5.82 15.05 9.216 3.883 2.91 7.524 6.306 10.92 9.701 3.883 4.123 7.767 8.246 11.41 12.61 2.184 2.668 3.883 5.82 6.068 8.731 4.854 6.548 7.767 13.82 10.19 21.58 0.7282 2.668 1.699 5.093 3.398 7.276 1.942 2.425 2.913 5.578 3.398 8.731 2.913 17.22 4.612 34.44 3.883 51.9-0.4854 8.731 0.2427 17.46 0.2427 26.43 0 2.668 0.2427 5.578 0.2427 8.246-0.2427 11.16 1.214 22.07 3.155 33.23 0.2427 2.183 0.4854 4.365 0.4854 6.306 0 4.123 0.7282 8.003 1.699 12.13 1.456 6.306 3.398 12.37 5.582 18.43 1.214 3.638 0.7282 7.276 0 10.91-0.2427 1.455-1.699 2.91-2.913 4.365-1.456 1.94-3.398 3.153-3.883 5.82-1.456 5.578-4.369 9.701-10.44 9.701-1.214 9.458-2.427 18.19-3.883 27.16-0.2427 2.425-0.7282 5.093-1.456 7.518-1.942 7.276-3.641 14.31-5.825 21.34-0.9709 3.395-2.427 6.548-3.641 9.943-0.4854 0.9701-1.699 1.455-2.427 2.183-1.699-1.698-1.942-3.153-1.456-5.093 2.184-8.246 4.369-16.49 6.553-24.98 3.398-13.82 5.582-27.89 5.582-42.2v-6.548c0.2427-4.608-0.4854-8.973-2.67-13.1-1.699-0.9701-3.398-0.9701-5.34-0.485-2.913 4.608-4.854 9.458-6.068 14.55-1.214 4.85-3.883 8.973-7.282 12.61-0.7282 0.9701-2.184 2.183-3.398 2.183-2.913 0-5.34 1.213-7.767 1.94-3.155 0.9701-6.068 0.9701-8.981-0.9701-2.427-1.698-5.097-2.668-7.282-3.88-3.641 0.485-5.825 2.183-7.282 5.093-0.7282 1.455-1.699 2.668-2.427 4.123-4.369 9.216-11.65 15.52-20.87 19.4-1.942 0.7276-3.883 1.698-5.825 2.668-3.883 1.455-7.767 2.668-11.89 1.698-5.582-0.9701-11.16-1.94-16.5-3.638-8.01-2.425-13.35-8.003-17.96-14.31-1.456-1.94-2.427-4.123-3.398-6.063-1.699-2.91-2.67-3.153-6.068-1.94-4.369 1.455-8.495 1.455-12.14-1.698-2.184-1.94-4.369-3.88-6.311-6.063-0.9709-0.9701-1.942-1.698-3.398-1.698-3.641-0.2425-5.825-2.425-7.767-5.578-3.155-3.88-5.582-7.276-7.767-10.67zm17.48 10.43c0.9709 3.395 3.883 5.335 7.039 6.791 6.068 2.91 12.14 4.123 18.69 2.183 1.214-0.2425 2.427 0 3.398-0.2425 2.184-0.2425 4.126-0.7276 6.311-2.183-2.184-1.213-3.883-1.94-5.34-2.91l-5.097-3.638c0.9709-1.698-0.2427-2.91-1.214-4.123-4.854-6.306-8.738-13.34-11.16-21.1-0.7282-1.94-1.699-3.88-2.427-6.063-3.398-8.003-5.825-16.25-7.039-24.74-0.7282-5.093-0.7282-10.19-1.699-15.04-1.942-10.67-3.398-21.58-3.398-32.5 0-2.91-0.2427-5.82-0.4854-8.731 0-1.94 0-3.88 0.2427-5.82 0.7282-5.335 0.7282-10.43 0-15.76-0.2427-1.213-0.2427-2.668-0.2427-4.123 0.7282-8.488 1.214-17.22 2.913-25.46 0.4854-1.94 0.4854-3.88 1.214-5.82 1.456-4.365 3.155-8.731 4.854-13.1 0.4854-1.698 1.214-3.153 3.155-4.608 0 1.213 0.4854 2.183 0.2427 2.91-1.214 4.365-2.427 8.731-3.641 12.85-0.7282 2.425-1.214 4.85-0.4854 7.276 0.4854 0 0.7282 0 0.7282-0.2425 0.4854-0.7276 0.9709-1.213 1.214-1.94 4.854-9.701 12.86-15.52 22.33-19.4 4.369-1.698 8.738-3.153 13.11-4.85 2.913-1.213 5.825-2.425 8.495-3.88 2.184-1.213 4.612-5.578 3.883-8.003-0.9709-3.638 0-6.548 1.699-9.458 0.7282-1.455 1.942-2.425 1.214-4.365-1.214-0.9701-2.913-2.183-4.126-3.395 0-0.9701 0-1.455 0.2427-2.183 1.214-3.88 1.456-7.518 0-11.4-0.2427-0.7276-0.4854-1.455-0.4854-2.183v-15.28c0-0.9701 0.2427-1.94 1.699-2.425 0.2427 0.485 0.9709 0.7276 1.214 1.455 0.2427 1.213 0.4854 2.183 0.4854 3.395 0.2427 9.216 0.4854 18.19 0.7282 27.65 3.398 1.213 3.883 3.88 3.883 7.033 0 1.213-0.9709 2.425-1.456 3.88-1.699 4.123-3.398 8.246-2.427 12.37 3.155 5.093 7.524 7.761 12.38 9.943 6.553 2.668 13.35 5.578 19.9 8.488 6.553 2.91 13.35 5.335 18.93 10.19 2.67 2.425 5.825 4.365 8.495 7.033 0.2427 0.2425 0.9709 0.485 1.942 0.9701 0.2427-5.578-2.184-10.67-1.456-16.01 1.214 2.425 1.699 5.093 2.67 7.518 3.155 7.518 4.369 15.28 5.097 23.28 0.7282 9.458 0.7282 19.16 0.9709 28.62 0.4854 13.1 1.214 26.19-1.214 39.05 0.2427 7.276-1.214 14.31-2.427 21.58-0.9709 5.335-1.942 10.67-3.398 16.01-2.67 9.943-8.01 18.67-12.86 27.65-0.7282 1.213-1.456 2.425-2.67 3.153-4.854 2.91-9.223 6.548-15.29 7.276-0.9709 0-1.699 0.485-2.913 0.9701 1.456 1.455 2.67 2.425 3.883 3.395 3.398 2.668 7.039 3.88 11.41 2.425 5.582-1.698 11.16-1.698 16.02 1.94 0.2427 0.2425 0.7282 0.2425 0.9709 0.485 3.641 2.425 7.282 2.425 11.16 0.7276 5.582-2.425 9.951-6.063 11.89-12.13 2.184-7.276 4.126-14.55 6.311-21.83 0.7282-2.183 0.9709-4.608 2.67-6.306 1.214 2.668 2.184 5.335 3.398 8.003 0.7282 0 1.699 0.2425 2.427 0.2425 2.913 0.2425 4.854 1.94 5.825 4.365 1.456 3.88 3.155 7.518 2.913 11.88 0 2.668-0.4854 5.335 0.4854 8.003 1.942 0.485 3.155-0.485 4.126-1.698 0.4854-0.7276 0.9709-1.698 1.214-2.668 0.7282-3.153 2.427-5.82 4.612-8.003 3.155-2.668 3.398-6.063 2.184-9.458-2.427-6.548-4.369-13.34-6.068-20.13-0.9709-4.123-1.699-8.488-1.942-12.61 0-2.425-0.4854-5.093-0.7282-7.518-1.456-9.943-2.913-19.64-2.67-29.59 0.2427-10.19 0.4854-20.37 0.4854-30.56 0-2.91 0.4854-6.063-0.4854-8.731-1.456-4.608-1.699-9.216-1.699-13.82 0-9.216-1.214-18.19-2.913-27.4-2.184-10.91-4.854-21.83-9.223-32.01-0.7282-1.698-1.214-3.395-2.184-4.85-4.612-7.033-8.495-14.55-14.81-20.13-0.9709-0.9701-1.942-1.94-2.67-3.153-5.825-7.276-12.62-13.34-20.39-18.19-3.398-2.183-7.039-4.123-10.68-6.063-8.01-4.365-16.75-6.063-25.73-7.518-4.854-0.7276-9.709-0.485-14.56-0.7276-1.214 0-2.427 0.2425-3.398 0.485-1.214 0.2425-1.456 1.455-0.2427 2.668 0.4854 0.485 1.456 0.7276 0.9709 1.698-0.2427 0.2425-0.7282 0.485-0.9709 0.485-7.039 0.2425-14.08 0.485-21.12 0.2425-9.951-0.2425-19.42 2.183-28.64 5.578-3.883 1.455-7.282 3.638-10.68 6.063-6.553 4.85-11.89 10.67-16.75 16.98-3.641 4.85-7.282 9.701-8.495 15.76-0.2427 1.213-0.9709 2.183-1.214 3.153-0.7282 1.698-1.456 3.638-1.942 5.578-2.427 8.973-4.854 18.19-7.039 27.16-0.2427 1.213-0.7282 2.668-0.7282 4.123 0 5.335 0.2427 10.43 0.4854 15.76 0.2427 3.395 0.4854 6.548 0.4854 9.943 0.2427 7.518 0.2427 14.79 0.4854 22.31 0.2427 8.246 0.9709 16.49 0.4854 24.49-0.4854 8.731 0 17.46 0 26.19 0 2.668-0.2427 5.335-0.4854 8.246-0.9709 8.973-3.398 17.46-5.825 26.19-0.9709 3.395-2.184 6.548-4.126 9.701-2.67 4.608-4.854 9.216-6.553 14.31-0.2427 0.9701-0.2427 1.94-0.2427 2.668 1.699 2.91 4.854 2.91 7.039 4.608 2.913 2.183 6.311 2.668 10.19 2.425 0.4854-1.213 0.9709-2.183 1.214-3.153 0.9709-2.91 2.913-4.608 5.825-5.093 1.456-0.2425 3.155-0.2425 4.612-0.2425 0.9709 0 1.699 0 3.398 0.2425-1.456-3.153-2.913-5.82-3.883-8.488-1.942-5.578-4.612-10.91-5.582-16.49-1.214-6.063-0.9709-12.37-1.456-18.67 0-1.213 0-2.425 0.2427-3.395 0-0.485 0.7282-0.9701 1.699-1.94 0.2427 2.183 0.4854 3.395 0.4854 4.85 0 5.335 0.2427 10.43 2.427 15.52 0.7282 1.698 0.9709 3.88 1.214 5.82 0.7282 4.365 1.942 8.731 3.883 12.85 1.214 2.91 2.67 5.578 3.883 8.488 1.699 3.88 1.699 3.88 6.311 5.578 3.155 5.093 7.039 9.458 12.38 12.37zm56.54-192.6c-7.039 4.85-14.56 7.276-22.09 9.943-5.582 1.94-10.68 4.85-15.05 8.731-2.67 2.183-4.854 5.093-6.796 8.003-2.67 4.123-4.854 8.973-7.524 13.1-0.9709 1.698-1.456 3.395-1.699 5.578-0.2427 4.123-0.2427 8.246-0.7282 12.37-0.7282 11.4-1.699 22.55-1.214 33.95 0.2427 5.578 0.7282 10.91 1.942 16.25 0.2427 1.455 1.456 2.91 1.214 4.365-0.4854 5.093 1.942 8.488 5.097 11.88 0.9709 0.9701 1.699 2.183 2.427 3.153 0.4854 0.7276 0.9709 1.213 1.456 1.698 2.67 1.94 5.582 3.88 8.495 5.335 8.738 4.608 17.72 8.973 27.18 12.61 3.155 1.213 6.796 2.183 10.19 2.668 5.825 0.7276 11.41 0.485 17.23-1.94 4.854-1.94 9.466-4.123 13.59-7.761 1.456-1.455 3.641-2.425 5.097-3.88 2.184-1.698 4.369-3.395 6.068-5.335 4.126-4.85 7.767-9.701 11.65-14.79 2.67-3.638 5.097-7.518 7.767-10.91 1.942-2.668 2.913-5.335 2.67-8.731-0.2427-7.518 0-14.79 0-22.31 0-1.94-0.2427-3.88-0.4854-5.82-0.2427-3.88-0.7282-7.761-0.4854-11.64 0.2427-4.85-0.9709-9.216-1.699-13.82-0.2427-1.213-0.7282-2.183-1.456-3.153-4.612-6.063-10.68-10.43-16.75-14.31-4.126-2.668-8.738-4.123-13.11-6.063-8.01-3.395-16.26-6.548-24.03-10.91-2.67-1.455-5.097-2.91-6.553-5.578-0.7282-0.9701-1.456-1.455-2.427-2.668zm-29.36 205.7c0.4854 1.213 0.7282 2.183 1.214 3.153 0.7282 1.455 1.942 2.668 2.427 3.88 1.942 4.365 5.34 7.033 9.466 9.216 7.039 4.123 15.05 5.093 22.82 6.306 1.942 0.2425 3.883-0.2425 5.825-0.7276 4.126-0.9701 7.524-2.91 11.41-4.608 8.495-3.395 14.08-9.701 17.48-17.95 0.2427-0.485 0-0.9701 0-1.698-2.184-0.7276-4.126-1.455-6.068-2.183-2.427-0.9701-4.369-2.425-5.34-5.093-0.4854-1.698-1.699-2.91-2.67-4.608-2.913 0.7276-5.34 1.698-7.767 3.153-2.913 1.94-6.311 2.91-9.951 2.668-4.369-0.2425-8.495-0.9701-12.62-2.183-7.282-2.425-13.83-6.306-18.45-12.61-0.7282-0.9701-1.456-1.698-2.184-2.668-3.155-0.485-6.068-2.183-9.466-0.485 2.67 5.335 6.068 9.701 10.44 13.1 2.184 1.94 5.097 3.153 8.01 0.7276 0.2427-0.2425 1.456 0 1.699 0.2425 0.4854 0.485 0.7282 1.455 0.7282 2.183 0 0.485-0.4854 0.9701-0.7282 1.455-1.699 2.183-3.883 3.88-6.553 4.85-3.155 1.698-6.311 2.91-9.709 3.88zm79.36-34.5c3.398-7.033 7.282-13.34 9.223-20.61 2.427-9.458 4.854-18.92 7.282-28.13 0.7282-2.668 0.2427-6.063-0.9709-10.19-1.214 1.455-2.184 2.91-3.155 4.365-7.039 10.43-14.56 20.13-25.49 27.16-0.4854 0.2425-0.9709 0.7276-1.456 0.9701-3.641 3.395-7.524 6.306-12.38 7.276-0.2427 0-0.4854 0.485-0.9709 0.7276-0.2427 2.425-0.2427 2.425 0.7282 5.093 0.7282 0 1.456 0.2425 2.184 0.2425h2.913c3.155 0.2425 3.641 0.7276 4.126 3.638 0.2427 2.183 0.7282 4.123 0.9709 6.306s0.2427 4.123 0.4854 6.306c6.068 0.9701 10.92-2.425 16.5-3.153zm-84.95 4.365c2.67 0 5.582 0.2425 8.495 0s5.582 2.425 8.738 0.485c0.9709-2.668 2.913-5.578 2.427-8.973-0.2427-2.183 0.9709-3.638 2.913-4.608 1.456-0.7276 2.67-1.455 4.126-2.183-0.4854-2.668-0.2427-5.335-1.456-7.761-7.767-3.638-15.53-7.276-23.54-10.43-5.34-2.183-9.466-5.335-12.62-9.701-0.9709-1.213-1.699-2.425-3.883-2.183 0 3.153-0.4854 6.306 0 9.216 1.699 6.791 3.641 13.58 6.553 19.89 1.456 2.91 2.67 6.063 3.883 9.216 1.214 2.183 1.942 4.85 4.369 7.033zm24.03-8.731c0.2427 2.91 0 2.91-1.942 8.003-0.9709 2.668-2.913 4.365-5.582 5.82 1.214 1.455 2.184 2.668 3.155 3.88 3.155 4.608 7.767 6.791 13.11 8.003 1.699 0.485 3.398 0.7276 5.097 1.213 5.097 1.455 9.709 0.485 14.08-2.183 1.456-0.9701 3.155-1.698 4.612-2.668 3.398-2.183 6.796-4.608 8.738-8.246 1.214-2.183 1.214-3.88-0.4854-5.82-0.4854-0.7276-1.456-1.213-2.184-1.698 1.214-4.123-0.2427-7.518-0.2427-11.16-2.913-0.485-3.155-0.485-3.641 0.485-1.214 1.94-2.67 3.638-2.67 6.306 0 2.183-1.699 3.395-3.155 4.608-1.699 1.213-2.913-0.2425-4.369-0.2425h-1.214c-0.4854 0.2425-0.9709 0.485-1.214 0.9701-0.4854 0.485-0.7282 0.9701-1.214 1.213-1.699 1.455-2.913 1.213-4.369-0.485-0.7282-0.9701-1.699-1.94-2.427-3.153-1.214 0.7276-1.942 1.213-2.67 1.698-2.427 1.455-4.126 0.9701-4.854-1.698-0.4854-1.213-0.4854-2.668-1.214-3.88-0.9709-1.698-2.184-1.94-5.34-0.9701zm30.34-12.85c-8.495 1.698-16.02 1.213-24.27 0.2425 0.7282 2.668 1.456 4.85 1.942 7.276 0.4854 2.425-0.4854 5.093 0.9709 7.276 5.097-1.698 5.097-1.698 9.466 1.698 0.2427 0.2425 0.7282 0.2425 0.7282 0.2425 3.155-0.485 5.825-0.9701 8.738-1.455 0.4854-2.183 0.4854-4.365 1.214-5.82 1.699-3.153 0.9709-6.063 1.214-9.458zm14.08 32.74l0.7282 0.7276c3.641-2.425 7.039-5.335 10.44-8.003 0.7282-0.485 1.214-1.455 2.184-2.668-4.126-0.2425-7.039 1.213-9.709 2.91-0.2427 0-0.2427 0.2425-0.4854 0.485-0.9709 2.183-2.184 4.365-3.155 6.548z"/>
    <path d="m63.71 353c-2.809-4.345-5.853-8.448-5.384-13.76-2.575-8.207-2.575-16.9-4.448-25.1-0.48-2.1-1.18-4.5-1.65-6.7-0.23-0.7-0.23-1.5-0.23-2.2 0-0.2414 0.4682-0.7241 0.7023-1.207 0.2341 0.4828 0.7023 0.7241 0.9364 0.9655 1.171 3.138 2.341 6.517 3.512 9.655 0.4682 1.207 1.17 2.414 1.405 3.862 1.405 7.241 2.809 14.72 4.448 22.21 0.7023 3.621 1.171 7.241 0.9364 10.86 0 0.4828-0.2341 0.9655-0.2341 1.448z"/>
    <path d="m39 124.2c-0.7087 3.384-1.417 6.768-1.89 10.15-0.945 7.494-2.362 14.99-2.599 22.48-0.4725 15.23 0 30.22 0.945 45.45 0 0.4835-0.2362 1.209-0.2362 1.692-1.181 0.2417-1.417-0.4835-1.417-1.209-3.307-26.35-5.434-52.7 4.016-78.56 0.4725-0.2417 0.945-0.2417 1.181 0z"/>
    <path d="m49.69 91c0.2202 0.7338 0.4404 1.223 0.2202 1.712-0.2202 2.201-0.4404 4.158-0.6606 6.36-0.2202 2.446-0.2202 5.137-0.4404 7.583s-0.4404 4.647-0.4404 7.094c-0.2202 14.68-0.2202 29.11-0.4404 43.78 0 0.4892-0.2202 0.9784-0.6606 1.468-0.4404-10.76-0.8809-21.53-1.101-32.53-0.2202-3.914-0.2202-7.827 0-11.74 0-3.18 0.4404-6.36 0.6606-9.295 0.2202-2.446 0.2202-5.137 0.4404-7.583 0-1.957 0.2202-3.914 1.101-5.626 0.2202-0.4892 0.6606-0.7338 1.321-1.223z"/>
    <path d="m56.86 269.5c-0.7346-1.712-1.469-3.424-2.449-5.381-2.204-5.137-4.653-10.52-6.857-15.65-1.469-3.424-1.714-6.849-1.469-10.52 0-0.4892 0.4898-0.9784 0.9795-1.957 2.204 4.158 2.449 8.316 4.163 11.99 1.714 3.914 3.428 8.072 5.143 11.99 1.714 3.669 3.673 7.093 5.632 10.76-2.449 1.223-3.428-2.201-5.143-1.223-0.2449-0.2446 0 0 0 0z"/>
    <path d="m148 178.9c-1.212 2.387-2.423 3.103-3.15 5.012-1.212 4.296-4.846 6.683-7.996 9.547-1.696 1.432-3.392 2.625-4.604 4.296-2.908 3.341-6.542 5.251-11.15 5.251-3.635 0-7.269-0.2387-11.15-0.2387-3.392-0.2387-6.3-1.432-8.965-3.58-4.604-3.58-8.481-7.876-11.63-12.65-0.9692-1.193-2.665-2.148-4.362-3.341 0.7269-0.4774 1.212-0.9547 1.696-1.193 1.212-0.2387 2.423-0.4774 3.392-0.4774 8.481 0.4774 16.96-0.716 25.68-1.193 5.088-0.4774 9.935-1.193 15.02-1.909 5.573-0.716 11.15-0.4774 17.2 0.4774zm-6.785 3.341c-1.212 0.2387-1.938 0-2.181 0.2387-1.696 1.432-3.392 2.387-5.573 2.625-1.212 0-2.181 0.716-3.15 1.193-9.208 5.012-18.66 4.058-28.11 1.193-1.454-0.4774-2.665-1.432-4.119-1.909-0.7269-0.2387-1.696-0.9547-2.423 0.4774 2.423 4.535 6.542 7.399 10.42 10.74 0.7269 0.716 1.938 1.193 3.15 1.432 4.604 0.716 9.208 1.193 13.81 1.671 2.423 0.2387 4.119-0.4774 5.815-2.148s3.15-3.58 4.846-4.774c3.15-2.864 5.573-6.206 7.512-10.74zm-14.05 0.9547c-1.212 0-2.423-0.2387-3.392-0.2387-4.119 0.2387-8.238 0.716-12.12 0.9547-1.212 0-2.423 0.2387-3.392 0.4774-0.4846 0-0.7269 0.716-1.212 1.193 10.42 1.432 17.2 0.9547 20.11-2.387z"/>
    <path d="m77.95 146.8c-1.457 0.2478-2.67 0.4957-3.642 0.4957-0.4855 0-1.214-0.4957-1.214-0.9914-0.2428-0.4957 0-1.239 0.4855-1.487 0.9711-1.239 2.185-1.487 3.642-1.735 3.156-0.4957 6.069 0.4957 8.982 1.735 0.7283 0.2478 1.214 0.9914 1.699 1.487 0.4855 0.7435 1.214 1.735 1.457 2.726 0.4855 2.974 1.457 6.196-0.7283 8.427-2.428 2.478-5.584 1.239-8.254 0.7435-1.457-0.2478-2.428-1.487-2.428-2.974-0.2428-2.478-0.2428-5.205 0-8.427z"/>
    <path d="m109.2 139c1.711 3.91 1.711 7.087 1.711 10.51 0.2444 3.177 0.4889 6.354 0.2444 9.53-0.2444 3.177-0.7334 6.598-1.222 10.26 1.711 0.7331 3.422 1.222 5.133 1.955 0.4889 0.2444 0.9778 1.222 0.9778 1.955 0 0.2444-0.7333 0.9775-1.222 1.222-3.667 1.466-8.8 0-10.27-3.421-0.4889-1.222-0.7334-3.421-0.2444-4.399 2.2-3.91 1.956-7.82 2.2-11.97 0.2444-4.154 0.4889-8.309 0.9778-12.22 0.2444-1.466 0.9778-2.199 1.711-3.421z"/>
    <path d="m149.9 145.5c0 1.508 0 3.015-0.2502 4.272-0.7506 4.523-6.005 6.533-9.758 4.272-0.2502-0.2513-0.7506-0.5026-0.7506-0.7538-1.751-2.764-1.251-5.779-0.5004-8.795 0.7506-2.513 3.002-3.518 5.754-3.518 2.502 0 4.754 0 7.256 0.2513 1.251 0 2.252 0.7538 3.002 1.759 0.7506 1.005 0 2.513-1.251 2.764-1.251-0.2513-2.252-0.2513-3.503-0.2513z"/>
    <path d="m132 123c0.7279-0.72 1.456-1.92 2.426-2.16 4.61-1.44 9.221-2.88 14.07-2.88h7.522c2.669 0 4.853 0.96 7.279 2.16 0.4853 0.24 0.9706 0.96 1.699 2.16-1.213 0.24-1.941 0.72-2.426 0.48-8.493-2.64-16.74-1.44-25.24 0.48-1.456 0.24-2.912 0.48-4.368 0.72-0.8-0.2-1-0.5-1-1z"/>
    <path d="m67 125.4c4.1-2.6 7-3.4 10.14-3.4 4.828 0 9.655 0.5263 14.24 1.842 1.448 0.2632 2.897 1.053 3.621 3.158-2.172 0-4.103 0-6.034-0.2632-5.793-0.7895-11.34-1.316-17.14 0-0.97 0.6-2.42-0.5-4.83-1.3z"/>
    <path d="m112 208.5c1.233 0 2.466-0.2348 3.452-0.2348 3.452 0 6.658-0.4697 9.863-1.644 1.479-0.4697 2.959-1.174 4.685 0-2.219 2.818-5.425 3.757-8.63 4.227-3.205 0.2348-6.658 0.4697-9.37-2.348z"/>
   </g>
  </g>
 </g>
</svg>
