<?xml version="1.0" encoding="UTF-8" standalone="no"?>
<svg xmlns="http://www.w3.org/2000/svg" height="32" width="32" version="1.1" viewBox="0 0 8.4666665 8.4666669"><g transform="translate(0 -288.5)" fill="#fff"><path d="m6.442 291.5h-4.465c-0.08215 0-0.1488-0.0667-0.1488-0.1488 0-0.0822 0.06668-0.1488 0.1488-0.1488h4.465c0.08215 0 0.1488 0.0667 0.1488 0.1488 0 0.0822-0.06668 0.1488-0.1488 0.1488z"/><path d="m6.442 292.8h-4.465c-0.08215 0-0.1488-0.0667-0.1488-0.1488 0-0.0822 0.06668-0.1488 0.1488-0.1488h4.465c0.08215 0 0.1488 0.0667 0.1488 0.1488 0 0.0822-0.06668 0.1488-0.1488 0.1488z"/><path d="m6.442 294.1h-4.465c-0.08215 0-0.1488-0.0667-0.1488-0.1488 0-0.0822 0.06668-0.1488 0.1488-0.1488h4.465c0.08215 0 0.1488 0.0667 0.1488 0.1488 0 0.0822-0.06668 0.1488-0.1488 0.1488z"/></g></svg>
