<?xml version="1.0" encoding="UTF-8" standalone="no"?>
<!-- Created with Inkscape (http://www.inkscape.org/) -->
<svg xmlns:rdf="http://www.w3.org/1999/02/22-rdf-syntax-ns#" xmlns="http://www.w3.org/2000/svg" height="32" width="32" version="1.1" xmlns:cc="http://creativecommons.org/ns#" xmlns:dc="http://purl.org/dc/elements/1.1/" viewBox="0 0 8.4666664 8.466667">
 <metadata>
  <rdf:RDF>
   <cc:Work rdf:about="">
    <dc:format>image/svg+xml</dc:format>
    <dc:type rdf:resource="http://purl.org/dc/dcmitype/StillImage"/>
    <dc:title/>
   </cc:Work>
  </rdf:RDF>
 </metadata>
 <g transform="translate(0 -288.5)">
  <path fill="#fff" d="m6.096 292.7-1.373-1.337c-0.04462-0.0434-0.1172-0.0434-0.1618 0-0.04462 0.0435-0.04462 0.1141 0 0.1576l1.177 1.147h-3.727c-0.06315 0-0.1144 0.0499-0.1144 0.1114s0.05126 0.1114 0.1144 0.1114h3.728l-1.177 1.147c-0.04462 0.0435-0.04462 0.1141 0 0.1576 0.02244 0.0218 0.05171 0.0325 0.081 0.0325s0.05858-0.0109 0.081-0.0325l1.373-1.337c0.04462-0.0435 0.04462-0.1141 0-0.1575z"/>
 </g>
</svg>
