<?xml version="1.0" encoding="UTF-8" standalone="no"?>
<!-- Created with Inkscape (http://www.inkscape.org/) -->
<svg xmlns:rdf="http://www.w3.org/1999/02/22-rdf-syntax-ns#" xmlns="http://www.w3.org/2000/svg" height="32" width="32" version="1.1" xmlns:cc="http://creativecommons.org/ns#" xmlns:dc="http://purl.org/dc/elements/1.1/" viewBox="0 0 8.4666664 8.466667">
 <metadata>
  <rdf:RDF>
   <cc:Work rdf:about="">
    <dc:format>image/svg+xml</dc:format>
    <dc:type rdf:resource="http://purl.org/dc/dcmitype/StillImage"/>
    <dc:title/>
   </cc:Work>
  </rdf:RDF>
 </metadata>
 <g transform="translate(0 -288.5)">
  <path stroke-width=".2646" d="m6.447 293.1-2.09-2.31c-0.06486-0.0717-0.1525-0.1113-0.2467-0.1113-0.09398 0-0.1816 0.0395-0.2467 0.1113l-2.09 2.31c-0.0438 0.0485-0.04001 0.1233 0.00829 0.1671 0.02273 0.0206 0.05113 0.0305 0.0793 0.0305 0.0322 0 0.06439-0.013 0.08783-0.0391l0.504-0.557v1.898c0 0.1958 0.1593 0.3551 0.3551 0.3551h2.604c0.1958 0 0.3551-0.1593 0.3551-0.3551v-1.898l0.504 0.557c0.0438 0.0485 0.1186 0.0523 0.1671 0.008 0.04853-0.044 0.05232-0.1186 0.00829-0.1671zm-1.863 1.6h-0.947v-1.065c0-0.0653 0.05303-0.1184 0.1184-0.1184h0.7102c0.06534 0 0.1184 0.053 0.1184 0.1184zm0.9469-0.1184c0 0.0653-0.05303 0.1184-0.1184 0.1184h-0.592v-1.065c0-0.1958-0.1593-0.3551-0.3551-0.3551h-0.71c-0.1958 0-0.3551 0.1593-0.3551 0.3551v1.065h-0.592c-0.06534 0-0.1184-0.053-0.1184-0.1184v-2.16l1.349-1.491c0.01941-0.0215 0.04474-0.0334 0.07102-0.0334s0.05161 0.0118 0.07102 0.0334l1.349 1.491z"/>
 </g>
</svg>
