<?xml version="1.0" encoding="UTF-8" standalone="no"?>
<svg xmlns="http://www.w3.org/2000/svg" height="32" width="32" version="1.1" viewBox="0 0 8.4666665 8.4666669"><g fill-rule="evenodd" transform="translate(0 -288.5)" stroke-width=".2406" fill="#fff"><path d="m5.352 291.5-1.725-0.591c-0.1634-0.0555-0.3463-0.0444-0.5027 0.0306l-0.08658 0.0417c-0.1173 0.0568-0.2555 0.0652-0.3784 0.0208l-0.148-0.0528c-0.00698-0.005-0.01396-0.008-0.02095-0.0111l-0.8825-0.2983c-0.02095-0.007-0.04468-0.005-0.06424 0.005-0.01955 0.01-0.03491 0.0264-0.04189 0.0472l-0.7415 2.149c-0.01536 0.043 0.008379 0.0902 0.05167 0.1054l0.8839 0.301c0.00977 0.005 0.01815 0.005 0.02793 0.005 0.01257 0 0.02514-0.003 0.03631-0.008 0.01955-0.01 0.03491-0.0264 0.04189-0.0472l0.7136-2.067 0.08937 0.0319c0.1648 0.0583 0.3505 0.0472 0.5083-0.0291l0.08658-0.0417c0.1159-0.0568 0.2527-0.0652 0.3742-0.0236l1.66 0.5688c-0.01257 0.0721-0.04748 0.1914-0.1382 0.2539-0.08099 0.0555-0.1983 0.0583-0.3463 0.007l-0.724-0.2c-0.02234-0.007-0.04608-0.005-0.06703 0.005-0.02095 0.0111-0.03491 0.0306-0.04189 0.0528-0.0014 0.005-0.1089 0.3982-0.4441 0.5758-0.2123 0.1138-0.4748 0.1179-0.7806 0.0139-0.04329-0.0153-0.09077 0.008-0.1061 0.0513-0.01536 0.043 0.00838 0.0902 0.05167 0.1054 0.1634 0.0555 0.3184 0.0832 0.4622 0.0832 0.1648 0 0.3156-0.0361 0.4524-0.1096 0.2988-0.1595 0.4427-0.4509 0.4971-0.5952l0.6437 0.2192c0.2025 0.0694 0.3687 0.0597 0.4971-0.0277 0.2067-0.1415 0.2164-0.4329 0.2178-0.4453 0.0014-0.0361-0.02234-0.0694-0.05586-0.0805zm-3.68 1.562-0.7261-0.247 0.687-1.991 0.7066 0.24c0.00558 0.003 0.01117 0.005 0.01676 0.008l0.00279 0.002z"/><path d="m7.532 292.8-1.019-2.15c-0.00988-0.0206-0.02682-0.0367-0.048-0.0439-0.02118-0.007-0.04518-0.005-0.06494 0.005l-0.8485 0.4309c-0.04236 0.022-0.0593 0.0733-0.03953 0.1172l0.9883 2.096-0.3318 0.3151c-0.281 0.2682-0.5986 0.4924-0.9417 0.6668l-1.625 0.8251c-0.04518 0.0235-0.096 0.0264-0.144 0.009-0.048-0.0175-0.08612-0.0528-0.1087-0.0997-0.02259-0.0469-0.02541-0.0997-0.00847-0.1495s0.05083-0.0894 0.096-0.1128l0.9078-0.4617c0.04236-0.022 0.0593-0.0733 0.03953-0.1173-0.02118-0.0439-0.072-0.0616-0.1129-0.041l-0.888 0.4514-0.4476 0.2272c-0.09318 0.0469-0.2075 0.007-0.2527-0.0894-0.04518-0.0967-0.00706-0.214 0.08612-0.2623l1.305-0.6624c0.04236-0.022 0.0593-0.0733 0.03953-0.1172-0.02118-0.0439-0.072-0.0616-0.1129-0.041l-0.9657 0.491-0.3388 0.1715-0.1595 0.0806c-0.09318 0.0469-0.2075 0.007-0.2527-0.0894-0.04518-0.0967-0.00706-0.2154 0.08612-0.2623l0.161-0.082 1.168-0.5936c0.04236-0.022 0.0593-0.0733 0.03953-0.1172-0.02118-0.0439-0.072-0.0616-0.1129-0.041l-0.7497 0.381-0.4179 0.2125c-0.04518 0.0235-0.096 0.0264-0.144 0.009-0.048-0.0175-0.08612-0.0527-0.1087-0.0997-0.02259-0.0469-0.02541-0.0997-0.00847-0.1495s0.05083-0.0894 0.096-0.1129l0.6198-0.3151c0.04236-0.022 0.0593-0.0733 0.03953-0.1172-0.02118-0.0439-0.072-0.0616-0.1129-0.041l-0.6198 0.3151c-0.08612 0.044-0.1511 0.1202-0.1821 0.214-0.03106 0.0938-0.02541 0.1949 0.01694 0.2843 0.03247 0.0704 0.08612 0.126 0.1511 0.1627-0.1073 0.1099-0.1398 0.2814-0.07059 0.428 0.06212 0.1319 0.1892 0.2081 0.3219 0.2081 0.01553 0 0.03106-0.002 0.04659-0.003-0.0113 0.0733-0.00282 0.151 0.03106 0.2242 0.06212 0.1319 0.1892 0.2081 0.3219 0.2081 0.05224 0 0.1059-0.0117 0.1567-0.0381l0.1539-0.0791c-0.00706 0.0688 0.00424 0.1378 0.0353 0.2008 0.04236 0.0894 0.1158 0.1568 0.2061 0.1891 0.03812 0.0132 0.07765 0.0206 0.1172 0.0206 0.05365 0 0.1073-0.0132 0.1567-0.0381l1.625-0.8251c0.3586-0.1817 0.6876-0.4162 0.9812-0.6962l0.369 0.1 0.837-0.4c0.04236-0.022 0.0593-0.0733 0.03953-0.1173zm-0.8895 0.3576-0.9417-1.998 0.6975-0.3532 0.9403 1.998z"/></g></svg>
