<?xml version="1.0" encoding="UTF-8" standalone="no"?>
<svg xmlns="http://www.w3.org/2000/svg" height="32" width="32" version="1.1" viewBox="0 0 8.4666665 8.4666669"><g stroke="#fff" fill-rule="evenodd" stroke-width=".1013" transform="translate(0 -288.5)" fill="#fff"><path d="m4.56 291.4h-0.657c-0.1284 0-0.2329 0.1043-0.2329 0.2328v0.6212h-0.621c-0.1284 0-0.2329 0.1043-0.2329 0.2328v0.657c0 0.1285 0.1045 0.2328 0.2329 0.2328h0.6212v0.6212c0 0.1285 0.1045 0.2328 0.2329 0.2328h0.657c0.1284 0 0.2329-0.1043 0.2329-0.2328v-0.6212h0.6212c0.1284 0 0.2329-0.1043 0.2329-0.2328v-0.657c0-0.1285-0.1045-0.2328-0.2329-0.2328h-0.621v-0.6212c0-0.1285-0.1045-0.2328-0.2329-0.2328zm0.8541 1.057c0.0165 0 0.02988 0.011 0.02988 0.0288v0.657c0 0.0165-0.01337 0.0288-0.02988 0.0288h-0.723c-0.05606 0-0.1015 0.0453-0.1015 0.1016v0.7228c0 0.0165-0.01337 0.0288-0.02988 0.0288h-0.657c-0.0165 0-0.02988-0.011-0.02988-0.0288v-0.7228c0-0.056-0.04545-0.1016-0.1015-0.1016h-0.7227c-0.0165 0-0.02988-0.011-0.02988-0.0288v-0.657c0-0.0165 0.01337-0.0288 0.02988-0.0288h0.7227c0.05606 0 0.1015-0.0453 0.1015-0.1016v-0.7227c0-0.0165 0.01337-0.0288 0.02988-0.0288h0.657c0.0165 0 0.02988 0.011 0.02988 0.0288v0.7227c0 0.056 0.04545 0.1016 0.1015 0.1016z"/><path d="m3.971 294.8c-0.04218-0.0423-0.09828-0.0653-0.1579-0.0653-0.05966 0-0.1157 0.0247-0.1579 0.0653l-0.3029 0.3028c-0.06729 0.067-0.1567 0.1043-0.2519 0.1043-0.09516 0-0.1846-0.0371-0.2519-0.1043l-0.8909-0.8908c-0.06728-0.0678-0.1043-0.1568-0.1043-0.2521s0.03704-0.1845 0.1043-0.2521l0.03556-0.0371c0.0000261 0 0.0000393-0.00003 0.0000651-0.00003 0.0000261 0 0.0000387-0.00005 0.0000651-0.00005l0.2672-0.2672c0.04218-0.0423 0.06543-0.0983 0.06543-0.1579 0-0.0599-0.02326-0.1156-0.06543-0.1579l-0.8018-0.7998c-0.08709-0.087-0.2288-0.087-0.3159 0l-0.2672 0.2672c-0.0000126 0.00005-0.000039 0.00005-0.0000516 0.00005-0.0000132 0.00003-0.0000261 0.00003-0.0000393 0.00003l-0.08905 0.089c-0.5292 0.5292-0.5292 1.39 0 1.919l1.711 1.71c0.2564 0.2564 0.5972 0.3974 0.9598 0.3974s0.7034-0.1411 0.9598-0.3974l0.3564-0.3565c0.04218-0.0423 0.06542-0.0983 0.06542-0.1579 0-0.0599-0.02326-0.1159-0.06542-0.1579zm-2.691-2.374c0.00695-0.008 0.01486-0.008 0.02026-0.008 0.00538 0 0.01329 0.001 0.02026 0.008l0.8018 0.8018c0.01118 0.011 0.01118 0.0288 0 0.0409l-0.1984 0.1985-0.8424-0.8423zm2.998 3.711c-0.2196 0.2197-0.5116 0.3405-0.8221 0.3405-0.3106 0-0.6025-0.1205-0.8221-0.3405l-1.711-1.71c-0.4533-0.4532-0.4533-1.191 0-1.644l0.02026-0.0192 0.8438 0.8437c-0.08386 0.0991-0.1296 0.2235-0.1296 0.3548 0 0.1474 0.0573 0.2856 0.1614 0.3896l0.8909 0.8908c0.1041 0.1041 0.2424 0.1612 0.3896 0.1612 0.1311 0 0.2552-0.0453 0.3543-0.1288l0.8444 0.8432zm0.3564-0.3564-0.1985 0.1985-0.8429-0.8418 0.199-0.1988c0.00692-0.008 0.01486-0.008 0.02026-0.008 0.00538 0 0.01329 0.001 0.02026 0.008l0.8019 0.8017c0.00692 0.008 0.00837 0.0165 0.00837 0.0192 0 0.003-0.00145 0.011-0.00837 0.0192z"/><path d="m6.414 290.6c-0.5487-0.5491-1.278-0.8516-2.054-0.8516-1.246 0-2.352 0.793-2.752 1.973-0.01738 0.0511 0.0101 0.1071 0.06143 0.1244 0.05132 0.0165 0.107-0.008 0.1244-0.0615 0.3728-1.101 1.404-1.84 2.566-1.84 1.494 0 2.709 1.216 2.709 2.711 0 1.157-0.7338 2.187-1.826 2.564-0.05124 0.0165-0.07846 0.0736-0.06081 0.1249 0.014 0.0409 0.05205 0.0662 0.09277 0.0662 0.0106 0 0.02139-0.003 0.03196-0.003 1.171-0.4039 1.958-1.509 1.958-2.749 0-0.7766-0.3022-1.507-0.8509-2.056z"/></g></svg>
