<?xml version="1.0" encoding="UTF-8" standalone="no"?>
<svg xmlns="http://www.w3.org/2000/svg" height="32" width="32" version="1.1" viewBox="0 0 8.4666665 8.4666669"><g transform="translate(0 -288.5)" stroke-width=".2646" fill="#fff"><path d="m3.623 295.3c-0.01085 0-0.02196-0.001-0.03307-0.004-0.2376-0.0611-0.4659-0.1553-0.6784-0.2802-0.06165-0.0362-0.08334-0.1148-0.04921-0.1775 0.04207-0.0773 0.06429-0.1646 0.06429-0.2532 0-0.2918-0.2373-0.5292-0.5292-0.5292-0.08837 0-0.1759 0.0222-0.2532 0.0643-0.06271 0.0341-0.1413 0.0124-0.1775-0.0492-0.1249-0.2127-0.2191-0.4408-0.2802-0.6784-0.0172-0.0672 0.02037-0.1363 0.08599-0.1582 0.2154-0.0725 0.3604-0.2741 0.3604-0.5014s-0.1447-0.4289-0.3604-0.5014c-0.06562-0.0222-0.1032-0.091-0.08599-0.1582 0.06112-0.2376 0.1553-0.4659 0.2802-0.6784 0.03625-0.0616 0.1148-0.0833 0.1775-0.0492 0.07699 0.0421 0.1646 0.0643 0.2532 0.0643 0.2918 0 0.5292-0.2373 0.5292-0.5292 0-0.0884-0.02222-0.176-0.06429-0.2532-0.03413-0.0627-0.01244-0.1413 0.04921-0.1775 0.2127-0.1249 0.4408-0.2191 0.6784-0.2802 0.0672-0.0172 0.1363 0.0204 0.1582 0.086 0.0725 0.2154 0.2741 0.3604 0.5014 0.3604s0.4289-0.1447 0.5014-0.3604c0.02222-0.0656 0.09128-0.1032 0.1582-0.086 0.2376 0.0611 0.4659 0.1553 0.6784 0.2802 0.06165 0.0362 0.08334 0.1148 0.04921 0.1775-0.04207 0.0773-0.06429 0.1646-0.06429 0.2532 0 0.2918 0.2373 0.5292 0.5292 0.5292 0.08837 0 0.1759-0.0222 0.2532-0.0643 0.06271-0.0341 0.1413-0.0124 0.1775 0.0492 0.1249 0.2127 0.2191 0.4408 0.2802 0.6784 0.0172 0.0672-0.02037 0.1363-0.08599 0.1582-0.2154 0.0725-0.3604 0.2741-0.3604 0.5014s0.1447 0.4289 0.3604 0.5014c0.06562 0.0222 0.1032 0.091 0.08599 0.1582-0.06112 0.2376-0.1553 0.4659-0.2802 0.6784-0.03625 0.0616-0.1148 0.0833-0.1775 0.0492-0.07726-0.0421-0.1646-0.0643-0.2532-0.0643-0.2918 0-0.5292 0.2373-0.5292 0.5292 0 0.0884 0.02222 0.176 0.06429 0.2532 0.03413 0.0627 0.01244 0.1413-0.04921 0.1775-0.2127 0.1249-0.4408 0.2191-0.6784 0.2802-0.0672 0.0172-0.1363-0.0204-0.1582-0.086-0.0725-0.2154-0.2741-0.3604-0.5014-0.3604s-0.4289 0.1447-0.5014 0.3604c-0.01852 0.0548-0.06985 0.0902-0.1254 0.0902zm0.6268-0.7149c0.2982 0 0.5667 0.1662 0.7025 0.4239 0.1376-0.0426 0.2715-0.0976 0.3995-0.1646-0.02858-0.0831-0.04339-0.1709-0.04339-0.2593 0-0.4376 0.3561-0.7938 0.7938-0.7938 0.08837 0 0.1762 0.0148 0.2593 0.0434 0.06694-0.1281 0.1222-0.2617 0.1646-0.3995-0.2577-0.1355-0.4239-0.404-0.4239-0.7025 0-0.2984 0.1662-0.5667 0.4239-0.7025-0.0426-0.1376-0.09763-0.2715-0.1646-0.3995-0.08308 0.0286-0.1709 0.0434-0.2593 0.0434-0.4376 0-0.7938-0.3561-0.7938-0.7938 0-0.0884 0.01482-0.1762 0.04339-0.2593-0.1281-0.0669-0.2617-0.1222-0.3995-0.1646-0.1355 0.2577-0.404 0.4239-0.7025 0.4239-0.2984 0-0.5667-0.1662-0.7025-0.4239-0.1376 0.0423-0.2715 0.0976-0.3995 0.1646 0.02858 0.0831 0.04339 0.1709 0.04339 0.2593 0 0.4376-0.3561 0.7938-0.7938 0.7938-0.08837 0-0.1762-0.0148-0.2593-0.0434-0.06694 0.1281-0.1222 0.2617-0.1646 0.3995 0.2577 0.1355 0.4239 0.404 0.4239 0.7025 0 0.2984-0.1662 0.5667-0.4239 0.7025 0.04233 0.1376 0.09763 0.2715 0.1646 0.3995 0.08308-0.0286 0.1709-0.0434 0.2593-0.0434 0.4376 0 0.7938 0.3561 0.7938 0.7938 0 0.0884-0.01482 0.1762-0.04339 0.2593 0.1281 0.0669 0.2617 0.1222 0.3995 0.1646 0.1355-0.2577 0.404-0.4239 0.7025-0.4239z"/><path d="m4.25 293.6c-0.4376 0-0.7938-0.3561-0.7938-0.7938 0-0.4376 0.3561-0.7938 0.7938-0.7938 0.4376 0 0.7938 0.3561 0.7938 0.7938 0 0.4376-0.3561 0.7938-0.7938 0.7938zm0-1.323c-0.2918 0-0.5292 0.2373-0.5292 0.5292 0 0.2918 0.2373 0.5292 0.5292 0.5292 0.2918 0 0.5292-0.2373 0.5292-0.5292 0-0.2918-0.2373-0.5292-0.5292-0.5292z"/></g></svg>
