<?xml version="1.0" encoding="UTF-8" standalone="no"?>
<svg xmlns="http://www.w3.org/2000/svg" height="32" width="32" version="1.1" viewBox="0 0 8.4666665 8.4666669"><g transform="translate(0 -288.6)"><path stroke-width=".2646" fill="#fff" d="m6.876 292.5c0.1088-0.1061 0.1472-0.2617 0.1003-0.4064-0.04705-0.1447-0.1696-0.248-0.3202-0.2699l-1.339-0.1945c-0.05701-0.008-0.1063-0.0441-0.1317-0.0958l-0.5985-1.213c-0.0672-0.1363-0.2036-0.221-0.3556-0.221-0.1519 0-0.2883 0.0847-0.3555 0.221l-0.5986 1.213c-0.02546 0.0517-0.07483 0.0875-0.1318 0.0958l-1.339 0.1946c-0.1504 0.0218-0.273 0.1251-0.32 0.2698-0.04694 0.1447-0.00852 0.3003 0.1003 0.4064l0.9685 0.9441c0.04129 0.0403 0.06022 0.0983 0.05048 0.155l-0.2286 1.333c-0.02568 0.1498 0.03465 0.2982 0.1576 0.3877 0.1229 0.0896 0.2828 0.1012 0.4176 0.0302l1.197-0.6294c0.05103-0.0268 0.1119-0.0268 0.163 0l1.197 0.6294c0.05845 0.0308 0.1218 0.0459 0.1848 0.0459 0.08181 0 0.1633-0.0256 0.2328-0.0762 0.123-0.0894 0.1833-0.2379 0.1576-0.3877l-0.2287-1.333c-0.0097-0.0568 0.0092-0.1147 0.05048-0.155zm-1.237 1.137 0.2286 1.333c0.01151 0.0671-0.0145 0.1312-0.06963 0.1712-0.05524 0.04-0.124 0.0448-0.1843 0.0134l-1.197-0.6296c-0.05768-0.0302-0.1212-0.0455-0.1845-0.0455-0.06332 0-0.1268 0.0153-0.1845 0.0456l-1.197 0.6294c-0.06055 0.0314-0.1293 0.0266-0.1844-0.0134-0.05513-0.0401-0.08103-0.1041-0.06963-0.1712l0.2286-1.333c0.02203-0.1286-0.02059-0.2599-0.114-0.3509l-0.9686-0.9442c-0.04882-0.0476-0.06542-0.1147-0.04428-0.1794 0.02103-0.0649 0.07384-0.1094 0.1413-0.1192l1.338-0.1945c0.1292-0.0187 0.2409-0.0998 0.2986-0.2169l0.5986-1.213c0.03011-0.0611 0.08889-0.0975 0.157-0.0975 0.06819 0 0.1269 0.0364 0.1571 0.0975l0.5986 1.213c0.05767 0.1171 0.1693 0.1982 0.2985 0.2169l1.339 0.1945c0.06742 0.01 0.1202 0.0543 0.1413 0.1192 0.02103 0.0648 0.0045 0.1318-0.04428 0.1794l-0.9685 0.9441c-0.09343 0.0911-0.1361 0.2223-0.1139 0.351z"/></g></svg>
