<?xml version="1.0" encoding="UTF-8" standalone="no"?>
<!-- Created with Inkscape (http://www.inkscape.org/) -->
<svg xmlns:rdf="http://www.w3.org/1999/02/22-rdf-syntax-ns#" xmlns="http://www.w3.org/2000/svg" height="32" width="32" version="1.1" xmlns:cc="http://creativecommons.org/ns#" xmlns:dc="http://purl.org/dc/elements/1.1/" viewBox="0 0 8.4666664 8.466667">
 <metadata>
  <rdf:RDF>
   <cc:Work rdf:about="">
    <dc:format>image/svg+xml</dc:format>
    <dc:type rdf:resource="http://purl.org/dc/dcmitype/StillImage"/>
    <dc:title/>
   </cc:Work>
  </rdf:RDF>
 </metadata>
 <path d="m4.243 5.314c-0.5991 0-1.087-0.4874-1.087-1.087 0-0.5991 0.4874-1.087 1.087-1.087 0.5991 0 1.087 0.4874 1.087 1.087 0 0.5991-0.4874 1.087-1.087 1.087zm0-1.811c-0.3995 0-0.7244 0.3249-0.7244 0.7244s0.3249 0.7244 0.7244 0.7244 0.7244-0.3249 0.7244-0.7244-0.3249-0.7244-0.7244-0.7244z" stroke-width=".3924"/>
 <g stroke="#000" stroke-linecap="round" fill="none">
  <circle stroke-linejoin="round" cx="4.222" cy="4.232" r="2.108" stroke-width=".2132"/>
  <g stroke-width=".2132px">
   <path d="m6.329 4.211h0.655"/>
   <path d="m4.243 2.112v-0.655"/>
   <path d="m2.099 4.211h-0.655"/>
   <path d="m4.243 6.448v0.655"/>
  </g>
 </g>
</svg>
