<?xml version="1.0" encoding="UTF-8" standalone="no"?>
<!-- Created with Inkscape (http://www.inkscape.org/) -->
<svg xmlns:rdf="http://www.w3.org/1999/02/22-rdf-syntax-ns#" xmlns="http://www.w3.org/2000/svg" height="90" width="150" version="1.1" xmlns:cc="http://creativecommons.org/ns#" xmlns:dc="http://purl.org/dc/elements/1.1/" viewBox="0 0 39.687499 23.812501">
 <metadata>
  <rdf:RDF>
   <cc:Work rdf:about="">
    <dc:format>image/svg+xml</dc:format>
    <dc:type rdf:resource="http://purl.org/dc/dcmitype/StillImage"/>
    <dc:title/>
   </cc:Work>
  </rdf:RDF>
 </metadata>
 <g stroke-width=".2646" fill="#fff" transform="translate(0 -273.2)">
  <g id="PURELAS" aria-label="PURELAS">
   <path d="m1.203 294.9v1.326h-0.7754v-3.762h1.467q0.4238 0 0.7442 0.155 0.323 0.155 0.4961 0.4419 0.1731 0.2842 0.1731 0.6486 0 0.553-0.3798 0.8734-0.3773 0.3178-1.047 0.3178zm0-0.6279h0.6925q0.3075 0 0.4677-0.1447 0.1628-0.1447 0.1628-0.4134 0-0.2765-0.1628-0.447-0.1628-0.1706-0.4496-0.1757h-0.711z"/>
   <path d="m9.387 292.4v2.478q0 0.6176-0.3876 0.9768-0.385 0.3592-1.054 0.3592-0.6589 0-1.047-0.3488-0.3876-0.3488-0.3953-0.9587v-2.506h0.7752v2.483q0 0.3695 0.1757 0.54 0.1783 0.168 0.491 0.168 0.6537 0 0.6641-0.6873v-2.504z"/>
   <path d="m14.12 294.8h-0.6176v1.377h-0.7752v-3.762h1.398q0.6667 0 1.028 0.2972 0.3618 0.2972 0.3618 0.8398 0 0.385-0.168 0.6434-0.1654 0.2558-0.5039 0.4083l0.814 1.537v0.0362h-0.832zm-0.6176-0.6279h0.6253q0.292 0 0.4522-0.1473 0.1602-0.1499 0.1602-0.4108 0-0.2662-0.1525-0.4186-0.1499-0.1524-0.4625-0.1524h-0.6227z"/>
   <path d="m21.07 294.5h-1.488v1.008h1.75v0.6227h-2.522v-3.762h2.517v0.6279h-1.742v0.8966h1.488z"/>
   <path d="m25.26 295.6h1.646v0.6227h-2.421v-3.762h0.7752z"/>
   <path d="m32.22 295.4h-1.359l-0.2584 0.7752h-0.8243l1.401-3.762h0.7183l1.408 3.762h-0.8243zm-1.15-0.6279h0.9406l-0.4729-1.408z"/>
   <path d="m38.48 295.2q0-0.2196-0.155-0.3359-0.155-0.1189-0.5581-0.2481-0.4031-0.1318-0.6382-0.2584-0.6408-0.3463-0.6408-0.9328 0-0.3049 0.1705-0.5426 0.1731-0.2403 0.4935-0.3747 0.323-0.1344 0.7235-0.1344 0.4031 0 0.7183 0.1473 0.3152 0.1447 0.4884 0.4108 0.1757 0.2662 0.1757 0.6046h-0.7752q0-0.2584-0.1628-0.4005-0.1628-0.1447-0.4574-0.1447-0.2842 0-0.4419 0.1214-0.1576 0.1189-0.1576 0.3152 0 0.1835 0.1835 0.3075 0.186 0.124 0.5452 0.2326 0.6615 0.199 0.9638 0.4935 0.3023 0.2946 0.3023 0.7338 0 0.4884-0.3695 0.7674-0.3695 0.2765-0.9948 0.2765-0.4341 0-0.7907-0.1576-0.3566-0.1602-0.5452-0.4367-0.186-0.2765-0.186-0.6408h0.7778q0 0.6227 0.7442 0.6227 0.2765 0 0.4315-0.1111 0.155-0.1137 0.155-0.3152z"/>
  </g>
  <path d="m16.63 274c0.4581 1.045 0.881 1.515 0.2584 2.972-0.6578 1.539-1.316 1.797-0.881 2.208 0.4346 0.4111 1.292 0.5874 1.292 0.5874s-0.0235 0.2702-0.1997 0.5286c-0.188 0.2584-0.1527 0.6343 0.2114 0.8575 0.2702 0.1645 0.3172 0.188 0.3289 0.188 0 0-0.141 0.1292-0.2232 0.4112-0.09398 0.3054 0.1057 0.5991 0.4346 0.6931s0.4699 0.1292 0.5404 0.2349c0.08223 0.1175 0.02349 0.141 0 0.6343-0.0235 0.4934-0.1175 0.9633 0.5286 1.327 0.6461 0.3642 1.774 0.047 2.702-0.5286 0.7988-0.4934 2.772-1.128 4.299-0.3054-1.069 1.374-2.667 2.338-4.523 2.573-3.736 0.4699-7.154-2.173-7.624-5.909-0.3524-2.62 0.834-5.075 2.855-6.473z"/>
 </g>
</svg>
