<?xml version="1.0" encoding="UTF-8" standalone="no"?>
<!-- Created with Inkscape (http://www.inkscape.org/) -->
<svg xmlns:rdf="http://www.w3.org/1999/02/22-rdf-syntax-ns#" xmlns="http://www.w3.org/2000/svg" height="344" width="212" version="1.1" xmlns:cc="http://creativecommons.org/ns#" xmlns:dc="http://purl.org/dc/elements/1.1/" viewBox="0 0 56.091665 91.016669">
 <metadata>
  <rdf:RDF>
   <cc:Work rdf:about="">
    <dc:format>image/svg+xml</dc:format>
    <dc:type rdf:resource="http://purl.org/dc/dcmitype/StillImage"/>
    <dc:title/>
   </cc:Work>
  </rdf:RDF>
 </metadata>
 <g transform="translate(0 -206)">
  <g transform="translate(-121.6 129.1)">
   <g id="Shape" transform="matrix(-.2646 0 0 .2646 177.6 76.87)">
    <g fill="#fff">
     <path d="m79.74 333.9c0-1.838 0.4071-3.676 0.6107-5.31 0.4071-10.21 0.6107-20.63 0.8142-30.84 0-2.246 0.4071-4.493 1.221-6.535 1.018-3.268 2.036-6.535 1.425-10.21-0.2036-1.43-0.2036-3.063-0.2036-4.493 0.2036-4.493-0.8142-8.986-1.425-13.48 0-0.2042-0.4071-0.4084-0.6107-0.8169-2.239 4.085-3.46 8.373-4.071 13.27-0.8142-0.4084-1.628-0.4084-2.036-0.8169-2.239-1.634-4.682-3.268-5.903-6.127-0.4071-0.8169-1.221-1.43-1.628-2.042-2.646-3.472-4.682-7.352-5.496-11.85 0-0.4084-0.2036-0.8169-0.4071-1.225 0-0.2042-0.2036-0.2042-0.6107-0.4084-0.2036 0.4084-0.6107 0.6127-0.6107 1.021-0.4071 3.063-0.8142 5.923 0.8142 8.782 1.425 2.451 1.832 5.106 2.036 7.761 0.2036 4.085-0.4071 8.169-2.239 11.85-0.6107 1.225-1.018 2.451-0.8142 3.88 0.2036 2.859 0.2036 2.859-0.6107 5.31 1.425 4.901 3.053 9.803 4.071 14.91 1.018 5.106 1.425 10.21 2.036 15.32 0.6107 4.289 1.221 8.577 1.832 13.07 0 0.8169 0.2036 1.634 0.2036 2.451 3.867 1.021 7.939 1.838 11.81 2.655-0.4071-2.451-0.4071-4.289-0.2036-6.127z"/>
     <path d="m185.6 331.4c-0.6155-5.943-2.462-11.48-2.873-17.42-0.2052-2.254-0.8207-4.508-1.231-6.762-1.231-4.508-1.641-9.221-1.436-13.93 0-1.229 0.2052-2.459-0.2052-3.688-0.8207-2.869-1.026-5.943-1.026-9.016 0-4.508-1.026-9.016-0.4104-13.52-1.231-3.484-0.2052-7.172 0-10.66 0.2052-4.508 0-9.016-0.2052-13.73 0-0.8197-0.4104-1.639-0.4104-2.664-3.078 0.2049-3.078 0.2049-4.924 1.434v8.197c0 3.688-0.2052 7.582 0.4104 11.27 0.4104 2.254 0 4.918 0.2052 7.172 0 0.8197 0 1.844 0.2052 2.664 2.257 7.172 1.026 10.66-5.54 14.14-0.2052 0-0.2052 0.2049-0.6155 0.6148 0 2.459-1.436 4.303-3.693 5.533-1.847 1.025-3.488 2.459-3.693 4.713-0.2052 1.229-1.231 2.049-2.667 2.254-1.026 0.2049-2.052 0.2049-3.283 0.4098 0 1.23 0.2052 2.254 0.2052 3.279 0 2.459-0.4104 2.869-2.873 3.074-3.078 0.2049-3.078 0.2049-5.745 1.844-0.4104 1.639-0.8207 3.279-1.436 4.713-0.6155 1.639-1.641 2.459-3.488 2.459-0.6155 0-1.231 0-1.847 0.2049-0.8207 0.4098-1.436 1.025-2.052 1.639-0.4104 0.4098-0.6155 1.025-0.6155 1.639-0.4104 2.049-1.847 3.074-3.693 3.484-2.052 0.6147-3.693-0.2049-4.514-2.254-0.6155 0.2049-1.231 0.4098-1.847 0.4098-2.873 0.4098-4.719-0.8197-5.54-3.484-0.4104-1.229-0.6155-2.254-1.026-3.484-0.2052-0.6147-0.6155-1.025-1.231-1.639-1.231 0-2.462 0-3.898-0.2049-2.257-0.2049-3.283-0.8197-3.898-3.074-0.6155-1.844-0.8207-3.893-1.436-5.943-1.231 0.2049-2.052 0.4098-3.078 0.4098-2.462 0.2049-3.693-0.6148-4.104-3.074-0.2052-0.8197-0.2052-1.844-0.2052-2.664 0-1.025-0.2052-2.049-0.2052-3.279-1.231-0.6148-2.462-1.229-3.693-1.844-1.847-0.8197-2.667-2.049-2.257-3.893 0-0.6147 0.2052-1.229 0.2052-1.844 0.6155-2.459 0.2052-4.713-1.231-6.967-0.8207-1.639-1.436-3.279-1.847-5.123-1.436-4.508-2.873-9.016-3.488-13.73-0.2052-1.639-0.4104-3.279-0.2052-4.918 0.2052-1.844 0-3.893-0.2052-5.943 0-0.6147-0.8207-1.229-1.231-1.844-4.309 2.664-3.693 6.762-3.488 10.66 0.2052 3.688 1.026 7.582 1.641 11.27 0 0.2049 0.2052 0.6147 0.2052 0.8197 0.4104 6.147 1.026 12.29 1.436 18.65 0 1.025-0.2052 2.049-0.4104 3.074-0.8207 3.688-1.641 7.377-2.462 11.07 0 0.4098-0.2052 0.8197-0.2052 1.434-0.2052 5.328-0.4104 10.66-0.6155 15.98v9.016c0 1.434-0.2052 3.074-0.2052 4.508-0.2052 2.459-0.4104 4.918-0.6155 7.172 5.129 1.025 10.46 1.844 15.59 2.459 7.181 1.025 14.77 1.844 22.16 1.434 7.181-0.4098 14.16-1.639 21.34-2.869 12.93-2.459 25.65-5.123 38.78-6.762 1.641-0.2049 3.488-0.4098 5.129-0.8197 0-0.2049-0.4104-1.025-0.4104-2.049z"/>
     <path d="m75.58 86.43c3.485-2.452 6.764-4.905 10.04-6.949 3.28-2.044 6.969-3.679 10.45-5.314 1.025 0.2044 2.05 0.4087 3.075 0.4087 1.23 0.2044 2.46 0 3.485-0.8175 0.8199-0.6131 1.64-1.226 2.665-1.839 2.255-1.431 3.484-1.226 5.534 0.8175 1.64 1.635 3.485 3.066 5.124 4.496 1.64 1.431 3.689 1.431 5.534 0.8175 1.025-0.4087 2.05-0.8175 2.87-1.431 2.255-1.431 4.714-1.431 6.764 0.2044 3.689 2.861 7.994 3.27 12.3 3.474 1.845 0 3.28 0.6131 4.304 2.044 0.4099 0.4087 0.8199 0.8175 1.23 1.431 1.845 2.452 4.304 3.883 7.379 3.27 2.46-0.4087 4.509 0.6131 6.149 2.248 0.8199 0.6131 1.64 1.431 2.46 2.044 1.845 1.226 3.28 2.657 3.894 4.905 0.205 0.8175 0.6149 1.839 1.23 2.452 2.05 1.839 2.05 4.292 1.845 6.744-0.4099 6.336-1.025 12.67-1.435 19.01-0.205 4.292-0.205 8.788-0.4099 13.08 0 1.839 0 3.679-0.6149 5.314-0.4099 1.022-0.205 2.044-0.205 3.066 0.205 3.474 0 6.949-0.8199 10.42-1.64 7.766-3.484 15.33-6.969 22.48-0.6149 1.431-1.435 2.657-1.845 4.087-1.23 3.474-3.28 6.336-5.329 9.401-3.894 5.518-8.609 10.01-13.73 14.31-3.075 2.657-6.559 4.292-10.25 5.518-0.6149 0.2044-1.435 0.6131-2.255 0.6131-6.764 0.2044-13.73 1.022-20.29-1.839-2.05-0.8175-3.894-1.431-5.944-2.248-4.714-1.635-8.814-3.883-12.5-7.153-0.6149-0.6131-1.23-1.022-1.845-1.431-7.174-4.087-12.09-10.42-17.01-16.76-0.8199-1.226-1.435-2.657-2.05-4.087-1.435-3.679-2.665-7.357-3.894-11.04-0.6149-1.635-0.8199-3.27-1.025-4.905l-3.075-19.62c-0.205-1.022-0.4099-2.044-0.4099-3.066 0.205-6.131-1.025-12.06-2.255-17.98-1.435-6.744-0.8199-13.08 2.05-19.42 1.025-2.248 2.665-4.496 1.64-7.357-0.205-0.6131 0.205-1.431 0.8199-2.044 1.64-2.044 3.484-4.087 5.329-6.131 0.6149-0.8175 1.64-1.226 2.665-1.839 1.025-0.6131 2.255-0.8175 3.485 0 0.6149 0.2044 1.23 0.4087 1.845 0.6131zm34.03 80.32c-0.6149 0.8175-1.435 1.635-2.05 2.657-0.8199 1.431-2.05 2.248-3.28 3.066-1.64 1.022-3.484 1.839-5.534 2.248-3.484 0.6131-3.894 2.044-1.64 4.905 1.23 1.635 2.255 3.066 3.28 4.701 1.23 1.839 2.255 3.883 3.484 5.927 0.8199 1.431 1.64 2.657 3.075 3.066 2.665 1.022 4.509 3.066 6.149 5.314 3.075 4.087 7.789 4.496 11.27 0.8175 1.23-1.226 1.845-2.657 2.87-4.087 1.025-1.431 2.05-3.066 3.28-4.292 4.509-4.087 7.994-8.992 10.66-14.51 1.435-2.657 0.8199-4.087-2.05-4.496-1.435-0.2044-2.665-0.2044-4.099-0.4088h-3.689c-2.05 0.2044-3.894-0.2044-5.124-2.248-0.205-0.4087-0.6149-0.8175-0.8199-1.022-2.05-1.839-4.099-2.248-6.559-0.8175-1.23 0.6131-2.46 1.635-3.484 2.248-2.665-0.4088-3.28-3.066-5.739-3.066zm-2.05-44.96v14.71c0 5.518 0.41 11.04-2.46 16.35-0.8199 1.635-0.205 3.474 1.435 4.701 2.87 2.248 6.149 3.883 9.634 4.905 0.4099 0.2044 1.025-0.2044 1.845-0.2044-0.6149-2.044-1.845-3.066-3.28-3.883-0.8199-0.6131-1.845-1.022-2.87-1.431-1.435-0.6131-2.665-1.431-3.484-3.27 2.665-5.109 2.665-10.83 2.46-16.55-0.205-2.861 0-5.722 0-8.584 0-2.044-0.6149-3.883-1.64-5.518-0.205-0.2044-0.6149-0.4087-1.64-1.226zm39.15 9.606c-0.8199-0.4088-1.23-0.8175-1.845-1.022-1.435-0.2044-3.075-0.2044-4.509 0-5.329 0.4088-8.404 5.109-6.764 10.22 0.205 0.6131 0.205 1.226 0.6149 1.635 0.8199 1.839 1.845 2.452 3.894 2.452 2.05 0 3.484-1.226 4.304-2.861 1.23-2.452 2.46-4.905 1.025-7.766 0-0.2044 0.205-0.6131 0.205-0.8175 0.8199-0.2044 1.845-0.8175 3.075-1.839zm-63.54 6.54c-0.205 0.6131-0.205 1.226-0.4099 1.839-0.6149 2.044-0.6149 4.087 0.4099 6.131 0.8199 1.839 2.255 2.657 4.304 2.657 2.05-0.2044 3.894-1.226 4.509-3.27 0.6149-2.248 1.025-4.701-0.205-6.54-1.23-2.248-3.485-4.087-6.149-4.292-2.255-0.2044-4.509 0.2044-6.764 0.4088-0.4099 0-1.025 0.8175-0.8199 1.226 0 0.4088 0.6149 1.022 1.23 1.226 1.025 0.2044 2.255 0.4087 3.894 0.6131zm63.54-23.09c-0.4099-0.6131-0.6149-1.226-0.8199-1.431-1.23-0.2044-2.46-0.6131-3.484-0.4088-5.739 0.8175-10.66 3.27-14.96 6.949-0.205 0.2044-0.205 0.6131-0.4099 1.022 0.6149 0.2044 1.435 0.6131 1.845 0.6131 0.8199-0.2044 1.64-0.6131 2.46-1.226 4.304-2.452 9.019-4.292 13.94-5.109 0.4099 0 0.8199-0.2044 1.435-0.4087zm-69.89 2.044c-0.4099 1.226 0.205 1.635 0.8199 1.839 1.23 0.2044 2.665 0.2044 4.099 0.4087 1.845 0.2044 3.894 0.4088 5.739 0.8175 2.05 0.4088 3.894 1.022 5.944 1.635 0.8199-0.8175 0.6149-1.839 0-2.452-0.6149-0.8175-1.64-1.431-2.46-1.839-4.714-1.022-9.429-1.431-14.14-0.4088z"/>
     <path d="m19.61 220.3c0.816-0.409 1.632-0.818 2.448-1.023 2.244-0.818 2.856-2.25 2.652-4.704-0.408-2.863-1.02-5.726-2.244-8.18-0.612-1.227-1.428-2.454-2.448-3.272-2.244-2.045-4.692-3.886-6.936-5.726-1.02-0.818-1.836-1.636-2.652-2.454-2.04-1.636-3.264-3.681-3.672-6.544-0.204-1.841-1.02-3.886-1.632-5.726-1.428-4.704-1.428-9.203-0.408-13.91 0.204-0.818 0.408-1.432 0.408-2.25 0.612-6.34 3.06-12.07 6.528-17.18 3.264-4.704 6.12-9.612 9.18-14.52 0.204-0.409 0.408-0.818 0.816-1.023 1.428-0.818 1.836-2.25 1.836-3.886 0.204-1.636-0.408-2.863-1.224-4.295-1.224-2.045-3.06-3.272-5.1-4.499-1.836-1.023-3.672-2.045-5.304-3.272-1.632-1.023-2.652-2.863-3.06-4.704-1.632-7.362 1.224-13.29 5.916-18.61 2.448-2.863 5.304-5.317 7.956-7.976 2.244-2.25 3.672-4.704 4.896-7.567s1.02-5.726-0.408-8.18c-1.836-3.068-3.672-6.34-5.916-8.999-3.06-3.477-3.06-7.362-1.02-11.04 2.04-3.886 4.896-7.158 8.364-10.02 3.468-2.863 7.14-5.726 10.81-8.18 2.244-1.432 4.08-3.477 6.936-4.09 1.632-0.409 2.856-1.841 3.468-3.477s1.02-3.477 1.224-5.317c0.204-2.454 1.02-4.295 2.244-6.34 1.836-2.659 4.284-4.499 6.732-6.544 1.224-1.023 2.652-1.432 4.284-1.227 1.836 0.2045 3.468-0.409 5.1-1.023 2.448-0.818 4.896-1.227 7.548-1.432 1.836-0.2045 3.672 0 5.508 0 2.04 0 4.08-0.2045 5.916 1.432 0.816 0.818 2.244 0.818 3.468 1.023 5.508 1.636 10.81 3.681 15.71 6.953 1.428 1.023 2.652 1.841 3.468 3.272-0.204 1.227-1.02 1.227-1.632 1.227h-9.996c-5.916 0-10.81 2.25-15.1 6.34-1.836 1.841-3.672 3.681-5.508 5.522-3.06 3.272-3.672 4.908-3.468 9.612-1.224 1.636-3.468 2.25-5.304 3.272-3.06 1.636-5.508 3.681-7.14 6.749-0.204 0.409-0.204 0.818-0.408 1.227l0.204-0.2045c-1.632 0.818-2.244 2.25-2.856 3.886l0.204-0.2045c-2.244 1.636-3.672 4.09-5.1 6.34-2.244 3.477-4.284 6.953-6.528 10.43-1.632 2.659-2.856 5.317-4.488 7.976-1.836-0.818-2.856-2.454-3.672-3.886-0.816-1.227-0.612-2.659-0.204-3.886 0.816-2.454 1.836-4.704 3.468-6.749 1.224-1.432 2.244-3.272 3.264-4.908s1.428-3.477 0.612-5.113c-1.02-2.659 0-4.295 2.244-5.726 2.04-1.432 4.08-3.068 6.12-4.704 0.816-0.6135 1.428-1.227 2.244-1.636 3.06-1.227 4.896-3.681 6.936-5.726 1.632-1.841 1.632-2.454-0.408-4.499-0.18-0.39-0.59-0.59-1-1.21 0.408-0.818 0.612-1.636 1.224-2.25 2.448-2.454 5.1-4.704 8.772-5.522 2.448-0.409 4.692-1.023 6.936-1.636 2.04-0.6135 3.876-1.227 6.12-2.045-0.816-0.818-2.04-1.023-3.06-1.023-4.284 0.409-8.364 0.818-12.44 1.841-4.08 1.023-6.936 3.681-9.588 6.544-2.04 2.454-2.244 5.113 0 7.976-1.632 1.841-2.856 3.681-5.304 4.499-0.816 0.2045-1.428 1.023-2.244 1.432-2.244 1.636-4.284 3.272-6.528 4.908-0.408 0.2045-0.816 0.6135-1.02 0.818-2.652 1.841-3.876 4.499-2.652 7.567s0 5.317-1.836 7.567c-2.04 2.454-3.672 5.113-4.692 8.18-1.632 4.09-1.02 6.34 2.244 9.203 0.816 0.818 1.836 1.636 2.652 2.454 0.204 0 0.204 0.2045 0.204 0.409s0.204 0.6135 0 0.818c-0.612 3.681-1.02 7.158-1.836 10.63-0.816 3.886-0.816 7.362 1.02 11.04 1.632 3.272 2.856 6.953 2.856 10.84 0 3.272 0.408 6.544 0.612 10.02 0.204 1.227 0.408 2.454 1.02 3.477 0.408 1.023 1.224 2.045 1.836 3.068-0.204 0.409-0.204 0.818-0.408 1.023-4.284 4.295-4.488 9.817-3.672 15.13 1.428 8.794 5.916 16.16 11.22 23.11 1.632 2.045 4.08 2.659 6.528 3.272 1.02 2.863 2.04 5.931 2.856 8.999 0.612 2.045 1.428 3.886 2.856 5.726 1.224 1.636 2.04 3.477 2.448 5.726 0.204 1.636 1.02 3.477 1.836 5.113 1.02 1.841 1.632 3.681 1.428 5.726-0.204 2.659-0.612 5.317-1.02 8.18-0.204 1.841-0.612 3.681-0.408 5.317 0.204 3.272 1.632 6.135 4.692 7.771 1.224 0.6135 2.448 1.023 3.672 1.636 0.204 0.818 0.816 1.636 0.816 2.659 0.204 3.681 1.224 7.158 3.264 10.23 0.612 0.818 0.612 2.045 0.408 3.068-0.204 1.432-0.612 3.068-1.02 4.499-1.632 4.295-3.468 8.59-5.1 13.09-0.612 1.636-1.02 3.477-1.428 5.113-0.408 1.432-0.612 2.863-1.02 4.704-0.612-0.409-1.224-0.6135-1.428-1.023-1.632-2.25-3.264-4.499-4.692-6.544-2.652-3.886-4.08-7.976-3.876-12.88 0.204-2.454-0.612-5.113 1.02-7.567 0-3.068 0.204-6.135 0-8.999-0.408-4.499 0-8.794 1.02-13.09 0.816-3.477 0.612-6.953 0-10.43-0.408-2.454-1.632-4.499-3.672-6.135-1.836-1.432-3.264-3.068-5.1-4.499-1.632-1.227-2.04-2.863-1.836-4.908 0.204-2.863 0.408-5.726 0.204-8.59-1.428 2.863-1.836 5.931-2.448 8.794-0.408 2.454 0.204 4.704 2.244 6.544 1.836 1.636 3.468 3.272 5.304 4.908 1.224 1.023 2.04 2.25 2.448 3.681 0.612 3.068 1.02 6.34 0.204 9.408-0.816 3.681-1.428 7.362-2.04 11.04-0.204 0.818 0 1.841 0 2.659 0 3.272 0 6.749-0.204 10.02 0 1.227-0.408 2.25-1.224 3.272-0.816 0.818-1.428 1.841-2.244 2.863-2.652 3.681-2.856 7.976-2.448 12.27 0 0.818 0.408 1.841 1.02 2.454 2.448 2.863 2.652 6.135 2.04 9.408-0.408 2.25-1.224 4.295-0.612 6.544-0.204-0.2045-0.612-0.409-0.816-0.6135-0.408-0.6135-0.816-1.227-1.02-2.045-1.836-3.272-4.284-5.726-7.956-6.135-5.712-0.818-7.344-5.113-9.18-9.612-0.408-1.023-0.408-2.454-0.816-3.477-2.04-5.317-0.204-9.612 2.856-13.91 1.02-1.432 1.836-2.659 2.652-4.09 1.02-1.841 1.632-3.886 1.632-6.135 0-3.272 0-6.544-1.02-9.817-0.612-1.636-1.428-2.863-2.448-4.09-1.224 0.2045-0.816 1.023-0.816 1.432 0.204 3.272 0.408 6.544 0.816 10.02 0.408 4.09-1.02 7.567-3.468 10.43-2.244 2.454-3.06 5.522-4.284 8.385-1.02 2.659-0.204 5.317 0.816 7.976 1.02 2.25 0.816 2.25 0.612 5.113-3.264-0.818-6.12-2.25-8.772-4.295-1.428-1.227-1.632-2.863-1.224-4.499 0.816-4.09 1.224-7.976 2.856-11.86 0.612-1.432 0.816-2.863 1.224-4.295 0.204-1.636 0-3.068-1.428-4.09-1.224-1.023-1.428-2.454-0.816-3.681 1.224-3.272 2.448-6.544 3.876-9.612 0.816-1.636 1.836-3.272 1.428-5.113-0.408-2.863-1.02-5.931-1.632-8.794 0-0.2045-0.408-0.409-1.02-0.818 0.204 2.045 0.408 3.886 0.816 5.522 0.408 2.863 0 5.726-1.428 8.385-1.836 3.272-3.264 6.749-4.896 10.23-0.816 1.841-0.612 3.681 0.612 5.113 2.244 2.454 1.836 4.704 0.408 7.362-2.244 3.886-3.264 8.385-3.672 13.09 0 0.6135-0.204 1.227-0.204 1.841 0 0-0.204 0.2045-0.612 0.409-1.836-0.6135-3.06-2.25-4.284-3.477-1.02-1.023-2.244-2.045-3.06-3.477-1.224-2.045-1.224-4.295-0.816-6.544 0.816-3.477 1.632-7.158 1.632-10.84 0-0.6135 0.204-1.227 0.408-1.841 1.224-4.908 2.244-8.385 3.264-11.86 0.204-0.2045 0 0 0 0zm13.87-85.9c-2.448 1.432-2.856 3.272-3.468 4.908-1.836 5.522-2.04 10.63 2.448 15.13 0.816 0.818 1.836 1.636 2.652 2.454 1.836 1.432 3.264 3.272 3.468 5.726 0.408 6.135 0.204 12.07-3.876 17.18-1.428 1.841-2.856 3.886-3.876 6.135-2.244 5.317-2.244 9.408 3.672 11.86 2.448 1.023 4.488 2.454 6.324 4.09 3.672 3.272 5.712 7.158 5.916 12.27v6.749c0 0.818 0.408 1.841 0.612 2.659 0.204 0.2045 0.816 0.6135 1.02 0.6135 0.408 0 0.816-0.409 1.02-0.6135 0.204-0.409 0.408-1.023 0.408-1.636v-8.999c-0.204-4.09-2.652-7.362-4.488-10.84-2.856-2.045-5.1-5.317-8.772-6.34-1.632-0.409-3.06-1.432-3.876-2.659-0.612-2.454 0-4.704 1.428-6.544 1.224-1.841 2.244-3.886 3.672-5.726 1.836-2.454 3.06-5.317 3.468-8.385 0.408-3.477 0.408-6.953 0.204-10.43 0-1.227-0.816-2.659-1.428-3.681-1.02-1.636-2.244-3.272-4.08-4.295-2.04-1.227-3.672-3.477-4.08-5.726-0.612-3.272-0.816-6.544 0.204-9.817 0.816-1.432 1.02-2.454 1.428-4.09zm1.02-49.08c-2.04 2.454-3.672 3.886-4.692 5.522-2.04 3.272-3.876 6.749-5.508 10.43-1.428 2.863-1.632 5.726-0.816 8.794 1.428 0.6135 2.652 1.227 3.876 1.636 3.06 1.227 4.896 3.272 4.488 6.953-0.204 2.25 0 4.704 0 7.771 2.04-3.886 1.428-7.158 1.632-10.43 0.204-2.25-0.816-3.681-2.652-4.908-1.632-1.023-3.264-2.25-4.692-3.272-0.408-2.659 0.204-4.704 1.224-6.749 2.04-4.09 3.876-8.18 6.936-11.66 0.408-0.409 0.612-1.023 0.816-1.636 0-0.409-0.204-0.818-0.612-2.454zm23.87 96.33v-0.409c-0.204 0.2045-0.204 0.2045-0.408 0.409h0.408z"/>
     <path d="m62.29 49.42c1.225-0.8177 2.859-1.227 3.88-2.249 5.309-4.702 11.44-7.768 17.97-10.43 6.739-2.862 13.89-5.11 21.24-6.541 11.03-2.044 21.85-1.635 32.67 2.453 1.429 0.6133 2.859 1.022 4.288 1.431 7.76 2.044 14.5 6.133 20.62 11.04 3.88 3.066 6.739 6.746 8.985 11.24 0.6126 1.431 1.225 2.657 1.838 4.088 1.225 3.475 3.063 6.541 5.309 9.403 0.8168 0.8177 1.225 2.044 1.634 3.066 0.2042 0.2044 0.2042 0.6132 0.4084 0.8177 5.105 12.47 3.676 8.381 3.676 21.05 0 1.84-0.4084 3.68-1.021 5.315-2.45 5.928-4.901 12.06-7.351 17.99 0 0.2044-0.4084 0.2044-0.8168 0.4088v-3.066c0.2042-2.862 0.4084-5.724 0.6126-8.586 0.2042-2.657-0.2042-5.11-1.634-7.359-1.838-2.862-3.472-5.928-5.309-8.994-2.042-3.066-5.105-4.497-8.168-6.133-0.8168-0.4088-1.838-0.4088-2.655-0.2044-3.063 0.4088-5.514-0.6132-7.556-3.066-0.2042-0.4088-0.6126-0.6132-1.021-0.8177-1.429-1.227-3.063-1.84-4.901-2.044-2.45-0.2044-5.105-0.4088-7.556-1.022-1.225-0.2044-2.246-1.022-3.267-1.431-1.634-0.8177-3.063-1.84-5.105-1.84-2.246 0-4.493-0.2044-6.535 1.431s-4.288 1.227-6.126-0.4088c-1.838-1.635-3.472-3.271-5.514-5.315-3.88-1.431-7.147 0.8177-10.21 3.475-0.8168-0.2044-1.429-0.4088-2.246-0.6133-1.634-0.4088-3.063-0.2044-4.697 0.8177-2.042 1.431-4.288 2.249-6.33 3.475-2.246 1.227-4.697 2.249-6.535 3.884-2.859 2.249-5.718 4.293-9.802 3.884-0.6126-1.84 0-3.475 0.4084-5.315 0.6126-2.453 1.021-5.11 1.021-7.563 0.2042-4.293 0.4084-8.381 1.021-12.67 0.4084-2.249 1.225-4.293 2.042-6.541 0.8168-2.249 0.8168-3.475-0.2042-3.475-1.634 0-1.838 1.431-2.246 2.453-1.838 4.088-3.063 8.177-3.267 12.67 0 3.884-0.8168 7.768-1.021 11.65-0.2042 3.271 0 6.541 0 10.43-2.042 2.249-4.288 4.906-6.739 7.563-0.6126 0.8177-1.021 1.84-1.634 2.657-1.225 2.044-2.246 4.293-3.472 6.337-1.634-0.2044-1.429-1.431-1.429-2.044-0.2042-1.226-0.2042-2.657-0.2042-4.088 0.2042-5.315 0.2042-10.63 0.4084-15.94 0-1.022 0.2042-2.044 0.2042-3.271 0.2042-0.2044 0.4084-0.4088 0.4084-0.6132l-0.2042-0.2044c0 0.4088-0.2042 0.6132-0.2042 1.022-0.2042 0.2044-0.6126 0.2044-0.8168 0.4088-0.2042 0.8177-0.6126 1.635-0.6126 2.657-0.6126 6.95-1.225 13.9-1.429 20.85-0.2042 2.862 1.021 5.724 0.6126 8.586-0.4084 2.657-0.6126 5.315-0.6126 7.972s0.4084 5.315 2.246 7.563c1.225 1.635 1.225 3.884 1.021 6.337-0.8168-0.2044-1.429-0.4088-1.838-0.6132-2.246-1.431-3.676-3.475-5.105-5.724-0.4084-0.8177-0.6126-1.635-0.8168-2.657-0.4084-3.68-0.8168-7.563-1.225-11.24-0.4084-3.68-1.634-7.155-3.267-10.43-1.429-2.862-1.225-5.724-0.8168-8.79 0.6126-4.088 1.634-7.972 2.45-11.86 0.6126-3.066 2.042-5.928 3.676-8.79 2.246-4.088 4.493-8.177 6.33-12.47 0.6126-1.431 1.634-2.657 2.246-3.884 0.6126-0.8177 1.021-1.84 1.429-2.862l-0.2042 0.2044c1.838-0.6132 2.655-2.044 3.063-3.475zm87.4-4.088c4.084 4.702 8.168 8.79 10.62 14.1 2.859 6.133 6.126 12.27 6.943 19.01 0 0.2044 0.2042 0.6133 0.2042 0.8177 0.2042 0.4088 0.6126 0.8177 0.8168 0.8177 0.4084-0.2044 1.225-0.4088 1.429-0.8177 0.6126-2.453 1.021-5.11 0-7.563-1.634-4.293-3.267-8.381-5.105-12.67-0.8168-1.84-2.042-3.68-3.267-5.315-2.042-2.862-4.493-5.315-6.535-8.177-1.429-2.249-3.472-2.862-5.718-3.884-0.6126 0.8177-1.021 1.227-1.429 1.84-0.4084-0.2044-0.4084-0.4088-0.6126-0.4088-0.8168-0.8177-1.225-2.249-2.859-1.635-1.021 0.4088-0.8168 1.635 0.2042 3.68 2.859 5.11 5.105 10.63 5.922 16.56l0.6126 3.066c0.2042 0.4088 0.6126 0.8177 1.225 1.227 1.021-2.249 1.225-4.293 1.021-6.541-0.4084-3.066-1.429-5.928-2.45-8.586-0.2042-1.635-1.429-3.066-1.021-5.519zm28.38 59.08c0.6126-0.2044 0.8168-0.2044 1.021-0.2044 0.4084-0.8177 0.8168-1.635 0.8168-2.453 1.225-8.177 0.6126-16.15-1.634-24.12-0.2042-1.022-1.021-2.044-1.634-3.066-0.2042-0.4088-1.021-0.4088-1.838-0.8177 0.4084 1.84 0.8168 3.271 1.021 4.702 0.4084 5.724 0.8168 11.45 1.225 17.17-0.2042 2.862 0.2042 5.724 1.021 8.79zm-50.7-64.39c0.8168 1.022 1.429 1.431 1.634 2.044 1.225 3.68 2.246 7.155 3.267 10.83 1.021 4.088 1.838 8.177 2.655 12.47 0.2042 0.6132 0.6126 1.227 1.021 2.044 1.225-2.249 1.634-4.293 1.021-6.541-0.6126-2.657-1.021-5.315-1.429-7.972-0.6126-4.293-3.063-7.768-4.493-11.86-0.2042-0.4088-0.8168-1.022-1.225-1.227-0.6126-0.2044-1.225 0.2044-2.45 0.2044zm-28.35 2.66c-0.2042 1.431-0.6126 2.044-0.6126 2.862-0.2042 6.337-0.2042 12.67-0.4084 19.01 0 0.8177 0 1.635 0.4084 2.249 0.2042 0.6133 0.8168 1.022 1.225 1.431 1.225-1.022 1.429-2.249 1.429-3.475 0-5.928 0-11.86-0.2042-17.58 0-1.022-0.4084-2.044-0.6126-3.066 0-0.4088-0.4084-0.6132-1.225-1.431zm16.54 21.87h1.021c0.4084-5.928 1.021-11.65 0.6126-17.58-0.2042-2.657-0.8168-5.519-2.042-8.381-1.429 1.227-1.021 2.453-1.021 3.475 0.2042 4.293 0.4084 8.381 0.6126 12.67 0.2042 2.453 0 4.906 0.2042 7.155 0.2042 1.022 0.4084 1.84 0.6126 2.657zm-28.79 9.403c0.4084-0.4088 0.8168-0.6132 0.8168-0.8177 0.4084-9.608 1.634-19.22 1.021-28.82 0-0.4088-0.4084-0.6133-0.6126-1.227-0.4084 0.4088-0.8168 0.8177-0.8168 1.022-0.2042 1.227-0.2042 2.453-0.2042 3.68 0 5.519 0 11.24-0.8168 16.76-0.4084 2.657-0.2042 5.519-0.2042 8.177 0.2042 0.4088 0.6126 0.8177 0.8168 1.227zm-29.42-0.4v-0.41l-0.2042 0.4088z"/>
     <path d="m93.29 253.4c1.224 0 2.449-0.2055 3.469-0.2055 3.469 0 6.939 0 10.41-0.2055 4.081 0 6.53-1.028 9.796-3.905 0.4082-1.644 0.6122-3.289 1.02-4.727 0.2041-1.439 0.4082-2.672 0.4082-4.111-0.6122-5.344-0.6122-10.69-2.449-15.62-0.8163-2.261-1.633-4.522-2.245-6.577 0.2041-0.4111 0.2041-0.6166 0.4082-0.8222 0.2041 0 0.2041-0.2055 0.4081-0.2055h17.35c0.6122 1.644 0.4082 3.289 0.2041 4.933-0.4081 7.194 1.429 14.18 3.673 20.97 0.8163 2.261 2.041 3.7 4.49 4.727 5.714 2.672 11.63 2.672 17.75 1.233 2.041-0.4111 4.081-1.028 6.122-1.644 1.633-0.4111 3.265-0.8222 4.898-0.4111v11.92 11.92c-3.877 3.289-7.551 6.372-11.22 9.866-1.224 1.233-2.041 3.083-3.469 4.316-1.429 1.028-3.469 1.233-4.694 2.467-2.857 2.672-5.51 5.55-8.367 8.222-1.429 1.439-3.061 2.878-4.694 4.316-1.02 1.028-2.041 2.261-2.857 3.494-0.8163 1.233-1.633 2.261-3.265 2.672-0.6122-0.6166-1.429-1.233-2.245-2.055-0.6122-0.6166-1.224-1.439-2.041-1.85-6.122-3.7-10.61-9.455-16.33-13.57-2.041-1.439-4.081-3.083-6.122-4.522s-3.469-3.289-4.286-5.55c-2.653-6.988-4.49-14.18-6.122-21.38-0.2041-0.6166-0.2041-1.233-0.2041-1.85-0.2041-0.8222 0-1.233 0.2041-1.85zm26.33 12.33c0.6122-1.85 0-3.083-1.224-3.7-2.653-1.644-5.306-3.289-8.163-4.727-1.429-0.6166-3.061-0.6166-4.286 0.8222 4.49 2.467 8.775 4.933 13.67 7.605zm23.06-9.455c-5.918 1.233-6.122 1.439-8.163 4.316 3.265-0.4111 5.918-1.028 8.163-4.316z"/>
     <path d="m99.21 285.3c3.091 2.055 5.975 4.315 8.654 6.575 3.297 2.877 6.594 5.959 9.89 8.836 0.8242 0.6164 1.648 1.438 2.473 2.055 2.885 1.849 5.769 3.904 7.624 6.781 3.091 0.2055 5.563-0.8219 7.212-3.288 1.236-2.055 3.091-3.699 4.945-5.137 3.297-2.877 6.182-5.959 9.272-8.836 1.854-1.849 3.709-3.493 6.182-4.521 0.6182-0.2055 1.442-0.6164 1.854-1.233 4.121-4.11 9.066-7.192 12.78-11.71 0.6182-0.6164 1.236-1.027 2.267-1.849 0.8242 2.26 1.03 3.904-0.4121 5.342-1.854 1.849-3.709 3.493-5.976 5.753 0 0.411-0.206 1.233-0.206 2.055-0.206 1.644-1.03 2.877-2.473 3.493-2.885 1.233-4.739 3.082-5.769 5.959-1.854 0.2055-3.503 0.411-5.357 0.6164-0.4121 1.849-0.6182 3.699-1.03 5.137-2.885 1.027-5.563 2.055-8.448 3.082-0.206 1.027-0.4121 1.849-0.6182 2.671-0.4121 1.849-1.236 3.082-3.091 4.11-2.885 1.644-5.151 4.11-7.006 6.781-2.473-1.027-2.473-1.027-4.533-3.082-0.4121 0-0.8242 0.2055-1.236 0.2055-0.4121 0.2055-0.8242 0.2055-1.236 0.411-0.206-0.411-0.6182-0.411-0.6182-0.8219-0.206-0.8219-0.4121-1.438-0.6182-2.26-1.236-3.493-3.297-6.164-7.624-5.753-0.4121 0-0.8242-0.2055-1.648-0.2055-0.4121-0.8219-0.8242-1.644-1.236-2.671-0.206-0.6164-0.206-1.233-0.4121-1.849-0.8242-2.466-2.267-4.521-5.769-3.493-0.6182 0.2055-1.03 0.2055-2.061 0.411-0.206-1.644-0.4121-2.877-0.206-4.315 0.206-2.671-0.8242-4.315-3.297-5.342-0.6182-0.2055-1.03-0.411-1.648-0.8219-0.79-0.2-1-1.4-0.58-3.1z"/>
     <path d="m122 25.49c-3.259 0.8086-5.296 0.4043-7.333 0.6064-5.907 0.2021-11.61 0.8086-17.11 3.639-2.037 1.011-4.481 1.415-6.926 2.021-3.87 1.011-7.537 1.819-11 3.841-0.41 0.2-0.82 0.2-1.63 0.4 0-0.8086 0-1.213 0.2037-1.819 0.2037-0.6064 0.4074-1.213 0.8148-1.617 3.667-3.841 6.926-7.884 11.61-10.51 2.648-1.415 5.5-2.224 8.759-2.021h4.074c8.148 0 8.148 0 15.28 3.234 1.019 0.4043 1.63 1.213 3.259 2.224z"/>
     <path d="m58.97 167c-0.6167-0.8187-1.233-1.637-1.85-2.456-4.317-5.526-7.606-11.67-9.867-18.22-1.028-2.865-1.028-5.936-1.233-9.006-0.2056-2.251 1.028-4.094 3.083-5.322 2.672 1.228 4.317 3.275 5.344 5.936 1.028 3.275 2.261 6.55 2.878 10.03 1.04 6.1 1.86 12.5 2.68 18.8-0.41 0.2-0.82 0.2-1.03 0.2z"/>
     <path d="m101 178.3c1.245-1.237 2.906-1.031 4.358-1.237 6.642-0.2061 13.08-1.443 19.72-1.031 0.8302 0 1.868 0 2.698-0.4122 3.113-1.031 6.434-0.4122 9.755-0.4122 0.2076 0.8245 0.6226 1.443 0.4151 1.855-2.075 7.214-6.019 12.57-13.49 14.84-1.245 0.4122-2.491 1.031-3.943 1.443-2.283 0.6184-4.774 1.237-7.057-0.2061-0.6226-0.4122-1.453-0.4122-2.075-0.6184-1.868-0.6184-3.113-1.649-4.151-3.504-2.075-3.504-4.151-7.214-6.226-10.72z"/>
     <path d="m115 196.1c2.462-1.658 5.333-0.9213 8-1.106 0 2.027-0.8205 3.501-2.462 3.869-1.026 0.1842-2.051 0.1842-3.077-0.1842-1.026-0.3685-2.256-1.106-2.462-2.58z"/>
     <path d="m124 172.6c-2.2 0.5448-4.2 0.5448-6 0.1816 0.8-1.998 1.8-2.906 3-2.724 1.8 0 2.4 1.09 3 2.543z"/>
     <path d="m108 173.9c0.5714-1.328 0.9524-1.992 1.333-2.877 1.333 0.2213 1.905 1.328 2.667 2.213-0.381 0.8852-0.381 0.8852-4 0.6639z"/>
    </g>
    <g fill="#3c3c3c">
     <path d="m19.95 220.4c0.4104-1.841 1.026-3.478 1.026-5.319 0.4104-4.501-1.026-8.183-4.72-11.05-3.489-2.659-6.567-5.728-9.85-8.592-2.668-2.455-4.309-5.523-4.925-9.001-1.436-6.342-2.257-12.89-0.4104-19.23 0.6156-2.046 0.8208-4.091 1.231-6.137 0.8208-3.478 1.847-6.751 3.694-9.615 2.257-3.682 4.515-7.569 7.388-11.05 2.873-3.478 4.515-7.569 6.362-11.46 1.026-2.25 0.6156-3.273-1.436-4.705-2.052-1.227-4.309-2.455-6.156-3.682-1.026-0.8183-2.257-1.637-3.078-2.659-1.642-2.455-2.257-5.114-3.899-7.569-0.6156-0.8183-0.4104-2.046-0.2052-3.069 0.6156-5.933 2.668-11.25 6.772-15.55l6.772-6.751c0.8208-0.8183 1.847-1.637 2.463-2.659 4.925-6.137 4.72-9.819 1.026-15.34-2.668-4.091-4.104-8.387-3.899-13.3 0-1.841 0.4104-3.478 1.231-5.319 3.283-6.137 6.977-11.66 12.93-15.75 4.309-2.864 8.003-6.342 12.72-8.797 1.436-0.8183 2.463-1.841 3.078-3.273 1.026-2.25 2.052-4.501 2.668-6.751 0.6156-2.25 2.052-4.091 3.899-5.523 2.257-1.637 4.515-3.069 7.182-3.682 1.847-0.4091 3.489-1.023 5.13-1.841 3.283-1.637 6.772-2.455 10.47-2.659 3.899-0.2046 7.798 0 11.9 0 1.231 0 2.463 0.4091 3.489 0.8183 3.694 1.637 7.388 3.478 11.08 5.319 2.873 1.432 5.541 3.069 8.003 5.114 1.847 1.432 3.899 3.069 2.873 6.137 1.436 0.6137 2.463 1.227 3.489 1.637 4.104 1.227 7.388 3.478 10.06 6.751 0.6156 0.8183 1.847 1.227 2.668 1.432 7.182 1.227 13.75 4.091 20.32 6.546 5.541 2.25 10.67 5.319 15.19 9.206 4.104 3.478 7.388 7.569 9.44 12.68 0.6156 1.432 1.231 2.659 1.847 4.091 1.231 3.478 3.283 6.342 5.541 9.206 1.436 1.637 2.257 3.887 3.283 5.933 2.463 4.705 4.104 9.41 3.899 14.73 0 3.069-0.2052 6.137-0.2052 9.001 0 2.25 0.2052 4.501 0.4104 6.751 0.2052 3.069-0.2052 5.933-1.436 8.797-1.847 4.705-2.463 9.615-5.13 13.71 0.4104 0.4091 0.4104 0.6137 0.4104 0.6137 3.899 0.8183 5.13 3.682 5.336 7.365 0.2052 3.069 0.4104 5.933-1.231 8.797-1.026 1.841-1.436 4.091-2.052 5.933-1.642 4.091-4.309 7.774-6.772 11.25-1.436 2.046-3.694 3.273-5.951 4.091-1.642 0.6137-2.463 1.637-2.873 3.273-1.847 7.16-5.541 13.5-8.208 20.25-0.2052 0.4092-0.4104 0.8183-0.6156 1.227-5.541 8.387-12.11 15.96-20.52 21.68l-4.925 3.069c-0.6156 4.501-0.4104 11.66 0.2052 15.55 0.6156 3.273 1.231 6.546 1.847 9.819 0.2052 1.841 1.231 3.069 2.873 3.887 1.642 0.6137 3.283 1.637 5.13 1.841 3.694 0.4092 7.593 0.4092 11.29-0.6137 3.899-1.023 8.003-1.637 12.11-2.659 0.4104-1.432 0.8208-2.864 1.231-4.296 1.436-1.227 3.489-1.637 5.13-2.25 2.668-1.023 3.489-0.4091 5.13 2.046 0.2052 0.2046 0.2052 0.6137 0.4104 0.8183 0 0.2046 0.2052 0.2046 0.4104 0.4091 1.847 0.4091 3.899 0 5.746-0.6137 1.231-0.4091 2.257-0.8183 3.489-1.023 4.515-0.6137 8.003 0.4092 11.49 3.682 5.13 4.91 7.388 11.05 7.593 17.8 0.4 4.7 0.4 9.2 0.4 13.5 0 1.432 0 2.864-0.4104 4.091-2.257 5.523-2.463 11.46-2.873 17.39-0.6156 9.206-1.436 18.41-2.052 27.62-0.2052 2.046 0 3.887 0 5.933 0 1.227-0.2052 2.455-0.2052 3.887-0.8208-0.4091-1.436-0.6137-1.847-1.023-1.026-1.227-1.026-2.864-0.8208-4.296 0.2052-4.91 0.4104-10.02 0.4104-14.93v-9.001c0-1.432 0-2.659 0.4104-4.091 3.283-13.09 4.104-26.59 3.489-40.1-0.2052-4.705-1.642-9.615-5.541-13.09-0.4104-0.4091-0.8208-0.8183-1.231-1.227-2.463-3.478-5.951-3.478-9.44-2.659-2.257 0.6137-4.515 1.432-6.977 1.637-1.847 0.2046-2.463 1.227-2.463 3.273 0 4.296 0.2052 8.797 0.2052 13.09 0 2.659 0.2052 5.114-0.6156 7.569-0.6156 1.637 0.2052 3.273 0.4104 4.91 0.8208 5.114 2.052 10.23 1.642 15.75-0.2052 3.273 0.4104 6.546 0.8208 9.819 0.6156 7.569 3.283 14.73 4.104 22.3 0.4104 4.091 1.436 7.978 2.463 12.07 0.4104 1.637 0.4104 3.273-1.231 4.705-1.847-1.432-2.668-3.478-2.873-5.523-0.6156-5.933-2.463-11.46-2.873-17.39-0.2052-2.25-0.8208-4.501-1.231-6.751-1.231-4.501-1.642-9.206-1.436-13.91 0-1.227 0.2052-2.455-0.2052-3.682-0.8208-2.864-1.026-5.933-1.026-9.001 0-4.501-1.026-9.001-0.4104-13.5-1.231-3.478-0.2052-7.16 0-10.64 0.2052-4.501 0-9.001-0.2052-13.71 0-0.8183-0.4104-1.637-0.4104-2.659-3.078 0.2046-3.078 0.2046-4.925 1.432v8.183c0 3.682-0.2052 7.569 0.4104 11.25 0.4104 2.25 0 4.91 0.2052 7.16 0 0.8183 0 1.841 0.2052 2.659 2.257 7.16 1.026 10.64-5.541 14.12-0.2052 0-0.2052 0.2046-0.6156 0.6137 0 2.455-1.436 4.296-3.694 5.523-1.847 1.023-3.489 2.455-3.694 4.705-0.2052 1.227-1.231 2.046-2.668 2.25-1.026 0.2046-2.052 0.2046-3.283 0.4091 0 1.227 0.2052 2.25 0.2052 3.273 0 2.455-0.4104 2.864-2.873 3.069-3.078 0.2046-3.078 0.2046-5.746 1.841-0.4104 1.637-0.8208 3.273-1.436 4.705-0.6156 1.637-1.642 2.455-3.489 2.455-0.6156 0-1.231 0-1.847 0.2046-0.8208 0.4091-1.436 1.023-2.052 1.637-0.4104 0.4091-0.6156 1.023-0.6156 1.637-0.4104 2.046-1.847 3.069-3.694 3.478-2.052 0.6137-3.694-0.2046-4.515-2.25-0.6156 0.2046-1.231 0.4091-1.847 0.4091-2.873 0.4091-4.72-0.8183-5.541-3.478-0.4104-1.227-0.6156-2.25-1.026-3.478-0.2052-0.6137-0.6156-1.023-1.231-1.637-1.231 0-2.463 0-3.899-0.2046-2.257-0.2046-3.283-0.8183-3.899-3.069-0.6156-1.841-0.8208-3.887-1.436-5.933-1.231 0.2046-2.052 0.4091-3.078 0.4091-2.463 0.2046-3.694-0.6137-4.104-3.069-0.2052-0.8183-0.2052-1.841-0.2052-2.659 0-1.023-0.2052-2.046-0.2052-3.273-1.231-0.6137-2.463-1.227-3.694-1.841-1.847-0.8183-2.668-2.046-2.257-3.887 0-0.6137 0.2052-1.227 0.2052-1.841 0.6156-2.455 0.2052-4.705-1.231-6.955-0.8208-1.637-1.436-3.273-1.847-5.114-1.436-4.501-2.873-9.001-3.489-13.71-0.2052-1.637-0.4104-3.273-0.2052-4.91 0.2052-1.841 0-3.887-0.2052-5.933 0-0.6137-0.8208-1.227-1.231-1.841-4.309 2.659-3.694 6.751-3.489 10.64 0.2052 3.682 1.026 7.569 1.642 11.25 0 0.2046 0.2052 0.6137 0.2052 0.8183 0.4104 6.137 1.026 12.27 1.436 18.62 0 1.023-0.2052 2.046-0.4104 3.069-0.8208 3.682-1.642 7.365-2.463 11.05 0 0.4091-0.2052 0.8183-0.2052 1.432-0.2052 5.319-0.4104 10.64-0.6156 15.96v9.001c0 1.432-0.2052 3.069-0.2052 4.501-0.2052 2.455-0.4104 4.91-0.6156 7.16 0 0.8183 0 1.432-0.2052 2.25-0.2052 0.8183-0.4104 1.841-1.436 2.046-0.8208 0.2046-1.847-0.8183-1.847-2.25 0-2.659 0-5.523 0.2052-8.183 0-1.841 0.4104-3.682 0.6156-5.319 0.4104-10.23 0.6156-20.66 0.8208-30.89 0-2.25 0.4104-4.501 1.231-6.546 1.026-3.273 2.052-6.546 1.436-10.23-0.2052-1.432-0.2052-3.069-0.2052-4.501 0.2052-4.501-0.8208-9.001-1.436-13.5 0-0.2046-0.4104-0.4091-0.6156-0.8183-2.257 4.091-3.489 8.387-4.104 13.3-0.8208-0.4092-1.642-0.4092-2.052-0.8183-2.257-1.637-4.72-3.273-5.951-6.137-0.4104-0.8183-1.231-1.432-1.642-2.046-2.668-3.478-4.72-7.365-5.541-11.87 0-0.4091-0.2052-0.8183-0.4104-1.227 0-0.2046-0.2052-0.2046-0.6156-0.4091-0.2052 0.4091-0.6156 0.6137-0.6156 1.023-0.4104 3.069-0.8208 5.933 0.8208 8.797 1.436 2.455 1.847 5.114 2.052 7.774 0.2052 4.091-0.4104 8.183-2.257 11.87-0.6156 1.227-1.026 2.455-0.8208 3.887 0.2052 2.864 0.2052 2.864-0.6156 5.319 1.436 4.91 3.078 9.819 4.104 14.93 1.026 5.114 1.436 10.23 2.052 15.34 0.6156 4.296 1.231 8.592 1.847 13.09 0.2052 1.841 0.2052 3.887 0.2052 5.933 0 1.023-0.6156 1.637-1.642 1.841-1.026 0.2046-2.052-0.8183-2.052-2.046 0-4.501-1.436-9.001-1.847-13.5-0.4104-5.114-1.026-10.23-1.642-15.34-0.8208-6.751-2.463-13.3-4.515-19.84-0.2052-0.8183-0.8208-1.841-0.8208-2.659 0.4104-3.682-1.026-7.16-1.642-11.05-1.231-1.023-2.463-2.25-4.309-2.864-3.489-1.023-6.156-3.273-8.619-5.933-1.436-1.637-2.873-2.864-5.13-3.273-1.231-0.2046-2.463-1.227-3.694-1.637-0.6156-0.2046-1.436-0.6137-2.052-0.4091-2.257 0.4091-3.489-0.4091-4.515-2.25-0.4104-0.8183-1.026-1.432-1.642-2.25-1.231-0.2046-2.463-0.4091-3.489-0.8183-6.772-2.659-11.49-8.183-9.44-16.37 0.6156-2.659 1.436-5.319 1.847-7.978 0.6156-4.91 3.078-9.206 5.541-13.3-0.2052 0 0.4104-0.2046 0.8208-0.4091-1.026 3.478-2.052 6.955-3.283 10.64-0.2052 0.6137-0.4104 1.227-0.4104 1.841 0.2052 3.682-0.8208 7.16-1.642 10.84-0.6156 2.25-0.4104 4.705 0.8208 6.546 0.8208 1.227 1.847 2.25 3.078 3.478 1.436 1.432 2.668 2.864 4.309 3.478 0.4104-0.2046 0.6156-0.4091 0.6156-0.4091 0-0.6137 0.2052-1.227 0.2052-1.841 0.4104-4.501 1.436-9.001 3.694-13.09 1.436-2.659 2.052-4.91-0.4104-7.365-1.436-1.432-1.436-3.273-0.6156-5.114 1.642-3.478 3.078-6.955 4.925-10.23 1.436-2.659 1.847-5.319 1.436-8.387-0.2052-1.841-0.4104-3.478-0.8208-5.523 0.6156 0.4092 1.026 0.6137 1.026 0.8183 0.6156 2.864 1.231 5.933 1.642 8.797 0.2052 1.841-0.8208 3.478-1.436 5.114-1.436 3.069-2.668 6.342-3.899 9.615-0.4104 1.432-0.4104 2.659 0.8208 3.682 1.436 1.023 1.642 2.455 1.436 4.091-0.2052 1.432-0.6156 3.069-1.231 4.296-1.642 3.887-2.052 7.978-2.873 11.87-0.4104 1.637-0.2052 3.478 1.231 4.501 2.668 2.046 5.541 3.478 8.824 4.296 0.4104-2.659 0.4104-2.659-0.6156-5.114-1.026-2.659-1.847-5.319-0.8208-7.978 1.231-2.864 2.052-5.933 4.309-8.387 2.463-2.864 3.899-6.342 3.489-10.43-0.4104-3.273-0.6156-6.546-0.8208-10.02 0-0.4091-0.4104-1.227 0.8208-1.432 1.026 1.227 1.847 2.455 2.463 4.091 1.026 3.273 1.026 6.546 1.026 9.819 0 2.25-0.6156 4.296-1.642 6.137-0.8208 1.432-1.642 2.864-2.668 4.091-3.078 4.296-4.925 8.592-2.873 13.91 0.4104 1.023 0.4104 2.455 0.8208 3.478 1.847 4.296 3.489 8.797 9.235 9.615 3.694 0.6137 6.156 3.069 8.003 6.137 0.4104 0.6137 0.6156 1.432 1.026 2.046 0.2052 0.2046 0.6156 0.4091 0.8208 0.6137-0.6156-2.455 0.2052-4.501 0.6156-6.546 0.6156-3.273 0.4104-6.546-2.052-9.41-0.6156-0.6137-1.026-1.637-1.026-2.455-0.4104-4.296-0.2052-8.592 2.463-12.27 0.6156-1.023 1.436-2.046 2.257-2.864 0.8208-1.023 1.231-2.046 1.231-3.273 0-3.273 0-6.751 0.2052-10.02 0-0.8183-0.2052-1.841 0-2.659 0.6156-3.682 1.231-7.365 2.052-11.05 0.6156-3.273 0.4104-6.342-0.2052-9.41-0.4104-1.637-1.231-2.659-2.463-3.682-1.847-1.637-3.489-3.273-5.336-4.91-2.052-1.841-2.668-3.887-2.257-6.546 0.6156-3.069 1.026-6.137 2.463-8.797 0 2.864 0 5.728-0.2052 8.592-0.2052 1.841 0.2052 3.478 1.847 4.91 1.847 1.432 3.283 3.069 5.13 4.501 2.052 1.637 3.283 3.478 3.694 6.137 0.6156 3.478 0.8208 6.955 0 10.43-1.026 4.296-1.231 8.592-1.026 13.09 0.2052 3.069 0 6.137 0 9.001-1.642 2.25-1.026 4.91-1.026 7.569-0.2052 4.705 1.231 9.001 3.899 12.89 1.642 2.25 3.078 4.501 4.72 6.546 0.2052 0.4091 0.8208 0.6137 1.436 1.023 0.4104-1.841 0.6156-3.273 1.026-4.705 0.4104-1.841 0.8208-3.478 1.436-5.114 1.642-4.296 3.489-8.592 5.13-13.09 0.6156-1.432 0.8208-2.864 1.026-4.501 0.2052-1.023 0.2052-2.25-0.4104-3.069-2.052-3.069-3.078-6.546-3.283-10.23 0-0.8183-0.6156-1.637-0.8208-2.659-1.231-0.6137-2.463-1.023-3.694-1.637-3.078-1.637-4.515-4.296-4.72-7.774 0-1.841 0.2052-3.682 0.4104-5.319 0.4104-2.659 0.6156-5.319 1.026-8.183 0.2052-2.046-0.4104-3.887-1.436-5.728-0.8208-1.637-1.642-3.273-1.847-5.114-0.2052-2.25-1.026-4.091-2.463-5.728-1.436-1.637-2.052-3.682-2.873-5.728-1.026-3.069-2.052-5.933-2.873-9.001-2.463-0.8183-4.925-1.227-6.567-3.273-5.336-6.955-9.85-14.32-11.29-23.12-0.8208-5.523-0.8208-10.84 3.694-15.14 0.2052-0.2046 0.2052-0.6137 0.4104-1.023-0.6156-1.023-1.436-1.841-1.847-3.069-0.4104-1.023-0.8208-2.25-1.026-3.478-0.4104-3.273-0.6156-6.546-0.6156-10.02 0-3.887-1.231-7.569-2.873-10.84-1.847-3.682-1.847-7.16-1.026-11.05 0.8208-3.478 1.231-7.16 1.847-10.64v-0.8183c0-0.2046-0.2052-0.2046-0.2052-0.4091-0.8208-0.8183-1.847-1.637-2.668-2.455-3.283-2.864-3.899-5.114-2.257-9.206 1.026-3.069 2.668-5.728 4.72-8.183 1.847-2.046 2.873-4.501 1.847-7.569-1.026-3.069 0-5.728 2.668-7.569 0.4104-0.2046 0.8208-0.6137 1.026-0.8183 2.257-1.637 4.309-3.273 6.567-4.91 0.8208-0.6137 1.436-1.227 2.257-1.432 2.257-0.8183 3.694-2.659 5.336-4.501-2.257-2.659-2.052-5.523 0-7.978 2.668-2.864 5.541-5.523 9.645-6.546 4.104-1.227 8.414-1.432 12.52-1.841 1.026-0.2046 2.257 0 3.078 1.023-2.257 0.8183-4.104 1.432-6.156 2.046-2.257 0.6137-4.72 1.227-6.977 1.637-3.694 0.8183-6.156 3.069-8.824 5.523-0.6156 0.6137-0.8208 1.432-1.231 2.25 0.4104 0.4091 0.6156 0.8183 1.026 1.227 1.847 2.046 2.052 2.864 0.4104 4.501-2.052 2.25-3.899 4.705-6.977 5.728-0.8208 0.4091-1.436 1.023-2.257 1.637-2.052 1.637-4.104 3.273-6.156 4.705s-3.283 3.069-2.257 5.728c0.8208 1.841 0.4104 3.682-0.6156 5.114-1.026 1.637-2.052 3.478-3.283 4.91-1.642 2.046-2.668 4.296-3.489 6.751-0.4104 1.227-0.6156 2.659 0.2052 3.887 1.026 1.432 1.847 3.069 3.694 3.887 1.436-2.659 2.873-5.319 4.515-7.978 2.052-3.478 4.309-6.955 6.567-10.43 1.436-2.25 2.873-4.705 5.13-6.342-0.4104 1.023-0.8208 1.841-1.436 2.864-0.8208 1.227-1.847 2.455-2.257 3.887-1.847 4.296-4.104 8.387-6.362 12.48-1.436 2.864-3.078 5.728-3.694 8.797-0.8208 3.887-1.847 7.774-2.463 11.87-0.4104 3.069-0.6156 5.933 0.8208 8.797 1.642 3.273 2.668 6.751 3.283 10.43 0.4104 3.682 0.8208 7.569 1.231 11.25 0.2052 0.8183 0.2052 1.841 0.8208 2.659 1.436 2.25 2.873 4.296 5.13 5.728 0.4104 0.2046 1.026 0.4091 1.847 0.6137 0-2.455 0.2052-4.705-1.026-6.342-1.847-2.25-2.257-4.91-2.257-7.569s0.4104-5.319 0.6156-7.978c0.4104-2.864-0.6156-5.728-0.6156-8.592 0.4104-6.955 1.026-13.91 1.436-20.87 0-0.8183 0.4104-1.841 0.6156-2.659 0-0.2046 0.4104-0.2046 0.8208-0.4091l-0.2052-0.2046c0 1.023-0.2052 2.046-0.2052 3.069-0.2052 5.319-0.4104 10.64-0.4104 15.96 0 1.432 0 2.659 0.2052 4.091 0.2052 0.6137 0 1.841 1.436 2.046 1.026-2.046 2.257-4.091 3.489-6.342 0.4104-1.023 0.8208-1.841 1.642-2.659 2.257-2.659 4.72-5.523 6.772-7.569 0-3.887-0.2052-7.16 0-10.43 0.2052-3.887 0.8208-7.774 1.026-11.66 0.2052-4.501 1.231-8.592 3.283-12.68 0.4104-1.023 0.6156-2.455 2.257-2.455 1.026 0 1.026 1.432 0.2052 3.478s-1.642 4.296-2.052 6.546c-0.6156 4.091-0.8208 8.387-1.026 12.68 0 2.659-0.4104 5.114-1.026 7.569-0.4104 1.637-1.026 3.478-0.4104 5.319 4.104 0.4091 6.977-1.637 9.85-3.887 2.052-1.637 4.309-2.659 6.567-3.887 2.052-1.227 4.515-2.046 6.362-3.478 1.642-1.023 3.078-1.227 4.72-0.8183 0.6156 0.2046 1.436 0.4091 2.257 0.6137 3.078-2.659 6.362-4.91 10.26-3.478 2.052 1.841 3.694 3.682 5.541 5.319 1.847 1.841 4.104 2.046 6.156 0.4091 2.052-1.432 4.309-1.432 6.567-1.432 1.847 0 3.489 1.023 5.13 1.841 1.026 0.6137 2.052 1.227 3.283 1.432 2.463 0.4091 5.13 0.8183 7.593 1.023 1.847 0.2046 3.489 0.8183 4.925 2.046 0.4104 0.2046 0.8208 0.6137 1.026 0.8183 2.052 2.455 4.515 3.478 7.593 3.069 0.8208-0.2046 1.847 0 2.668 0.2046 3.078 1.637 6.362 3.273 8.208 6.137 1.847 2.864 3.489 5.933 5.336 9.001 1.436 2.25 1.847 4.705 1.642 7.365-0.2052 2.864-0.4104 5.728-0.6156 8.592v3.069c0.4104-0.2046 0.8208-0.2046 0.8208-0.4091 2.463-5.933 4.925-12.07 7.388-18 0.6156-1.637 1.026-3.478 1.026-5.319 0-12.68 1.436-8.797-3.694-21.07-0.2052-0.2046-0.2052-0.6137-0.4104-0.8183-0.6156-1.023-1.026-2.25-1.642-3.069-2.257-2.864-4.104-5.933-5.336-9.41-0.4104-1.432-1.026-2.864-1.847-4.091-2.257-4.501-5.13-8.183-9.029-11.25-6.156-4.91-12.93-8.797-20.73-11.05-1.436-0.4091-2.873-0.8183-4.309-1.432-10.67-3.887-21.75-4.501-32.83-2.455-7.182 1.432-14.36 3.682-21.34 6.546-6.362 2.659-12.72 5.728-18.06 10.43-1.026 1.023-2.668 1.432-3.899 2.25 0.2052-0.4091 0.2052-0.8183 0.4104-1.227 1.642-3.069 4.104-5.114 7.182-6.751 1.847-1.023 3.899-1.637 5.336-3.273-0.2052-4.705 0.4104-6.342 3.489-9.615 1.847-1.841 3.489-3.682 5.541-5.523 4.309-3.887 9.235-6.342 15.19-6.342h10.06c0.8208 0 1.642 0 1.642-1.227-0.8208-1.432-2.257-2.455-3.489-3.273-4.1-3.391-9.46-5.437-15-7.073-1.23-0.409-2.67-0.409-3.49-1.023-1.85-1.841-3.9-1.432-5.95-1.432-1.847 0-3.694-0.2046-5.541 0-2.463 0.4091-5.13 0.6137-7.593 1.432-1.847 0.6137-3.283 1.227-5.13 1.023-1.642-0.2046-3.078 0.2046-4.309 1.227-2.463 2.046-4.925 3.887-6.772 6.546-1.231 2.046-2.052 3.887-2.257 6.342-0.2052 1.841-0.6156 3.478-1.231 5.319-0.6156 1.637-1.642 3.069-3.489 3.478-2.873 0.6137-4.72 2.455-6.977 4.091-3.694 2.659-7.388 5.319-10.88 8.183-3.283 2.864-6.362 6.137-8.414 10.02-1.847 3.682-1.847 7.365 1.026 11.05 2.257 2.864 4.104 5.933 5.951 9.001 1.436 2.659 1.642 5.319 0.4104 8.183-1.231 2.864-2.668 5.319-4.925 7.569-2.668 2.659-5.541 5.114-8.003 7.978-4.72 5.319-7.593 11.25-5.951 18.62 0.4104 2.046 1.436 3.682 3.078 4.705 1.847 1.227 3.694 2.25 5.336 3.273 2.052 1.227 3.899 2.455 5.13 4.501 0.8208 1.432 1.231 2.659 1.231 4.296-0.2052 1.637-0.4104 2.864-1.847 3.887-0.4104 0.2046-0.6156 0.6137-0.8208 1.023-3.078 4.91-6.156 9.819-9.235 14.52-3.489 5.319-5.746 10.84-6.567 17.18 0 0.8183-0.4104 1.432-0.4104 2.25-1.026 4.705-0.8208 9.41 0.4104 13.91 0.6156 1.841 1.231 3.682 1.642 5.728 0.4104 2.659 1.642 4.705 3.694 6.546 1.026 0.8183 1.847 1.637 2.668 2.455 2.257 1.841 4.72 3.682 6.977 5.728 1.026 0.8183 1.847 2.046 2.463 3.273 1.436 2.659 2.052 5.319 2.257 8.183 0.4104 2.455-0.2052 3.887-2.668 4.705-1.026 1.432-1.847 1.841-2.668 2.25zm56.64-133.2l-1.847-0.6137c-1.231-0.6137-2.257-0.6137-3.489 0-0.8208 0.6137-1.847 1.023-2.668 1.841-1.847 2.046-3.694 4.091-5.336 6.137-0.4104 0.6137-0.8208 1.432-0.8208 2.046 0.8208 2.864-0.6156 5.114-1.642 7.365-2.873 6.342-3.489 12.68-2.052 19.43 1.231 5.933 2.463 11.87 2.257 18 0 1.023 0.2052 2.046 0.4104 3.069 1.026 6.546 2.052 13.09 3.078 19.64 0.2052 1.637 0.6156 3.273 1.026 4.91 1.231 3.682 2.463 7.365 3.899 11.05 0.6156 1.432 1.231 2.864 2.052 4.091 4.925 6.342 9.85 12.68 17.03 16.77 0.6156 0.4091 1.231 0.8183 1.847 1.432 3.694 3.273 7.798 5.728 12.52 7.16 2.052 0.6137 4.104 1.432 5.951 2.25 6.567 2.659 13.54 1.841 20.32 1.841 0.8208 0 1.436-0.4091 2.257-0.6137 3.694-1.227 7.182-3.069 10.26-5.523 5.13-4.296 9.85-8.797 13.75-14.32 2.052-3.069 4.104-5.933 5.336-9.41 0.4104-1.432 1.231-2.864 1.847-4.091 3.489-7.16 5.336-14.73 6.977-22.5 0.6156-3.478 0.8208-6.955 0.8208-10.43 0-1.023-0.2052-2.25 0.2052-3.069 0.6156-1.841 0.6156-3.478 0.6156-5.319 0.2052-4.296 0.2052-8.797 0.4104-13.09 0.4104-6.342 1.026-12.68 1.436-19.03 0.2052-2.455 0.2052-4.91-1.847-6.751-0.6156-0.6137-1.026-1.637-1.231-2.455-0.6156-2.046-2.052-3.682-3.899-4.91-0.8208-0.6137-1.642-1.227-2.463-2.046-1.847-1.637-3.694-2.455-6.156-2.25-3.283 0.4091-5.541-0.8183-7.388-3.273-0.4104-0.4091-0.8208-0.8183-1.231-1.432-1.231-1.432-2.463-1.841-4.309-2.046-4.309-0.2046-8.619-0.8183-12.31-3.478-2.052-1.637-4.515-1.637-6.772-0.2046-0.8208 0.6137-1.847 1.023-2.873 1.432-2.052 0.8183-3.899 0.8183-5.541-0.8183-1.642-1.432-3.489-2.864-5.13-4.501-2.052-2.046-3.283-2.25-5.541-0.8183-0.8208 0.6137-1.847 1.227-2.668 1.841-1.026 0.8183-2.257 1.023-3.489 0.8183-1.026-0.2046-2.052-0.4091-3.078-0.4091-3.489 1.841-7.182 3.273-10.47 5.319-3.489 2.046-6.567 4.501-10.06 6.955zm16.83 166.7c-0.2052 0.6137-0.2052 1.023-0.2052 1.432 0 0.6137 0 1.227 0.2052 1.841 1.642 7.16 3.489 14.32 6.156 21.28 1.026 2.455 2.257 4.091 4.309 5.523s4.104 3.069 6.156 4.501c5.746 4.296 10.26 10.02 16.42 13.5 0.8208 0.4091 1.231 1.227 2.052 1.841 0.8208 0.6137 1.436 1.432 2.257 2.046 1.642-0.4091 2.463-1.432 3.283-2.659 0.8208-1.227 1.847-2.455 2.873-3.478 1.436-1.432 3.078-2.864 4.72-4.296 2.873-2.659 5.541-5.728 8.414-8.183 1.231-1.227 3.489-1.432 4.72-2.455 1.436-1.023 2.052-3.069 3.489-4.296 3.694-3.273 7.593-6.546 11.29-9.819v-11.87-11.87c-1.847-0.4092-3.489 0-4.925 0.4091-2.052 0.6137-4.104 1.227-6.156 1.637-5.951 1.432-11.9 1.432-17.85-1.227-2.257-1.023-3.694-2.455-4.515-4.705-2.463-6.751-4.104-13.71-3.694-20.87 0-1.637 0.2052-3.273-0.2052-4.91h-17.44c-0.2052 0-0.4104 0-0.4104 0.2046 0 0-0.2052 0.2046-0.4104 0.8183 0.6156 2.046 1.436 4.296 2.257 6.546 1.847 5.114 2.052 10.43 2.463 15.55 0.2052 1.432-0.2052 2.659-0.4104 4.091-0.2052 1.637-0.6156 3.273-1.026 4.705-3.489 2.864-5.951 3.887-9.85 3.887-3.489 0-6.977 0-10.47 0.2046-1.231 0.4091-2.463 0.4091-3.489 0.6137zm-0.2052-4.705h16.42c2.052 0 4.104-0.4091 6.156-1.637-0.6156-4.296-1.642-8.592-1.642-12.89-0.2052-5.319-2.257-10.02-3.694-14.93-0.8208-2.455-2.463-3.887-4.925-4.705-6.977-2.046-13.54-5.114-19.29-9.819-0.2052-0.2046-0.4104-0.4091-0.8208-0.4091-3.078-1.432-5.336-3.887-7.798-6.137-1.026-1.023-2.052-2.455-3.694-3.273-0.2052 0.4091-0.2052 0.6137-0.2052 0.6137 2.257 3.069 2.463 6.751 2.463 10.43 0 1.841-0.2052 3.682-0.4104 5.319 0 1.841-0.2052 3.682-0.2052 5.523 0 2.25 1.231 3.887 3.489 4.91 0.6156 0.2046 1.026 0.6137 1.642 0.6137 2.052 0.4091 3.283 1.637 3.694 3.682 1.436 5.319 3.489 10.64 3.694 16.37 0 0.6137 0.2052 1.227 0.2052 1.637 2.873 0.6137 2.873 0.6137 4.925 4.705zm6.156 35.8c-0.6156 1.637-0.4104 2.864 1.231 3.682 0.6156 0.2046 1.026 0.6137 1.642 0.8183 2.463 0.8183 3.489 2.659 3.283 5.319 0 1.227 0.2052 2.659 0.2052 4.296 0.8208-0.2046 1.436-0.2046 2.052-0.4091 3.489-1.023 4.925 1.023 5.746 3.478 0.2052 0.6137 0.2052 1.227 0.4104 1.841 0.4104 1.023 0.8208 1.841 1.231 2.659 0.8208 0.2046 1.231 0.4091 1.642 0.2046 4.309-0.6137 6.362 2.25 7.593 5.728 0.2052 0.6137 0.4104 1.432 0.6156 2.25 0 0.2046 0.4104 0.4091 0.6156 0.8183 0.4104-0.2046 0.8208-0.2046 1.231-0.4091 0.4104-0.2046 0.8208-0.2046 1.231-0.2046 2.052 2.046 2.052 2.046 4.515 3.069 1.847-2.659 4.104-5.114 6.977-6.751 1.847-1.023 2.668-2.25 3.078-4.091 0.2052-0.8183 0.4104-1.637 0.6156-2.659 2.668-1.023 5.336-2.046 8.414-3.069 0.2052-1.637 0.6156-3.273 1.026-5.114 1.847-0.2046 3.489-0.4091 5.336-0.6137 0.8208-2.864 2.873-4.91 5.746-5.933 1.436-0.6137 2.257-2.046 2.463-3.478 0.2052-0.8183 0.2052-1.841 0.2052-2.046 2.257-2.046 4.104-3.887 5.951-5.728 1.436-1.432 1.231-3.069 0.4104-5.319-1.026 0.8183-1.847 1.227-2.257 1.841-3.694 4.501-8.619 7.569-12.72 11.66-0.6156 0.6137-1.231 0.8183-1.847 1.227-2.463 1.023-4.309 2.659-6.156 4.501-3.078 3.069-5.951 6.137-9.235 8.797-1.847 1.637-3.694 3.069-4.925 5.114-1.642 2.455-4.104 3.478-7.182 3.273-1.847-2.864-4.72-4.91-7.593-6.751-0.8208-0.6137-1.642-1.227-2.463-2.046-3.283-2.864-6.567-5.933-9.85-8.797-3.078-3.069-5.951-5.319-9.235-7.16zm23.23-259.1c-1.642-1.227-2.463-2.046-3.283-2.25-7.182-3.069-7.182-3.069-15.39-3.273h-4.104c-3.078-0.2046-5.951 0.6137-8.824 2.046-4.72 2.659-8.208 6.751-11.7 10.64-0.4104 0.4091-0.6156 1.023-0.8208 1.637-0.2052 0.4091-0.2052 1.023-0.2052 1.841 0.8208-0.2046 1.231-0.2046 1.642-0.4091 3.489-2.046 7.388-2.864 11.08-3.887 2.257-0.6137 4.925-1.023 6.977-2.046 5.541-2.864 11.29-3.478 17.24-3.682 2.052 0 4.309 0.2046 7.388-0.6137zm-62.64 141.7c0.2052 0 0.6156-0.2046 0.8208-0.2046-0.8208-6.342-1.436-12.68-2.668-18.82-0.6156-3.478-1.847-6.751-2.873-10.02-0.8208-2.659-2.463-4.705-5.336-5.933-2.052 1.227-3.078 3.069-3.078 5.319 0.2052 3.069 0.2052 5.933 1.231 9.001 2.257 6.546 5.541 12.68 9.85 18.21 0.8208 1.023 1.436 1.637 2.052 2.455zm112.9-6.137c0.2052 0.2046 0.4104 0.4091 0.8208 0.6137 0.8208-0.6137 1.847-1.023 2.257-1.841 1.847-2.659 3.899-5.319 5.336-8.387 1.642-3.273 3.283-6.751 4.309-10.43 0.8208-2.864 1.231-6.137-0.4104-9.206h-3.489c-1.642 2.659-3.078 5.319-4.925 7.978s-2.463 5.728-2.668 9.001c-0.2052 3.069-0.6156 5.933-0.8208 9.001 0 0.8183-0.2052 2.046-0.4104 3.273zm2.873-28.64c1.847-0.6137 2.873-1.841 3.694-3.273 2.257-3.887 4.309-7.569 5.336-11.87 0.4104-1.841 1.231-3.478 1.847-5.114 0.4104-1.227 0.8208-2.25 1.026-3.478 0.2052-0.6137 0.2052-1.637-1.026-1.637-1.642 4.705-4.104 9.001-5.13 13.91-0.2052 1.227-0.8208 2.455-1.436 3.887-0.6156 1.637-1.436 3.069-3.078 3.887-1.847 0.6137-1.642 2.046-1.231 3.682z"/>
     <path d="m109.8 167.2c2.448 0 3.264 2.434 5.713 2.84 1.02-0.6085 2.244-1.42 3.468-2.231 2.448-1.42 4.488-1.014 6.529 0.8114 0.408 0.2028 0.6121 0.6085 0.8161 1.014 1.224 2.028 2.856 2.434 5.1 2.231h3.672c1.428 0 2.652 0.2028 4.08 0.4057 2.856 0.4057 3.468 1.826 2.04 4.463-2.856 5.274-6.121 10.34-10.61 14.4-1.224 1.217-2.244 2.84-3.264 4.26s-1.836 2.84-2.856 4.057c-3.468 3.651-8.161 3.245-11.22-0.8114-1.632-2.231-3.264-4.26-6.121-5.274-1.428-0.6085-2.448-1.826-3.06-3.043-1.02-2.028-2.244-3.854-3.468-5.882-1.02-1.623-2.244-3.245-3.264-4.665-2.244-2.84-1.836-4.26 1.632-4.868 2.04-0.4057 3.672-1.014 5.509-2.231 1.224-0.8114 2.448-1.623 3.264-3.043 0.408-0.8114 1.224-1.623 2.04-2.434zm-8.977 10.95c2.04 3.651 4.08 7.099 5.917 10.55 0.8161 1.623 2.244 2.84 4.08 3.448 0.8161 0.2028 1.428 0.2028 2.04 0.6085 2.244 1.42 4.692 0.8114 6.937 0.2028 1.224-0.4057 2.448-1.014 3.876-1.42 7.345-2.231 11.22-7.505 13.26-14.6 0.204-0.4057-0.204-1.014-0.408-1.826-3.264 0-6.325-0.4057-9.589 0.4057-0.8161 0.2028-1.836 0.4057-2.652 0.4057-6.529-0.4057-12.85 0.8114-19.38 1.014-1.224 0-2.856 0-4.08 1.217zm13.87 18.05c0.204 1.623 1.224 2.434 2.652 2.84 1.02 0.2028 2.04 0.4057 3.06 0.2028 1.428-0.2028 2.448-2.028 2.448-4.26-2.856 0.2028-5.713-0.6085-8.161 1.217zm9.385-23.73c-0.6121-1.623-1.428-2.84-3.06-3.043-1.428 0-2.244 1.014-3.06 3.043 2.04 0.6085 3.876 0.8114 6.121 0zm-15.91 0.8114c4.08 0 4.08 0 4.08-0.6085-0.612-0.8114-1.428-1.826-2.856-2.028-0.408 0.8114-0.8161 1.623-1.224 2.637z"/>
     <path d="m107.9 122c0.795 0.8183 1.391 1.023 1.59 1.432 0.9938 1.637 1.59 3.478 1.59 5.524v8.592c0.1988 5.728 0.1988 11.46-2.385 16.57 0.795 1.841 1.988 2.455 3.379 3.273 0.9938 0.4092 1.789 0.8183 2.782 1.432 1.391 0.8183 2.584 1.841 3.18 3.887-0.795 0.2046-1.391 0.4092-1.789 0.2046-3.379-1.227-6.36-2.864-9.341-4.91-1.789-1.227-2.385-3.069-1.391-4.705 2.783-5.114 2.385-10.84 2.385-16.37 0.1988-4.705 0-9.411 0-14.93z"/>
     <path d="m147 131.9c-1.251 0.795-2.293 1.391-3.336 1.987 0 0.1987-0.2085 0.5962-0.2085 0.795 1.459 2.782 0.2085 5.167-1.042 7.552-0.8339 1.59-2.293 2.782-4.378 2.782s-3.127-0.5962-3.961-2.385c-0.2085-0.5962-0.417-1.192-0.6254-1.59-1.668-4.968 1.459-9.539 6.88-9.937 1.459-0.1987 3.127 0 4.586 0 0.8339 0 1.251 0.3975 2.085 0.795z"/>
     <path d="m83.5 138.5c-1.481-0.2006-2.963-0.2006-4.232-0.6017-0.4232-0.2006-1.058-0.6017-1.27-1.203 0-0.4012 0.6348-1.203 0.8464-1.203 2.328-0.2006 4.655-0.8023 6.983-0.4012 2.751 0.2006 4.867 2.206 6.348 4.212 1.27 1.805 0.8464 4.413 0.2116 6.418-0.4232 1.805-2.539 3.009-4.655 3.209-2.116 0.2006-3.597-0.8023-4.444-2.607-0.8464-2.006-1.058-4.012-0.4232-6.017 0.2116-0.6017 0.4232-1.203 0.6348-1.805z"/>
     <path d="m147 115.8c-0.8333 0.2119-1.042 0.6357-1.458 0.6357-5 0.8476-9.792 2.543-14.17 5.297-0.8333 0.4238-1.667 1.059-2.5 1.271-0.625 0.2119-1.25-0.4238-1.875-0.6357 0.2083-0.6357 0.2083-1.059 0.4167-1.059 4.375-3.814 9.583-6.357 15.21-7.204 1.25-0.2119 2.5 0.2119 3.542 0.4238 0.4167-0.2119 0.625 0.6357 0.8333 1.271z"/>
     <path d="m77.16 117.7c4.686-1.32 9.372-0.66 13.85 0.66 1.019 0.22 1.834 1.1 2.445 1.98 0.6112 0.66 0.8149 1.76 0 2.64-2.037-0.66-3.871-1.32-5.908-1.76-1.834-0.44-3.871-0.6601-5.704-0.8801-1.426-0.22-2.649-0.22-4.075-0.44-0.6112-0.22-1.019-0.8801-0.6112-2.2z"/>
     <path d="m33.06 134c-0.406 1.629-0.609 2.648-0.812 3.666-0.812 3.259-0.609 6.721-0.203 9.776 0.406 2.24 2.03 4.277 4.06 5.703 1.827 1.018 3.045 2.648 4.06 4.277 0.609 1.222 1.421 2.444 1.421 3.666 0.203 3.462 0.203 6.924-0.203 10.39-0.406 3.055-1.624 5.703-3.451 8.35-1.218 1.833-2.436 3.87-3.654 5.703-1.421 2.037-2.03 4.073-1.421 6.517 0.812 1.426 2.233 2.24 3.857 2.648 3.654 1.222 5.684 4.277 8.729 6.314 1.827 3.462 4.263 6.517 4.466 10.79 0.203 3.055 0 6.11 0 8.961 0 0.611-0.203 1.222-0.406 1.629-0.2 0.4-0.61 0.6-1.01 0.6-0.406 0-1.015-0.2037-1.015-0.611-0.406-0.8146-0.609-1.629-0.609-2.648v-6.721c-0.203-4.888-2.233-8.961-5.887-12.22-1.827-1.629-3.857-3.259-6.293-4.073-5.887-2.444-6.09-6.517-3.654-11.81 1.015-2.24 2.233-4.277 3.857-6.11 4.06-5.092 4.263-11 3.857-17.11-0.203-2.444-1.827-4.073-3.451-5.703-0.812-0.8146-1.827-1.426-2.639-2.444-4.466-4.481-4.263-9.572-2.436-15.07 0-1.222 0.406-3.055 2.842-4.481z"/>
     <path d="m34.39 85c0.41 1.43 0.61 2.04 0.61 2.45-0.2031 0.6119-0.4062 1.224-0.8124 1.632-3.047 3.468-4.875 7.547-6.906 11.63-1.016 2.04-1.625 4.08-1.219 6.731 1.422 1.02 3.047 2.244 4.672 3.264 1.828 1.224 2.64 2.652 2.64 4.896-0.2031 3.264 0.4062 6.527-1.625 10.4 0-3.06-0.2031-5.303 0-7.751 0.2031-3.468-1.422-5.711-4.468-6.935-1.219-0.408-2.437-1.02-3.859-1.632-0.8124-3.06-0.4062-5.915 0.8124-8.771 1.625-3.468 3.453-6.935 5.484-10.4 1.02-1.63 2.65-3.06 4.68-5.51z"/>
     <path d="m63 49c-0.6429 1.684-1.286 3.158-3 4 0.4286-1.684 1.286-3.158 3-4z"/>
     <path d="m58.4 181.4h-0.4l0.4-0.4v0.4z"/>
     <path d="m150 45.26c-0.4112 2.467 0.6168 3.906 1.234 5.345 1.028 2.878 2.261 5.55 2.467 8.633 0.2056 2.261 0.2056 4.111-1.028 6.578-0.4112-0.4111-1.028-0.8222-1.234-1.233-0.4112-1.028-0.6168-2.056-0.6168-3.083-0.8223-5.961-3.084-11.31-5.962-16.65-1.028-1.85-1.234-3.289-0.2056-3.7 1.645-0.6167 2.056 0.8222 2.878 1.644 0.2056 0.2056 0.2056 0.2056 0.6168 0.4111 0.4112-0.6167 0.8223-1.028 1.439-1.85 2.056 1.028 4.112 1.644 5.756 3.906 1.85 2.878 4.317 5.345 6.579 8.222 1.234 1.644 2.467 3.494 3.289 5.345 1.85 4.111 3.289 8.428 5.14 12.74 1.028 2.467 0.6168 5.139 0 7.606-0.2 0.4-0.8 0.81-1.5 0.81-0.2056 0-0.6168-0.4111-0.8223-0.8222-0.2056-0.2056-0.2056-0.6167-0.2056-0.8222-1.028-6.989-4.112-12.95-6.99-19.12-2.673-4.933-6.784-9.25-10.9-13.98z"/>
     <path d="m128 39.29c1.24-0.2068 1.86-0.4135 2.48-0.2068 0.4134 0.2068 1.034 0.8271 1.24 1.241 1.447 4.135 3.721 7.651 4.547 11.99 0.4134 2.688 0.8268 5.376 1.447 8.064 0.6201 2.275 0.2067 4.135-1.034 6.617-0.4134-0.8271-1.034-1.447-1.034-2.068-1.034-4.135-1.654-8.478-2.687-12.61-1.034-3.722-2.067-7.237-3.307-10.96-0.2067-0.6203-0.8268-1.034-1.654-2.068z"/>
     <path d="m98.8 42c0.8 0.8065 1.2 1.008 1.4 1.21 0.2 1.008 0.6 2.016 0.6 3.024 0 5.847 0.2 11.69 0.2 17.34 0 1.21-0.2 2.419-1.4 3.427-0.4-0.4032-1-1.008-1.2-1.411-0.2-0.6048-0.4-1.411-0.4-2.218 0-6.25 0.2-12.5 0.4-18.75-0.2-0.6 0.2-1.21 0.4-2.62z"/>
     <path d="m115.4 63.8c-0.1932-0.8189-0.5795-1.638-0.5795-2.457-0.1932-2.457-0.1932-4.913-0.1932-7.165-0.1932-4.299-0.3863-8.394-0.5795-12.69 0-1.024-0.3863-2.457 0.9658-3.48 1.159 2.866 1.739 5.528 1.932 8.394 0.1932 5.937-0.1932 11.67-0.5795 17.61-0.1932-0.2047-0.5795-0.2047-0.9658-0.2047z"/>
     <path d="m86.9 73c-0.2116-0.6118-0.8466-1.02-0.8466-1.428 0-2.651-0.2116-5.507 0.2116-8.158 0.6349-5.507 0.8466-11.01 0.8466-16.72 0-1.224 0-2.447 0.2116-3.671 0-0.4079 0.4233-0.6118 0.8466-1.02 0.2116 0.6118 0.6349 1.02 0.6349 1.224 0.6349 9.586-0.4233 19.17-1.058 28.76 0 0.6118-0.4233 0.6118-0.8466 1.02z"/>
     <polygon points="57.2 73 57.2 73.4 57 73.4"/>
     <path d="m56.09 77c0-0.4 0.2-0.6 0.2-1l0.2 0.2c-0.2 0.4-0.4 0.6-0.4 0.8-0.2 0 0 0 0 0z"/>
     <path d="m118.8 266c-4.939-2.727-9.26-5.244-13.79-7.761 1.235-1.468 2.881-1.468 4.321-0.8391 2.881 1.468 5.556 3.147 8.231 4.825 1.029 0.6293 1.852 1.888 1.235 3.776z"/>
     <path d="m142 257c-2.2 3.048-4.8 3.81-8 4 2-2.667 2.2-2.857 8-4z"/>
    </g>
   </g>
   <path d="m128.5 113.3c0.0241-0.2558-0.0549-0.5879 0.0634-0.8245 0.3641-0.7283 1.681 0.1086 1.681 0.7293 0 0.5606 0.6443 1.067 0.983 1.744 0.4815 0.9631 0.5391 2.85 0.5391 4.027 0 0.1019-0.68-0.4546-0.7293-0.6025-0.2214-0.6644-0.6914-1.218-0.9196-1.903-0.1594-0.4783-0.3555-0.8696-0.5708-1.3-0.3352-0.6705-0.6784-1.258-1.046-1.871z" fill="#fff"/>
   <path d="m123.7 164.4c3.684-6.853-4.691-16.32 1.252-22.26 0.9184-0.9184 2.343-1.27 3.678-0.8245 0.7497 0.2499 0.6342 2.957 0.6342 3.552 0 1.468-0.5442 11.68-0.8879 12.37-0.6989 1.398-1.459 4.057-1.459 5.644 0 1.628-2.171 3.433-3.218 1.521z" fill="#fff"/>
  </g>
 </g>
</svg>
