<?xml version="1.0" encoding="UTF-8" standalone="no"?>
<!-- Generator: Adobe Illustrator 16.0.0, SVG Export Plug-In . SVG Version: 6.00 Build 0)  -->

<svg
   xmlns:dc="http://purl.org/dc/elements/1.1/"
   xmlns:cc="http://creativecommons.org/ns#"
   xmlns:rdf="http://www.w3.org/1999/02/22-rdf-syntax-ns#"
   xmlns:svg="http://www.w3.org/2000/svg"
   xmlns="http://www.w3.org/2000/svg"
   xmlns:sodipodi="http://sodipodi.sourceforge.net/DTD/sodipodi-0.dtd"
   xmlns:inkscape="http://www.inkscape.org/namespaces/inkscape"
   xml:space="preserve"
   height="480"
   viewBox="0 0 441.453 480"
   width="441.5"
   version="1.1"
   y="0px"
   x="0px"
   id="svg4574"
   sodipodi:docname="no-firebase.svg"
   inkscape:version="0.92.1 r15371"><defs
     id="defs4578" /><sodipodi:namedview
     pagecolor="#ffffff"
     bordercolor="#666666"
     borderopacity="1"
     objecttolerance="10"
     gridtolerance="10"
     guidetolerance="10"
     inkscape:pageopacity="0"
     inkscape:pageshadow="2"
     inkscape:window-width="1366"
     inkscape:window-height="672"
     id="namedview4576"
     showgrid="false"
     inkscape:zoom="0.99791667"
     inkscape:cx="220.75"
     inkscape:cy="198.91441"
     inkscape:window-x="0"
     inkscape:window-y="28"
     inkscape:window-maximized="1"
     inkscape:current-layer="svg4574" /><metadata
     id="metadata4548"><rdf:RDF><cc:Work
         rdf:about=""><dc:format>image/svg+xml</dc:format><dc:type
           rdf:resource="http://purl.org/dc/dcmitype/StillImage" /><dc:title></dc:title></cc:Work></rdf:RDF></metadata><g
     transform="matrix(0.5932,0,0,0.5483,87.557846,56.03)"
     id="g4562"><g
       id="g4558"
       style="fill:#b3b3b3"><path
         d="M 65.68,174.3 H 43.37 c -19.77,0 -35.86,16.09 -35.86,35.86 v 192.4 c 0,5.279 4.284,9.562 9.562,9.562 h 74.91 c 5.279,0 9.562,-4.283 9.562,-9.562 v -192.4 c 0,-19.8 -16.04,-35.9 -35.82,-35.9 z M 77.64,397.8 H 31.42 c -5.278,0 -9.562,-4.283 -9.562,-9.562 v -178 c 0,-11.86 9.658,-21.52 21.52,-21.52 h 22.32 c 11.86,0 21.52,9.658 21.52,21.52 v 178 c -0.01,5.279 -4.285,9.562 -9.573,9.562 z"
         id="path4550"
         inkscape:connector-curvature="0" /><path
         d="m 120.8,170.9 v 231.6 c 0,5.279 4.284,9.562 9.562,9.562 h 74.91 c 5.278,0 9.562,-4.283 9.562,-9.562 V 170.9 c 0,-19.77 -16.09,-35.86 -35.86,-35.86 h -22.32 c -19.77,-0.001 -35.86,16.09 -35.86,35.86 z m 79.69,217.3 c 0,5.279 -4.284,9.562 -9.562,9.562 h -46.2 c -5.279,0 -9.562,-4.283 -9.562,-9.562 V 170.9 c 0,-11.86 9.658,-21.52 21.52,-21.52 h 22.32 c 11.86,0 21.52,9.658 21.52,21.52 v 217.3 z"
         id="path4552"
         inkscape:connector-curvature="0" /><path
         d="m 270,89.67 c -19.77,0 -35.86,16.09 -35.86,35.86 v 277 c 0,5.279 4.283,9.562 9.562,9.562 h 74.91 c 5.278,0 9.562,-4.283 9.562,-9.562 v -277 c 0,-19.77 -16.09,-35.86 -35.86,-35.86 h -22.32 z m 34.27,308.1 h -46.22 c -5.279,0 -9.562,-4.283 -9.562,-9.562 v -262.7 c 0,-11.86 9.658,-21.52 21.52,-21.52 h 22.32 c 11.86,0 21.52,9.658 21.52,21.52 v 262.7 c -0.001,5.279 -4.285,9.562 -9.563,9.562 z"
         id="path4554"
         inkscape:connector-curvature="0" /><path
         d="m 383.3,56.21 c -19.77,0 -35.86,16.09 -35.86,35.86 v 310.5 c 0,5.279 4.284,9.562 9.562,9.562 h 74.91 c 5.278,0 9.562,-4.283 9.562,-9.562 V 92.07 c 0,-19.77 -16.09,-35.86 -35.86,-35.86 h -22.32 z m 34.27,341.6 h -46.23 c -5.278,0 -9.562,-4.283 -9.562,-9.562 v -296.1 c 0,-11.86 9.658,-21.52 21.52,-21.52 h 22.32 c 11.86,0 21.52,9.658 21.52,21.52 v 296.2 c -10e-4,5.279 -4.275,9.562 -9.563,9.562 z"
         id="path4556"
         inkscape:connector-curvature="0" /></g></g><text
     style="font-weight:bold;font-size:54.56999969px;line-height:1.25;font-family:'Roboto Condensed';letter-spacing:0px;word-spacing:0px;fill:#333333;stroke-width:1.36399996"
     font-weight="bold"
     xml:space="preserve"
     font-size="54.57px"
     line-height="1.25"
     y="381.80603"
     x="220.51334"
     id="text4568"><tspan
       style="text-align:center;text-anchor:middle"
       id="tspan4599">Conectando</tspan></text>
<text
     style="font-size:44.43000031px;line-height:1.25;font-family:sans-serif;text-align:center;letter-spacing:0px;word-spacing:0px;text-anchor:middle;fill:#333333;fill-opacity:0.75139998"
     xml:space="preserve"
     font-size="44.43px"
     line-height="1.25"
     y="420.06808"
     x="339.55396"
     id="text4572"><tspan
       style="font-family:'Roboto Condensed';text-align:center;letter-spacing:-0.74409997px;text-anchor:middle;fill:#333333;fill-opacity:0.75139998;stroke-width:1.11099994"
       y="420.06808"
       x="233.31561"
       id="tspan4570">ao servidor...</tspan></text>
</svg>