<?xml version="1.0" encoding="UTF-8" standalone="no"?>
<svg xmlns="http://www.w3.org/2000/svg" height="32" width="32" version="1.1" viewBox="0 0 8.4666665 8.4666669"><g transform="translate(0 -289)"><path id="Shape" d="m6.49 295c-0.363-0.273-0.572-0.69-0.572-1.14v-0.952c0-0.798-0.538-1.47-1.27-1.68v-0.225c0-0.263-0.214-0.476-0.476-0.476-0.263 0-0.476 0.214-0.476 0.476v0.225c-0.732 0.208-1.27 0.882-1.27 1.68v0.952c0 0.454-0.208 0.87-0.572 1.14-0.0546 0.041-0.0768 0.112-0.0552 0.177 0.0216 0.0648 0.0822 0.109 0.15 0.109h1.44c-0.0105 0.0521-0.0162 0.105-0.0162 0.159 0 0.438 0.356 0.794 0.794 0.794s0.794-0.356 0.794-0.794c0-0.0533-0.0054-0.107-0.0159-0.159h1.44c0.0683 0 0.129-0.0438 0.15-0.109 0.0216-0.0648-0.000529-0.136-0.0552-0.177zm-2.48-4c0-0.0876 0.0711-0.159 0.159-0.159 0.0876 0 0.159 0.0711 0.159 0.159v0.166c-0.0524-0.005-0.105-0.007-0.159-0.007-0.0537 0-0.106 0.003-0.159 0.007zm0.635 4.44c0 0.263-0.214 0.476-0.476 0.476-0.263 0-0.476-0.214-0.476-0.476 0-0.0543 0.00953-0.108 0.0273-0.159h0.898c0.0178 0.0508 0.0273 0.104 0.0273 0.159zm-2.3-0.476c0.081-0.0981 0.151-0.205 0.209-0.318 0.126-0.247 0.19-0.514 0.19-0.793v-0.952c0-0.788 0.641-1.43 1.43-1.43 0.788 0 1.43 0.641 1.43 1.43v0.952c0 0.279 0.0641 0.546 0.19 0.793 0.0578 0.113 0.128 0.22 0.209 0.318h-3.65z" fill="#fff"/></g></svg>
