<?xml version="1.0" encoding="UTF-8" standalone="no"?>
<svg xmlns="http://www.w3.org/2000/svg" height="32" width="32" version="1.1" viewBox="0 0 8.4666665 8.4666669"><g transform="translate(0 -289)" fill="#fff"><path d="m4.24 296c-0.0475 0-0.0925-0.0217-0.122-0.0593-0.0177-0.0227-0.44-0.563-0.868-1.36-0.252-0.47-0.453-0.931-0.597-1.37-0.182-0.555-0.274-1.08-0.274-1.55 0-1.03 0.836-1.86 1.86-1.86 1.03 0 1.86 0.836 1.86 1.86 0 0.477-0.0925 0.999-0.274 1.55-0.144 0.44-0.345 0.901-0.597 1.37-0.428 0.798-0.85 1.34-0.868 1.36-0.0295 0.0376-0.0745 0.0593-0.122 0.0593zm0-5.9c-0.856 0-1.55 0.696-1.55 1.55 0 1.01 0.454 2.07 0.835 2.78 0.28 0.522 0.561 0.935 0.717 1.15 0.156-0.217 0.439-0.633 0.719-1.16 0.38-0.709 0.832-1.77 0.832-2.77 0-0.856-0.696-1.55-1.55-1.55z"/><path d="m4.24 293c-0.513 0-0.931-0.418-0.931-0.931s0.418-0.931 0.931-0.931 0.931 0.418 0.931 0.931-0.418 0.931-0.931 0.931zm0-1.55c-0.342 0-0.621 0.278-0.621 0.621 0 0.342 0.278 0.621 0.621 0.621 0.342 0 0.621-0.278 0.621-0.621 0-0.342-0.278-0.621-0.621-0.621z"/></g></svg>
