<?xml version="1.0" encoding="UTF-8" standalone="no"?>
<svg xmlns="http://www.w3.org/2000/svg" height="32" width="32" version="1.1" viewBox="0 0 8.4666665 8.4666669"><g stroke-width=".2646" fill="#fff" transform="translate(0 -288.5)"><path d="m4.252 293c-0.7222 0-1.31-0.5874-1.31-1.31 0-0.7222 0.5875-1.31 1.31-1.31 0.7222 0 1.31 0.5874 1.31 1.31 0 0.7222-0.5875 1.31-1.31 1.31zm0-2.381c-0.5908 0-1.072 0.4808-1.072 1.072 0 0.5908 0.4808 1.072 1.072 1.072 0.5908 0 1.072-0.4808 1.072-1.072 0-0.5908-0.4808-1.072-1.072-1.072z"/><path d="m6.157 295.1h-3.81c-0.1969 0-0.3572-0.1603-0.3572-0.3572 0-0.0162 0.00333-0.4012 0.2917-0.7858 0.1679-0.2238 0.3977-0.4017 0.6832-0.5284 0.3486-0.155 0.7818-0.2336 1.287-0.2336 0.5055 0 0.9387 0.0786 1.287 0.2336 0.2855 0.1269 0.5153 0.3046 0.6832 0.5284 0.2884 0.3846 0.2917 0.7696 0.2917 0.7858 0 0.1969-0.1603 0.3572-0.3572 0.3572zm-1.905-1.667c-0.8303 0-1.443 0.2269-1.772 0.6563-0.2465 0.3217-0.2519 0.6506-0.2522 0.6539 0 0.0652 0.05334 0.1186 0.1191 0.1186h3.81c0.06572 0 0.1191-0.0534 0.1191-0.1191 0-0.003-0.00548-0.3317-0.2522-0.6534-0.3291-0.4293-0.9418-0.6563-1.772-0.6563z"/></g></svg>
