<?xml version="1.0" encoding="UTF-8" standalone="no"?>
<!-- Created with Inkscape (http://www.inkscape.org/) -->
<svg xmlns:rdf="http://www.w3.org/1999/02/22-rdf-syntax-ns#" xmlns="http://www.w3.org/2000/svg" height="19" width="38" version="1.1" xmlns:cc="http://creativecommons.org/ns#" xmlns:dc="http://purl.org/dc/elements/1.1/" viewBox="0 0 10.054166 5.0270835">
 <metadata>
  <rdf:RDF>
   <cc:Work rdf:about="">
    <dc:format>image/svg+xml</dc:format>
    <dc:type rdf:resource="http://purl.org/dc/dcmitype/StillImage"/>
    <dc:title/>
   </cc:Work>
  </rdf:RDF>
 </metadata>
 <g stroke-width=".2646" transform="translate(0 -292)">
  <path opacity=".277" d="m2.514 297c-0.6715 0-1.303-0.2614-1.777-0.7361-0.4759-0.5-0.737-1.1-0.737-1.8 0-0.6715 0.2614-1.303 0.7361-1.777 0.4747-0.4749 1.106-0.7363 1.777-0.7363 0.6715 0 1.303 0.2614 1.777 0.7363 0.4749 0.4749 0.7361 1.106 0.7361 1.777 0 0.6715-0.2614 1.303-0.7361 1.777-0.4747 0.4747-1.106 0.7361-1.777 0.7361zm0-4.762c-1.24 0-2.249 1.009-2.249 2.249s1.009 2.249 2.249 2.249 2.249-1.009 2.249-2.249-1.009-2.249-2.249-2.249z"/>
  <g opacity=".698" transform="translate(-1.554 -.7890)">
   <path d="m9.095 297.8c-0.6715 0-1.303-0.2614-1.777-0.7361-0.4749-0.4747-0.7361-1.106-0.7361-1.777 0-0.6715 0.2614-1.303 0.7361-1.777 0.4747-0.4749 1.106-0.7363 1.777-0.7363 0.6715 0 1.303 0.2614 1.777 0.7363 0.4749 0.4749 0.7361 1.106 0.7361 1.777 0 0.6715-0.2614 1.303-0.7361 1.777-0.4747 0.4747-1.106 0.7361-1.777 0.7361zm0-4.762c-1.24 0-2.249 1.009-2.249 2.249s1.009 2.249 2.249 2.249 2.249-1.009 2.249-2.249-1.009-2.249-2.249-2.249z"/>
   <path d="m8.566 296.3c-0.03387 0-0.06773-0.013-0.09366-0.0386l-0.7938-0.7938c-0.05159-0.0516-0.05159-0.1355 0-0.1871s0.1355-0.0516 0.1871 0l0.7001 0.7001 1.758-1.758c0.05159-0.0516 0.1355-0.0516 0.1871 0 0.05159 0.0516 0.05159 0.1355 0 0.1871l-1.852 1.852c-0.02593 0.0259-0.0598 0.0386-0.09366 0.0386z"/>
  </g>
 </g>
</svg>
