<?xml version="1.0" encoding="UTF-8" standalone="no"?>
<svg xmlns="http://www.w3.org/2000/svg" height="32" width="32" version="1.1" viewBox="0 0 8.4666665 8.4666669"><g transform="translate(0 -288.5)"><path id="Shape" d="m6.874 293.1-2.347-2.6c-0.07284-0.0806-0.1712-0.125-0.277-0.125-0.1055 0-0.2039 0.0444-0.277 0.125l-2.347 2.594c-0.04918 0.0545-0.04493 0.1385 0.0093 0.1877 0.02552 0.0231 0.05742 0.0343 0.08906 0.0343 0.03616 0 0.07231-0.0146 0.09863-0.0439l0.566-0.6255v2.132c0 0.2199 0.1789 0.3988 0.3988 0.3988h2.924c0.2199 0 0.3988-0.1789 0.3988-0.3988v-2.132l0.566 0.6256c0.04918 0.0545 0.1332 0.0588 0.1877 0.009 0.0545-0.0494 0.05875-0.1332 0.00931-0.1877zm-2.092 1.817h-1.063v-1.196c0-0.0734 0.05955-0.1329 0.1329-0.1329h0.7975c0.07337 0 0.1329 0.0596 0.1329 0.1329zm1.063-0.1329c0 0.0734-0.05955 0.1329-0.1329 0.1329h-0.664v-1.196c0-0.2198-0.1789-0.3988-0.3988-0.3988h-0.798c-0.2199 0-0.3988 0.1789-0.3988 0.3988v1.196h-0.664c-0.07337 0-0.1329-0.0596-0.1329-0.1329v-2.425l1.515-1.675c0.0218-0.0242 0.05024-0.0375 0.07976-0.0375 0.02951 0 0.05796 0.0133 0.07976 0.0375l1.515 1.675z" stroke-width=".2646" fill="#fff"/></g></svg>
