<?xml version="1.0" encoding="UTF-8" standalone="no"?>
<svg xmlns="http://www.w3.org/2000/svg" height="32" width="32" version="1.1" viewBox="0 0 8.4666665 8.4666669"><g transform="translate(0 -288.5)" stroke-width=".2646" fill="#fff"><path d="m4.233 293c-0.07732 0-0.1401-0.0627-0.1401-0.1401v-2.521c0-0.0773 0.06275-0.1401 0.1401-0.1401 0.07732 0 0.1401 0.0627 0.1401 0.1401v2.521c0 0.0773-0.06275 0.1401-0.1401 0.1401z"/><path d="m4.233 294.8c-0.5611 0-1.089-0.2185-1.486-0.6155-0.3967-0.397-0.6155-0.9245-0.6155-1.486 0-0.4617 0.1471-0.8998 0.425-1.267 0.2689-0.3552 0.6511-0.6205 1.076-0.7469 0.07424-0.0221 0.1521 0.0202 0.1743 0.0944 0.02213 0.0742-0.02017 0.1521-0.09441 0.1742-0.7656 0.228-1.301 0.9458-1.301 1.746 0 1.004 0.8169 1.821 1.821 1.821s1.821-0.8169 1.821-1.821c0-0.7998-0.5348-1.518-1.301-1.746-0.07424-0.0221-0.1163-0.1-0.09441-0.1742 0.02185-0.0742 0.1-0.1163 0.1743-0.0944 0.425 0.1264 0.8068 0.3916 1.076 0.7469 0.2782 0.3673 0.425 0.8054 0.425 1.267 0 0.5611-0.2185 1.089-0.6155 1.486-0.397 0.3967-0.9245 0.6155-1.486 0.6155z"/></g></svg>
