<?xml version="1.0" encoding="UTF-8" standalone="no"?>
<svg xmlns="http://www.w3.org/2000/svg" height="32" width="32" version="1.1" viewBox="0 0 8.4666665 8.4666669"><g transform="translate(0 -288.5)"><path fill="#fff" d="m6.956 290.1c-0.04094-0.0253-0.09219-0.0276-0.1354-0.006l-1.609 0.8043-1.609-0.8043c-0.03927-0.0195-0.08522-0.0195-0.1245 0l-1.671 0.8355c-0.04707 0.0235-0.07687 0.0717-0.07687 0.1244v4.178c0 0.0482 0.02507 0.093 0.06601 0.1184 0.02228 0.0139 0.04762 0.0209 0.07325 0.0209 0.02117 0 0.04261-0.005 0.06239-0.0148l1.609-0.8043 1.609 0.8043c0.03927 0.0195 0.0855 0.0195 0.1245 0l1.671-0.8355c0.04707-0.0237 0.07687-0.0718 0.07687-0.1245v-4.178c0-0.0482-0.02507-0.093-0.06601-0.1184zm-3.555 4.21-1.393 0.6963v-3.8l1.393-0.6963zm0.2785-3.866 1.393 0.6963v3.866l-1.393-0.6963zm3.064 3.866-1.393 0.6963v-3.8l1.393-0.6963z"/></g></svg>
