<?xml version="1.0" encoding="UTF-8" standalone="no"?>
<svg xmlns="http://www.w3.org/2000/svg" height="32" width="32" version="1.1" viewBox="0 0 8.4666665 8.4666669"><g transform="translate(0 -289)"><path fill="#fff" d="m1.49 296c-0.0689 0-0.129-0.046-0.148-0.112-0.0184-0.0665 0.00979-0.137 0.0689-0.172 0.518-0.311 0.733-0.763 0.809-0.974-0.563-0.431-0.884-1.03-0.884-1.65 0-0.315 0.079-0.621 0.235-0.908 0.149-0.274 0.362-0.519 0.631-0.729 0.547-0.426 1.27-0.661 2.04-0.661s1.5 0.235 2.04 0.661c0.27 0.21 0.483 0.455 0.631 0.729 0.156 0.287 0.235 0.592 0.235 0.908s-0.079 0.621-0.235 0.908c-0.149 0.274-0.362 0.519-0.631 0.729-0.547 0.426-1.27 0.661-2.04 0.661-0.316 0-0.627-0.0395-0.924-0.118-0.131 0.0876-0.377 0.243-0.671 0.389-0.456 0.227-0.847 0.342-1.16 0.342zm2.76-4.9c-1.44 0-2.6 0.893-2.6 1.99 0 0.556 0.308 1.09 0.844 1.47 0.0527 0.0371 0.0766 0.103 0.06 0.165-0.0358 0.134-0.158 0.5-0.484 0.854 0.399-0.14 0.828-0.382 1.15-0.6 0.0377-0.026 0.0849-0.0337 0.129-0.0211 0.29 0.083 0.596 0.125 0.909 0.125 1.44 0 2.6-0.893 2.6-1.99s-1.17-1.99-2.6-1.99z"/></g></svg>
