<?xml version="1.0" encoding="UTF-8"?>
<svg width="180px" height="180px" viewBox="0 0 180 180" version="1.1" xmlns="http://www.w3.org/2000/svg" xmlns:xlink="http://www.w3.org/1999/xlink">
    <!-- Generator: Sketch 46.2 (44496) - http://www.bohemiancoding.com/sketch -->
    <title>Avatar</title>
    <desc>Created with Sketch.</desc>
    <defs>
        <linearGradient x1="0%" y1="0%" x2="100%" y2="100%" id="linearGradient-1">
            <stop stop-color="#FAD295" offset="0%"></stop>
            <stop stop-color="#F145A9" offset="33.8208008%"></stop>
            <stop stop-color="#115B84" offset="100%"></stop>
        </linearGradient>
        <rect id="path-2" x="-1" y="0" width="180" height="210"></rect>
    </defs>
    <g id="Facebook" stroke="none" stroke-width="1" fill="none" fill-rule="evenodd">
        <g id="Avatar">
            <g id="BG">
                <use fill="url(#linearGradient-1)" fill-rule="evenodd" xlink:href="#path-2"></use>
                <rect stroke="#979797" stroke-width="1" x="-0.5" y="0.5" width="179" height="209"></rect>
            </g>
            <g id="Group" transform="translate(29.000000, 16.000000)" fill="#FFFFFF">
                <path d="M33.6671613,0 C37.6159761,9.01139786 41.2610359,13.0614643 35.8946979,25.6166703 C30.2246049,38.8806379 24.5545118,41.1081745 28.3008233,44.6519826 C32.0471348,48.1957908 39.438506,49.7145657 39.438506,49.7145657 C39.438506,49.7145657 39.2360027,52.0433539 37.7172278,54.2708905 C36.0972012,56.498427 36.4009562,59.7384802 39.5397577,61.6622617 C41.8685459,63.079785 42.2735526,63.2822883 42.3748042,63.2822883 C42.3748042,63.2822883 41.1597843,64.3960566 40.4510227,66.8260965 C39.6410094,69.4586396 41.3622876,71.9899312 44.1973341,72.7999445 C47.0323806,73.6099578 48.2474006,73.9137127 48.8549105,74.8249777 C49.5636722,75.8374943 49.0574139,76.0399976 48.8549105,80.2925674 C48.6524072,84.5451372 47.8423939,88.5952036 53.4112353,91.7340051 C58.9800767,94.8728066 68.7002362,92.1390118 76.6991174,87.1776804 C83.5842304,82.9251106 100.594509,77.4575209 113.757225,84.5451372 C104.543324,96.3915816 90.7730983,104.694218 74.7753358,106.719251 C42.5773075,110.769317 13.1130741,87.9876937 9.06300765,55.7896654 C6.02545782,33.2105449 16.2518756,12.0489477 33.6671613,0 Z" id="Shape" fill-rule="nonzero"></path>
                <path d="M2.80261866,143.638632 L2.80261866,147.583059 L0,147.583059 L0,135.957381 L4.63909242,135.957381 C5.52805663,135.957381 6.31453861,136.121065 6.99856197,136.448438 C7.68258533,136.775811 8.21222971,137.241579 8.58751101,137.845755 C8.9627923,138.449932 9.15043014,139.135275 9.15043014,139.901807 C9.15043014,141.035636 8.74454688,141.941887 7.93276819,142.620587 C7.12098949,143.299287 6.00713937,143.638632 4.59118441,143.638632 L2.80261866,143.638632 Z M2.80261866,141.474787 L4.63909242,141.474787 C5.18205259,141.474787 5.59592044,141.339049 5.88070837,141.067569 C6.16549631,140.796089 6.30788814,140.412829 6.30788814,139.917777 C6.30788814,139.374817 6.16150402,138.940987 5.86873137,138.616276 C5.57595873,138.291564 5.17672929,138.12655 4.67103109,138.121226 L2.80261866,138.121226 L2.80261866,141.474787 Z M28.4360429,135.957381 L28.4360429,143.56677 C28.4360429,144.429119 28.2523974,145.175678 27.8851008,145.80647 C27.5178042,146.437262 26.9908214,146.917668 26.3041364,147.247703 C25.6174515,147.577737 24.805685,147.742752 23.8688125,147.742752 C22.4528576,147.742752 21.3376767,147.375461 20.5232364,146.640868 C19.7087961,145.906275 19.2935975,144.900216 19.2776281,143.622663 L19.2776281,135.957381 L22.0962161,135.957381 L22.0962161,143.678556 C22.1281549,144.950786 22.7190145,145.586891 23.8688125,145.586891 C24.4490347,145.586891 24.888187,145.4272 25.1862828,145.107811 C25.4843786,144.788423 25.6334243,144.269425 25.6334243,143.550801 L25.6334243,135.957381 L28.4360429,135.957381 Z M43.1783793,143.478939 L41.6612923,143.478939 L41.6612923,147.583059 L38.8586736,147.583059 L38.8586736,135.957381 L43.4338887,135.957381 C44.8125817,135.957381 45.8905012,136.263457 46.6676795,136.875618 C47.4448578,137.487779 47.8334411,138.352776 47.8334411,139.470635 C47.8334411,140.279753 47.669757,140.950458 47.342384,141.482772 C47.0150109,142.015086 46.5026665,142.446254 45.8053353,142.776288 L48.2326745,147.463289 L48.2326745,147.583059 L45.2304391,147.583059 L43.1783793,143.478939 Z M41.6612923,141.315094 L43.4338887,141.315094 C43.9662026,141.315094 44.3667628,141.175364 44.6355813,140.895899 C44.9043998,140.616434 45.0388071,140.22652 45.0388071,139.726145 C45.0388071,139.22577 44.9030691,138.833194 44.631589,138.548406 C44.3601089,138.263618 43.9608795,138.121226 43.4338887,138.121226 L41.6612923,138.121226 L41.6612923,141.315094 Z M65.4103348,142.656518 L61.0027978,142.656518 L61.0027978,145.427198 L66.2088016,145.427198 L66.2088016,147.583059 L58.2001791,147.583059 L58.2001791,135.957381 L66.224771,135.957381 L66.224771,138.121226 L61.0027978,138.121226 L61.0027978,140.57252 L65.4103348,140.57252 L65.4103348,142.656518 Z M78.8272162,145.427198 L83.7058487,145.427198 L83.7058487,147.583059 L76.0245975,147.583059 L76.0245975,135.957381 L78.8272162,135.957381 L78.8272162,145.427198 Z M100.316597,145.411229 L96.4759719,145.411229 L95.8052598,147.583059 L92.8110091,147.583059 L97.0748221,135.957381 L99.7097627,135.957381 L104.005514,147.583059 L100.995294,147.583059 L100.316597,145.411229 Z M97.1466841,143.247384 L99.6458853,143.247384 L98.3922924,139.215126 L97.1466841,143.247384 Z M119.522364,144.492992 C119.522364,144.08311 119.37731,143.763727 119.087199,143.534832 C118.797088,143.305937 118.287405,143.069061 117.558135,142.824196 C116.828865,142.579332 116.232682,142.342456 115.769569,142.113561 C114.263121,141.373644 113.509908,140.35694 113.509908,139.063417 C113.509908,138.419317 113.697546,137.851081 114.072827,137.358691 C114.448109,136.8663 114.979084,136.48304 115.665769,136.208898 C116.352454,135.934757 117.124297,135.797688 117.981323,135.797688 C118.817055,135.797688 119.566276,135.946734 120.229007,136.244829 C120.891738,136.542925 121.406744,136.967439 121.77404,137.518384 C122.141337,138.069329 122.324982,138.698781 122.324982,139.406758 L119.530348,139.406758 C119.530348,138.932999 119.385295,138.565708 119.095184,138.304874 C118.805073,138.04404 118.412497,137.913625 117.917445,137.913625 C117.41707,137.913625 117.021833,138.024078 116.731722,138.244989 C116.441611,138.465899 116.296558,138.74669 116.296558,139.087371 C116.296558,139.385467 116.456249,139.655612 116.775638,139.897815 C117.095026,140.140018 117.656609,140.390202 118.460403,140.648374 C119.264197,140.906546 119.924256,141.184676 120.4406,141.482772 C121.696861,142.206719 122.324982,143.204792 122.324982,144.477023 C122.324982,145.493742 121.941722,146.292201 121.17519,146.872423 C120.408658,147.452645 119.357354,147.742752 118.021246,147.742752 C117.07905,147.742752 116.22603,147.573745 115.46216,147.235726 C114.698289,146.897706 114.123399,146.4346 113.737471,145.846393 C113.351544,145.258186 113.158583,144.580827 113.158583,143.814295 L115.969186,143.814295 C115.969186,144.437102 116.130209,144.896216 116.452259,145.19165 C116.774308,145.487085 117.297299,145.634799 118.021246,145.634799 C118.484359,145.634799 118.850319,145.534992 119.119138,145.335374 C119.387956,145.135757 119.522364,144.854965 119.522364,144.492992 Z" id="PURELAS"></path>
            </g>
        </g>
    </g>
</svg>