<?xml version="1.0" encoding="UTF-8"?>
<svg width="852px" height="315px" viewBox="0 0 852 315" version="1.1" xmlns="http://www.w3.org/2000/svg" xmlns:xlink="http://www.w3.org/1999/xlink">
    <!-- Generator: Sketch 46.2 (44496) - http://www.bohemiancoding.com/sketch -->
    <title>Cover Page</title>
    <desc>Created with Sketch.</desc>
    <defs>
        <linearGradient x1="0%" y1="0%" x2="100%" y2="100%" id="linearGradient-1">
            <stop stop-color="#FAD295" offset="0%"></stop>
            <stop stop-color="#F145A9" offset="33.8208008%"></stop>
            <stop stop-color="#115B84" offset="100%"></stop>
        </linearGradient>
        <rect id="path-2" x="0" y="0" width="852" height="316"></rect>
    </defs>
    <g id="Facebook" stroke="none" stroke-width="1" fill="none" fill-rule="evenodd">
        <g id="Cover-Page">
            <g id="BG">
                <use fill="url(#linearGradient-1)" fill-rule="evenodd" xlink:href="#path-2"></use>
                <rect stroke="#979797" stroke-width="1" x="0.5" y="0.5" width="851" height="315"></rect>
            </g>
            <g id="Group" transform="translate(349.000000, -90.000000)">
                <ellipse id="Oval" fill-opacity="0.593353714" fill="#F363B2" fill-rule="nonzero" cx="289" cy="244.5" rx="289" ry="244.5"></ellipse>
                <g transform="translate(318.000000, 108.000000)" id="Shape">
                    <path d="M155.821697,312.598338 C157.094674,305.875348 158.367652,299.152359 159.852793,292.212499 C160.701444,287.875086 161.974422,283.537673 163.035237,279.417131 C165.369029,268.5736 167.702821,257.946939 169.824451,247.103407 C170.460939,243.199736 170.248776,239.296064 170.248776,235.392393 C170.248776,233.874299 169.400125,232.573075 167.702821,232.139333 C166.429844,231.705592 165.369029,231.488722 163.671725,231.05498 C162.823074,233.874299 163.2474,236.259875 163.2474,238.428582 C163.2474,239.512935 163.459562,240.814159 163.2474,241.898512 C163.2474,243.416606 161.762259,244.067218 160.489281,243.416606 C159.216304,242.765994 158.155489,241.898512 156.670348,240.814159 C156.03386,241.898512 155.609534,242.765994 154.973045,243.633477 C154.336556,244.71783 152.851416,244.71783 152.002764,243.633477 C151.154112,242.549124 150.30546,241.2479 149.244646,239.729806 C148.608157,240.814159 148.183831,241.464771 147.759505,242.115383 C146.69869,243.416606 145.001387,243.416606 144.152735,242.115383 C143.304083,240.814159 142.455432,239.296064 141.818943,237.77797 C140.333802,234.091169 138.848662,230.621239 137.151358,226.717568 C132.695937,223.681379 128.452678,226.500697 123.997256,227.58505 C122.512116,229.970627 121.663464,232.356204 121.026975,234.741781 C119.329672,240.597288 118.268857,246.669666 114.87425,251.65769 C114.449924,252.308302 114.025598,253.175785 113.813435,253.826397 C111.479643,261.416869 108.085036,268.356729 104.690429,275.51346 C104.05394,276.597813 103.841777,277.899037 103.417451,279.200261 C102.993125,280.067743 102.568799,280.935226 102.144474,281.802708 C101.507985,282.887061 100.022844,283.103932 99.1741925,282.23645 C98.1133778,281.368967 97.264726,280.501484 96.4160743,279.417131 C94.9309337,277.682166 93.6579561,275.730331 92.1728156,274.212236 C90.4755121,272.694142 89.6268603,270.525435 88.3538827,268.5736 C87.9295568,267.922988 87.5052309,267.055505 87.0809051,266.404893 C82.6254834,259.681904 78.1700617,253.175785 73.926803,246.452795 C72.0173365,243.416606 70.532196,239.946676 68.6227295,236.476746 C67.5619148,234.52491 66.5011002,232.789945 65.6524484,231.271851 C60.9848638,231.271851 56.5294421,231.488722 52.2861834,231.271851 C49.7402281,231.05498 48.0429246,232.356204 46.1334582,233.440557 C45.7091323,233.657428 45.2848064,234.30804 45.0726435,234.958652 C44.6483176,236.259875 43.7996659,237.344229 42.3145253,237.344229 C40.4050589,237.344229 40.1928959,235.609264 39.5564071,234.30804 C39.1320813,233.223687 38.7077554,231.922463 38.2834295,230.83811 C37.0104519,230.83811 37.0104519,231.705592 37.0104519,232.139333 C37.0104519,233.874299 37.0104519,235.826134 37.0104519,237.561099 C37.0104519,238.645452 36.586126,239.512935 35.5253113,239.729806 C34.4644966,239.946676 33.6158449,239.512935 33.191519,238.428582 C32.5550302,237.344229 32.1307043,236.043005 31.2820526,234.958652 C30.4334008,233.657428 29.796912,231.705592 27.8874456,231.705592 C25.7658162,231.922463 26.1901421,234.30804 25.9779792,235.609264 C25.5536533,237.344229 25.7658162,239.296064 25.5536533,241.031029 C24.7050015,251.874561 26.8266309,262.284351 28.7360973,272.694142 C30.2212379,280.935226 31.9185414,289.17631 33.6158449,297.200523 C34.2523337,300.453583 35.5253113,303.489771 36.586126,306.52596 C37.2226148,308.477796 37.6469407,310.429632 37.4347778,312.598338 C40.6172218,313.032079 43.5875029,313.465821 46.769947,313.899562 C46.3456211,313.465821 45.9212953,312.815209 45.9212953,312.164597 C44.0118288,304.140383 42.3145253,296.11617 40.4050589,288.308827 C39.980733,286.140121 39.7685701,283.754544 40.6172218,281.585838 C40.8293848,280.935226 41.2537106,280.501484 42.1023624,279.200261 C42.9510141,280.718355 43.5875029,281.585838 43.7996659,282.45332 C44.6483176,290.694404 47.6185987,298.501747 49.3159022,306.30909 C49.9523911,308.694667 50.3767169,311.080244 51.0132057,313.465821 C51.2253687,313.899562 51.0132057,314.333303 50.5888799,314.767044 C51.6496946,314.983915 52.9226722,315.200786 53.9834869,315.417656 C68.4105666,317.803233 82.6254834,320.622551 97.0525631,322.357516 C111.055317,324.092482 125.69456,324.959964 139.697313,322.357516 C145.637876,321.273163 150.941949,319.321328 155.821697,316.71888 C155.821697,316.71888 155.821697,316.71888 155.821697,316.502009 C155.609534,315.634527 155.609534,314.116432 155.821697,312.598338 Z M150.729786,275.947201 C150.517623,279.634002 150.093297,283.537673 149.881134,287.224474 C149.881134,287.224474 150.093297,287.224474 150.093297,287.224474 C150.093297,288.959439 150.30546,290.911275 150.093297,292.64624 C149.668972,298.284876 149.032483,303.706642 149.244646,309.345279 C149.244646,311.297114 149.244646,313.465821 147.547342,314.767044 C147.123016,315.200786 146.274365,315.200786 145.850039,315.200786 C145.637876,315.200786 145.21355,314.550174 145.21355,314.116432 C145.21355,308.694667 145.001387,303.272901 145.425713,297.851135 C145.850039,292.64624 146.062202,287.441345 146.274365,282.23645 C146.274365,278.98339 146.910853,275.947201 147.971668,273.127883 C148.183831,272.694142 148.82032,272.04353 149.244646,272.04353 C150.30546,271.826659 150.517623,272.911012 150.517623,273.561624 C150.729786,274.212236 150.729786,275.079719 150.729786,275.947201 Z" fill="#FFFFFF" fill-rule="nonzero"></path>
                    <path d="M70.2379154,71.8191401 C69.3928399,71.6040831 69.181571,72.0341971 68.7590332,72.6793682 C64.1111178,79.7762493 60.308278,87.3032444 57.1392448,95.0452965 C55.2378248,99.9916076 52.4913294,104.292748 50.1673717,109.024002 C49.533565,110.099287 48.8997584,110.744458 47.843414,111.389629 C46.5758007,111.819743 45.5194563,112.464914 44.6743808,113.110085 C44.251843,114.615484 45.7307252,114.615484 46.3645318,115.260655 C46.3645318,117.196168 44.8856497,118.701567 44.0405741,119.991909 C41.5053476,124.077992 38.7588521,128.164075 36.2236255,132.250158 C34.9560122,134.400728 34.1109367,136.551298 33.4771301,138.916925 C31.9982479,145.153578 30.3080969,151.175174 28.6179458,157.19677 C27.7728703,160.207568 26.0827192,163.218367 24.6038371,166.014108 C23.7587615,167.519507 23.3362238,168.809849 23.1249549,170.530305 C22.4911483,174.616388 21.8573416,178.917528 21.0122661,183.003611 C20.3784594,186.229466 21.4348038,189.025207 22.0686105,191.820948 C23.3362238,190.530606 23.1249549,188.81015 23.5474927,187.519808 C23.9700304,186.014409 24.3925682,184.293953 24.8151059,182.788554 C25.2376437,181.068098 25.8714504,179.347642 26.0827192,177.627186 C26.505257,176.121787 26.505257,174.401331 26.7165259,172.895932 C26.9277948,171.390533 26.7165259,169.670077 28.4066769,168.379735 C29.4630213,169.885134 30.5193657,170.960419 31.1531724,172.465818 C32.4207857,174.401331 33.2658612,176.336844 35.1672811,177.842243 C35.5898189,178.272357 36.0123567,178.917528 36.2236255,179.347642 C36.6461633,181.928326 36.8574322,184.50901 37.0687011,187.089694 C37.0687011,188.164979 36.8574322,189.455321 37.0687011,190.530606 C37.9137766,197.41243 38.970121,204.294254 39.8151965,211.391135 C40.0264654,213.541705 40.4490032,215.907332 40.660272,218.057902 C40.8715409,219.133187 40.8715409,220.423529 41.2940787,221.498814 C41.5053476,221.928928 42.1391542,222.143985 42.7729608,222.789156 C44.0405741,220.423529 43.8293053,218.272959 43.6180364,216.337446 C43.4067675,213.971819 42.9842297,211.821249 42.561692,209.670679 C42.561692,209.025508 42.1391542,208.380337 42.1391542,207.735166 C41.9278853,200.423228 40.2377343,193.326347 39.3926587,186.014409 C39.3926587,185.369238 39.3926587,184.724067 39.6039276,183.863839 C42.3504231,184.078896 43.8293053,186.444523 45.9419941,187.089694 C48.2659518,187.949922 50.1673717,189.025207 52.2800605,190.100492 C52.4913294,194.186575 52.7025983,198.057601 52.9138671,201.928627 C53.125136,205.584596 53.3364049,209.455622 53.5476738,212.896534 C55.026556,213.541705 55.6603626,212.896534 55.6603626,211.821249 C55.6603626,208.16528 55.4490937,204.294254 55.2378248,200.638285 C55.2378248,198.917829 54.8152871,197.197373 54.6040182,195.26186 C54.6040182,194.401632 54.6040182,193.326347 54.6040182,192.036005 C57.1392448,193.326347 59.4632025,194.401632 61.998429,195.476917 C61.998429,197.627487 61.998429,199.563 61.998429,201.71357 C61.998429,203.649083 61.998429,205.584596 62.2096979,207.520109 C62.2096979,207.950223 62.8435046,208.380337 63.4773112,209.025508 C64.9561934,204.509311 63.4773112,200.208171 64.5336556,196.122088 C67.4914199,196.122088 70.0266465,196.982316 72.5618731,197.41243 C73.1956797,199.347943 72.773142,200.853342 72.1393353,202.358741 C70.871722,205.799653 70.2379154,209.240565 69.8153776,212.681477 C69.3928399,216.122389 68.1252266,219.563301 65.3787311,222.143985 C64.7449245,220.208472 64.1111178,218.488016 63.4773112,216.982617 C62.6322357,215.047104 61.1533535,214.832047 59.6744713,216.122389 C58.6181269,217.197674 57.9843203,218.272959 57.1392448,219.563301 C56.5054381,220.638586 55.8716315,221.713871 55.026556,223.21927 C53.9702116,221.283757 52.9138671,219.563301 52.0687916,218.057902 C51.0124472,216.337446 49.9561028,214.832047 49.1110273,213.111591 C48.2659518,211.606192 48.6884895,209.240565 46.5758007,207.950223 C45.7307252,209.670679 46.1532629,210.961021 46.1532629,212.46642 C46.3645318,214.61699 46.5758007,216.982617 46.7870696,219.133187 C47.2096074,222.143985 44.4631119,224.079498 44.4631119,226.87524 C42.9842297,228.595696 41.5053476,230.531209 39.6039276,232.466722 C38.5475832,230.531209 37.7025077,228.810753 36.8574322,227.090297 C35.37855,227.090297 34.5334745,227.950525 34.3222056,229.240867 C33.8996678,231.606494 32.6320546,232.896836 30.7306346,234.402235 C29.2517525,231.821551 27.7728703,229.455924 26.2939881,227.305354 C24.8151059,226.445126 23.9700304,226.87524 23.1249549,227.950525 C22.4911483,228.595696 22.4911483,229.886038 21.223535,229.670981 C19.9559217,219.993415 16.7868885,210.745964 14.6741997,201.283456 C12.5615108,192.251062 10.448822,183.218668 8.5474021,174.186274 C7.49105769,169.024906 7.06851993,163.863538 6.43471329,158.702169 C5.80090664,153.325744 4.95583112,147.949319 4.32202447,142.787951 C3.47694895,137.626583 3.68821783,132.465215 3.68821783,127.08879 C3.68821783,126.013505 3.68821783,125.153277 3.68821783,124.077992 C3.26568007,109.454116 4.95583112,95.2603535 7.06851993,80.8515343 C8.12486434,73.3245392 9.81501539,65.797544 11.5051664,58.2705489 C11.9277042,56.7651499 12.350242,55.2597509 12.9840486,53.5392949 C14.6741997,49.0230978 16.3643507,44.5069007 18.0545018,39.7756466 C19.322115,36.3347346 21.0122661,33.3239365 22.913686,30.3131385 C24.3925682,28.1625685 25.8714504,26.0119984 27.5616014,24.0764854 C29.6742902,21.2807444 31.9982479,18.9151173 34.9560122,17.1946613 C37.0687011,15.9043193 38.970121,14.6139773 41.0828098,13.3236352 C43.1954986,11.8182362 45.5194563,10.7429512 48.0546829,10.3128372 C51.8575227,9.45260918 55.4490937,8.37732416 59.2519336,7.51709615 C65.1674623,6.22675413 71.0829909,6.22675413 76.9985196,6.44181113 C79.7450151,6.44181113 82.2802416,7.30203915 84.6041993,9.23755217 C85.4492748,9.88272318 86.2943504,10.3128372 86.928157,10.9580082 C89.2521147,13.1085782 91.5760724,14.1838633 94.7451056,13.5386922 C97.0690633,13.1085782 98.5479455,14.8290343 100.026828,16.3344333 C100.871903,17.1946613 101.50571,18.4850033 102.350785,19.5602883 C102.139516,21.0656874 101.716979,22.3560294 101.50571,23.8614284 L101.716979,23.6463714 C101.083172,24.9367134 100.026828,26.4421124 99.6042899,27.7324545 C96.2239878,37.4100196 91.7873413,46.6574708 87.5619637,55.6898649 C85.0267371,61.06629 82.0689727,66.4427151 78.8999395,71.3890261 C73.6182175,79.7762493 67.9139577,87.7333584 62.4209668,95.9055245 C61.5758913,96.9808095 60.5195469,98.0560945 59.0406647,99.9916076 C59.2519336,98.4862085 59.0406647,97.6259805 59.2519336,96.9808095 C61.5758913,89.8839284 65.1674623,83.2171613 68.3364955,76.5503942 C68.5477644,75.2600522 69.181571,73.5395962 70.2379154,71.8191401 C70.4491843,71.1739691 71.0829909,70.5287981 69.8153776,69.4535131 C70.0266465,70.5287981 70.0266465,71.1739691 70.2379154,71.8191401 Z M61.7871602,50.0983828 C61.1533535,51.1736678 60.5195469,52.2489528 60.0970091,53.3242379 C54.3927493,64.077088 49.1110273,75.0449952 44.251843,86.2279594 C41.0828098,93.1097835 38.1250455,100.206665 35.8010878,107.518603 C34.1109367,112.679971 32.2095168,117.626282 30.7306346,122.78765 C28.6179458,129.669474 26.7165259,136.551298 25.0263748,143.433122 C23.9700304,147.519205 23.3362238,151.605288 22.4911483,155.906428 C22.2798794,156.551599 22.2798794,157.19677 22.4911483,157.841941 C22.7024171,158.487112 23.1249549,159.132283 23.7587615,159.132283 C24.1812993,159.132283 25.0263748,158.917226 25.2376437,158.487112 C25.8714504,156.766656 26.505257,155.0462 26.9277948,153.325744 C28.195408,148.809547 29.2517525,144.078293 30.3080969,139.562096 C31.5757101,135.260956 32.6320546,130.744759 33.8996678,126.443619 C37.0687011,116.766054 39.8151965,106.873432 43.4067675,97.1958665 C47.843414,85.1526743 53.125136,73.5395962 57.9843203,61.711461 C59.4632025,58.0554919 61.1533535,54.3995229 61.7871602,50.0983828 Z M31.1531724,181.713269 C30.9419035,181.713269 30.7306346,181.498212 30.5193657,181.498212 C30.3080969,182.788554 29.8855591,184.293953 29.8855591,185.584295 C29.4630213,194.186575 29.0404836,202.788855 28.8292147,211.391135 C28.6179458,215.262161 29.8855591,219.133187 30.9419035,222.789156 C31.3644413,224.079498 32.4207857,224.724669 33.8996678,224.724669 C34.5334745,223.004213 33.8996678,221.498814 33.688399,219.993415 C33.2658612,217.627788 32.4207857,215.262161 32.4207857,212.896534 C31.786979,202.573798 31.3644413,192.036005 31.1531724,181.713269 Z M71.9280665,66.6577721 L72.3506042,66.6577721 L72.1393353,66.2276581 L71.9280665,66.6577721 Z M74.0407553,63.862031 L74.2520241,63.431917 L74.0407553,63.431917 L74.0407553,63.862031 Z M75.9421752,60.636176 L76.1534441,60.851233 L76.364713,60.421119 L75.9421752,60.636176 Z" fill="#FFFFFF"></path>
                    <path d="M48.2754941,125.317382 C48.2754941,128.095644 48.2754941,130.446481 48.2754941,133.01103 C48.2754941,134.507017 48.489439,136.003004 50.2009983,136.644141 C52.3404475,137.285279 54.6938416,137.071566 55.7635662,134.934442 C56.6193459,133.438455 57.2611807,131.728755 57.0472358,129.805344 C56.6193459,126.813369 55.7635662,125.531095 52.7683374,124.676245 C51.4846678,124.24882 49.9870534,124.035108 48.2754941,123.607683 C49.7731085,120.401996 51.9125577,117.623735 53.838062,115.059185 C55.5496213,112.708349 57.2611807,110.143799 59.186685,107.792963 C64.321363,101.38159 69.0281513,94.5427917 73.7349395,87.7039938 C74.5907192,86.4217191 75.4464989,85.1394445 77.3720031,84.9257321 C78.2277828,84.9257321 78.8696176,83.8571699 79.5114523,83.2160326 C80.1532871,82.3611829 80.7951218,81.2926207 81.2230117,80.2240585 C85.5019101,71.2481362 89.5668635,62.4859264 93.8457619,53.5100041 C94.0597069,52.8688668 94.4875967,52.4414419 94.9154865,51.5865922 C95.5573213,52.4414419 95.7712662,52.8688668 95.9852111,53.5100041 C97.9107154,57.3568279 100.478054,60.9899393 103.687228,63.9819134 C106.040622,66.3327502 108.180072,69.1110119 110.533466,71.4618487 C110.961356,71.8892735 111.389245,72.5304108 111.817135,72.9578357 C116.523923,76.1635222 119.305207,81.0789083 122.514381,85.353157 C124.867775,88.3451311 127.007224,91.3371052 129.146674,94.3290793 C130.858233,96.8936285 132.569792,99.4581777 134.495297,101.809014 C137.062636,105.014701 137.70447,108.861525 138.774195,112.494636 C138.98814,113.563198 138.98814,114.631761 138.98814,115.914035 C138.774195,118.478584 139.41603,121.043134 140.27181,123.39397 C142.411259,120.829421 142.411259,120.829421 142.411259,118.906009 C142.197314,115.700323 141.769424,112.494636 141.555479,109.28895 C141.555479,108.647812 141.127589,108.006675 141.127589,107.365538 C141.341534,105.442126 140.913644,103.305002 143.480983,102.663864 C143.694928,102.663864 144.122818,102.450152 144.336763,102.022727 C144.978598,101.167877 145.192543,99.8856026 146.690157,99.8856026 C148.615661,99.8856026 150.113276,100.740452 151.183,102.450152 C152.46667,104.373564 153.536395,106.296976 153.536395,108.647812 C153.536395,111.853499 153.964284,115.059185 153.964284,118.264872 C154.178229,121.897983 152.03878,127.240794 149.471441,130.873906 C149.257496,130.446481 148.829606,130.232768 148.615661,129.805344 C148.401716,129.377919 148.187772,128.950494 147.973827,128.309356 C147.118047,128.309356 146.048322,128.095644 145.192543,128.095644 C143.694928,127.881932 142.625204,128.523069 141.983369,129.805344 C141.127589,131.087618 140.27181,132.15618 139.629975,133.438455 C138.13236,136.857854 135.351076,139.636116 134.923187,143.269227 C134.709242,144.765214 134.495297,146.474913 134.495297,147.970901 C134.281352,152.458862 134.281352,156.946823 134.067407,161.648496 C134.067407,163.999333 133.211627,165.922745 131.286123,166.991307 C128.932729,168.487294 127.435114,170.838131 125.723555,172.975255 C124.225941,175.11238 122.514381,177.035792 120.588877,178.745491 C119.091262,180.027766 118.021538,181.737465 116.737868,183.01974 C114.170529,185.370577 111.60319,187.721414 108.821906,190.07225 C108.180072,190.499675 107.324292,190.9271 106.896402,191.354525 C102.403559,195.628774 96.6270459,195.628774 90.8505331,195.415061 C86.9995245,195.201349 83.148516,194.987636 79.2975074,193.919074 C72.45127,192.209375 65.1771427,191.78195 58.97274,187.721414 C55.1217315,185.156864 50.8428331,183.233452 46.7778796,180.668903 C40.5734769,176.608367 36.0806336,170.838131 32.6575149,164.426758 C31.5877903,162.503346 31.3738454,160.579934 32.2296251,158.44281 C36.0806336,147.116051 40.7874219,136.430429 46.7778796,126.172232 C46.7778796,125.744807 47.2057695,125.744807 48.2754941,125.317382 Z M72.8791598,116.982597 C72.45127,117.623735 72.0233801,118.05116 72.0233801,118.478584 C72.0233801,122.752833 71.8094352,127.240794 71.8094352,131.515043 C71.8094352,137.926416 73.5209946,144.551502 69.4560411,150.321737 C69.4560411,150.53545 69.2420962,150.53545 69.2420962,150.749162 C68.6002614,153.099999 69.2420962,154.809698 71.5954903,156.091973 C75.018609,157.801673 78.4417277,159.083947 82.2927363,157.801673 C82.7206261,157.58796 83.148516,157.160535 84.0042956,156.519398 C80.7951218,155.664548 78.0138379,154.809698 75.2325539,153.954849 C74.3767743,153.741136 73.7349395,153.099999 72.8791598,152.458862 C73.5209946,151.176587 74.1628293,149.894312 74.8046641,148.82575 C75.2325539,147.757188 75.6604438,146.688626 75.6604438,145.620064 C75.6604438,141.77324 76.0883336,137.712704 75.4464989,134.079592 C74.8046641,129.805344 74.5907192,125.744807 74.1628293,121.470559 C73.9488844,119.974572 74.1628293,118.478584 72.8791598,116.982597 Z M108.394016,110.998649 C107.966127,110.998649 107.538237,110.784937 107.110347,110.998649 C104.970898,112.280924 103.259338,113.776911 100.691999,114.204336 C100.050165,114.204336 99.4083299,115.059185 98.98044,115.700323 C97.0549357,118.906009 96.413101,122.111696 96.8409908,125.744807 C97.0549357,127.027082 97.6967705,127.881932 98.5525502,128.523069 C100.478054,129.591631 102.617504,129.591631 104.543008,128.309356 C106.468512,127.027082 107.538237,125.317382 106.896402,122.966546 C105.612733,118.906009 106.254567,115.059185 108.607961,111.639787 C108.607961,111.426074 108.394016,111.212362 108.394016,110.998649 Z M71.1676005,166.35017 C72.0233801,166.991307 72.45127,167.418732 73.0931047,167.418732 C76.0883336,167.846157 79.2975074,168.273582 82.2927363,168.273582 C91.7063127,168.273582 99.1943849,164.426758 104.329063,156.519398 C104.543008,156.305686 104.329063,155.664548 104.543008,154.595986 C103.045393,155.664548 101.761724,156.519398 100.691999,157.160535 C98.1246603,158.870235 95.5573213,160.579934 92.9899823,162.075921 C89.7808085,163.785621 86.3576898,164.64047 82.7206261,164.64047 C79.0835625,164.854183 75.4464989,164.854183 71.1676005,166.35017 Z M116.096034,96.2524912 C115.668144,94.7565041 115.026309,94.7565041 114.384474,94.7565041 C106.896402,94.1153668 100.050165,96.4662036 93.2039272,99.2444653 C91.7063127,99.8856026 90.2086983,100.740452 89.7808085,102.450152 C89.5668635,102.877577 89.7808085,103.518714 89.9947534,103.732426 C90.2086983,103.946139 90.8505331,104.159851 91.2784229,104.159851 C91.4923678,104.159851 91.9202577,103.946139 92.1342026,103.946139 C97.4828256,101.167877 103.045393,99.2444653 109.035851,98.3896155 C111.389245,97.7484782 113.742639,96.8936285 116.096034,96.2524912 Z M97.9107154,169.555857 C94.0597069,169.555857 91.064478,170.410706 88.283194,172.334118 C87.8553042,172.547831 87.6413593,173.188968 87.6413593,173.40268 C87.8553042,173.830105 88.4971389,174.25753 88.9250288,174.684955 C89.1389737,174.898667 89.5668635,174.898667 89.7808085,174.898667 C91.7063127,174.043818 93.631817,173.40268 95.5573213,172.547831 C96.413101,171.906693 96.8409908,170.838131 97.9107154,169.555857 Z" fill="#FFFFFF"></path>
                    <path d="M102.576854,23.5530255 C103.006511,22.9104302 103.650998,22.2678349 104.295484,21.6252396 C105.1548,22.2678349 105.799286,22.9104302 106.658602,23.5530255 C107.088259,23.3388271 107.517917,23.3388271 107.517917,23.3388271 C107.947575,20.7684459 110.310692,18.6264616 109.236548,15.4134852 C111.170008,15.1992868 112.458981,16.2702789 113.962783,16.6986758 C115.466585,17.1270726 116.970387,17.7696679 118.474189,18.4122632 C121.052135,19.6974538 123.630081,20.9826444 126.208028,22.4820334 C129.860118,24.4098192 132.652893,27.4085972 135.445668,30.1931768 C138.238443,33.1919548 140.386732,36.6191296 142.105363,40.2605029 C143.609165,43.4734793 145.542624,46.4722573 147.046426,49.6852337 C148.979886,54.3975991 150.698517,59.1099646 152.202319,63.82233 C153.706121,68.5346954 154.995094,73.2470608 156.069238,77.9594262 C156.928554,81.1724027 157.358212,84.5995775 157.787869,88.0267524 C158.862013,95.7378958 159.936158,103.449039 161.010302,111.160183 C161.225131,112.016976 161.225131,113.087968 161.225131,114.158961 C161.225131,121.227509 161.225131,128.081858 161.225131,135.150407 C161.225131,136.0072 161.010302,136.649796 161.010302,137.292391 C159.936158,137.934986 159.5065,137.292391 159.291671,136.863994 C158.002698,134.507811 156.498896,132.151629 153.92095,130.866438 C154.135779,130.009644 154.135779,129.367049 154.350608,128.724454 C156.928554,121.870104 156.713725,114.587357 156.284067,107.518809 C156.069238,103.234841 153.92095,99.3792691 149.839202,97.2372848 C148.550228,96.5946895 146.831598,96.3804911 145.112967,96.1662926 C143.823994,95.9520942 142.749849,96.1662926 141.031219,96.1662926 C140.171903,97.8798801 139.312588,100.021864 138.238443,102.163849 C137.808786,101.521253 137.379128,101.307055 137.164299,100.878658 C133.727037,94.2385068 129.43046,88.0267524 124.704226,82.4575932 C121.266964,78.1736247 117.829702,73.8896561 113.318296,70.4624813 C112.244152,69.6056875 111.599665,68.5346954 110.74035,67.6779017 C108.377233,65.321719 106.014115,62.7513378 103.650998,60.3951551 C101.28788,57.824774 98.924763,55.0401944 96.7764744,52.2556149 C94.8430147,50.1136306 94.6281859,47.7574479 95.917159,44.9728683 C98.7099341,38.9753123 100.428565,32.5493595 102.147196,26.1234066 C102.791682,25.0524145 102.791682,24.1956208 102.576854,23.5530255 C102.791682,23.3388271 102.576854,23.5530255 102.576854,23.5530255 Z M136.304984,83.5285854 C136.734641,80.5298074 136.734641,80.5298074 135.875326,79.0304184 C133.941866,76.2458388 132.008407,73.4612593 129.860118,70.6766797 C122.770766,60.3951551 115.466585,50.1136306 108.377233,40.0463045 C107.732746,39.1895107 107.303088,38.5469155 106.658602,37.6901217 C106.228944,37.2617249 105.799286,36.6191296 104.939971,37.4759233 C107.088259,40.6888997 109.021719,43.9018762 111.170008,47.1148526 C116.3259,54.6117976 121.266964,62.1087426 126.422856,69.6056875 C129.215632,73.6754577 132.438064,77.7452278 135.445668,81.814998 C135.660497,82.2433948 135.875326,82.8859901 136.304984,83.5285854 Z" fill="#FFFFFF"></path>
                    <path d="M84.6034014,222.372445 C91.4949705,225.148386 98.1711781,225.788988 104.416663,221.731844 C106.570278,223.440115 108.723893,225.148386 110.877509,226.856658 C113.246486,228.564929 116.046186,227.283726 118.630524,228.137861 C118.845885,230.486734 117.553716,232.40854 116.907632,234.757413 C112.600401,234.116811 108.29317,234.757413 104.416663,236.038616 C104.201301,236.038616 104.201301,236.679218 103.98594,237.106286 C105.49347,237.533354 107.001001,238.173956 108.939255,238.601023 C111.09287,237.106286 113.461847,235.825082 116.261547,237.106286 C116.261547,237.533354 116.476909,237.960422 116.476909,238.173956 C115.184739,242.017566 114.538655,246.074711 112.169678,249.491253 C111.308232,250.772457 110.662147,252.267194 110.016063,253.761932 C107.431724,261.235619 103.98594,268.495772 100.755517,275.542392 C100.540155,275.96946 100.324793,276.396527 100.109432,276.823595 C98.8172627,277.250663 97.9558166,276.396527 97.5250935,275.755926 C96.6636474,273.83412 95.1561166,272.339383 93.4332243,271.058179 C92.5717782,270.417578 92.1410551,269.136374 91.4949705,268.282238 C90.6335244,266.787501 89.7720782,265.07923 88.6952706,263.798026 C85.4648475,259.954415 83.0958707,255.470203 80.7268938,250.985991 C78.78864,247.355914 76.6350246,243.939371 74.6967708,240.522829 C74.2660477,239.668693 73.8353247,238.814557 73.4046016,237.746888 C77.2811092,237.746888 80.5115322,237.746888 83.9573168,237.746888 C84.8187629,238.814557 85.6802091,239.882227 86.5416552,240.736363 C87.1877398,241.376964 88.6952706,240.736363 88.9106321,239.882227 C89.1259936,238.173956 88.6952706,236.892752 87.1877398,236.25215 C86.5416552,236.038616 85.6802091,235.611548 84.8187629,235.611548 C80.2961707,235.825082 75.98894,235.184481 71.4663478,234.330345 C71.0356247,233.476209 70.3895401,232.40854 69.7434555,231.127336 C71.2509862,230.700268 72.5431555,230.2732 73.8353247,230.059667 C77.9271938,229.632599 81.1576168,227.710793 83.3112322,224.080717 C83.5265937,223.867183 83.7419553,223.440115 83.7419553,223.226581 C83.9573168,223.226581 84.1726783,223.013047 84.6034014,222.372445 Z" fill="#FFFFFF"></path>
                    <path d="M160.052225,237.472177 C159.61363,237.043046 159.394332,236.399348 158.736439,235.970216 C157.201356,234.468255 155.227678,234.682821 154.569786,236.82848 C154.350488,237.686743 154.13119,238.759573 154.13119,239.617836 C153.034703,240.046968 152.596108,239.40327 152.157512,238.759573 C151.49962,237.901309 150.841727,237.043046 150.183834,236.184782 C147.332966,235.541084 147.113668,238.115875 145.797883,239.832402 C143.824205,236.613914 142.069825,233.609991 141.631229,230.176937 C140.315444,220.736038 138.999659,211.080573 138.122468,201.639673 C137.245278,191.555076 137.683873,181.470479 139.218956,171.600448 C139.438254,170.742185 139.657551,170.098487 139.876849,169.240223 C142.947015,170.313053 146.017181,171.171316 149.306644,172.244146 C149.306644,172.887844 149.306644,173.960673 149.306644,174.818937 C149.306644,186.190929 149.087347,197.562921 149.087347,208.934914 C149.087347,213.226232 149.525942,217.302983 149.964537,221.594301 C150.183834,223.525394 150.622429,225.456487 151.938215,226.958449 C152.37681,227.38758 152.815405,227.602146 153.911893,228.245844 C153.911893,227.173015 153.911893,226.529317 153.911893,225.885619 C152.596108,218.161247 152.596108,210.436875 152.37681,202.497937 C152.37681,194.129867 152.37681,185.547231 152.37681,177.179162 C152.37681,175.462634 152.596108,173.531541 152.596108,171.815014 C152.815405,170.742185 153.692595,170.098487 154.569786,170.098487 C156.104869,170.098487 157.859249,170.098487 159.61363,170.098487 C159.61363,180.826782 159.61363,191.125945 159.61363,201.639673 C159.61363,205.930991 159.394332,210.222309 159.832927,214.299061 C160.271522,219.234077 160.49082,224.383658 160.49082,229.318673 C160.49082,230.176937 160.710117,231.249767 161.148712,232.10803 C161.36801,233.824557 161.148712,235.326518 160.052225,237.472177 Z" fill="#FFFFFF"></path>
                    <path d="M125.006301,178.271215 C125.006301,180.590584 125.006301,182.699102 125.006301,184.807619 C125.223452,188.392098 125.440604,192.187429 125.657755,195.771909 C125.874906,197.037019 126.309209,198.302129 126.743512,199.356388 C126.960664,199.778091 127.82927,199.988943 128.697876,200.410647 C128.915027,199.778091 129.132179,199.56724 129.132179,199.145536 C128.046421,194.085095 128.480724,189.024653 128.263573,183.964212 C128.263573,181.433991 128.046421,178.903771 127.82927,176.37355 C127.612118,174.686736 128.046421,173.210774 129.132179,171.945664 C130.652239,170.047998 132.172299,168.150332 133.69236,166.252667 C133.909511,166.041815 134.560965,165.830963 135.21242,165.620112 C135.429571,166.463519 135.646723,166.885222 135.646723,167.517777 C135.21242,171.102257 134.778117,174.897588 133.909511,178.271215 C132.389451,184.807619 132.606602,191.344022 133.258057,197.669574 C133.909511,204.205978 134.995268,210.53153 135.863874,217.067933 C135.863874,217.700488 135.863874,218.333043 135.863874,218.754747 C134.778117,219.387302 134.778117,218.754747 134.343814,218.122192 C134.126663,217.700488 133.69236,217.067933 133.258057,216.857081 C132.172299,216.435378 131.086542,216.013674 130.000785,215.802823 C128.697876,213.06175 128.046421,210.320678 127.394967,207.579605 C127.177815,206.736198 126.960664,205.68194 126.743512,204.838533 C126.092058,203.151719 124.571998,202.940867 122.834786,203.784274 C122.400483,203.995126 122.183331,204.416829 121.749028,204.627681 C120.44612,203.995126 120.663271,202.730016 120.44612,201.675757 C120.011817,199.356388 119.794665,197.037019 119.360362,194.506798 C117.188847,192.609133 117.840302,190.078912 117.840302,187.759543 C117.840302,186.494433 118.057453,185.018471 118.926059,184.175064 C120.44612,182.066546 122.183331,180.168881 123.920543,178.271215 C123.920543,178.271215 124.354846,178.271215 125.006301,178.271215 Z" fill="#FFFFFF"></path>
                    <path d="M148.889276,136.116738 C149.302903,135.245487 149.509717,134.809861 149.923344,134.374235 C150.33697,134.156423 150.750597,133.93861 151.164224,133.720797 C158.402694,136.987989 163.779843,145.7005 162.95259,152.67051 C162.745776,154.630825 162.125336,156.59114 161.298082,158.333642 C160.057202,161.600834 158.609508,164.650213 156.127747,167.046154 C155.093679,167.917405 154.266426,168.788656 152.818732,168.788656 C152.405105,168.788656 151.784664,169.006469 151.371038,169.006469 C145.787075,170.095533 142.064433,167.263966 138.962232,162.907711 C138.548605,162.254272 138.134978,161.383021 138.134978,160.729583 C137.307724,151.799258 137.307724,143.086747 140.616739,134.592048 C141.443993,132.631733 142.684874,130.889231 144.132568,129.582354 C144.339381,129.364541 145.166635,129.364541 145.373448,129.582354 C145.787075,129.800167 145.993888,130.453605 145.993888,130.889231 C145.787075,131.978295 145.580262,133.285171 144.959821,134.156423 C142.684874,137.423614 142.684874,141.344245 142.064433,145.047062 C141.443993,148.096441 141.650806,151.363633 141.650806,154.413012 C141.650806,158.551455 144.753008,162.907711 148.47565,163.996775 C149.71653,164.4324 150.957411,164.214587 152.198291,163.778962 C154.266426,162.689898 155.71412,161.165208 157.161814,159.204893 C157.575441,158.769268 157.782254,157.898017 157.782254,157.462391 C157.575441,152.888322 158.195881,148.314254 156.541373,143.740185 C155.507306,139.601742 153.232359,136.987989 148.889276,136.116738 Z" fill="#FFFFFF"></path>
                    <path d="M104.162304,199.255751 C104.162304,203.370113 104.162304,207.26793 104.162304,210.949201 C99.9225799,213.3312 95.2588838,212.465019 90.8071739,212.681564 C89.5352568,212.681564 88.4753258,212.031928 87.2034087,211.598837 C86.9914225,206.834839 86.1434778,202.287386 84.2356021,198.389569 C84.8715607,196.873752 85.9314916,197.306842 86.7794363,197.523388 C88.0513535,197.739933 89.3232706,197.956479 90.3832015,198.389569 C92.5030634,199.255751 94.6229253,199.472296 96.9547733,198.606115 C98.0147042,198.173024 99.4986076,198.606115 100.770525,198.606115 C101.830456,199.255751 102.890387,199.255751 104.162304,199.255751 Z" fill="#FFFFFF"></path>
                    <path d="M149.594638,159.175563 C147.97922,159.591385 147.056125,158.759742 146.594577,157.720189 C146.133029,156.680635 145.902255,155.641082 145.671481,154.601528 C144.748386,150.027493 144.517612,145.245547 145.902255,140.671512 C146.594577,138.800316 147.517672,138.176583 149.13309,138.592405 C151.440829,139.008226 152.363924,140.25569 152.133151,142.334797 C151.902377,144.413904 151.440829,146.2851 151.210055,148.364207 C150.748507,151.690778 150.517733,154.809439 150.056185,158.13601 C150.056185,158.551831 149.594638,158.967653 149.594638,159.175563 Z" fill="#FFFFFF"></path>
                    <path d="M102.790475,214.49162 C103.003341,215.911524 103.216206,216.621475 103.216206,217.331427 C103.429072,218.751331 102.790475,219.697933 101.51328,220.171234 C97.4688297,221.827788 93.4243795,222.064439 89.1670634,221.354487 C86.1869422,220.644535 85.7612106,219.934583 86.1869422,215.438222 C91.7214531,215.438222 97.0430981,216.621475 102.790475,214.49162 Z" fill="#FFFFFF"></path>
                    <path d="M153.450551,157.47486 C152.776885,153.492737 153.113718,150.395531 153.618968,147.519553 C153.955801,150.395531 154.292634,153.492737 153.450551,157.47486 Z" fill="#FFFFFF"></path>
                    <path d="M162.347392,230.736042 C161.499348,233.515224 161.92337,235.86684 161.92337,238.004672 C161.92337,239.073588 162.135381,240.356288 161.92337,241.425204 C161.92337,242.921686 160.439293,243.563036 159.167228,242.921686 C157.895162,242.280337 156.835107,241.425204 155.35103,240.356288 C154.714998,241.425204 154.290976,242.280337 153.654943,243.13547 C153.01891,244.204386 151.534833,244.204386 150.686789,243.13547 C149.838745,242.066553 148.990702,240.783854 147.930647,239.287371 C147.294614,240.356288 146.870592,240.997637 146.44657,241.638987 C145.386515,242.921686 143.690428,242.921686 142.842384,241.638987 C141.99434,240.356288 141.146296,238.859805 140.510263,237.363322 C139.026187,233.729007 137.54211,230.308475 135.846022,226.460377 C131.393792,223.467412 127.153573,226.246594 122.701343,227.31551 C121.217266,229.667126 120.369222,232.018741 119.733189,234.370357 C118.037102,240.142504 116.977047,246.128435 113.584871,251.045449 C113.16085,251.686799 112.736828,252.541932 112.524817,253.183282 C110.192696,260.665695 106.800521,267.506759 103.408345,274.561605 C102.772313,275.630522 102.560302,276.913221 102.13628,278.19592 C101.712258,279.051053 101.288236,279.906186 100.864214,280.761319 C100.228181,281.830235 98.7441043,282.044019 97.8960604,281.188886 C96.8360056,280.333753 95.9879618,279.47862 95.139918,278.409704 C93.6558413,276.699438 92.3837755,274.775389 90.8996988,273.278906 C89.2036111,271.782423 88.3555673,269.644591 87.0835015,267.720542 C86.6594796,267.079192 86.2354577,266.224059 85.8114358,265.582709 C81.3592056,258.955429 76.9069755,252.541932 72.6667563,245.914652 C70.7586577,242.921686 69.2745809,239.501155 67.3664823,236.080623 C66.3064275,234.156574 65.2463727,232.446308 64.3983289,230.949825 C59.7340878,230.949825 55.2818576,231.163608 51.0416384,230.949825 C48.4975069,230.736042 46.8014193,232.018741 44.8933206,233.087657 C44.4692987,233.301441 44.0452768,233.94279 43.8332658,234.58414 C43.4092439,235.86684 42.5612001,236.935756 41.0771234,236.935756 C39.1690247,236.935756 38.9570138,235.22549 38.3209809,233.94279 C37.896959,232.873874 37.4729371,231.591175 37.0489151,230.522259 C35.7768494,230.522259 35.7768494,231.377392 35.7768494,231.804958 C35.7768494,233.515224 35.7768494,235.439273 35.7768494,237.149539 C35.7768494,238.218455 35.3528275,239.073588 34.2927727,239.287371 C33.2327179,239.501155 32.384674,239.073588 31.9606521,238.004672 C31.3246192,236.935756 30.9005973,235.653056 30.0525535,234.58414 C29.2045096,233.301441 28.5684768,231.377392 26.6603781,231.377392 C24.5402685,231.591175 24.9642905,233.94279 24.7522795,235.22549 C24.3282576,236.935756 24.5402685,238.859805 24.3282576,240.570071 C23.4802137,251.259233 25.6003233,261.520828 27.508422,271.782423 C28.9924987,279.906186 30.6885864,288.029949 32.384674,295.939929 C33.0207069,299.146678 34.2927727,302.139643 35.3528275,305.132608 C36.2008713,307.698007 36.8369042,310.477189 35.5648384,313.042588 C32.8086959,313.042588 32.384674,312.828805 31.9606521,310.904756 C31.1126083,307.698007 30.4765754,304.705042 29.4165206,301.498293 C25.1763014,287.174816 23.0561918,272.423773 20.5120603,257.67273 C20.3000494,256.39003 20.3000494,255.107331 20.3000494,253.824631 C20.3000494,249.548967 20.3000494,245.487085 20.3000494,241.21142 C20.5120603,237.790889 20.5120603,234.58414 18.8159726,231.377392 C17.7559178,229.453342 17.7559178,227.101727 17.5439069,224.750111 C17.119885,222.184712 16.907874,219.619314 16.2718411,217.053915 C14.1517315,208.930152 12.2436329,200.806389 10.1235233,192.682626 C7.36738083,182.42103 4.61123836,172.159435 3.76319453,161.25649 C3.12716165,153.560293 1.64308493,145.864097 0.583030138,138.1679 C0.583030138,137.526551 0.371019179,136.885201 0.371019179,136.243851 C-0.0530027398,124.699556 -0.265013699,113.155262 0.583030138,101.82475 C1.43107398,91.5631547 2.91515069,81.5153426 4.82324932,71.4675304 C6.519337,62.4886345 8.21542467,53.7235218 12.2436329,45.3859755 C13.7277096,42.179227 14.7877644,38.7586952 16.2718411,35.5519466 C17.5439069,32.7727646 18.8159726,29.9935825 20.7240713,27.4281836 C25.1763014,21.442253 29.8405425,15.6701056 35.9888603,11.3944409 C36.8369042,10.7530912 37.684948,9.89795823 38.5329918,9.04282528 C40.8651124,7.11877615 43.197233,5.62229349 45.9533754,4.76716054 C52.7377261,3.05689465 59.5220768,0.705279045 66.7304494,0.491495808 C70.7586577,0.277712571 74.7868659,-0.36363714 78.8150741,0.277712571 C84.1153481,1.13284552 89.627633,1.56041199 94.0798632,5.40851026 C94.7158961,6.04985997 95.7759509,6.2636432 96.6239947,6.69120968 C97.2600276,6.90499291 97.8960604,7.11877615 98.5320933,7.11877615 C101.500247,7.33255939 103.408345,10.3255247 106.58851,9.68417499 C109.556663,9.04282528 112.312806,10.3255247 114.856937,11.6082241 C119.521178,13.5322733 124.609441,15.4563224 128.849661,18.2355045 C134.997978,22.297386 139.87423,27.6419669 143.478417,34.055464 C145.598526,38.1173455 147.930647,41.9654438 149.838745,46.0273253 C151.958855,50.7305565 153.654943,55.6475709 155.139019,60.5645854 C156.623096,65.0540333 157.895162,69.5434813 158.955217,74.0329293 C159.803261,77.6672443 160.439293,81.3015593 161.075326,84.9358744 C162.135381,90.921805 162.983425,97.1215189 163.831469,103.107449 C164.255491,105.886632 164.467502,108.879597 164.467502,111.872562 C164.467502,121.492808 164.255491,130.89927 164.255491,140.519516 C164.255491,141.374649 164.679513,142.443565 164.679513,143.298698 C165.315545,148.215712 165.315545,152.918944 163.407447,157.622175 C162.771414,159.332441 162.559403,161.042707 162.347392,162.752973 C160.863315,173.869701 161.711359,184.986429 161.499348,196.316941 C161.287337,202.302871 160.863315,208.288802 160.651304,214.274733 C160.651304,217.909048 160.863315,221.329579 160.863315,225.177678 C162.771414,225.391461 164.679513,225.605244 166.163589,226.032811 C170.82783,227.31551 172.735929,229.880909 172.94794,234.797923 C173.159951,240.783854 172.735929,246.769785 171.463863,252.755715 C168.919732,264.727577 166.587611,276.485655 164.04348,288.457516 C162.983425,294.01588 162.135381,299.574244 161.075326,305.132608 C160.439293,308.339357 159.379239,311.332322 158.319184,314.325287 C158.107173,314.966637 157.259129,315.607987 156.623096,315.82177 C155.563041,316.035553 154.714998,315.18042 154.714998,314.111504 C154.502987,312.615022 154.502987,311.118539 154.714998,309.83584 C155.987063,303.208559 157.259129,296.581279 158.743206,289.740215 C159.59125,285.464551 160.863315,281.188886 161.92337,277.127004 C164.255491,266.437842 166.587611,255.962464 168.707721,245.273302 C169.343754,241.425204 169.131743,237.577105 169.131743,233.729007 C169.131743,232.232525 168.283699,230.949825 166.587611,230.522259 C165.103535,231.591175 163.831469,231.377392 162.347392,230.736042 Z M102.13628,22.297386 C102.13628,23.1525189 102.13628,24.0076519 101.924269,24.6490016 C100.228181,31.0624987 98.5320933,37.4759958 95.7759509,43.4619264 C94.5038851,46.2411085 94.7158961,48.3789409 96.6239947,50.7305565 C98.9561152,53.5097385 101.076225,56.2889206 103.408345,58.8543195 C105.740466,61.4197183 108.072586,63.7713339 110.404707,66.1229495 C111.252751,66.9780825 111.888784,68.2607819 112.948839,68.9021316 C117.401069,72.3226634 120.581233,76.5983281 124.185419,80.8739929 C128.849661,86.6461403 133.08988,92.6320709 136.482055,99.2593512 C136.694066,99.6869177 137.118088,99.9007009 137.54211,100.542051 C138.602165,98.4042183 139.450208,96.4801691 140.298252,94.55612 C141.782329,94.55612 143.054395,94.3423368 144.326461,94.55612 C145.810537,94.7699033 147.506625,94.7699033 148.990702,95.6250362 C153.01891,97.7628686 155.139019,101.610967 155.35103,105.886632 C155.775052,112.941478 155.987063,120.210108 153.442932,127.051172 C153.230921,127.692522 153.230921,128.333871 153.01891,129.189004 C155.563041,130.685487 157.047118,132.823319 158.319184,135.174935 C158.531195,135.602501 159.167228,136.243851 160.015272,135.602501 C160.015272,134.961152 160.227282,134.319802 160.227282,133.464669 C160.227282,126.409822 160.227282,119.568759 160.227282,112.513912 C160.227282,111.444996 160.227282,110.589863 160.015272,109.520947 C158.955217,101.82475 157.895162,94.1285535 156.835107,86.432357 C156.411085,83.0118252 155.987063,79.5912934 155.139019,76.3845449 C154.078965,71.6813137 152.806899,66.9780825 151.322822,62.2748513 C149.838745,57.57162 148.142658,52.8683888 146.234559,48.1651576 C144.962493,44.9584091 142.842384,41.9654438 141.358307,38.7586952 C139.662219,35.1243802 137.330099,31.7038484 134.785967,28.7108831 C132.029825,25.7179178 129.273682,22.9387357 125.669496,21.0146865 C123.125365,19.5182039 120.581233,18.2355045 118.037102,16.952805 C116.553025,16.3114553 115.068948,15.6701056 113.584871,15.2425391 C112.100795,14.8149727 110.828729,13.7460565 108.92063,13.9598397 C109.980685,17.1665883 107.648565,19.3044206 107.224543,21.8698195 C107.224543,22.0836027 106.58851,22.0836027 106.376499,22.0836027 C105.528455,21.442253 104.892422,20.8009033 104.044378,20.1595536 C102.984323,21.2284698 102.560302,21.8698195 102.13628,22.297386 C102.348291,21.0146865 102.560302,19.7319871 102.984323,18.2355045 C102.13628,17.1665883 101.712258,15.8838889 100.652203,15.0287559 C99.1681262,13.5322733 97.4720385,11.8220074 95.3519289,12.2495738 C92.1717645,12.8909235 89.627633,11.8220074 87.5075234,9.68417499 C86.8714906,9.04282528 85.8114358,8.61525881 85.1754029,7.9739091 C83.0552933,6.2636432 80.2991508,5.40851026 77.5430084,5.19472702 C71.6067015,4.98094378 65.6703946,4.98094378 59.7340878,6.2636432 C55.9178905,7.11877615 52.3137042,8.18769233 48.4975069,9.04282528 C45.9533754,9.47039176 43.6212549,10.7530912 41.5011453,12.0357906 C39.3810357,13.31849 37.4729371,14.6011894 35.3528275,15.8838889 C32.384674,17.5941548 30.0525535,19.9457704 27.9324439,22.7249524 C26.4483672,24.8627848 24.9642905,26.7868339 23.2682028,28.9246663 C21.1480932,31.9176316 19.4520055,34.9105969 18.3919507,38.3311287 C16.695863,42.8205767 14.9997754,47.3100247 13.3036877,52.0132559 C12.6676548,53.5097385 12.2436329,55.0062212 11.819611,56.7164871 C10.3355343,64.1989004 8.63944659,71.4675304 7.36738083,79.163727 C5.24727124,93.4872038 3.55118357,107.810681 3.97520549,122.134158 C3.97520549,123.203074 3.97520549,124.058207 3.97520549,125.127123 C3.97520549,130.257921 3.97520549,135.388718 4.61123836,140.733299 C5.4592822,146.07788 6.09531508,151.208678 6.73134796,156.553259 C7.36738083,161.684056 7.79140275,166.814854 8.85145755,171.945652 C10.7595562,180.924548 12.8796658,189.903444 14.9997754,198.88234 C17.119885,208.288802 20.3000494,217.481481 21.5721151,227.101727 C23.0561918,227.31551 23.0561918,226.032811 23.4802137,225.391461 C24.3282576,224.536328 25.1763014,224.108762 26.6603781,224.750111 C27.9324439,227.101727 29.4165206,229.453342 31.1126083,231.804958 C32.8086959,230.308475 34.2927727,228.811993 34.7167946,226.67416 C34.9288055,225.391461 35.5648384,224.536328 37.2609261,224.536328 C38.1089699,226.246594 39.1690247,227.95686 40.0170686,229.880909 C41.7131562,227.743077 43.4092439,226.032811 44.8933206,224.322545 C44.8933206,221.543363 47.4374521,219.619314 47.2254412,216.626348 C47.0134302,214.488516 46.8014193,212.1369 46.5894083,209.999068 C46.3773973,208.716368 45.9533754,207.219886 47.0134302,205.50962 C49.1335398,206.792319 48.4975069,209.143935 49.5575617,210.640418 C50.6176165,212.350684 51.6776713,213.847166 52.5257152,215.557432 C53.58577,217.267698 54.4338138,218.764181 55.4938686,220.68823 C56.3419124,219.191747 56.9779453,218.122831 57.6139782,217.053915 C58.462022,215.771215 59.3100659,214.702299 60.1581097,213.633383 C61.6421864,212.1369 63.1262631,212.564467 63.974307,214.488516 C64.8223508,215.984999 65.2463727,217.695264 65.8824056,219.619314 C68.6385481,216.840131 69.9106138,213.633383 70.3346357,210.212851 C70.7586577,206.578536 71.6067015,203.158004 72.6667563,199.951256 C73.3027892,198.454773 73.7268111,196.95829 73.0907782,195.034241 C70.5466467,194.606675 68.0025152,193.751542 65.0343618,193.751542 C63.974307,197.813423 65.4583837,202.302871 63.974307,206.578536 C63.3382741,205.937186 62.7022412,205.50962 62.7022412,205.082053 C62.4902302,203.158004 62.4902302,201.233955 62.4902302,199.309906 C62.4902302,197.172074 62.4902302,195.248025 62.4902302,193.110192 C59.9460987,191.827493 57.6139782,190.758577 55.0698467,189.68966 C55.0698467,190.97236 55.0698467,192.041276 55.0698467,192.896409 C55.2818576,194.606675 55.7058795,196.316941 55.7058795,198.24099 C55.9178905,201.875305 56.1299015,205.723403 56.1299015,209.357718 C56.1299015,210.426634 55.4938686,211.281767 54.0097919,210.426634 C53.7977809,206.792319 53.58577,203.158004 53.373759,199.523689 C53.161748,195.675591 52.9497371,191.827493 52.7377261,187.765611 C50.6176165,186.696695 48.4975069,185.627779 46.3773973,184.772646 C44.2572877,183.917513 42.773211,181.779681 40.0170686,181.565897 C40.0170686,182.42103 39.8050576,183.06238 39.8050576,183.70373 C40.6531014,190.97236 42.3491891,198.027207 42.5612001,205.295837 C42.5612001,205.937186 42.773211,206.578536 42.985222,207.219886 C43.4092439,209.357718 43.8332658,211.709334 44.0452768,213.847166 C44.2572877,215.771215 44.4692987,217.909048 43.197233,220.260663 C42.5612001,219.619314 41.7131562,219.40553 41.7131562,218.977964 C41.2891343,217.909048 41.2891343,216.840131 41.0771234,215.557432 C40.8651124,213.4196 40.4410905,211.067984 40.2290795,208.930152 C39.3810357,202.089088 38.3209809,195.248025 37.4729371,188.193178 C37.2609261,187.124262 37.684948,185.841562 37.4729371,184.772646 C37.2609261,182.207247 37.0489151,179.641848 36.6248932,177.076449 C36.6248932,176.4351 35.9888603,175.79375 35.5648384,175.579967 C33.6567398,174.083484 32.596685,172.159435 31.5366302,170.235386 C30.6885864,168.952686 29.6285316,167.669987 28.7804877,166.173504 C27.0844,167.456204 27.296411,169.16647 27.0844,170.662952 C26.8723891,172.159435 26.6603781,173.869701 26.4483672,175.366184 C26.0243453,177.076449 25.6003233,178.786715 25.1763014,180.496981 C24.7522795,181.993464 24.5402685,183.70373 23.9042357,185.200212 C23.4802137,186.696695 23.6922247,188.193178 22.4201589,189.475877 C21.7841261,186.482912 20.5120603,183.70373 21.3601041,180.710764 C22.208148,176.648883 22.8441809,172.373218 23.4802137,168.311337 C23.6922247,166.601071 24.3282576,165.318371 24.9642905,163.821889 C26.6603781,161.042707 28.1444548,158.049741 28.9924987,155.056776 C30.9005973,149.070845 32.384674,142.871132 33.8687507,136.885201 C34.5047836,134.533585 35.3528275,132.18197 36.6248932,130.257921 C39.1690247,126.196039 41.9251672,122.134158 44.4692987,118.072276 C45.3173425,116.575793 46.5894083,115.293094 46.8014193,113.369045 C46.1653864,112.727695 44.6813097,112.727695 45.1053316,111.231212 C46.1653864,110.803646 47.2254412,109.948513 48.285496,109.520947 C49.3455508,109.09338 50.1935946,108.238247 50.6176165,107.169331 C52.9497371,102.679883 55.7058795,98.190435 57.6139782,93.2734206 C60.7941426,85.3634408 64.8223508,78.0948108 69.2745809,71.039964 C69.6986029,70.3986143 70.1226248,69.9710478 70.7586577,70.184831 L70.5466467,70.184831 C69.6986029,71.8950969 69.06257,73.819146 68.2145261,75.5294119 C65.0343618,82.1566923 61.4301755,88.7839726 59.0980549,95.8388194 C58.8860439,96.4801691 58.8860439,97.1215189 58.8860439,98.8317848 C60.3701207,96.9077356 61.4301755,96.0526027 62.2782193,94.7699033 C67.7905042,86.6461403 73.5148001,78.7361605 78.8150741,70.3986143 C81.9952385,65.4815998 84.9633919,60.1370189 87.5075234,54.792438 C91.9597536,45.5997588 96.1999728,36.4070796 99.5921481,27.0006172 C100.440192,25.076568 101.288236,23.7938686 102.13628,22.297386 Z M47.2254412,123.63064 C46.1653864,124.058207 45.7413645,124.058207 45.7413645,124.27199 C40.0170686,134.533585 35.1408165,145.222747 31.3246192,156.553259 C30.6885864,158.691091 30.9005973,160.828923 31.7486412,162.539189 C35.3528275,168.952686 39.5930466,174.724834 45.7413645,178.786715 C49.5575617,181.352114 53.7977809,183.276163 57.8259891,185.841562 C63.974307,189.903444 71.1826796,190.33101 77.9670303,192.041276 C81.5712166,192.896409 85.5994248,193.323975 89.4156221,193.537759 C95.139918,193.751542 100.652203,193.751542 105.316444,189.475877 C105.952477,188.834527 106.800521,188.620744 107.224543,188.193178 C109.768674,185.841562 112.524817,183.489947 115.068948,181.138331 C116.341014,179.855632 117.401069,178.145366 118.885145,176.862666 C120.793244,175.1524 122.489332,173.228351 123.973408,171.090519 C125.669496,168.952686 127.153573,166.601071 129.485693,165.104588 C131.181781,164.035672 132.241836,161.89784 132.241836,159.760007 C132.241836,155.270559 132.453847,150.781111 132.665858,146.07788 C132.665858,144.581397 132.877869,142.871132 133.08988,141.374649 C133.725913,137.526551 136.482055,134.747369 137.754121,131.54062 C138.390154,130.257921 139.238198,128.975221 140.086241,127.906305 C140.934285,126.837389 141.99434,126.196039 143.266406,126.196039 C144.11445,126.196039 145.174504,126.409822 146.022548,126.409822 C146.234559,127.051172 146.44657,127.478738 146.658581,127.906305 C146.870592,128.333871 147.294614,128.547655 147.506625,128.975221 C150.050756,125.554689 152.170866,120.210108 151.958855,116.36201 C151.746844,113.155262 151.534833,109.948513 151.534833,106.741765 C151.534833,104.390149 150.262767,102.4661 149.202713,100.542051 C148.142658,98.8317848 146.658581,97.9766518 144.750482,97.9766518 C143.266406,97.9766518 143.054395,99.2593512 142.418362,100.114484 C142.206351,100.328267 141.99434,100.542051 141.570318,100.755834 C139.026187,101.397184 139.450208,103.748799 139.238198,105.459065 C139.238198,106.100415 139.450208,106.741765 139.662219,107.383114 C140.086241,110.589863 140.298252,113.796611 140.510263,117.00336 C140.722274,118.927409 140.510263,118.927409 138.390154,121.492808 C137.330099,118.927409 136.906077,116.575793 137.118088,114.010395 C137.118088,112.941478 137.330099,111.658779 136.906077,110.589863 C135.846022,106.955548 134.997978,103.107449 132.665858,99.9007009 C130.757759,97.5490853 129.061671,94.9836865 127.365584,92.4182876 C125.245474,89.4253223 123.125365,86.432357 120.793244,83.4393917 C117.401069,79.163727 114.644926,74.2467125 110.192696,71.039964 C109.768674,70.6123975 109.344652,70.184831 108.92063,69.5434813 C106.58851,66.9780825 104.680411,64.4126836 102.13628,62.061068 C98.9561152,59.0681027 96.4119837,55.4337877 94.5038851,51.5856894 C94.2918741,51.1581229 93.8678522,50.7305565 93.4438303,49.6616403 C92.8077974,50.7305565 92.5957865,51.1581229 92.3837755,51.5856894 C88.1435563,60.5645854 84.1153481,69.3296981 79.8751289,78.308594 C79.451107,79.3775102 78.8150741,80.4464264 78.1790412,81.3015593 C77.5430084,81.942909 76.6949645,83.0118252 76.0589316,83.0118252 C74.150833,83.2256085 73.3027892,84.5083079 72.4547453,85.7910073 C68.0025152,92.6320709 63.1262631,99.4731345 58.0380001,105.886632 C56.1299015,108.238247 54.6458248,110.803646 52.7377261,113.155262 C50.8296275,115.934444 48.7095179,118.499843 47.2254412,121.706591 C48.9215289,122.134158 50.1935946,122.347941 51.6776713,122.775507 C54.6458248,123.63064 55.4938686,124.91334 55.9178905,127.906305 C56.1299015,129.830354 55.4938686,131.326837 54.6458248,133.037103 C53.58577,134.961152 51.2536494,135.388718 49.1335398,134.747369 C47.4374521,134.319802 47.2254412,132.823319 47.2254412,131.113054 C47.2254412,128.975221 47.2254412,126.409822 47.2254412,123.63064 Z M83.4793152,221.757146 C83.0552933,222.184712 82.8432823,222.398496 82.6312714,222.612279 C82.4192604,222.826062 82.2072495,223.253629 82.2072495,223.467412 C80.0871399,227.101727 76.9069755,229.025776 72.8787673,229.453342 C71.6067015,229.667126 70.3346357,230.094692 68.850559,230.522259 C69.4865919,231.804958 70.1226248,232.873874 70.5466467,233.729007 C75.2108878,234.58414 79.451107,235.22549 83.6913262,235.011707 C84.53937,235.011707 85.1754029,235.22549 86.0234467,235.653056 C87.2955125,236.294406 87.9315454,237.577105 87.7195344,239.287371 C87.5075234,240.356288 86.2354577,240.783854 85.3874138,240.142504 C84.53937,239.287371 83.6913262,238.218455 82.8432823,237.149539 C79.451107,237.149539 76.0589316,237.149539 72.4547453,237.149539 C72.8787673,238.218455 73.3027892,239.073588 73.7268111,239.928721 C75.6349097,243.349253 77.9670303,246.769785 79.6631179,250.4041 C81.9952385,254.893548 84.3273591,259.169212 87.5075234,263.231094 C88.5675782,264.513793 89.4156221,266.224059 90.2636659,267.720542 C90.8996988,268.575675 91.3237207,269.858374 92.1717645,270.499724 C93.8678522,271.782423 95.139918,273.278906 96.1999728,275.202955 C96.6239947,275.844305 97.4720385,276.699438 98.7441043,276.271871 C98.9561152,275.844305 99.1681262,275.416738 99.3801372,274.989172 C102.560302,267.720542 106.164488,260.665695 108.496608,253.183282 C108.92063,251.686799 109.556663,250.190316 110.616718,248.907617 C112.948839,245.487085 113.584871,241.425204 114.856937,237.577105 C114.856937,237.363322 114.856937,236.935756 114.644926,236.508189 C111.888784,235.439273 109.556663,236.508189 107.436554,238.004672 C105.740466,237.363322 104.256389,236.935756 102.560302,236.508189 C102.772313,236.080623 102.772313,235.653056 102.984323,235.439273 C107.012532,234.156574 111.04074,233.515224 115.280959,234.156574 C115.916992,231.804958 117.189058,229.880909 116.977047,227.529293 C114.432915,226.67416 111.676773,227.95686 109.344652,226.246594 C107.224543,224.750111 105.104433,222.826062 102.984323,221.115796 C96.8360056,225.177678 90.4756769,224.536328 83.4793152,221.757146 Z M157.683151,236.508189 C158.743206,234.58414 158.955217,232.873874 158.531195,231.163608 C158.319184,230.308475 157.895162,229.239559 157.895162,228.384426 C158.107173,223.467412 157.895162,218.336614 157.259129,213.4196 C156.835107,209.357718 157.047118,205.082053 157.047118,200.806389 C157.047118,190.544793 157.047118,180.069415 157.047118,169.380253 C155.35103,169.380253 153.866954,169.380253 152.170866,169.380253 C151.110811,169.380253 150.262767,170.021603 150.262767,171.090519 C150.050756,172.800785 150.050756,174.724834 150.050756,176.4351 C150.050756,184.772646 150.050756,193.323975 150.050756,201.661522 C150.050756,209.357718 150.262767,217.267698 151.534833,224.963894 C151.534833,225.605244 151.534833,226.246594 151.534833,227.31551 C150.686789,226.67416 150.050756,226.460377 149.626735,226.032811 C148.354669,224.536328 147.930647,222.612279 147.718636,220.68823 C147.294614,216.412565 146.870592,212.350684 146.870592,208.075019 C146.870592,196.744507 147.082603,185.413996 147.082603,174.083484 C147.082603,173.228351 147.082603,172.159435 147.082603,171.518085 C143.902439,170.449169 140.934285,169.380253 137.966132,168.52512 C137.754121,169.380253 137.330099,170.235386 137.330099,170.876736 C135.846022,180.924548 135.422,190.97236 136.270044,200.806389 C137.118088,210.212851 138.390154,219.833097 139.662219,229.239559 C140.086241,232.660091 141.782329,235.653056 143.690428,238.859805 C144.750482,237.149539 144.962493,234.58414 147.930647,235.22549 C148.56668,235.86684 149.202713,236.721973 149.838745,237.790889 C150.262767,238.432238 150.686789,239.073588 151.746844,238.646022 C151.958855,237.790889 151.958855,236.721973 152.170866,235.86684 C152.806899,233.94279 154.714998,233.515224 156.199074,235.011707 C157.047118,235.439273 157.47114,235.86684 157.683151,236.508189 Z M123.973408,178.572932 C123.337376,178.572932 122.913354,178.572932 122.913354,178.572932 C121.217266,180.496981 119.521178,182.42103 118.037102,184.558863 C117.401069,185.627779 116.977047,186.910478 116.977047,188.193178 C116.977047,190.544793 116.341014,193.110192 118.461123,195.034241 C118.885145,197.385857 119.097156,199.737473 119.521178,202.302871 C119.733189,203.371788 119.521178,204.654487 120.793244,205.295837 C121.217266,205.082053 121.429277,204.654487 121.853299,204.440704 C123.549387,203.371788 125.033463,203.799354 125.669496,205.50962 C126.093518,206.364753 126.093518,207.433669 126.305529,208.288802 C126.941562,211.067984 127.577595,213.847166 128.849661,216.626348 C129.909715,217.053915 130.96977,217.267698 132.029825,217.695264 C132.453847,217.909048 132.877869,218.550397 133.08988,218.977964 C133.301891,219.619314 133.513902,220.260663 134.573956,219.619314 C134.573956,219.191747 134.573956,218.550397 134.573956,217.909048 C133.725913,211.281767 132.665858,204.86827 132.029825,198.24099 C131.393792,191.61371 130.96977,184.986429 132.665858,178.572932 C133.513902,174.938617 133.937924,171.304302 134.361945,167.669987 C134.361945,167.028637 134.149934,166.601071 133.937924,165.745938 C133.301891,166.173504 132.665858,166.173504 132.453847,166.387288 C130.96977,168.311337 129.485693,170.235386 128.001617,172.159435 C126.941562,173.442134 126.729551,174.938617 126.729551,176.648883 C126.941562,179.214282 127.153573,181.779681 127.153573,184.345079 C127.365584,189.475877 126.941562,194.606675 128.001617,199.737473 C128.001617,199.951256 127.789606,200.378822 127.577595,201.020172 C126.941562,200.592605 126.093518,200.378822 125.669496,199.951256 C125.033463,198.88234 124.609441,197.59964 124.609441,196.316941 C124.185419,192.682626 124.185419,188.834527 123.973408,185.200212 C123.973408,183.06238 123.973408,180.924548 123.973408,178.572932 Z M147.294614,134.747369 C151.746844,135.602501 154.078965,138.1679 155.35103,142.015999 C156.835107,146.505447 156.199074,150.994895 156.623096,155.484343 C156.623096,156.125692 156.411085,156.767042 155.987063,157.194608 C154.502987,158.904874 153.01891,160.61514 150.8988,161.684056 C149.626735,162.325406 148.354669,162.325406 147.082603,161.89784 C143.266406,160.828923 140.086241,156.553259 140.086241,152.491377 C140.086241,149.498412 139.87423,146.291663 140.510263,143.298698 C141.146296,139.664383 141.146296,135.816285 143.478417,132.609536 C144.11445,131.754403 144.326461,130.471704 144.538471,129.402788 C144.538471,128.975221 144.326461,128.333871 143.902439,128.120088 C143.478417,127.906305 142.842384,127.906305 142.630373,128.120088 C141.146296,129.616571 139.87423,131.113054 139.026187,133.037103 C135.634011,141.374649 135.634011,149.925978 136.482055,158.691091 C136.482055,159.546224 136.906077,160.187574 137.330099,160.828923 C140.510263,165.104588 144.326461,167.88377 150.050756,166.814854 C150.474778,166.814854 150.8988,166.601071 151.534833,166.601071 C152.806899,166.601071 153.866954,165.745938 154.927008,164.890805 C157.259129,162.539189 158.955217,159.332441 160.227282,156.339475 C160.863315,154.62921 161.499348,152.918944 161.92337,150.781111 C162.771414,143.940048 157.259129,135.174935 149.838745,132.18197 C149.414724,132.395753 148.990702,132.609536 148.56668,132.823319 C147.930647,133.464669 147.718636,133.892236 147.294614,134.747369 Z M128.849661,220.902013 C125.033463,219.40553 125.033463,219.40553 124.39743,215.557432 C124.185419,214.274733 124.39743,212.992033 122.701343,212.1369 C122.489332,213.4196 122.489332,214.488516 122.06531,215.557432 C121.853299,216.626348 121.005255,217.267698 119.9452,217.053915 C118.885145,217.053915 118.037102,216.412565 117.825091,215.343649 C117.61308,214.488516 117.61308,213.4196 117.401069,212.564467 C116.765036,210.212851 116.765036,207.433669 114.644926,205.50962 C114.008893,204.86827 113.796882,203.799354 113.584871,202.944221 C112.948839,199.096123 112.312806,195.248025 112.524817,191.399926 C112.524817,190.758577 112.312806,190.33101 112.312806,189.475877 C110.404707,189.68966 109.768674,190.97236 108.708619,192.041276 C107.648565,193.110192 106.58851,193.965325 105.952477,194.606675 C105.952477,201.447738 105.952477,207.647452 105.952477,214.060949 C105.952477,215.129866 106.164488,216.198782 106.58851,217.481481 C107.648565,221.543363 109.556663,223.253629 113.584871,223.467412 C115.916992,223.467412 118.461123,223.681195 120.793244,223.467412 C123.761397,222.826062 126.51754,222.612279 128.849661,220.902013 Z M102.13628,198.454773 C100.864214,198.454773 99.8041591,198.24099 98.7441043,198.24099 C97.4720385,198.24099 96.1999728,197.813423 94.927907,198.24099 C92.5957865,198.88234 90.4756769,198.88234 88.3555673,198.027207 C87.0835015,197.59964 85.8114358,197.172074 84.751381,197.172074 C83.9033371,196.95829 82.8432823,196.744507 82.2072495,198.027207 C84.1153481,201.875305 84.9633919,206.364753 85.1754029,211.067984 C86.4474686,211.495551 87.7195344,212.1369 88.7795892,212.1369 C93.2318193,211.923117 97.6840495,212.77825 102.13628,210.426634 C102.13628,206.364753 102.13628,202.516655 102.13628,198.454773 Z M68.6385481,225.605244 C71.3946905,224.963894 73.5148001,224.750111 75.6349097,224.108762 C77.9670303,223.467412 79.239096,221.757146 80.0871399,219.40553 C81.5712166,214.060949 81.5712166,208.502585 80.5111618,203.158004 C80.0871399,201.233955 79.239096,199.096123 78.1790412,197.385857 C77.7550193,196.530724 76.6949645,195.675591 75.4228988,196.530724 C75.2108878,199.523689 75.2108878,202.730438 74.9988768,205.723403 C74.5748549,209.785285 73.938822,213.633383 73.3027892,217.695264 C73.0907782,219.191747 72.4547453,220.260663 70.9706686,220.260663 C69.06257,220.260663 68.6385481,221.543363 68.4265371,223.039845 C68.4265371,223.681195 68.6385481,224.108762 68.6385481,225.605244 Z M147.930647,159.332441 C148.142658,158.904874 148.354669,158.477308 148.354669,158.049741 C148.778691,154.62921 148.990702,151.422461 149.414724,148.001929 C149.626735,145.864097 150.050756,143.940048 150.262767,141.802215 C150.474778,139.664383 149.626735,138.381684 147.506625,137.954117 C145.810537,137.526551 145.174504,138.1679 144.538471,140.091949 C143.054395,144.795181 143.266406,149.498412 144.326461,154.415426 C144.538471,155.484343 144.750482,156.553259 145.174504,157.622175 C145.598526,158.904874 146.44657,159.760007 147.930647,159.332441 Z M101.924269,214.060949 C96.1999728,215.984999 90.8996988,214.916082 85.5994248,214.916082 C85.1754029,218.977964 85.5994248,219.619314 88.5675782,220.260663 C92.8077974,221.115796 96.8360056,220.68823 100.864214,219.191747 C101.924269,218.764181 102.772313,217.909048 102.560302,216.626348 C102.13628,215.984999 102.13628,215.343649 101.924269,214.060949 Z M61.6421864,217.053915 C61.4301755,217.053915 61.0061535,217.053915 60.7941426,217.053915 C60.3701207,218.122831 59.9460987,218.977964 59.5220768,220.04688 C59.0980549,221.115796 58.462022,222.398496 58.0380001,223.467412 C57.6139782,224.322545 56.9779453,225.177678 56.1299015,226.460377 C59.0980549,226.887944 61.4301755,227.31551 63.550285,226.032811 C62.7022412,222.826062 62.0662083,219.833097 61.6421864,217.053915 Z M50.1935946,216.198782 C49.5575617,220.260663 49.1335398,223.039845 49.7695727,226.246594 C51.2536494,226.246594 52.5257152,226.246594 54.0097919,226.246594 C51.8896823,224.322545 51.8896823,221.757146 51.6776713,219.191747 C51.4656604,218.550397 51.0416384,217.909048 50.1935946,216.198782 Z M151.746844,156.339475 C152.806899,152.491377 152.382877,149.498412 151.958855,146.71923 C151.322822,149.498412 150.8988,152.491377 151.746844,156.339475 Z M26.0243453,229.025776 C26.0243453,228.811993 25.8123343,228.384426 25.8123343,228.170643 C25.6003233,228.384426 25.1763014,228.384426 24.9642905,228.59821 C25.1763014,228.811993 25.1763014,229.239559 25.3883124,229.453342 C25.3883124,229.453342 25.8123343,229.239559 26.0243453,229.025776 Z" fill="#3C3C3C"></path>
                    <path d="M150.759577,286.488912 C150.759577,288.197798 151.010679,290.120294 150.759577,291.82918 C150.257374,297.383058 149.504069,302.723326 149.755171,308.277204 C149.755171,310.1997 149.755171,312.335807 147.746358,313.617471 C147.244155,314.044693 146.239749,314.044693 145.737546,314.044693 C145.486444,314.044693 144.984241,313.403861 144.984241,312.976639 C144.984241,307.636372 144.73314,302.296104 145.235343,296.955837 C145.737546,291.82918 145.988648,286.702523 146.239749,281.575866 C146.239749,278.371706 146.993054,275.381156 148.248562,272.604217 C148.499663,272.176995 149.252968,271.536163 149.755171,271.536163 C151.010679,271.322552 151.26178,272.390606 151.26178,273.031438 C151.26178,273.885881 151.26178,274.740324 151.26178,275.381156 C151.010679,279.012538 150.508475,282.85753 150.257374,286.488912 C150.508475,286.488912 150.508475,286.488912 150.759577,286.488912 Z" fill="#3C3C3C"></path>
                    <path d="M41.8961517,280.558659 C42.7342024,282.036997 43.3627404,282.881761 43.572253,283.726525 C44.4103037,291.751785 47.3434811,299.354664 49.0195825,306.957542 C49.6481205,309.280643 50.0671458,311.603745 50.6956838,313.926847 C50.9051965,314.982802 49.8576331,316.038757 48.6005571,315.827566 C47.1339684,315.405184 46.0864051,314.56042 45.6673797,312.870892 C43.7817657,305.056822 42.1056643,297.242753 40.2200503,289.639875 C39.801025,287.527964 39.5915123,285.204863 40.429563,283.092952 C40.8485883,282.248188 41.2676137,281.825806 41.8961517,280.558659 Z" fill="#3C3C3C"></path>
                    <path d="M64.3089005,48.8715084 C63.667636,52.9473573 61.9575972,56.5941695 60.4613133,60.2409818 C55.5449519,72.0394919 50.2010808,83.838002 45.7122291,95.6365121 C42.0783967,105.07532 39.0858289,114.943165 36.0932611,124.81101 C34.5969772,129.101377 33.528203,133.606263 32.4594288,137.89663 C31.1768997,142.401516 30.1081255,146.906401 29.0393513,151.625806 C28.6118416,153.341952 27.970577,155.058099 27.3293125,156.774246 C27.1155577,157.203283 26.2605383,157.63232 25.8330286,157.417801 C25.4055189,157.203283 24.7642544,156.559728 24.5504995,156.130691 C24.3367447,155.487136 24.5504995,154.843581 24.5504995,154.200026 C25.4055189,150.124177 26.0467834,145.83381 27.1155577,141.757961 C28.8255964,134.893373 30.9631449,128.028785 32.8869385,121.164198 C34.3832224,116.015757 36.5207708,111.081834 38.0170547,105.933394 C40.368358,98.6397692 43.3609258,91.5606631 46.5672485,84.6960754 C51.4836099,73.5411204 56.827481,62.6006838 62.5988618,51.8747655 C63.2401263,51.016692 63.8813908,49.9441002 64.3089005,48.8715084 Z" fill="#3C3C3C"></path>
                    <path d="M31.685112,179.618383 C32.1712969,189.766842 32.4143894,199.9153 33.1436668,210.063759 C33.3867593,212.389447 34.1160367,214.715136 34.6022216,217.040824 C35.0884066,218.520808 35.817684,220.000791 34.8453141,221.692201 C33.1436668,221.903627 31.9282045,221.269349 31.4420195,219.789365 C30.2265572,216.195119 28.7680024,212.600874 29.0110949,208.583775 C29.4972798,200.126727 29.7403723,191.669678 30.2265572,183.212629 C30.2265572,181.944072 30.7127421,180.464088 30.9558346,179.195531 C31.1989271,179.618383 31.4420195,179.618383 31.685112,179.618383 Z" fill="#3C3C3C"></path>
                    <path d="M71.040642,70.5921788 C70.8449283,69.8517014 70.8449283,69.111224 70.6492147,67.877095 C71.627783,69.111224 71.040642,69.8517014 71.040642,70.5921788 C70.8449283,70.5921788 71.040642,70.5921788 71.040642,70.5921788 Z" fill="#3C3C3C"></path>
                    <polygon fill="#3C3C3C" points="74.2722513 66.4589284 74.467965 66.0670391 74.6636787 66.4589284"></polygon>
                    <polygon fill="#3C3C3C" points="75.1780105 62.642872 75.1780105 62.4469274 75.3737241 62.4469274"></polygon>
                    <polygon fill="#3C3C3C" points="77.895288 59.7318436 78.0910016 59.7318436 77.895288 60.1237328"></polygon>
                    <path d="M71.6545442,116.748603 C72.8971834,118.26296 72.6900768,119.777317 72.8971834,121.075337 C73.3113964,125.402072 73.518503,129.512469 74.1398226,133.839203 C74.7611421,137.733264 74.3469291,141.627325 74.3469291,145.521385 C74.3469291,146.603069 73.932716,147.684752 73.518503,148.766436 C73.1042899,150.064456 72.4829703,151.14614 71.6545442,152.44416 C72.4829703,153.09317 73.1042899,153.74218 73.932716,153.958517 C76.6251009,154.823864 79.3174858,155.68921 82.4240838,156.554557 C81.5956576,157.203567 81.1814446,157.852577 80.7672315,157.852577 C77.039314,159.150598 73.7256095,157.852577 70.411905,156.121884 C68.3408397,155.0402 67.5124136,153.09317 68.1337332,150.713466 C68.1337332,150.497129 68.1337332,150.497129 68.3408397,150.280793 C72.2758638,144.439702 70.6190115,137.733264 70.6190115,131.243163 C70.6190115,126.916429 70.6190115,122.373358 70.8261181,118.046624 C70.6190115,117.830287 71.2403311,117.397613 71.6545442,116.748603 Z" fill="#3C3C3C"></path>
                    <path d="M106.684066,109.50838 C106.879581,109.719752 106.879581,109.931125 106.879581,110.142497 C104.924432,113.735826 104.337887,117.329156 105.315462,121.34523 C105.902007,123.670325 104.924432,125.361304 103.164798,126.629538 C101.405164,127.897772 99.6455295,127.897772 97.6903804,126.84091 C96.7128059,126.206793 96.1262612,125.361304 96.1262612,124.09307 C95.7352313,120.49974 96.3217761,117.117783 98.0814102,114.158571 C98.4724401,113.524454 99.0589848,112.678965 99.6455295,112.678965 C101.991708,112.25622 103.751343,110.776614 105.510977,109.50838 C105.902007,109.50838 106.293036,109.50838 106.684066,109.50838 Z" fill="#3C3C3C"></path>
                    <path d="M70.6492147,166.072626 C74.6462422,164.488827 78.22253,164.488827 81.7988178,164.488827 C85.3751056,164.715084 88.7410235,163.583799 91.8965715,161.773743 C94.6313798,160.189944 96.9454484,158.379888 99.4698868,156.569832 C100.521736,155.664804 101.783955,154.986034 103.256545,153.854749 C103.256545,154.986034 103.256545,155.438547 103.046175,155.891061 C97.9972978,164.26257 90.6343523,168.335196 81.378078,168.335196 C78.4328998,168.335196 75.2773518,167.882682 72.3321736,167.430168 C72.1218037,167.203911 71.701064,166.751397 70.6492147,166.072626 Z" fill="#3C3C3C"></path>
                    <path d="M115.937173,96.0065884 C113.515243,96.6715725 111.093314,97.7798793 108.671384,98.0015406 C102.506473,98.888186 96.7819122,100.883138 91.277527,103.764736 C91.0573516,103.986397 90.6170008,104.208059 90.3968254,103.986397 C89.9564746,103.986397 89.2959484,103.764736 89.075773,103.543074 C88.8555975,103.321413 88.6354221,102.656429 88.8555975,102.213106 C89.5161238,100.439816 90.8371762,99.5531701 92.3784041,98.888186 C99.4240171,96.0065884 106.46963,93.5683136 114.17577,94.2332976 C114.836296,94.454959 115.716997,94.454959 115.937173,96.0065884 Z" fill="#3C3C3C"></path>
                    <path d="M96.0104712,169.240223 C94.9783416,170.824022 94.5654897,172.143855 93.739786,172.671788 C92.0883787,173.99162 90.0241194,174.78352 88.1662861,175.575419 C87.9598602,175.575419 87.5470084,175.575419 87.3405824,175.311453 C86.9277306,174.78352 86.3084528,174.255587 86.1020269,173.727654 C85.895601,173.463687 86.3084528,172.671788 86.7213047,172.407821 C89.1984157,170.296089 92.0883787,169.240223 96.0104712,169.240223 Z" fill="#3C3C3C"></path>
                    <path d="M136.486926,82.3575419 C136.271729,81.7206511 135.841333,81.2960572 135.626136,80.6591663 C132.613368,76.6255244 129.6006,72.8041794 126.587832,68.5582405 C121.423088,61.1278474 116.258343,53.6974543 111.308796,46.2670612 C109.156819,43.082607 107.22004,39.8981528 105.068063,36.7136987 C105.928854,35.6522139 106.359249,36.5014017 106.789644,36.9259956 C107.435237,37.5628864 108.080831,38.4120742 108.511226,39.261262 C115.61275,49.4515154 122.929472,59.6417688 130.030996,69.6197252 C131.967775,72.3795855 134.119752,75.1394458 136.056531,77.899306 C136.917322,79.3853847 136.917322,79.3853847 136.486926,82.3575419 Z" fill="#3C3C3C"></path>
                </g>
            </g>
            <g id="Group-2" transform="translate(424.000000, 127.000000)" fill="#FFFFFF">
                <text id="Lorem-ipsum-dolor" font-family="Roboto-Black, Roboto" font-size="16" font-weight="700">
                    <tspan x="0" y="15">Lorem ipsum dolo</tspan>
                    <tspan x="129.953125" y="15" letter-spacing="3.20000005">r</tspan>
                </text>
                <text id="Ut-wisi-enim-ad-mini" font-family="Roboto-Regular, Roboto" font-size="13" font-weight="normal">
                    <tspan x="0" y="45">Ut wisi enim ad minim veniam, quis </tspan>
                    <tspan x="0" y="60">nostrud exerci tation ullamcorper</tspan>
                </text>
            </g>
        </g>
    </g>
</svg>