<?xml version="1.0" encoding="UTF-8"?>
<svg width="595px" height="842px" viewBox="0 0 595 842" version="1.1" xmlns="http://www.w3.org/2000/svg" xmlns:xlink="http://www.w3.org/1999/xlink" style="background: #FFFFFF;">
    <!-- Generator: Sketch 46.2 (44496) - http://www.bohemiancoding.com/sketch -->
    <title>Opção 1</title>
    <desc>Created with Sketch.</desc>
    <defs></defs>
    <g id="Page-1" stroke="none" stroke-width="1" fill="none" fill-rule="evenodd">
        <g id="Opção-1">
            <polygon id="Path-2" fill="#F2F2F2" points="612.273438 -4.52734375 -17.2109375 197.328125 -17.2109375 -7.52734375"></polygon>
            <polygon id="Path-2" fill="#F2F2F2" transform="translate(564.742188, 739.427734) scale(-1, -1) translate(-564.742188, -739.427734) " points="879.484375 640 250 841.855469 250 637"></polygon>
            <polygon id="Path-2" fill="#924F97" transform="translate(314.742187, 752.427734) scale(1, -1) translate(-314.742187, -752.427734) " points="629.484375 653 0 854.855469 0 650"></polygon>
            <g id="Group" transform="translate(30.000000, 30.000000)" fill="#944F96">
                <path d="M37.2877835,0 C39.6895236,5.46473846 41.9065145,7.92080069 38.6426112,15.5345936 C35.1939587,23.5781974 31.7453063,24.9290316 34.0238802,27.0780861 C36.3024542,29.2271405 40.7980191,30.1481638 40.7980191,30.1481638 C40.7980191,30.1481638 40.6748529,31.5603996 39.7511067,32.9112339 C38.7657774,34.2620681 38.9505266,36.2269179 40.8596021,37.3935474 C42.276013,38.2531692 42.5223453,38.3759723 42.5839284,38.3759723 C42.5839284,38.3759723 41.8449314,39.0513894 41.4138499,40.5250268 C40.9211852,42.1214672 41.9680976,43.6565061 43.6924238,44.1477185 C45.4167501,44.638931 46.155747,44.8231357 46.5252455,45.3757497 C46.9563271,45.9897652 46.6484117,46.1125683 46.5252455,48.6914337 C46.4020794,51.270299 45.9094147,53.7263612 49.2964841,55.6298095 C52.6835536,57.5332577 58.5955293,55.8754157 63.4605926,52.8667395 C67.6482421,50.2878741 77.9941996,46.9721901 86,51.270299 C80.3959397,58.454281 72.0206408,63.4892086 62.2905141,64.7172397 C42.7070945,67.1733019 24.7864182,53.3579519 22.323095,33.8322572 C20.4756026,20.1397103 26.6954937,7.30678513 37.2877835,0 Z" id="Shape" fill-rule="nonzero"></path>
                <path d="M2.49732661,86.2205882 L2.49732661,89.8529412 L0,89.8529412 L0,79.1470588 L4.13375146,79.1470588 C4.92587991,79.1470588 5.62668963,79.2977926 6.23620164,79.5992647 C6.84571365,79.9007368 7.31766334,80.3296541 7.65206487,80.8860294 C7.9864664,81.4424047 8.15366466,82.0735259 8.15366466,82.7794118 C8.15366466,83.8235346 7.79199467,84.6580851 7.06864384,85.2830882 C6.34529301,85.9080914 5.35277569,86.2205882 4.09106211,86.2205882 L2.49732661,86.2205882 Z M2.49732661,84.2279412 L4.13375146,84.2279412 C4.61756644,84.2279412 4.98635125,84.1029424 5.24011695,83.8529412 C5.49388265,83.6029399 5.6207636,83.2500023 5.6207636,82.7941176 C5.6207636,82.2941151 5.49032524,81.8946093 5.22944461,81.5955882 C4.96856399,81.2965671 4.61282301,81.1446079 4.16221102,81.1397059 L2.49732661,81.1397059 L2.49732661,84.2279412 Z M25.3384764,79.1470588 L25.3384764,86.1544118 C25.3384764,86.9485334 25.1748356,87.6360265 24.847549,88.2169118 C24.5202624,88.797797 24.0506843,89.2401946 23.4388006,89.5441176 C22.826917,89.8480407 22.103577,90 21.268759,90 C20.0070454,90 19.0133423,89.6617681 18.2876198,88.9852941 C17.5618973,88.3088201 17.1919267,87.3823588 17.1776969,86.2058824 L17.1776969,79.1470588 L19.6892533,79.1470588 L19.6892533,86.2573529 C19.717713,87.4289274 20.2442096,88.0147059 21.268759,88.0147059 C21.785777,88.0147059 22.177092,87.8676485 22.4427159,87.5735294 C22.7083398,87.2794103 22.8411498,86.8014739 22.8411498,86.1397059 L22.8411498,79.1470588 L25.3384764,79.1470588 Z M38.4749154,86.0735294 L37.1230862,86.0735294 L37.1230862,89.8529412 L34.6257596,89.8529412 L34.6257596,79.1470588 L38.7025919,79.1470588 C39.9311025,79.1470588 40.8916031,79.4289187 41.5841226,79.9926471 C42.2766421,80.5563754 42.6228967,81.352936 42.6228967,82.3823529 C42.6228967,83.1274547 42.4770429,83.7450956 42.1853309,84.2352941 C41.8936189,84.7254926 41.4370847,85.1225475 40.8157144,85.4264706 L42.9786412,89.7426471 L42.9786412,89.8529412 L40.3034423,89.8529412 L38.4749154,86.0735294 Z M37.1230862,84.0808824 L38.7025919,84.0808824 C39.1769203,84.0808824 39.5338471,83.9522072 39.773383,83.6948529 C40.0129188,83.4374987 40.1326849,83.0784337 40.1326849,82.6176471 C40.1326849,82.1568604 40.011733,81.7953444 39.7698255,81.5330882 C39.527918,81.270832 39.172177,81.1397059 38.7025919,81.1397059 L37.1230862,81.1397059 L37.1230862,84.0808824 Z M58.2851218,85.3161765 L54.3577022,85.3161765 L54.3577022,87.8676471 L58.9966109,87.8676471 L58.9966109,89.8529412 L51.8603756,89.8529412 L51.8603756,79.1470588 L59.0108407,79.1470588 L59.0108407,81.1397059 L54.3577022,81.1397059 L54.3577022,83.3970588 L58.2851218,83.3970588 L58.2851218,85.3161765 Z M70.240489,87.8676471 L74.5876871,87.8676471 L74.5876871,89.8529412 L67.7431624,89.8529412 L67.7431624,79.1470588 L70.240489,79.1470588 L70.240489,87.8676471 Z M89.3890105,87.8529412 L85.9667481,87.8529412 L85.3690973,89.8529412 L82.7010133,89.8529412 L86.5003649,79.1470588 L88.8482788,79.1470588 L92.67609,89.8529412 L89.9937762,89.8529412 L89.3890105,87.8529412 Z M86.564399,85.8602941 L88.7913597,85.8602941 L87.6743219,82.1470588 L86.564399,85.8602941 Z M106.502673,87.0073529 C106.502673,86.6299001 106.373421,86.3357854 106.114912,86.125 C105.856403,85.9142146 105.40224,85.6960796 104.75241,85.4705882 C104.10258,85.2450969 103.571341,85.0269618 103.158675,84.8161765 C101.816325,84.1348005 101.145161,83.1985354 101.145161,82.0073529 C101.145161,81.4142127 101.312359,80.8909336 101.646761,80.4375 C101.981162,79.9840664 102.454298,79.6311287 103.066181,79.3786765 C103.678065,79.1262242 104.365831,79 105.129499,79 C105.874195,79 106.541802,79.1372535 107.132341,79.4117647 C107.72288,79.6862759 108.181786,80.0772033 108.509073,80.5845588 C108.836359,81.0919143 109,81.6715654 109,82.3235294 L106.509788,82.3235294 C106.509788,81.8872527 106.380536,81.5490208 106.122027,81.3088235 C105.863518,81.0686262 105.513706,80.9485294 105.07258,80.9485294 C104.626712,80.9485294 104.274528,81.0502441 104.016019,81.2536765 C103.75751,81.4571089 103.628258,81.7156847 103.628258,82.0294118 C103.628258,82.3039229 103.770554,82.552695 104.055151,82.7757353 C104.339748,82.9987756 104.840157,83.2291655 105.556393,83.4669118 C106.272629,83.7046581 106.860787,83.9607829 107.320886,84.2352941 C108.440301,84.9019641 109,85.8210726 109,86.9926471 C109,87.9289262 108.658489,88.664213 107.975456,89.1985294 C107.292423,89.7328458 106.355638,90 105.165074,90 C104.325513,90 103.565413,89.8443643 102.884752,89.5330882 C102.20409,89.2218122 101.691823,88.7953458 101.347935,88.2536765 C101.004047,87.7120071 100.832106,87.0882388 100.832106,86.3823529 L103.336547,86.3823529 C103.336547,86.9558852 103.480029,87.3786751 103.766998,87.6507353 C104.053967,87.9227955 104.519987,88.0588235 105.165074,88.0588235 C105.57774,88.0588235 105.903836,87.9669127 106.143371,87.7830882 C106.382907,87.5992638 106.502673,87.3406879 106.502673,87.0073529 Z" id="PURELAS"></path>
            </g>
            <g id="Group-4" transform="translate(30.000000, 733.000000)">
                <g id="phone-handset" fill-rule="nonzero" fill="#DBDBDB" opacity="0.5">
                    <path d="M13.7142857,17.1428571 C12.1962857,17.1428571 10.5814286,16.7125714 8.91428571,15.864 C7.37742857,15.0814286 5.85942857,13.9611429 4.524,12.624 C3.18857143,11.2868571 2.07,9.76714286 1.28828571,8.22942857 C0.441428571,6.56142857 0.0111428571,4.94657143 0.0111428571,3.42857143 C0.0111428571,2.44457143 0.928285714,1.494 1.32171429,1.13142857 C1.88828571,0.609428571 2.77971429,-1.11022302e-15 3.42771429,-1.11022302e-15 C3.75,-1.11022302e-15 4.12714286,0.210857143 4.61657143,0.663428571 C4.98085714,1.00114286 5.39142857,1.45885714 5.802,1.98685714 C6.04971429,2.30571429 7.28485714,3.93342857 7.28485714,4.71428571 C7.28485714,5.35457143 6.56057143,5.80028571 5.79428571,6.27085714 C5.49771429,6.45257143 5.19171429,6.64114286 4.97057143,6.81857143 C4.734,7.008 4.692,7.10828571 4.68514286,7.13057143 C5.49857143,9.15857143 7.98514286,11.6451429 10.0122857,12.4577143 C10.0302857,12.4517143 10.1305714,12.4122857 10.3234286,12.1722857 C10.5008571,11.9511429 10.6894286,11.6442857 10.8711429,11.3485714 C11.3425714,10.5822857 11.7874286,9.858 12.4277143,9.858 C13.2085714,9.858 14.8362857,11.0931429 15.1551429,11.3408571 C15.6831429,11.7514286 16.1408571,12.162 16.4785714,12.5262857 C16.9311429,13.0148571 17.142,13.3928571 17.142,13.7151429 C17.142,14.3631429 16.5325714,15.2571429 16.0114286,15.8262857 C15.648,16.2222857 14.6974286,17.1437143 13.7134286,17.1437143 L13.7142857,17.1428571 Z M3.42342857,0.857142857 C3.19371429,0.861428571 2.57571429,1.14257143 1.90371429,1.76142857 C1.266,2.34942857 0.869142857,2.988 0.869142857,3.42857143 C0.869142857,9.19628571 7.95257143,16.2857143 13.7142857,16.2857143 C14.154,16.2857143 14.7925714,15.8871429 15.3805714,15.246 C16.0002857,14.5705714 16.2814286,13.95 16.2857143,13.7194286 C16.2582857,13.5565714 15.8074286,12.9231429 14.574,11.9734286 C13.5137143,11.1574286 12.654,10.7194286 12.4328571,10.7142857 C12.4174286,10.7185714 12.3214286,10.7554286 12.1268571,11.0022857 C11.958,11.2174286 11.7771429,11.5114286 11.6014286,11.796 C11.1214286,12.5768571 10.668,13.3148571 10.0088571,13.3148571 C9.90257143,13.3148571 9.798,13.2942857 9.69771429,13.254 C7.44771429,12.354 4.78714286,9.69342857 3.88714286,7.44342857 C3.77914286,7.17342857 3.762,6.75 4.29342857,6.26828571 C4.57628571,6.012 4.96714286,5.772 5.346,5.53885714 C5.63057143,5.364 5.92542857,5.18314286 6.13971429,5.01342857 C6.38657143,4.81885714 6.42342857,4.72285714 6.42771429,4.70742857 C6.42171429,4.48628571 5.98457143,3.62657143 5.16857143,2.56628571 C4.21885714,1.33285714 3.58542857,0.882857143 3.42257143,0.854571429 L3.42342857,0.857142857 Z" id="Shape"></path>
                </g>
                <text id="999999-9999" font-family="Roboto-Light, Roboto" font-size="12" font-weight="300" letter-spacing="0.209999993" fill="#D8D8D8">
                    <tspan x="30" y="14">999999-9999</tspan>
                </text>
            </g>
            <g id="Group-3" transform="translate(30.000000, 765.000000)">
                <text id="email@email.com.br" font-family="Roboto-Light, Roboto" font-size="12" font-weight="300" letter-spacing="0.209999993" fill="#D8D8D8">
                    <tspan x="30" y="11">email@email.com.br</tspan>
                </text>
                <g id="envelope" opacity="0.5" transform="translate(0.000000, 1.000000)" fill-rule="nonzero" fill="#DBDBDB">
                    <path d="M15.6578947,0 L1.34210526,0 C0.602157895,0 0,0.602157895 0,1.34210526 L0,9.39473684 C0,10.1346842 0.602157895,10.7368421 1.34210526,10.7368421 L15.6578947,10.7368421 C16.3978421,10.7368421 17,10.1346842 17,9.39473684 L17,1.34210526 C17,0.602157895 16.3978421,0 15.6578947,0 Z M15.6578947,0.894736842 C15.6847368,0.894736842 15.7097895,0.897421053 15.7357368,0.901894737 L8.99657895,5.39436842 C8.73710526,5.56705263 8.26378947,5.56705263 8.00431579,5.39436842 L1.26515789,0.901894737 C1.29021053,0.897421053 1.31615789,0.894736842 1.343,0.894736842 L15.6587895,0.894736842 L15.6578947,0.894736842 Z M15.6578947,9.84210526 L1.34210526,9.84210526 C1.09515789,9.84210526 0.894736842,9.64168421 0.894736842,9.39473684 L0.894736842,1.73042105 L7.50773684,6.13878947 C7.786,6.324 8.143,6.41705263 8.5,6.41705263 C8.857,6.41705263 9.214,6.324 9.49226316,6.13878947 L16.1052632,1.73042105 L16.1052632,9.39473684 C16.1052632,9.64168421 15.9048421,9.84210526 15.6578947,9.84210526 Z" id="Shape"></path>
                </g>
            </g>
            <g id="Group-2" transform="translate(30.000000, 793.000000)">
                <text id="www.site.com.br" font-family="Roboto-Light, Roboto" font-size="12" font-weight="300" letter-spacing="0.209999993" fill="#D8D8D8">
                    <tspan x="30" y="13">www.site.com.br</tspan>
                </text>
                <g id="earth" opacity="0.5" fill-rule="nonzero" fill="#DBDBDB">
                    <path d="M14.51035,2.3432 C12.9047,0.832 10.77035,0 8.5,0 C6.22965,0 4.0953,0.832 2.48965,2.3432 C0.884,3.8544 0,5.8632 0,8 C0,10.1368 0.884,12.1456 2.48965,13.6568 C4.0953,15.168 6.22965,16 8.5,16 C10.77035,16 12.9047,15.168 14.51035,13.6568 C16.116,12.1456 17,10.1368 17,8 C17,5.8632 16.116,3.8544 14.51035,2.3432 Z M15.63745,5.4088 C15.4717,5.128 15.0552,4.9944 14.5112,4.82 C13.92725,4.6328 13.7207,4.068 13.48185,3.4136 C13.27445,2.8456 13.06025,2.2592 12.5511,1.8944 C13.94425,2.716 15.0365,3.948 15.63745,5.4088 Z M13.25235,8.1528 C13.31695,8.6944 13.38325,9.2552 12.6684,10.0104 C12.47545,10.2144 12.3624,10.4984 12.24255,10.7992 C11.96545,11.496 11.70365,12.1544 10.58845,12.164 C10.557,12.1288 10.4686,11.996 10.38955,11.5776 C10.3173,11.192 10.27565,10.6928 10.2306,10.1656 C10.1626,9.356 10.08525,8.4376 9.87275,7.676 C9.60075,6.7024 9.1443,6.1272 8.4779,5.9176 C8.1872,5.8264 7.8897,5.7816 7.5701,5.7816 C7.3338,5.7816 7.1196,5.8056 6.9309,5.8264 C6.78385,5.8424 6.64445,5.8584 6.52715,5.8584 C6.52715,5.8584 6.52715,5.8584 6.52715,5.8584 C6.32825,5.8584 6.103,5.8584 5.82505,5.26 C5.4264,4.4 5.7205,3.0216 6.89095,2.2944 C7.5327,1.896 7.97555,1.7256 8.37165,1.7256 C8.68785,1.7256 9.0287,1.8288 9.51235,2.072 C10.08355,2.3584 10.5315,2.3952 10.8579,2.3952 C10.9871,2.3952 11.1044,2.3888 11.21745,2.3824 C11.31265,2.3768 11.4019,2.372 11.4852,2.372 C11.6722,2.372 11.8235,2.3952 12.00115,2.5088 C12.3284,2.7192 12.4984,3.184 12.67775,3.6752 C12.94975,4.4208 13.2583,5.2656 14.2375,5.5792 C14.36925,5.6216 14.59535,5.6936 14.756,5.7568 C14.61745,5.8912 14.38625,6.0856 14.1593,6.276 C14.0131,6.3992 13.84735,6.5384 13.66375,6.696 C13.13335,7.1512 13.19625,7.684 13.25235,8.1536 L13.25235,8.1528 Z M0.85085,7.9384 C0.94265,7.9536 1.04125,7.972 1.14325,7.992 C1.62095,8.088 1.8445,8.1744 1.94225,8.2232 C1.8972,8.3056 1.80625,8.4272 1.7459,8.5072 C1.53595,8.788 1.27415,9.1376 1.3736,9.5224 C1.44075,9.7824 1.3838,10.1008 1.28605,10.3952 C1.00385,9.6448 0.85,8.8384 0.85,7.9984 C0.85,7.9776 0.85085,7.9576 0.85085,7.9368 L0.85085,7.9384 Z M8.5,15.2 C5.58875,15.2 3.0515,13.6608 1.7595,11.4024 C1.9822,11.0032 2.3953,10.12 2.20235,9.3472 C2.21595,9.2696 2.3562,9.0824 2.44035,8.9696 C2.6707,8.6616 2.95715,8.2792 2.74465,7.8736 C2.5959,7.5888 2.19725,7.3968 1.41355,7.2304 C1.23165,7.192 1.05485,7.1608 0.9044,7.136 C1.36,3.572 4.5917,0.8008 8.49915,0.8008 C9.84045,0.8008 11.10185,1.128 12.19835,1.7008 C11.9272,1.5896 11.68155,1.572 11.48435,1.572 C11.3764,1.572 11.2693,1.5776 11.1656,1.584 C11.06445,1.5896 10.9599,1.5952 10.8562,1.5952 C10.6148,1.5952 10.3139,1.568 9.911,1.3656 C9.2956,1.0576 8.8349,0.9256 8.3708,0.9256 C7.7962,0.9256 7.2131,1.1352 6.42175,1.6264 C5.7375,2.0512 5.2224,2.7008 4.9708,3.4568 C4.72515,4.1936 4.7515,4.948 5.04475,5.58 C5.3907,6.3256 5.84715,6.6584 6.52545,6.6584 C6.52545,6.6584 6.52545,6.6584 6.52545,6.6584 C6.6929,6.6584 6.8561,6.64 7.02865,6.6208 C7.2029,6.6016 7.38225,6.5816 7.5684,6.5816 C7.79875,6.5816 8.0019,6.612 8.20675,6.676 C8.5799,6.7936 8.8553,7.1872 9.0491,7.8792 C9.2429,8.5712 9.316,9.452 9.38145,10.228 C9.43585,10.876 9.48685,11.4872 9.5999,11.9488 C9.66875,12.2288 9.75715,12.4416 9.8719,12.5992 C10.04275,12.8344 10.28755,12.964 10.56125,12.964 C11.31265,12.964 11.91275,12.736 12.3454,12.2864 C12.70495,11.9128 12.88855,11.4512 13.03645,11.08 C13.12315,10.8616 13.21325,10.6352 13.3008,10.5424 C14.26725,9.5208 14.1678,8.6792 14.0947,8.064 C14.04115,7.6128 14.0403,7.4528 14.2341,7.2864 C14.4143,7.132 14.57835,6.9936 14.72285,6.872 C15.0314,6.6128 15.2541,6.4256 15.4105,6.2656 C15.5176,6.1552 15.7692,5.8968 15.6995,5.5736 C15.69865,5.5704 15.6978,5.568 15.6978,5.5648 C15.98935,6.3256 16.1483,7.1456 16.1483,8 C16.1483,11.9704 12.71685,15.2 8.4983,15.2 L8.5,15.2 Z" id="Shape"></path>
                </g>
            </g>
        </g>
    </g>
</svg>