<?xml version="1.0" encoding="UTF-8"?>
<svg width="595px" height="842px" viewBox="0 0 595 842" version="1.1" xmlns="http://www.w3.org/2000/svg" xmlns:xlink="http://www.w3.org/1999/xlink" style="background: #FFFFFF;">
    <!-- Generator: Sketch 46.2 (44496) - http://www.bohemiancoding.com/sketch -->
    <title>OPção 2</title>
    <desc>Created with Sketch.</desc>
    <defs></defs>
    <g id="Page-1" stroke="none" stroke-width="1" fill="none" fill-rule="evenodd">
        <g id="OPção-2">
            <g id="Group-3" transform="translate(212.000000, 805.000000)">
                <text id="email@email.com.br" font-family="Roboto-Light, Roboto" font-size="12" font-weight="300" letter-spacing="0.209999993" fill="#909090">
                    <tspan x="23" y="11">email@email.com.br</tspan>
                </text>
                <path d="M15.6578947,2 L1.34210526,2 C0.602157895,2 0,2.60215789 0,3.34210526 L0,11.3947368 C0,12.1346842 0.602157895,12.7368421 1.34210526,12.7368421 L15.6578947,12.7368421 C16.3978421,12.7368421 17,12.1346842 17,11.3947368 L17,3.34210526 C17,2.60215789 16.3978421,2 15.6578947,2 Z M15.6578947,2.89473684 C15.6847368,2.89473684 15.7097895,2.89742105 15.7357368,2.90189474 L8.99657895,7.39436842 C8.73710526,7.56705263 8.26378947,7.56705263 8.00431579,7.39436842 L1.26515789,2.90189474 C1.29021053,2.89742105 1.31615789,2.89473684 1.343,2.89473684 L15.6587895,2.89473684 L15.6578947,2.89473684 Z M15.6578947,11.8421053 L1.34210526,11.8421053 C1.09515789,11.8421053 0.894736842,11.6416842 0.894736842,11.3947368 L0.894736842,3.73042105 L7.50773684,8.13878947 C7.786,8.324 8.143,8.41705263 8.5,8.41705263 C8.857,8.41705263 9.214,8.324 9.49226316,8.13878947 L16.1052632,3.73042105 L16.1052632,11.3947368 C16.1052632,11.6416842 15.9048421,11.8421053 15.6578947,11.8421053 Z" id="Shape" fill="#DBDBDB" fill-rule="nonzero"></path>
            </g>
            <path d="M157.961758,150 C177.907694,195.517649 196.319327,215.975019 169.213312,279.392866 C140.572994,346.390754 111.932675,357.642307 130.855743,375.542506 C149.77881,393.442705 187.113511,401.114219 187.113511,401.114219 C187.113511,401.114219 186.090642,412.877207 178.419128,424.12876 C170.23618,435.380314 171.770483,451.74621 187.624945,461.463461 C199.387933,468.623541 201.43367,469.646409 201.945104,469.646409 C201.945104,469.646409 195.807893,475.272186 192.227853,487.546608 C188.136379,500.843899 196.830762,513.629755 211.150921,517.721229 C225.47108,521.812703 231.608291,523.347006 234.676896,527.949914 C238.256936,533.064257 235.699765,534.087125 234.676896,555.567364 C233.654028,577.047603 229.562554,597.504973 257.691438,613.359435 C285.820322,629.213897 334.91801,615.405172 375.321316,590.344893 C410.098846,568.864655 496.0198,541.247205 562.506254,577.047603 C515.965736,636.88541 446.410678,678.823019 365.604066,689.051704 C202.967973,709.509075 54.1406045,594.436367 33.6832343,431.800274 C18.3402067,317.750436 69.9950664,210.860676 157.961758,150 Z" id="Shape" fill-opacity="0.0299999993" fill="#000000" fill-rule="nonzero"></path>
            <g id="Group" transform="translate(263.000000, 26.000000)" fill="#944F96">
                <path d="M23.6041932,0 C25.1245608,3.45932985 26.5279771,5.01408484 24.4618365,9.8338253 C22.2787445,14.9256479 20.0956526,15.7807631 21.5380526,17.1411737 C22.9804527,18.5015844 25.8262689,19.0846175 25.8262689,19.0846175 C25.8262689,19.0846175 25.7483014,19.9786016 25.1635446,20.8337168 C24.539804,21.6888321 24.6567554,22.9326361 25.8652527,23.6711447 C26.7618798,24.2153089 26.9178149,24.2930467 26.9567987,24.2930467 C26.9567987,24.2930467 26.4889933,24.7206043 26.2161068,25.6534573 C25.9042365,26.6640481 26.5669609,27.6357699 27.6585068,27.9467209 C28.7500528,28.2576719 29.2178582,28.3742785 29.4517609,28.7240984 C29.7246474,29.1127872 29.5297285,29.1905249 29.4517609,30.8230176 C29.3737934,32.4555104 29.0619231,34.0102654 31.2060312,35.2152005 C33.3501394,36.4201356 37.0925827,35.370676 40.1723017,33.4661011 C42.8231991,31.8336084 49.372475,29.7346892 54.440367,32.4555104 C50.8928426,37.0031687 45.5910478,40.1904164 39.4316098,40.9677939 C27.0347663,42.5225489 15.6904849,33.7770521 14.1311335,21.41675 C12.96162,12.7489909 16.8989822,4.62539609 23.6041932,0 Z" id="Shape" fill-rule="nonzero"></path>
                <path d="M1.58087648,54.5800054 L1.58087648,56.8793848 L0,56.8793848 L0,50.1022666 L2.61677844,50.1022666 C3.11821756,50.1022666 3.5618494,50.1976852 3.94768728,50.3885254 C4.33352515,50.5793655 4.6322823,50.8508819 4.84396767,51.2030828 C5.05565305,51.5552837 5.16149414,51.9548008 5.16149414,52.401646 C5.16149414,53.0626045 4.93254709,53.5908979 4.4746461,53.9865421 C4.01674512,54.3821863 3.38845434,54.5800054 2.58975492,54.5800054 L1.58087648,54.5800054 Z M1.58087648,53.318605 L2.61677844,53.318605 C2.92304664,53.318605 3.15649758,53.2394773 3.31713825,53.0812196 C3.47777893,52.922962 3.55809806,52.6995427 3.55809806,52.4109552 C3.55809806,52.0944399 3.47552699,51.8415417 3.31038237,51.6522531 C3.14523775,51.4629645 2.92004392,51.3667701 2.63479413,51.363667 L1.58087648,51.363667 L1.58087648,53.318605 Z M16.039953,50.1022666 L16.039953,54.5381139 C16.039953,55.0408147 15.9363638,55.4760168 15.7291824,55.8437331 C15.5220009,56.2114495 15.2247451,56.4914993 14.8374059,56.683891 C14.4500667,56.8762827 13.9921726,56.9724771 13.4637098,56.9724771 C12.6650104,56.9724771 12.035969,56.758367 11.5765667,56.3301403 C11.1171644,55.9019137 10.8829628,55.3154382 10.8739549,54.5706962 L10.8739549,50.1022666 L12.4638392,50.1022666 L12.4638392,54.6032785 C12.481855,55.3449174 12.8151419,55.7157312 13.4637098,55.7157312 C13.7909964,55.7157312 14.0387096,55.6226399 14.2068569,55.4364544 C14.3750041,55.2502689 14.4590765,54.947722 14.4590765,54.5288046 L14.4590765,50.1022666 L16.039953,50.1022666 Z M24.3556804,54.4869131 L23.4999353,54.4869131 L23.4999353,56.8793848 L21.9190588,56.8793848 L21.9190588,50.1022666 L24.4998059,50.1022666 C25.2774869,50.1022666 25.8855102,50.2806917 26.3238941,50.6375472 C26.762278,50.9944028 26.9814667,51.4986476 26.9814667,52.1502968 C26.9814667,52.6219667 26.8891372,53.0129504 26.7044755,53.3232596 C26.5198138,53.6335687 26.2308151,53.8849154 25.8374706,54.0773071 L27.2066628,56.8095656 L27.2066628,56.8793848 L25.5131882,56.8793848 L24.3556804,54.4869131 Z M23.4999353,53.2255127 L24.4998059,53.2255127 C24.8000688,53.2255127 25.0260133,53.1440577 25.1776461,52.9811454 C25.3292789,52.8182331 25.4050941,52.5909351 25.4050941,52.2992445 C25.4050941,52.0075539 25.3285282,51.7787043 25.1753941,51.6126889 C25.02226,51.4466735 24.7970662,51.363667 24.4998059,51.363667 L23.4999353,51.363667 L23.4999353,53.2255127 Z M36.8960863,54.0074879 L34.4099216,54.0074879 L34.4099216,55.622639 L37.3464784,55.622639 L37.3464784,56.8793848 L32.8290451,56.8793848 L32.8290451,50.1022666 L37.3554863,50.1022666 L37.3554863,51.363667 L34.4099216,51.363667 L34.4099216,52.7926336 L36.8960863,52.7926336 L36.8960863,54.0074879 Z M44.4641627,55.622639 L47.2160588,55.622639 L47.2160588,56.8793848 L42.8832863,56.8793848 L42.8832863,50.1022666 L44.4641627,50.1022666 L44.4641627,55.622639 Z M56.5857039,55.6133297 L54.4193176,55.6133297 L54.0409882,56.8793848 L52.3520176,56.8793848 L54.7571118,50.1022666 L56.2434059,50.1022666 L58.6665157,56.8793848 L56.9685373,56.8793848 L56.5857039,55.6133297 Z M54.797647,54.3519293 L56.2073745,54.3519293 L55.5002588,52.0013492 L54.797647,54.3519293 Z M67.4191235,55.0780491 C67.4191235,54.8391111 67.3373031,54.6529284 67.1736598,54.5194954 C67.0100165,54.3860625 66.722519,54.247977 66.3111588,54.1052348 C65.8997986,53.9624925 65.5635091,53.824407 65.3022804,53.6909741 C64.4525363,53.2596444 64.0276706,52.6669628 64.0276706,51.9129115 C64.0276706,51.5374374 64.1335117,51.2061873 64.345197,50.9191514 C64.5568824,50.6321154 64.8563902,50.4086962 65.2437294,50.2488869 C65.6310686,50.0890777 66.0664433,50.0091743 66.5498667,50.0091743 C67.0212795,50.0091743 67.4438932,50.0960596 67.8177206,50.2698327 C68.1915479,50.4436058 68.482048,50.6910737 68.6892294,51.0122437 C68.8964108,51.3334136 69,51.7003487 69,52.1130599 L67.4236274,52.1130599 C67.4236274,51.8368847 67.341807,51.6227746 67.1781637,51.4707232 C67.0145204,51.3186717 66.7930798,51.2426471 66.5138353,51.2426471 C66.2315881,51.2426471 66.0086462,51.3070352 65.8450029,51.4358135 C65.6813596,51.5645918 65.5995392,51.7282775 65.5995392,51.9268753 C65.5995392,52.1006485 65.6896167,52.258128 65.8697745,52.3993187 C66.0499323,52.5405093 66.3667049,52.6863525 66.8201019,52.8368524 C67.273499,52.9873523 67.6458195,53.1494864 67.9370745,53.3232596 C68.645695,53.74528 69,54.327101 69,55.0687399 C69,55.6614304 68.7838139,56.1268871 68.3514353,56.4651241 C67.9190567,56.8033611 67.3260462,56.9724771 66.5723863,56.9724771 C66.0409209,56.9724771 65.5597567,56.8739554 65.1288794,56.6769091 C64.6980021,56.4798627 64.373723,56.2098978 64.1560323,55.8670062 C63.9383417,55.5241146 63.829498,55.1292521 63.829498,54.6824069 L65.4148784,54.6824069 C65.4148784,55.0454686 65.5057066,55.3131063 65.6873657,55.4853278 C65.8690247,55.6575494 66.1640287,55.7436589 66.5723863,55.7436589 C66.833615,55.7436589 67.0400427,55.6854768 67.1916755,55.5691109 C67.3433083,55.452745 67.4191235,55.2890593 67.4191235,55.0780491 Z" id="PURELAS"></path>
            </g>
            <g id="Group-2" transform="translate(30.000000, 803.000000)">
                <g id="phone-handset" fill-rule="nonzero" fill="#DBDBDB">
                    <path d="M13.7142857,17.1428571 C12.1962857,17.1428571 10.5814286,16.7125714 8.91428571,15.864 C7.37742857,15.0814286 5.85942857,13.9611429 4.524,12.624 C3.18857143,11.2868571 2.07,9.76714286 1.28828571,8.22942857 C0.441428571,6.56142857 0.0111428571,4.94657143 0.0111428571,3.42857143 C0.0111428571,2.44457143 0.928285714,1.494 1.32171429,1.13142857 C1.88828571,0.609428571 2.77971429,-1.11022302e-15 3.42771429,-1.11022302e-15 C3.75,-1.11022302e-15 4.12714286,0.210857143 4.61657143,0.663428571 C4.98085714,1.00114286 5.39142857,1.45885714 5.802,1.98685714 C6.04971429,2.30571429 7.28485714,3.93342857 7.28485714,4.71428571 C7.28485714,5.35457143 6.56057143,5.80028571 5.79428571,6.27085714 C5.49771429,6.45257143 5.19171429,6.64114286 4.97057143,6.81857143 C4.734,7.008 4.692,7.10828571 4.68514286,7.13057143 C5.49857143,9.15857143 7.98514286,11.6451429 10.0122857,12.4577143 C10.0302857,12.4517143 10.1305714,12.4122857 10.3234286,12.1722857 C10.5008571,11.9511429 10.6894286,11.6442857 10.8711429,11.3485714 C11.3425714,10.5822857 11.7874286,9.858 12.4277143,9.858 C13.2085714,9.858 14.8362857,11.0931429 15.1551429,11.3408571 C15.6831429,11.7514286 16.1408571,12.162 16.4785714,12.5262857 C16.9311429,13.0148571 17.142,13.3928571 17.142,13.7151429 C17.142,14.3631429 16.5325714,15.2571429 16.0114286,15.8262857 C15.648,16.2222857 14.6974286,17.1437143 13.7134286,17.1437143 L13.7142857,17.1428571 Z M3.42342857,0.857142857 C3.19371429,0.861428571 2.57571429,1.14257143 1.90371429,1.76142857 C1.266,2.34942857 0.869142857,2.988 0.869142857,3.42857143 C0.869142857,9.19628571 7.95257143,16.2857143 13.7142857,16.2857143 C14.154,16.2857143 14.7925714,15.8871429 15.3805714,15.246 C16.0002857,14.5705714 16.2814286,13.95 16.2857143,13.7194286 C16.2582857,13.5565714 15.8074286,12.9231429 14.574,11.9734286 C13.5137143,11.1574286 12.654,10.7194286 12.4328571,10.7142857 C12.4174286,10.7185714 12.3214286,10.7554286 12.1268571,11.0022857 C11.958,11.2174286 11.7771429,11.5114286 11.6014286,11.796 C11.1214286,12.5768571 10.668,13.3148571 10.0088571,13.3148571 C9.90257143,13.3148571 9.798,13.2942857 9.69771429,13.254 C7.44771429,12.354 4.78714286,9.69342857 3.88714286,7.44342857 C3.77914286,7.17342857 3.762,6.75 4.29342857,6.26828571 C4.57628571,6.012 4.96714286,5.772 5.346,5.53885714 C5.63057143,5.364 5.92542857,5.18314286 6.13971429,5.01342857 C6.38657143,4.81885714 6.42342857,4.72285714 6.42771429,4.70742857 C6.42171429,4.48628571 5.98457143,3.62657143 5.16857143,2.56628571 C4.21885714,1.33285714 3.58542857,0.882857143 3.42257143,0.854571429 L3.42342857,0.857142857 Z" id="Shape"></path>
                </g>
                <text id="999999-9999" font-family="Roboto-Light, Roboto" font-size="12" font-weight="300" letter-spacing="0.209999993" fill="#909090">
                    <tspan x="23" y="12">999999-9999</tspan>
                </text>
            </g>
            <g id="envelope" transform="translate(30.000000, 793.000000)"></g>
            <rect id="Rectangle" fill="#E1DEDE" x="30" y="109" width="537" height="1" rx="0.5"></rect>
            <rect id="Rectangle" fill="#E1DEDE" x="30" y="783" width="537" height="1" rx="0.5"></rect>
            <g id="Group-4" transform="translate(408.000000, 804.000000)">
                <text id="www.site.com.br" font-family="Roboto-Light, Roboto" font-size="12" font-weight="300" letter-spacing="0.209999993" fill="#909090">
                    <tspan x="23" y="11">www.site.com.br</tspan>
                </text>
                <g id="earth" fill-rule="nonzero" fill="#DBDBDB">
                    <path d="M14.51035,2.3432 C12.9047,0.832 10.77035,0 8.5,0 C6.22965,0 4.0953,0.832 2.48965,2.3432 C0.884,3.8544 0,5.8632 0,8 C0,10.1368 0.884,12.1456 2.48965,13.6568 C4.0953,15.168 6.22965,16 8.5,16 C10.77035,16 12.9047,15.168 14.51035,13.6568 C16.116,12.1456 17,10.1368 17,8 C17,5.8632 16.116,3.8544 14.51035,2.3432 Z M15.63745,5.4088 C15.4717,5.128 15.0552,4.9944 14.5112,4.82 C13.92725,4.6328 13.7207,4.068 13.48185,3.4136 C13.27445,2.8456 13.06025,2.2592 12.5511,1.8944 C13.94425,2.716 15.0365,3.948 15.63745,5.4088 Z M13.25235,8.1528 C13.31695,8.6944 13.38325,9.2552 12.6684,10.0104 C12.47545,10.2144 12.3624,10.4984 12.24255,10.7992 C11.96545,11.496 11.70365,12.1544 10.58845,12.164 C10.557,12.1288 10.4686,11.996 10.38955,11.5776 C10.3173,11.192 10.27565,10.6928 10.2306,10.1656 C10.1626,9.356 10.08525,8.4376 9.87275,7.676 C9.60075,6.7024 9.1443,6.1272 8.4779,5.9176 C8.1872,5.8264 7.8897,5.7816 7.5701,5.7816 C7.3338,5.7816 7.1196,5.8056 6.9309,5.8264 C6.78385,5.8424 6.64445,5.8584 6.52715,5.8584 C6.52715,5.8584 6.52715,5.8584 6.52715,5.8584 C6.32825,5.8584 6.103,5.8584 5.82505,5.26 C5.4264,4.4 5.7205,3.0216 6.89095,2.2944 C7.5327,1.896 7.97555,1.7256 8.37165,1.7256 C8.68785,1.7256 9.0287,1.8288 9.51235,2.072 C10.08355,2.3584 10.5315,2.3952 10.8579,2.3952 C10.9871,2.3952 11.1044,2.3888 11.21745,2.3824 C11.31265,2.3768 11.4019,2.372 11.4852,2.372 C11.6722,2.372 11.8235,2.3952 12.00115,2.5088 C12.3284,2.7192 12.4984,3.184 12.67775,3.6752 C12.94975,4.4208 13.2583,5.2656 14.2375,5.5792 C14.36925,5.6216 14.59535,5.6936 14.756,5.7568 C14.61745,5.8912 14.38625,6.0856 14.1593,6.276 C14.0131,6.3992 13.84735,6.5384 13.66375,6.696 C13.13335,7.1512 13.19625,7.684 13.25235,8.1536 L13.25235,8.1528 Z M0.85085,7.9384 C0.94265,7.9536 1.04125,7.972 1.14325,7.992 C1.62095,8.088 1.8445,8.1744 1.94225,8.2232 C1.8972,8.3056 1.80625,8.4272 1.7459,8.5072 C1.53595,8.788 1.27415,9.1376 1.3736,9.5224 C1.44075,9.7824 1.3838,10.1008 1.28605,10.3952 C1.00385,9.6448 0.85,8.8384 0.85,7.9984 C0.85,7.9776 0.85085,7.9576 0.85085,7.9368 L0.85085,7.9384 Z M8.5,15.2 C5.58875,15.2 3.0515,13.6608 1.7595,11.4024 C1.9822,11.0032 2.3953,10.12 2.20235,9.3472 C2.21595,9.2696 2.3562,9.0824 2.44035,8.9696 C2.6707,8.6616 2.95715,8.2792 2.74465,7.8736 C2.5959,7.5888 2.19725,7.3968 1.41355,7.2304 C1.23165,7.192 1.05485,7.1608 0.9044,7.136 C1.36,3.572 4.5917,0.8008 8.49915,0.8008 C9.84045,0.8008 11.10185,1.128 12.19835,1.7008 C11.9272,1.5896 11.68155,1.572 11.48435,1.572 C11.3764,1.572 11.2693,1.5776 11.1656,1.584 C11.06445,1.5896 10.9599,1.5952 10.8562,1.5952 C10.6148,1.5952 10.3139,1.568 9.911,1.3656 C9.2956,1.0576 8.8349,0.9256 8.3708,0.9256 C7.7962,0.9256 7.2131,1.1352 6.42175,1.6264 C5.7375,2.0512 5.2224,2.7008 4.9708,3.4568 C4.72515,4.1936 4.7515,4.948 5.04475,5.58 C5.3907,6.3256 5.84715,6.6584 6.52545,6.6584 C6.52545,6.6584 6.52545,6.6584 6.52545,6.6584 C6.6929,6.6584 6.8561,6.64 7.02865,6.6208 C7.2029,6.6016 7.38225,6.5816 7.5684,6.5816 C7.79875,6.5816 8.0019,6.612 8.20675,6.676 C8.5799,6.7936 8.8553,7.1872 9.0491,7.8792 C9.2429,8.5712 9.316,9.452 9.38145,10.228 C9.43585,10.876 9.48685,11.4872 9.5999,11.9488 C9.66875,12.2288 9.75715,12.4416 9.8719,12.5992 C10.04275,12.8344 10.28755,12.964 10.56125,12.964 C11.31265,12.964 11.91275,12.736 12.3454,12.2864 C12.70495,11.9128 12.88855,11.4512 13.03645,11.08 C13.12315,10.8616 13.21325,10.6352 13.3008,10.5424 C14.26725,9.5208 14.1678,8.6792 14.0947,8.064 C14.04115,7.6128 14.0403,7.4528 14.2341,7.2864 C14.4143,7.132 14.57835,6.9936 14.72285,6.872 C15.0314,6.6128 15.2541,6.4256 15.4105,6.2656 C15.5176,6.1552 15.7692,5.8968 15.6995,5.5736 C15.69865,5.5704 15.6978,5.568 15.6978,5.5648 C15.98935,6.3256 16.1483,7.1456 16.1483,8 C16.1483,11.9704 12.71685,15.2 8.4983,15.2 L8.5,15.2 Z" id="Shape"></path>
                </g>
            </g>
        </g>
    </g>
</svg>