<?xml version="1.0" encoding="UTF-8"?>
<svg width="360px" height="640px" viewBox="0 0 360 640" version="1.1" xmlns="http://www.w3.org/2000/svg" xmlns:xlink="http://www.w3.org/1999/xlink">
    <!-- Generator: Sketch 46.2 (44496) - http://www.bohemiancoding.com/sketch -->
    <title>Dê sua opinião</title>
    <desc>Created with Sketch.</desc>
    <defs>
        <rect id="path-1" x="0" y="25" width="320" height="216"></rect>
    </defs>
    <g id="App" stroke="none" stroke-width="1" fill="none" fill-rule="evenodd">
        <g id="Dê-sua-opinião">
            <rect id="BG" fill="#F5F5F5" x="0" y="56" width="360" height="1076"></rect>
            <text id="Seus-dados-e-sua-opi" font-family="Roboto-Regular, Roboto" font-size="12" font-weight="normal" letter-spacing="0.209999993" fill="#858585">
                <tspan x="53.7950392" y="440">Seus dados e sua opinião  não serão públicos </tspan>
                <tspan x="48.1553908" y="454">para sua segurança e agradecemos sua opinião</tspan>
            </text>
            <rect id="BG" fill="#924F97" x="20" y="345" width="320" height="59"></rect>
            <text id="ENVIAR" font-family="Roboto-Black, Roboto" font-size="13" font-weight="700" letter-spacing="3.20000005" fill="#FFFFFF">
                <tspan x="147.218359" y="381">ENVIAR</tspan>
            </text>
            <g id="Group-5" transform="translate(19.000000, 87.000000)">
                <g id="Group-3">
                    <g id="BG">
                        <use fill="#FFFFFF" fill-rule="evenodd" xlink:href="#path-1"></use>
                        <rect stroke="#D6D6D6" stroke-width="1" x="0.5" y="25.5" width="319" height="215"></rect>
                    </g>
                    <text id="Escreva-com-suas-pal" font-family="Roboto-Bold, Roboto" font-size="13" font-weight="bold" fill="#7C7C7C">
                        <tspan x="0" y="12">Escreva com suas palavras</tspan>
                    </text>
                </g>
            </g>
            <rect id="BG" fill="#924F97" x="0" y="0" width="360" height="56"></rect>
            <path d="M327.728463,35 C327.51898,35 327.309497,34.9203675 327.149111,34.7627278 L322.239351,29.8872707 C321.920216,29.570366 321.920216,29.0551927 322.239351,28.738288 C322.558485,28.4213833 323.077283,28.4213833 323.396418,28.738288 L327.726826,33.0384411 L338.603582,22.2376785 C338.922717,21.9207738 339.441515,21.9207738 339.760649,22.2376785 C340.079784,22.5545832 340.079784,23.0697565 339.760649,23.3866612 L328.304542,34.7627278 C328.144156,34.9219927 327.934673,35 327.72519,35 L327.728463,35 Z" id="Shape" fill="#FFFFFF" fill-rule="nonzero"></path>
            <g id="chevron-right" transform="translate(28.500000, 28.000000) scale(-1, 1) translate(-28.500000, -28.000000) translate(23.000000, 18.000000)" fill-rule="nonzero" fill="#FFFFFF">
                <path d="M1,19 C0.872,19 0.744,18.951 0.646,18.854 C0.451,18.659 0.451,18.342 0.646,18.147 L9.292,9.501 L0.646,0.855 C0.451,0.66 0.451,0.343 0.646,0.148 C0.841,-0.047 1.158,-0.047 1.353,0.148 L10.353,9.148 C10.548,9.343 10.548,9.66 10.353,9.855 L1.353,18.855 C1.255,18.953 1.127,19.001 0.999,19.001 L1,19 Z" id="Shape"></path>
            </g>
            <text font-family="Roboto-Regular, Roboto" font-size="16" font-weight="normal" letter-spacing="0.600000024" fill="#FFFFFF">
                <tspan x="58" y="34">Dê sua opinião</tspan>
            </text>
        </g>
    </g>
</svg>