<?xml version="1.0" encoding="UTF-8"?>
<svg width="360px" height="640px" viewBox="0 0 360 640" version="1.1" xmlns="http://www.w3.org/2000/svg" xmlns:xlink="http://www.w3.org/1999/xlink">
    <!-- Generator: Sketch 46.2 (44496) - http://www.bohemiancoding.com/sketch -->
    <title>Filtro</title>
    <desc>Created with Sketch.</desc>
    <defs></defs>
    <g id="App" stroke="none" stroke-width="1" fill="none" fill-rule="evenodd">
        <g id="Filtro">
            <rect id="BG" fill="#924F97" x="0" y="0" width="360" height="56"></rect>
            <rect id="BG" fill="#F5F5F5" x="0" y="56" width="360" height="643"></rect>
            <g id="chevron-right" transform="translate(28.500000, 28.000000) scale(-1, 1) translate(-28.500000, -28.000000) translate(23.000000, 18.000000)" fill-rule="nonzero" fill="#FFFFFF">
                <path d="M1,19 C0.872,19 0.744,18.951 0.646,18.854 C0.451,18.659 0.451,18.342 0.646,18.147 L9.292,9.501 L0.646,0.855 C0.451,0.66 0.451,0.343 0.646,0.148 C0.841,-0.047 1.158,-0.047 1.353,0.148 L10.353,9.148 C10.548,9.343 10.548,9.66 10.353,9.855 L1.353,18.855 C1.255,18.953 1.127,19.001 0.999,19.001 L1,19 Z" id="Shape"></path>
            </g>
            <text id="Filtro-por-região" font-family="Roboto-Regular, Roboto" font-size="16" font-weight="normal" letter-spacing="0.600000024" fill="#FFFFFF">
                <tspan x="58" y="34">Filtro por região</tspan>
            </text>
            <g id="Group-2" transform="translate(23.000000, 77.000000)" font-size="14" font-family="Roboto-Bold, Roboto" letter-spacing="0.24499999" fill="#7C7C7C" font-weight="bold">
                <text id="Centro,-Campo-Grande">
                    <tspan x="0" y="13">Centro, Campo Grande, MS</tspan>
                </text>
            </g>
            <g id="Group-2" transform="translate(23.000000, 135.111111)" font-size="14" font-family="Roboto-Regular, Roboto" letter-spacing="0.24499999" fill="#7C7C7C" font-weight="normal">
                <text id="Guanandi,-Campo-Gran">
                    <tspan x="0" y="13">Guanandi, Campo Grande, MS</tspan>
                </text>
            </g>
            <g id="Group-2" transform="translate(23.000000, 193.000000)" font-size="14" font-family="Roboto-Regular, Roboto" letter-spacing="0.24499999" fill="#7C7C7C" font-weight="normal">
                <text id="Vila-Tiradentes,-Cam">
                    <tspan x="0" y="13">Vila Tiradentes, Campo Grande, MS</tspan>
                </text>
            </g>
            <g id="Group-2" transform="translate(23.000000, 251.333333)" font-size="14" font-family="Roboto-Regular, Roboto" letter-spacing="0.24499999" fill="#7C7C7C" font-weight="normal">
                <text id="Coronel-Antonino,-Ca">
                    <tspan x="0" y="13">Coronel Antonino, Campo Grande, MS</tspan>
                </text>
            </g>
            <text id="Bairro-Santo-Antônio" font-family="Roboto-Regular, Roboto" font-size="14" font-weight="normal" letter-spacing="0.24499999" fill="#7C7C7C">
                <tspan x="23" y="322.444444">Bairro Santo Antônio, Campo Grande, MS</tspan>
            </text>
            <text id="Mata-do-Jacinto,-Cam" font-family="Roboto-Regular, Roboto" font-size="14" font-weight="normal" letter-spacing="0.24499999" fill="#7C7C7C">
                <tspan x="23" y="380.555556">Mata do Jacinto, Campo Grande, MS</tspan>
            </text>
            <text id="Cidade-Jardim,-Campo" font-family="Roboto-Regular, Roboto" font-size="14" font-weight="normal" letter-spacing="0.24499999" fill="#7C7C7C">
                <tspan x="23" y="438.666667">Cidade Jardim, Campo Grande, MS</tspan>
            </text>
            <text id="Centro,-Dourados,-MS" font-family="Roboto-Regular, Roboto" font-size="14" font-weight="normal" letter-spacing="0.24499999" fill="#7C7C7C">
                <tspan x="24" y="496.777778">Centro, Dourados, MS</tspan>
            </text>
            <text id="Vila-Santa-Olinda,-D" font-family="Roboto-Regular, Roboto" font-size="14" font-weight="normal" letter-spacing="0.24499999" fill="#7C7C7C">
                <tspan x="24" y="554.888889">Vila Santa Olinda, Dourados, MS</tspan>
            </text>
            <text id="Tatuapé,-Nioaque,-MS" font-family="Roboto-Regular, Roboto" font-size="14" font-weight="normal" letter-spacing="0.24499999" fill="#7C7C7C">
                <tspan x="23" y="613">Tatuapé, Nioaque, MS</tspan>
            </text>
            <g id="magnifier" transform="translate(324.000000, 18.000000)" fill-rule="nonzero" fill="#FFFFFF">
                <path d="M18.868,19.162 L12.925,12.678 C14.264,11.277 15,9.445 15,7.5 C15,5.497 14.22,3.613 12.803,2.197 C11.386,0.781 9.503,0 7.5,0 C5.497,0 3.613,0.78 2.197,2.197 C0.781,3.614 0,5.497 0,7.5 C0,9.503 0.78,11.387 2.197,12.803 C3.614,14.219 5.497,15 7.5,15 C9.226,15 10.862,14.421 12.188,13.355 L18.131,19.838 C18.23,19.946 18.364,20 18.5,20 C18.621,20 18.742,19.957 18.838,19.869 C19.042,19.682 19.055,19.366 18.869,19.163 L18.868,19.162 Z M0.999,7.5 C0.999,3.916 3.915,1 7.499,1 C11.083,1 13.999,3.916 13.999,7.5 C13.999,11.084 11.083,14 7.499,14 C3.915,14 0.999,11.084 0.999,7.5 Z" id="Shape"></path>
            </g>
            <path d="M-2.5,114.055556 L365.586946,114.055556" id="Line" stroke="#DDDDDD" stroke-linecap="square"></path>
            <path d="M-9.5,172.166667 L358.586946,172.166667" id="Line" stroke="#DDDDDD" stroke-linecap="square"></path>
            <path d="M-9.5,230.277778 L358.586946,230.277778" id="Line" stroke="#DDDDDD" stroke-linecap="square"></path>
            <path d="M-9.5,288.388889 L358.586946,288.388889" id="Line" stroke="#DDDDDD" stroke-linecap="square"></path>
            <path d="M0.5,346.5 L368.586946,346.5" id="Line" stroke="#DDDDDD" stroke-linecap="square"></path>
            <path d="M0.5,404.611111 L368.586946,404.611111" id="Line" stroke="#DDDDDD" stroke-linecap="square"></path>
            <path d="M0.5,462.722222 L368.586946,462.722222" id="Line" stroke="#DDDDDD" stroke-linecap="square"></path>
            <path d="M0.5,520.833333 L368.586946,520.833333" id="Line" stroke="#DDDDDD" stroke-linecap="square"></path>
            <path d="M0.5,578.944444 L368.586946,578.944444" id="Line" stroke="#DDDDDD" stroke-linecap="square"></path>
            <g id="checkmark-circle" opacity="0.504189312" transform="translate(324.000000, 74.000000)" fill-rule="nonzero" fill="#000000">
                <path d="M9.5,19 C6.962,19 4.577,18.012 2.782,16.218 C0.987,14.424 0,12.038 0,9.501 C0,6.963 0.988,4.578 2.782,2.783 C4.576,0.988 6.962,1.77635684e-15 9.5,1.77635684e-15 C12.038,1.77635684e-15 14.423,0.988 16.218,2.783 C18.013,4.578 19,6.963 19,9.501 C19,12.039 18.012,14.424 16.218,16.218 C14.424,18.012 12.038,19 9.5,19 Z M9.5,1 C4.813,1 1,4.813 1,9.5 C1,14.187 4.813,18 9.5,18 C14.187,18 18,14.187 18,9.5 C18,4.813 14.187,1 9.5,1 Z" id="Shape"></path>
                <path d="M7.5,13.5 C7.372,13.5 7.244,13.451 7.146,13.354 L4.146,10.354 C3.951,10.159 3.951,9.842 4.146,9.647 C4.341,9.452 4.658,9.452 4.853,9.647 L7.499,12.293 L14.145,5.647 C14.34,5.452 14.657,5.452 14.852,5.647 C15.047,5.842 15.047,6.159 14.852,6.354 L7.852,13.354 C7.754,13.452 7.626,13.5 7.498,13.5 L7.5,13.5 Z" id="Shape"></path>
            </g>
            <g id="checkmark-circle" opacity="0.20091712" transform="translate(324.000000, 132.000000)" fill-rule="nonzero" fill="#000000">
                <path d="M9.5,19 C6.962,19 4.577,18.012 2.782,16.218 C0.987,14.424 0,12.038 0,9.501 C0,6.963 0.988,4.578 2.782,2.783 C4.576,0.988 6.962,1.77635684e-15 9.5,1.77635684e-15 C12.038,1.77635684e-15 14.423,0.988 16.218,2.783 C18.013,4.578 19,6.963 19,9.501 C19,12.039 18.012,14.424 16.218,16.218 C14.424,18.012 12.038,19 9.5,19 Z M9.5,1 C4.813,1 1,4.813 1,9.5 C1,14.187 4.813,18 9.5,18 C14.187,18 18,14.187 18,9.5 C18,4.813 14.187,1 9.5,1 Z" id="Shape"></path>
            </g>
            <g id="checkmark-circle" opacity="0.20091712" transform="translate(324.000000, 191.000000)" fill-rule="nonzero" fill="#000000">
                <path d="M9.5,19 C6.962,19 4.577,18.012 2.782,16.218 C0.987,14.424 0,12.038 0,9.501 C0,6.963 0.988,4.578 2.782,2.783 C4.576,0.988 6.962,1.77635684e-15 9.5,1.77635684e-15 C12.038,1.77635684e-15 14.423,0.988 16.218,2.783 C18.013,4.578 19,6.963 19,9.501 C19,12.039 18.012,14.424 16.218,16.218 C14.424,18.012 12.038,19 9.5,19 Z M9.5,1 C4.813,1 1,4.813 1,9.5 C1,14.187 4.813,18 9.5,18 C14.187,18 18,14.187 18,9.5 C18,4.813 14.187,1 9.5,1 Z" id="Shape"></path>
            </g>
            <g id="checkmark-circle" opacity="0.20091712" transform="translate(324.000000, 249.000000)" fill-rule="nonzero" fill="#000000">
                <path d="M9.5,19 C6.962,19 4.577,18.012 2.782,16.218 C0.987,14.424 0,12.038 0,9.501 C0,6.963 0.988,4.578 2.782,2.783 C4.576,0.988 6.962,1.77635684e-15 9.5,1.77635684e-15 C12.038,1.77635684e-15 14.423,0.988 16.218,2.783 C18.013,4.578 19,6.963 19,9.501 C19,12.039 18.012,14.424 16.218,16.218 C14.424,18.012 12.038,19 9.5,19 Z M9.5,1 C4.813,1 1,4.813 1,9.5 C1,14.187 4.813,18 9.5,18 C14.187,18 18,14.187 18,9.5 C18,4.813 14.187,1 9.5,1 Z" id="Shape"></path>
            </g>
            <g id="checkmark-circle" opacity="0.20091712" transform="translate(324.000000, 308.000000)" fill-rule="nonzero" fill="#000000">
                <path d="M9.5,19 C6.962,19 4.577,18.012 2.782,16.218 C0.987,14.424 0,12.038 0,9.501 C0,6.963 0.988,4.578 2.782,2.783 C4.576,0.988 6.962,1.77635684e-15 9.5,1.77635684e-15 C12.038,1.77635684e-15 14.423,0.988 16.218,2.783 C18.013,4.578 19,6.963 19,9.501 C19,12.039 18.012,14.424 16.218,16.218 C14.424,18.012 12.038,19 9.5,19 Z M9.5,1 C4.813,1 1,4.813 1,9.5 C1,14.187 4.813,18 9.5,18 C14.187,18 18,14.187 18,9.5 C18,4.813 14.187,1 9.5,1 Z" id="Shape"></path>
            </g>
            <g id="checkmark-circle" opacity="0.20091712" transform="translate(324.000000, 365.000000)" fill-rule="nonzero" fill="#000000">
                <path d="M9.5,19 C6.962,19 4.577,18.012 2.782,16.218 C0.987,14.424 0,12.038 0,9.501 C0,6.963 0.988,4.578 2.782,2.783 C4.576,0.988 6.962,1.77635684e-15 9.5,1.77635684e-15 C12.038,1.77635684e-15 14.423,0.988 16.218,2.783 C18.013,4.578 19,6.963 19,9.501 C19,12.039 18.012,14.424 16.218,16.218 C14.424,18.012 12.038,19 9.5,19 Z M9.5,1 C4.813,1 1,4.813 1,9.5 C1,14.187 4.813,18 9.5,18 C14.187,18 18,14.187 18,9.5 C18,4.813 14.187,1 9.5,1 Z" id="Shape"></path>
            </g>
            <g id="checkmark-circle" opacity="0.20091712" transform="translate(324.000000, 424.000000)" fill-rule="nonzero" fill="#000000">
                <path d="M9.5,19 C6.962,19 4.577,18.012 2.782,16.218 C0.987,14.424 0,12.038 0,9.501 C0,6.963 0.988,4.578 2.782,2.783 C4.576,0.988 6.962,1.77635684e-15 9.5,1.77635684e-15 C12.038,1.77635684e-15 14.423,0.988 16.218,2.783 C18.013,4.578 19,6.963 19,9.501 C19,12.039 18.012,14.424 16.218,16.218 C14.424,18.012 12.038,19 9.5,19 Z M9.5,1 C4.813,1 1,4.813 1,9.5 C1,14.187 4.813,18 9.5,18 C14.187,18 18,14.187 18,9.5 C18,4.813 14.187,1 9.5,1 Z" id="Shape"></path>
            </g>
            <g id="checkmark-circle" opacity="0.20091712" transform="translate(324.000000, 482.000000)" fill-rule="nonzero" fill="#000000">
                <path d="M9.5,19 C6.962,19 4.577,18.012 2.782,16.218 C0.987,14.424 0,12.038 0,9.501 C0,6.963 0.988,4.578 2.782,2.783 C4.576,0.988 6.962,1.77635684e-15 9.5,1.77635684e-15 C12.038,1.77635684e-15 14.423,0.988 16.218,2.783 C18.013,4.578 19,6.963 19,9.501 C19,12.039 18.012,14.424 16.218,16.218 C14.424,18.012 12.038,19 9.5,19 Z M9.5,1 C4.813,1 1,4.813 1,9.5 C1,14.187 4.813,18 9.5,18 C14.187,18 18,14.187 18,9.5 C18,4.813 14.187,1 9.5,1 Z" id="Shape"></path>
            </g>
            <g id="checkmark-circle" opacity="0.20091712" transform="translate(324.000000, 541.000000)" fill-rule="nonzero" fill="#000000">
                <path d="M9.5,19 C6.962,19 4.577,18.012 2.782,16.218 C0.987,14.424 0,12.038 0,9.501 C0,6.963 0.988,4.578 2.782,2.783 C4.576,0.988 6.962,1.77635684e-15 9.5,1.77635684e-15 C12.038,1.77635684e-15 14.423,0.988 16.218,2.783 C18.013,4.578 19,6.963 19,9.501 C19,12.039 18.012,14.424 16.218,16.218 C14.424,18.012 12.038,19 9.5,19 Z M9.5,1 C4.813,1 1,4.813 1,9.5 C1,14.187 4.813,18 9.5,18 C14.187,18 18,14.187 18,9.5 C18,4.813 14.187,1 9.5,1 Z" id="Shape"></path>
            </g>
            <g id="checkmark-circle" opacity="0.20091712" transform="translate(324.000000, 599.000000)" fill-rule="nonzero" fill="#000000">
                <path d="M9.5,19 C6.962,19 4.577,18.012 2.782,16.218 C0.987,14.424 0,12.038 0,9.501 C0,6.963 0.988,4.578 2.782,2.783 C4.576,0.988 6.962,1.77635684e-15 9.5,1.77635684e-15 C12.038,1.77635684e-15 14.423,0.988 16.218,2.783 C18.013,4.578 19,6.963 19,9.501 C19,12.039 18.012,14.424 16.218,16.218 C14.424,18.012 12.038,19 9.5,19 Z M9.5,1 C4.813,1 1,4.813 1,9.5 C1,14.187 4.813,18 9.5,18 C14.187,18 18,14.187 18,9.5 C18,4.813 14.187,1 9.5,1 Z" id="Shape"></path>
            </g>
        </g>
    </g>
</svg>