<?xml version="1.0" encoding="UTF-8"?>
<svg width="360px" height="1025px" viewBox="0 0 360 1025" version="1.1" xmlns="http://www.w3.org/2000/svg" xmlns:xlink="http://www.w3.org/1999/xlink">
    <!-- Generator: Sketch 46.2 (44496) - http://www.bohemiancoding.com/sketch -->
    <title>Meus dados</title>
    <desc>Created with Sketch.</desc>
    <defs>
        <rect id="path-1" x="0" y="25" width="320" height="40"></rect>
        <rect id="path-2" x="0" y="25" width="320" height="40"></rect>
        <rect id="path-3" x="0" y="25" width="320" height="40"></rect>
        <rect id="path-4" x="0" y="25" width="320" height="40"></rect>
        <rect id="path-5" x="0" y="25" width="320" height="40"></rect>
        <rect id="path-6" x="0" y="25" width="320" height="40"></rect>
        <rect id="path-7" x="0" y="25" width="320" height="40"></rect>
        <rect id="path-8" x="0" y="25" width="320" height="40"></rect>
    </defs>
    <g id="App" stroke="none" stroke-width="1" fill="none" fill-rule="evenodd">
        <g id="Meus-dados">
            <rect id="BG" fill="#F5F5F5" x="0" y="56" width="360" height="1076"></rect>
            <path d="M0.5,461.5 L368.586946,461.5" id="Line" stroke="#DDDDDD" stroke-linecap="square"></path>
            <text id="Seus-dados-não-serão" font-family="Roboto-Regular, Roboto" font-size="12" font-weight="normal" letter-spacing="0.209999993" fill="#858585">
                <tspan x="68.4641017" y="977">Seus dados não serão públicos para sua </tspan>
                <tspan x="59.7458204" y="991">segurança e agradecemos sua colaboração</tspan>
            </text>
            <rect id="BG" fill="#924F97" x="20" y="882" width="320" height="59"></rect>
            <text id="ENVIAR" font-family="Roboto-Black, Roboto" font-size="13" font-weight="700" letter-spacing="3.20000005" fill="#FFFFFF">
                <tspan x="147.218359" y="918">ENVIAR</tspan>
            </text>
            <g id="Group-5" transform="translate(19.000000, 87.000000)">
                <g id="Group-3">
                    <g id="BG">
                        <use fill="#FFFFFF" fill-rule="evenodd" xlink:href="#path-1"></use>
                        <rect stroke="#D6D6D6" stroke-width="1" x="0.5" y="25.5" width="319" height="39"></rect>
                    </g>
                    <text id="Adriana-Flores-Benvi" font-family="Roboto-Regular, Roboto" font-size="12" font-weight="normal" letter-spacing="0.209999993" fill="#4E4E4E">
                        <tspan x="14" y="50">Adriana Flores Benviatti</tspan>
                    </text>
                    <text id="Nome" font-family="Roboto-Bold, Roboto" font-size="13" font-weight="bold" fill="#7C7C7C">
                        <tspan x="0" y="12">Nome</tspan>
                    </text>
                </g>
            </g>
            <g id="Group-5" transform="translate(19.000000, 177.000000)">
                <g id="Group-3">
                    <g id="BG">
                        <use fill="#FFFFFF" fill-rule="evenodd" xlink:href="#path-2"></use>
                        <rect stroke="#D6D6D6" stroke-width="1" x="0.5" y="25.5" width="319" height="39"></rect>
                    </g>
                    <text id="adriflores@gmail.com" font-family="Roboto-Regular, Roboto" font-size="12" font-weight="normal" letter-spacing="0.209999993" fill="#4E4E4E">
                        <tspan x="14" y="50">adriflores@gmail.com.br</tspan>
                    </text>
                    <text id="Email" font-family="Roboto-Bold, Roboto" font-size="13" font-weight="bold" fill="#7C7C7C">
                        <tspan x="0" y="12">Email</tspan>
                    </text>
                </g>
            </g>
            <g id="Group-5" transform="translate(19.000000, 267.000000)">
                <g id="Group-3">
                    <g id="BG">
                        <use fill="#FFFFFF" fill-rule="evenodd" xlink:href="#path-3"></use>
                        <rect stroke="#D6D6D6" stroke-width="1" x="0.5" y="25.5" width="319" height="39"></rect>
                    </g>
                    <text id="***********" font-family="Roboto-Regular, Roboto" font-size="12" font-weight="normal" letter-spacing="0.209999993" fill="#4E4E4E">
                        <tspan x="14" y="50">***********</tspan>
                    </text>
                    <text id="Senha" font-family="Roboto-Bold, Roboto" font-size="13" font-weight="bold" fill="#7C7C7C">
                        <tspan x="0" y="12">Senha</tspan>
                    </text>
                </g>
            </g>
            <g id="Group-5" transform="translate(19.000000, 357.000000)">
                <g id="Group-3">
                    <g id="BG">
                        <use fill="#FFFFFF" fill-rule="evenodd" xlink:href="#path-4"></use>
                        <rect stroke="#D6D6D6" stroke-width="1" x="0.5" y="25.5" width="319" height="39"></rect>
                    </g>
                    <text id="Nova-senha" font-family="Roboto-Bold, Roboto" font-size="13" font-weight="bold" fill="#7C7C7C">
                        <tspan x="0" y="12">Nova senha</tspan>
                    </text>
                </g>
            </g>
            <g id="Group-5" transform="translate(19.000000, 505.000000)">
                <g id="Group-3">
                    <g id="BG">
                        <use fill="#FFFFFF" fill-rule="evenodd" xlink:href="#path-5"></use>
                        <rect stroke="#D6D6D6" stroke-width="1" x="0.5" y="25.5" width="319" height="39"></rect>
                    </g>
                    <text id="Escolha-uma-opção" font-family="Roboto-Regular, Roboto" font-size="12" font-weight="normal" letter-spacing="0.209999993" fill="#888888">
                        <tspan x="15" y="50">Escolha uma opção</tspan>
                    </text>
                    <g id="chevron-right" opacity="0.3" transform="translate(299.125000, 46.375000) rotate(90.000000) translate(-299.125000, -46.375000) translate(295.125000, 38.875000)" fill-rule="nonzero" fill="#000000">
                        <path d="M0.75,14.25 C0.654,14.25 0.558,14.21325 0.4845,14.1405 C0.33825,13.99425 0.33825,13.7565 0.4845,13.61025 L6.969,7.12575 L0.4845,0.64125 C0.33825,0.495 0.33825,0.25725 0.4845,0.111 C0.63075,-0.03525 0.8685,-0.03525 1.01475,0.111 L7.76475,6.861 C7.911,7.00725 7.911,7.245 7.76475,7.39125 L1.01475,14.14125 C0.94125,14.21475 0.84525,14.25075 0.74925,14.25075 L0.75,14.25 Z" id="Shape"></path>
                    </g>
                    <text id="Escolaridade" font-family="Roboto-Bold, Roboto" font-size="13" font-weight="bold" fill="#7C7C7C">
                        <tspan x="0" y="12">Escolaridade</tspan>
                    </text>
                </g>
            </g>
            <g id="Group-5" transform="translate(19.000000, 599.000000)">
                <g id="Group-3">
                    <g id="BG">
                        <use fill="#FFFFFF" fill-rule="evenodd" xlink:href="#path-6"></use>
                        <rect stroke="#D6D6D6" stroke-width="1" x="0.5" y="25.5" width="319" height="39"></rect>
                    </g>
                    <text id="Escolha-uma-opção" font-family="Roboto-Regular, Roboto" font-size="12" font-weight="normal" letter-spacing="0.209999993" fill="#888888">
                        <tspan x="15" y="49">Escolha uma opção</tspan>
                    </text>
                    <g id="chevron-right" opacity="0.3" transform="translate(299.125000, 45.375000) rotate(90.000000) translate(-299.125000, -45.375000) translate(295.125000, 37.875000)" fill-rule="nonzero" fill="#000000">
                        <path d="M0.75,14.25 C0.654,14.25 0.558,14.21325 0.4845,14.1405 C0.33825,13.99425 0.33825,13.7565 0.4845,13.61025 L6.969,7.12575 L0.4845,0.64125 C0.33825,0.495 0.33825,0.25725 0.4845,0.111 C0.63075,-0.03525 0.8685,-0.03525 1.01475,0.111 L7.76475,6.861 C7.911,7.00725 7.911,7.245 7.76475,7.39125 L1.01475,14.14125 C0.94125,14.21475 0.84525,14.25075 0.74925,14.25075 L0.75,14.25 Z" id="Shape"></path>
                    </g>
                    <text id="Sexo" font-family="Roboto-Bold, Roboto" font-size="13" font-weight="bold" fill="#7C7C7C">
                        <tspan x="0" y="12">Sexo</tspan>
                    </text>
                </g>
            </g>
            <g id="Group-5" transform="translate(19.000000, 693.000000)">
                <g id="Group-3">
                    <g id="BG">
                        <use fill="#FFFFFF" fill-rule="evenodd" xlink:href="#path-7"></use>
                        <rect stroke="#D6D6D6" stroke-width="1" x="0.5" y="25.5" width="319" height="39"></rect>
                    </g>
                    <text id="Escolha-uma-opção" font-family="Roboto-Regular, Roboto" font-size="12" font-weight="normal" letter-spacing="0.209999993" fill="#888888">
                        <tspan x="15" y="49">Escolha uma opção</tspan>
                    </text>
                    <g id="chevron-right" opacity="0.3" transform="translate(299.125000, 45.375000) rotate(90.000000) translate(-299.125000, -45.375000) translate(295.125000, 37.875000)" fill-rule="nonzero" fill="#000000">
                        <path d="M0.75,14.25 C0.654,14.25 0.558,14.21325 0.4845,14.1405 C0.33825,13.99425 0.33825,13.7565 0.4845,13.61025 L6.969,7.12575 L0.4845,0.64125 C0.33825,0.495 0.33825,0.25725 0.4845,0.111 C0.63075,-0.03525 0.8685,-0.03525 1.01475,0.111 L7.76475,6.861 C7.911,7.00725 7.911,7.245 7.76475,7.39125 L1.01475,14.14125 C0.94125,14.21475 0.84525,14.25075 0.74925,14.25075 L0.75,14.25 Z" id="Shape"></path>
                    </g>
                    <text id="Composição-familiar" font-family="Roboto-Bold, Roboto" font-size="13" font-weight="bold" fill="#7C7C7C">
                        <tspan x="0" y="12">Composição familiar</tspan>
                    </text>
                </g>
            </g>
            <g id="Group-5" transform="translate(19.000000, 787.000000)">
                <g id="Group-3">
                    <g id="BG">
                        <use fill="#FFFFFF" fill-rule="evenodd" xlink:href="#path-8"></use>
                        <rect stroke="#D6D6D6" stroke-width="1" x="0.5" y="25.5" width="319" height="39"></rect>
                    </g>
                    <text id="Escolha-uma-opção" font-family="Roboto-Regular, Roboto" font-size="12" font-weight="normal" letter-spacing="0.209999993" fill="#888888">
                        <tspan x="15" y="49">Escolha uma opção</tspan>
                    </text>
                    <g id="chevron-right" opacity="0.3" transform="translate(299.125000, 45.375000) rotate(90.000000) translate(-299.125000, -45.375000) translate(295.125000, 37.875000)" fill-rule="nonzero" fill="#000000">
                        <path d="M0.75,14.25 C0.654,14.25 0.558,14.21325 0.4845,14.1405 C0.33825,13.99425 0.33825,13.7565 0.4845,13.61025 L6.969,7.12575 L0.4845,0.64125 C0.33825,0.495 0.33825,0.25725 0.4845,0.111 C0.63075,-0.03525 0.8685,-0.03525 1.01475,0.111 L7.76475,6.861 C7.911,7.00725 7.911,7.245 7.76475,7.39125 L1.01475,14.14125 C0.94125,14.21475 0.84525,14.25075 0.74925,14.25075 L0.75,14.25 Z" id="Shape"></path>
                    </g>
                    <text id="Renda-familiar" font-family="Roboto-Bold, Roboto" font-size="13" font-weight="bold" fill="#7C7C7C">
                        <tspan x="0" y="12">Renda familiar</tspan>
                    </text>
                </g>
            </g>
            <rect id="BG" fill="#924F97" x="0" y="0" width="360" height="56"></rect>
            <path d="M327.728463,35 C327.51898,35 327.309497,34.9203675 327.149111,34.7627278 L322.239351,29.8872707 C321.920216,29.570366 321.920216,29.0551927 322.239351,28.738288 C322.558485,28.4213833 323.077283,28.4213833 323.396418,28.738288 L327.726826,33.0384411 L338.603582,22.2376785 C338.922717,21.9207738 339.441515,21.9207738 339.760649,22.2376785 C340.079784,22.5545832 340.079784,23.0697565 339.760649,23.3866612 L328.304542,34.7627278 C328.144156,34.9219927 327.934673,35 327.72519,35 L327.728463,35 Z" id="Shape" fill="#FFFFFF" fill-rule="nonzero"></path>
            <g id="chevron-right" transform="translate(28.500000, 28.000000) scale(-1, 1) translate(-28.500000, -28.000000) translate(23.000000, 18.000000)" fill-rule="nonzero" fill="#FFFFFF">
                <path d="M1,19 C0.872,19 0.744,18.951 0.646,18.854 C0.451,18.659 0.451,18.342 0.646,18.147 L9.292,9.501 L0.646,0.855 C0.451,0.66 0.451,0.343 0.646,0.148 C0.841,-0.047 1.158,-0.047 1.353,0.148 L10.353,9.148 C10.548,9.343 10.548,9.66 10.353,9.855 L1.353,18.855 C1.255,18.953 1.127,19.001 0.999,19.001 L1,19 Z" id="Shape"></path>
            </g>
            <text font-family="Roboto-Regular, Roboto" font-size="16" font-weight="normal" letter-spacing="0.600000024" fill="#FFFFFF">
                <tspan x="58" y="34">Meus dados</tspan>
            </text>
        </g>
    </g>
</svg>