<?xml version="1.0" encoding="UTF-8"?>
<svg width="360px" height="640px" viewBox="0 0 360 640" version="1.1" xmlns="http://www.w3.org/2000/svg" xmlns:xlink="http://www.w3.org/1999/xlink">
    <!-- Generator: Sketch 46.2 (44496) - http://www.bohemiancoding.com/sketch -->
    <title>Notificações</title>
    <desc>Created with Sketch.</desc>
    <defs></defs>
    <g id="App" stroke="none" stroke-width="1" fill="none" fill-rule="evenodd">
        <g id="Notificações">
            <rect id="BG" fill="#924F97" x="0" y="0" width="360" height="56"></rect>
            <rect id="BG" fill="#F5F5F5" x="0" y="56" width="360" height="643"></rect>
            <rect id="BG" fill="#E2DAE3" x="0" y="56" width="360" height="110"></rect>
            <g id="chevron-right" transform="translate(28.500000, 28.000000) scale(-1, 1) translate(-28.500000, -28.000000) translate(23.000000, 18.000000)" fill-rule="nonzero" fill="#FFFFFF">
                <path d="M1,19 C0.872,19 0.744,18.951 0.646,18.854 C0.451,18.659 0.451,18.342 0.646,18.147 L9.292,9.501 L0.646,0.855 C0.451,0.66 0.451,0.343 0.646,0.148 C0.841,-0.047 1.158,-0.047 1.353,0.148 L10.353,9.148 C10.548,9.343 10.548,9.66 10.353,9.855 L1.353,18.855 C1.255,18.953 1.127,19.001 0.999,19.001 L1,19 Z" id="Shape"></path>
            </g>
            <text font-family="Roboto-Regular, Roboto" font-size="16" font-weight="normal" letter-spacing="0.600000024" fill="#FFFFFF">
                <tspan x="58" y="34">Notificações</tspan>
            </text>
            <g id="Group" transform="translate(23.000000, 86.000000)">
                <text id="Lorem-ipsum-dolor-si" font-family="Roboto-Regular, Roboto" font-size="13" font-weight="normal" letter-spacing="0.200000003" fill="#6B6B6B">
                    <tspan x="0" y="12">Lorem ipsum </tspan>
                    <tspan x="81.5171875" y="12" font-family="Roboto-Bold, Roboto" font-weight="bold">dolor sit amet</tspan>
                    <tspan x="165.173633" y="12">, consectetuer </tspan>
                    <tspan x="0" y="27">adipiscing elit, sed diam nonummy nibh euismod</tspan>
                </text>
                <text id="Há-3-dias" font-family=".SFNSText, .SF NS Text" font-size="11" font-weight="normal" letter-spacing="0.169230774" fill="#727272">
                    <tspan x="15" y="48">Há 3 dias</tspan>
                </text>
                <g id="clock" transform="translate(2.000000, 39.000000)" fill-rule="nonzero" fill="#727272">
                    <path d="M7.73052632,8.10615789 C8.54952632,7.26205263 9,6.15268421 9,4.97368421 C9,3.85105263 8.59168421,2.79094737 7.84515789,1.96342105 L8.17105263,1.63752632 L8.47752632,1.94352632 C8.52394737,1.98994737 8.58457895,2.01268421 8.64473684,2.01268421 C8.70489474,2.01268421 8.766,1.98947368 8.81194737,1.94352632 C8.90431579,1.85115789 8.90431579,1.701 8.81194737,1.60863158 L7.86457895,0.661263158 C7.77221053,0.568894737 7.62205263,0.568894737 7.52968421,0.661263158 C7.43731579,0.753631579 7.43731579,0.903789474 7.52968421,0.996157895 L7.83615789,1.30215789 L7.51026316,1.62805263 C6.68273684,0.881526316 5.62263158,0.473210526 4.5,0.473210526 C3.37736842,0.473210526 2.31726316,0.881526316 1.48973684,1.62805263 L1.16384211,1.30215789 L1.46984211,0.996157895 C1.56221053,0.903789474 1.56221053,0.753631579 1.46984211,0.661263158 C1.37747368,0.568894737 1.22731579,0.568894737 1.13494737,0.661263158 L0.187578947,1.60863158 C0.0952105263,1.701 0.0952105263,1.85115789 0.187578947,1.94352632 C0.234,1.98994737 0.294631579,2.01268421 0.355263158,2.01268421 C0.415894737,2.01268421 0.476526316,1.98947368 0.522947368,1.94352632 L0.828947368,1.63752632 L1.15484211,1.96342105 C0.408315789,2.79094737 -1.77635684e-15,3.85105263 -1.77635684e-15,4.97368421 C-1.77635684e-15,6.15268421 0.450473684,7.26205263 1.26947368,8.10615789 L0.306,9.06963158 C0.213631579,9.162 0.213631579,9.31215789 0.306,9.40452632 C0.352421053,9.45094737 0.413052632,9.47415789 0.473684211,9.47415789 C0.534315789,9.47415789 0.594947368,9.45094737 0.641368421,9.40452632 L1.61715789,8.42921053 C2.42478947,9.10563158 3.43421053,9.47415789 4.50047368,9.47415789 C5.56673684,9.47415789 6.57615789,9.10563158 7.38378947,8.42921053 L8.35910526,9.40452632 C8.40552632,9.45094737 8.46615789,9.47415789 8.52678947,9.47415789 C8.58742105,9.47415789 8.64805263,9.45094737 8.694,9.40452632 C8.78636842,9.31215789 8.78636842,9.162 8.694,9.06963158 L7.73052632,8.10615789 Z M0.473684211,4.97368421 C0.473684211,2.75352632 2.27984211,0.947368421 4.5,0.947368421 C6.72015789,0.947368421 8.52631579,2.75352632 8.52631579,4.97368421 C8.52631579,7.19384211 6.72015789,9 4.5,9 C2.27984211,9 0.473684211,7.19384211 0.473684211,4.97368421 Z" id="Shape"></path>
                    <path d="M7.16636842,3.43421053 C7.101,3.321 6.95605263,3.28215789 6.84284211,3.34752632 L4.51231579,4.69326316 L2.69573684,3.42142105 C2.58868421,3.34657895 2.44089474,3.37263158 2.36605263,3.47968421 C2.29121053,3.58673684 2.31726316,3.73452632 2.42431579,3.80936842 L4.36452632,5.16789474 C4.365,5.16836842 4.36547368,5.16836842 4.36547368,5.16884211 C4.36973684,5.17168421 4.374,5.17452632 4.37826316,5.17689474 C4.37921053,5.17736842 4.38015789,5.17831579 4.38110526,5.17878947 C4.38536842,5.18115789 4.38963158,5.18352632 4.39389474,5.18589474 C4.39484211,5.18636842 4.39578947,5.18684211 4.39673684,5.18731579 C4.40147368,5.18968421 4.40621053,5.19157895 4.41142105,5.19394737 C4.41426316,5.19536842 4.41757895,5.19631579 4.42042105,5.19726316 C4.42231579,5.19773684 4.42421053,5.19868421 4.42657895,5.19963158 C4.42989474,5.20057895 4.43321053,5.20152632 4.43652632,5.20247368 C4.43842105,5.20294737 4.44031579,5.20342105 4.44221053,5.20389474 C4.44552632,5.20484211 4.44884211,5.20531579 4.45263158,5.20626316 C4.45452632,5.20673684 4.45642105,5.20721053 4.45831579,5.20721053 C4.46163158,5.20768421 4.46494737,5.20815789 4.46826316,5.20863158 C4.47063158,5.20910526 4.473,5.20910526 4.47536842,5.20957895 C4.47821053,5.21005263 4.48105263,5.21005263 4.48389474,5.21052632 C4.48815789,5.211 4.49242105,5.211 4.49668421,5.211 C4.49763158,5.211 4.49857895,5.211 4.49952632,5.211 C4.49952632,5.211 4.49952632,5.211 4.49952632,5.211 C4.49952632,5.211 4.49952632,5.211 4.5,5.211 C4.509,5.211 4.51752632,5.21052632 4.52652632,5.20957895 C4.527,5.20957895 4.52747368,5.20957895 4.52794737,5.20957895 C4.53647368,5.20863158 4.545,5.20721053 4.55352632,5.20484211 C4.55447368,5.20484211 4.55494737,5.20436842 4.55589474,5.20436842 C4.56394737,5.20247368 4.572,5.20010526 4.57957895,5.19726316 C4.581,5.19678947 4.58242105,5.19631579 4.58336842,5.19584211 C4.59094737,5.193 4.59805263,5.19015789 4.60515789,5.18636842 C4.60705263,5.18542105 4.60847368,5.18447368 4.61036842,5.18352632 C4.61273684,5.18210526 4.61557895,5.18115789 4.61794737,5.17973684 L7.07921053,3.75868421 C7.19242105,3.69331579 7.23126316,3.54836842 7.16589474,3.43515789 L7.16636842,3.43421053 Z" id="Shape"></path>
                </g>
            </g>
            <g id="Group" transform="translate(25.000000, 196.000000)">
                <text id="Lorem-ipsum-dolor-si" font-family="Roboto-Regular, Roboto" font-size="13" font-weight="normal" letter-spacing="0.200000003" fill="#6B6B6B">
                    <tspan x="0" y="12">Lorem ipsum </tspan>
                    <tspan x="81.5171875" y="12" font-family="Roboto-Bold, Roboto" font-weight="bold">dolor sit amet</tspan>
                    <tspan x="165.173633" y="12">, consectetuer </tspan>
                    <tspan x="0" y="27">adipiscing elit, sed diam nonummy nibh euismod</tspan>
                </text>
                <text id="Há-3-dias" font-family=".SFNSText, .SF NS Text" font-size="11" font-weight="normal" letter-spacing="0.169230774" fill="#727272">
                    <tspan x="15" y="48">Há 3 dias</tspan>
                </text>
                <g id="clock" transform="translate(2.000000, 39.000000)" fill-rule="nonzero" fill="#727272">
                    <path d="M7.73052632,8.10615789 C8.54952632,7.26205263 9,6.15268421 9,4.97368421 C9,3.85105263 8.59168421,2.79094737 7.84515789,1.96342105 L8.17105263,1.63752632 L8.47752632,1.94352632 C8.52394737,1.98994737 8.58457895,2.01268421 8.64473684,2.01268421 C8.70489474,2.01268421 8.766,1.98947368 8.81194737,1.94352632 C8.90431579,1.85115789 8.90431579,1.701 8.81194737,1.60863158 L7.86457895,0.661263158 C7.77221053,0.568894737 7.62205263,0.568894737 7.52968421,0.661263158 C7.43731579,0.753631579 7.43731579,0.903789474 7.52968421,0.996157895 L7.83615789,1.30215789 L7.51026316,1.62805263 C6.68273684,0.881526316 5.62263158,0.473210526 4.5,0.473210526 C3.37736842,0.473210526 2.31726316,0.881526316 1.48973684,1.62805263 L1.16384211,1.30215789 L1.46984211,0.996157895 C1.56221053,0.903789474 1.56221053,0.753631579 1.46984211,0.661263158 C1.37747368,0.568894737 1.22731579,0.568894737 1.13494737,0.661263158 L0.187578947,1.60863158 C0.0952105263,1.701 0.0952105263,1.85115789 0.187578947,1.94352632 C0.234,1.98994737 0.294631579,2.01268421 0.355263158,2.01268421 C0.415894737,2.01268421 0.476526316,1.98947368 0.522947368,1.94352632 L0.828947368,1.63752632 L1.15484211,1.96342105 C0.408315789,2.79094737 -1.77635684e-15,3.85105263 -1.77635684e-15,4.97368421 C-1.77635684e-15,6.15268421 0.450473684,7.26205263 1.26947368,8.10615789 L0.306,9.06963158 C0.213631579,9.162 0.213631579,9.31215789 0.306,9.40452632 C0.352421053,9.45094737 0.413052632,9.47415789 0.473684211,9.47415789 C0.534315789,9.47415789 0.594947368,9.45094737 0.641368421,9.40452632 L1.61715789,8.42921053 C2.42478947,9.10563158 3.43421053,9.47415789 4.50047368,9.47415789 C5.56673684,9.47415789 6.57615789,9.10563158 7.38378947,8.42921053 L8.35910526,9.40452632 C8.40552632,9.45094737 8.46615789,9.47415789 8.52678947,9.47415789 C8.58742105,9.47415789 8.64805263,9.45094737 8.694,9.40452632 C8.78636842,9.31215789 8.78636842,9.162 8.694,9.06963158 L7.73052632,8.10615789 Z M0.473684211,4.97368421 C0.473684211,2.75352632 2.27984211,0.947368421 4.5,0.947368421 C6.72015789,0.947368421 8.52631579,2.75352632 8.52631579,4.97368421 C8.52631579,7.19384211 6.72015789,9 4.5,9 C2.27984211,9 0.473684211,7.19384211 0.473684211,4.97368421 Z" id="Shape"></path>
                    <path d="M7.16636842,3.43421053 C7.101,3.321 6.95605263,3.28215789 6.84284211,3.34752632 L4.51231579,4.69326316 L2.69573684,3.42142105 C2.58868421,3.34657895 2.44089474,3.37263158 2.36605263,3.47968421 C2.29121053,3.58673684 2.31726316,3.73452632 2.42431579,3.80936842 L4.36452632,5.16789474 C4.365,5.16836842 4.36547368,5.16836842 4.36547368,5.16884211 C4.36973684,5.17168421 4.374,5.17452632 4.37826316,5.17689474 C4.37921053,5.17736842 4.38015789,5.17831579 4.38110526,5.17878947 C4.38536842,5.18115789 4.38963158,5.18352632 4.39389474,5.18589474 C4.39484211,5.18636842 4.39578947,5.18684211 4.39673684,5.18731579 C4.40147368,5.18968421 4.40621053,5.19157895 4.41142105,5.19394737 C4.41426316,5.19536842 4.41757895,5.19631579 4.42042105,5.19726316 C4.42231579,5.19773684 4.42421053,5.19868421 4.42657895,5.19963158 C4.42989474,5.20057895 4.43321053,5.20152632 4.43652632,5.20247368 C4.43842105,5.20294737 4.44031579,5.20342105 4.44221053,5.20389474 C4.44552632,5.20484211 4.44884211,5.20531579 4.45263158,5.20626316 C4.45452632,5.20673684 4.45642105,5.20721053 4.45831579,5.20721053 C4.46163158,5.20768421 4.46494737,5.20815789 4.46826316,5.20863158 C4.47063158,5.20910526 4.473,5.20910526 4.47536842,5.20957895 C4.47821053,5.21005263 4.48105263,5.21005263 4.48389474,5.21052632 C4.48815789,5.211 4.49242105,5.211 4.49668421,5.211 C4.49763158,5.211 4.49857895,5.211 4.49952632,5.211 C4.49952632,5.211 4.49952632,5.211 4.49952632,5.211 C4.49952632,5.211 4.49952632,5.211 4.5,5.211 C4.509,5.211 4.51752632,5.21052632 4.52652632,5.20957895 C4.527,5.20957895 4.52747368,5.20957895 4.52794737,5.20957895 C4.53647368,5.20863158 4.545,5.20721053 4.55352632,5.20484211 C4.55447368,5.20484211 4.55494737,5.20436842 4.55589474,5.20436842 C4.56394737,5.20247368 4.572,5.20010526 4.57957895,5.19726316 C4.581,5.19678947 4.58242105,5.19631579 4.58336842,5.19584211 C4.59094737,5.193 4.59805263,5.19015789 4.60515789,5.18636842 C4.60705263,5.18542105 4.60847368,5.18447368 4.61036842,5.18352632 C4.61273684,5.18210526 4.61557895,5.18115789 4.61794737,5.17973684 L7.07921053,3.75868421 C7.19242105,3.69331579 7.23126316,3.54836842 7.16589474,3.43515789 L7.16636842,3.43421053 Z" id="Shape"></path>
                </g>
            </g>
            <path d="M0.5,278.5 L368.586946,278.5" id="Line" stroke="#DDDDDD" stroke-linecap="square"></path>
            <g id="Group" transform="translate(25.000000, 311.000000)">
                <text id="Lorem-ipsum-dolor-si" font-family="Roboto-Regular, Roboto" font-size="13" font-weight="normal" letter-spacing="0.200000003" fill="#6B6B6B">
                    <tspan x="0" y="12">Lorem ipsum </tspan>
                    <tspan x="81.5171875" y="12" font-family="Roboto-Bold, Roboto" font-weight="bold">dolor sit amet</tspan>
                    <tspan x="165.173633" y="12">, consectetuer </tspan>
                    <tspan x="0" y="27">adipiscing elit, sed diam nonummy nibh euismod</tspan>
                </text>
                <text id="Há-3-dias" font-family=".SFNSText, .SF NS Text" font-size="11" font-weight="normal" letter-spacing="0.169230774" fill="#727272">
                    <tspan x="15" y="48">Há 3 dias</tspan>
                </text>
                <g id="clock" transform="translate(2.000000, 39.000000)" fill-rule="nonzero" fill="#727272">
                    <path d="M7.73052632,8.10615789 C8.54952632,7.26205263 9,6.15268421 9,4.97368421 C9,3.85105263 8.59168421,2.79094737 7.84515789,1.96342105 L8.17105263,1.63752632 L8.47752632,1.94352632 C8.52394737,1.98994737 8.58457895,2.01268421 8.64473684,2.01268421 C8.70489474,2.01268421 8.766,1.98947368 8.81194737,1.94352632 C8.90431579,1.85115789 8.90431579,1.701 8.81194737,1.60863158 L7.86457895,0.661263158 C7.77221053,0.568894737 7.62205263,0.568894737 7.52968421,0.661263158 C7.43731579,0.753631579 7.43731579,0.903789474 7.52968421,0.996157895 L7.83615789,1.30215789 L7.51026316,1.62805263 C6.68273684,0.881526316 5.62263158,0.473210526 4.5,0.473210526 C3.37736842,0.473210526 2.31726316,0.881526316 1.48973684,1.62805263 L1.16384211,1.30215789 L1.46984211,0.996157895 C1.56221053,0.903789474 1.56221053,0.753631579 1.46984211,0.661263158 C1.37747368,0.568894737 1.22731579,0.568894737 1.13494737,0.661263158 L0.187578947,1.60863158 C0.0952105263,1.701 0.0952105263,1.85115789 0.187578947,1.94352632 C0.234,1.98994737 0.294631579,2.01268421 0.355263158,2.01268421 C0.415894737,2.01268421 0.476526316,1.98947368 0.522947368,1.94352632 L0.828947368,1.63752632 L1.15484211,1.96342105 C0.408315789,2.79094737 -1.77635684e-15,3.85105263 -1.77635684e-15,4.97368421 C-1.77635684e-15,6.15268421 0.450473684,7.26205263 1.26947368,8.10615789 L0.306,9.06963158 C0.213631579,9.162 0.213631579,9.31215789 0.306,9.40452632 C0.352421053,9.45094737 0.413052632,9.47415789 0.473684211,9.47415789 C0.534315789,9.47415789 0.594947368,9.45094737 0.641368421,9.40452632 L1.61715789,8.42921053 C2.42478947,9.10563158 3.43421053,9.47415789 4.50047368,9.47415789 C5.56673684,9.47415789 6.57615789,9.10563158 7.38378947,8.42921053 L8.35910526,9.40452632 C8.40552632,9.45094737 8.46615789,9.47415789 8.52678947,9.47415789 C8.58742105,9.47415789 8.64805263,9.45094737 8.694,9.40452632 C8.78636842,9.31215789 8.78636842,9.162 8.694,9.06963158 L7.73052632,8.10615789 Z M0.473684211,4.97368421 C0.473684211,2.75352632 2.27984211,0.947368421 4.5,0.947368421 C6.72015789,0.947368421 8.52631579,2.75352632 8.52631579,4.97368421 C8.52631579,7.19384211 6.72015789,9 4.5,9 C2.27984211,9 0.473684211,7.19384211 0.473684211,4.97368421 Z" id="Shape"></path>
                    <path d="M7.16636842,3.43421053 C7.101,3.321 6.95605263,3.28215789 6.84284211,3.34752632 L4.51231579,4.69326316 L2.69573684,3.42142105 C2.58868421,3.34657895 2.44089474,3.37263158 2.36605263,3.47968421 C2.29121053,3.58673684 2.31726316,3.73452632 2.42431579,3.80936842 L4.36452632,5.16789474 C4.365,5.16836842 4.36547368,5.16836842 4.36547368,5.16884211 C4.36973684,5.17168421 4.374,5.17452632 4.37826316,5.17689474 C4.37921053,5.17736842 4.38015789,5.17831579 4.38110526,5.17878947 C4.38536842,5.18115789 4.38963158,5.18352632 4.39389474,5.18589474 C4.39484211,5.18636842 4.39578947,5.18684211 4.39673684,5.18731579 C4.40147368,5.18968421 4.40621053,5.19157895 4.41142105,5.19394737 C4.41426316,5.19536842 4.41757895,5.19631579 4.42042105,5.19726316 C4.42231579,5.19773684 4.42421053,5.19868421 4.42657895,5.19963158 C4.42989474,5.20057895 4.43321053,5.20152632 4.43652632,5.20247368 C4.43842105,5.20294737 4.44031579,5.20342105 4.44221053,5.20389474 C4.44552632,5.20484211 4.44884211,5.20531579 4.45263158,5.20626316 C4.45452632,5.20673684 4.45642105,5.20721053 4.45831579,5.20721053 C4.46163158,5.20768421 4.46494737,5.20815789 4.46826316,5.20863158 C4.47063158,5.20910526 4.473,5.20910526 4.47536842,5.20957895 C4.47821053,5.21005263 4.48105263,5.21005263 4.48389474,5.21052632 C4.48815789,5.211 4.49242105,5.211 4.49668421,5.211 C4.49763158,5.211 4.49857895,5.211 4.49952632,5.211 C4.49952632,5.211 4.49952632,5.211 4.49952632,5.211 C4.49952632,5.211 4.49952632,5.211 4.5,5.211 C4.509,5.211 4.51752632,5.21052632 4.52652632,5.20957895 C4.527,5.20957895 4.52747368,5.20957895 4.52794737,5.20957895 C4.53647368,5.20863158 4.545,5.20721053 4.55352632,5.20484211 C4.55447368,5.20484211 4.55494737,5.20436842 4.55589474,5.20436842 C4.56394737,5.20247368 4.572,5.20010526 4.57957895,5.19726316 C4.581,5.19678947 4.58242105,5.19631579 4.58336842,5.19584211 C4.59094737,5.193 4.59805263,5.19015789 4.60515789,5.18636842 C4.60705263,5.18542105 4.60847368,5.18447368 4.61036842,5.18352632 C4.61273684,5.18210526 4.61557895,5.18115789 4.61794737,5.17973684 L7.07921053,3.75868421 C7.19242105,3.69331579 7.23126316,3.54836842 7.16589474,3.43515789 L7.16636842,3.43421053 Z" id="Shape"></path>
                </g>
            </g>
            <g id="Group-Copy" transform="translate(25.000000, 427.000000)">
                <text id="Lorem-ipsum-dolor-si" font-family="Roboto-Regular, Roboto" font-size="13" font-weight="normal" letter-spacing="0.200000003" fill="#6B6B6B">
                    <tspan x="0" y="12">Lorem ipsum </tspan>
                    <tspan x="81.5171875" y="12" font-family="Roboto-Bold, Roboto" font-weight="bold">dolor sit amet</tspan>
                    <tspan x="165.173633" y="12">, consectetuer </tspan>
                    <tspan x="0" y="27">adipiscing elit, sed diam nonummy nibh euismod</tspan>
                </text>
                <text id="Há-3-dias" font-family=".SFNSText, .SF NS Text" font-size="11" font-weight="normal" letter-spacing="0.169230774" fill="#727272">
                    <tspan x="15" y="48">Há 3 dias</tspan>
                </text>
                <g id="clock" transform="translate(2.000000, 39.000000)" fill-rule="nonzero" fill="#727272">
                    <path d="M7.73052632,8.10615789 C8.54952632,7.26205263 9,6.15268421 9,4.97368421 C9,3.85105263 8.59168421,2.79094737 7.84515789,1.96342105 L8.17105263,1.63752632 L8.47752632,1.94352632 C8.52394737,1.98994737 8.58457895,2.01268421 8.64473684,2.01268421 C8.70489474,2.01268421 8.766,1.98947368 8.81194737,1.94352632 C8.90431579,1.85115789 8.90431579,1.701 8.81194737,1.60863158 L7.86457895,0.661263158 C7.77221053,0.568894737 7.62205263,0.568894737 7.52968421,0.661263158 C7.43731579,0.753631579 7.43731579,0.903789474 7.52968421,0.996157895 L7.83615789,1.30215789 L7.51026316,1.62805263 C6.68273684,0.881526316 5.62263158,0.473210526 4.5,0.473210526 C3.37736842,0.473210526 2.31726316,0.881526316 1.48973684,1.62805263 L1.16384211,1.30215789 L1.46984211,0.996157895 C1.56221053,0.903789474 1.56221053,0.753631579 1.46984211,0.661263158 C1.37747368,0.568894737 1.22731579,0.568894737 1.13494737,0.661263158 L0.187578947,1.60863158 C0.0952105263,1.701 0.0952105263,1.85115789 0.187578947,1.94352632 C0.234,1.98994737 0.294631579,2.01268421 0.355263158,2.01268421 C0.415894737,2.01268421 0.476526316,1.98947368 0.522947368,1.94352632 L0.828947368,1.63752632 L1.15484211,1.96342105 C0.408315789,2.79094737 -1.77635684e-15,3.85105263 -1.77635684e-15,4.97368421 C-1.77635684e-15,6.15268421 0.450473684,7.26205263 1.26947368,8.10615789 L0.306,9.06963158 C0.213631579,9.162 0.213631579,9.31215789 0.306,9.40452632 C0.352421053,9.45094737 0.413052632,9.47415789 0.473684211,9.47415789 C0.534315789,9.47415789 0.594947368,9.45094737 0.641368421,9.40452632 L1.61715789,8.42921053 C2.42478947,9.10563158 3.43421053,9.47415789 4.50047368,9.47415789 C5.56673684,9.47415789 6.57615789,9.10563158 7.38378947,8.42921053 L8.35910526,9.40452632 C8.40552632,9.45094737 8.46615789,9.47415789 8.52678947,9.47415789 C8.58742105,9.47415789 8.64805263,9.45094737 8.694,9.40452632 C8.78636842,9.31215789 8.78636842,9.162 8.694,9.06963158 L7.73052632,8.10615789 Z M0.473684211,4.97368421 C0.473684211,2.75352632 2.27984211,0.947368421 4.5,0.947368421 C6.72015789,0.947368421 8.52631579,2.75352632 8.52631579,4.97368421 C8.52631579,7.19384211 6.72015789,9 4.5,9 C2.27984211,9 0.473684211,7.19384211 0.473684211,4.97368421 Z" id="Shape"></path>
                    <path d="M7.16636842,3.43421053 C7.101,3.321 6.95605263,3.28215789 6.84284211,3.34752632 L4.51231579,4.69326316 L2.69573684,3.42142105 C2.58868421,3.34657895 2.44089474,3.37263158 2.36605263,3.47968421 C2.29121053,3.58673684 2.31726316,3.73452632 2.42431579,3.80936842 L4.36452632,5.16789474 C4.365,5.16836842 4.36547368,5.16836842 4.36547368,5.16884211 C4.36973684,5.17168421 4.374,5.17452632 4.37826316,5.17689474 C4.37921053,5.17736842 4.38015789,5.17831579 4.38110526,5.17878947 C4.38536842,5.18115789 4.38963158,5.18352632 4.39389474,5.18589474 C4.39484211,5.18636842 4.39578947,5.18684211 4.39673684,5.18731579 C4.40147368,5.18968421 4.40621053,5.19157895 4.41142105,5.19394737 C4.41426316,5.19536842 4.41757895,5.19631579 4.42042105,5.19726316 C4.42231579,5.19773684 4.42421053,5.19868421 4.42657895,5.19963158 C4.42989474,5.20057895 4.43321053,5.20152632 4.43652632,5.20247368 C4.43842105,5.20294737 4.44031579,5.20342105 4.44221053,5.20389474 C4.44552632,5.20484211 4.44884211,5.20531579 4.45263158,5.20626316 C4.45452632,5.20673684 4.45642105,5.20721053 4.45831579,5.20721053 C4.46163158,5.20768421 4.46494737,5.20815789 4.46826316,5.20863158 C4.47063158,5.20910526 4.473,5.20910526 4.47536842,5.20957895 C4.47821053,5.21005263 4.48105263,5.21005263 4.48389474,5.21052632 C4.48815789,5.211 4.49242105,5.211 4.49668421,5.211 C4.49763158,5.211 4.49857895,5.211 4.49952632,5.211 C4.49952632,5.211 4.49952632,5.211 4.49952632,5.211 C4.49952632,5.211 4.49952632,5.211 4.5,5.211 C4.509,5.211 4.51752632,5.21052632 4.52652632,5.20957895 C4.527,5.20957895 4.52747368,5.20957895 4.52794737,5.20957895 C4.53647368,5.20863158 4.545,5.20721053 4.55352632,5.20484211 C4.55447368,5.20484211 4.55494737,5.20436842 4.55589474,5.20436842 C4.56394737,5.20247368 4.572,5.20010526 4.57957895,5.19726316 C4.581,5.19678947 4.58242105,5.19631579 4.58336842,5.19584211 C4.59094737,5.193 4.59805263,5.19015789 4.60515789,5.18636842 C4.60705263,5.18542105 4.60847368,5.18447368 4.61036842,5.18352632 C4.61273684,5.18210526 4.61557895,5.18115789 4.61794737,5.17973684 L7.07921053,3.75868421 C7.19242105,3.69331579 7.23126316,3.54836842 7.16589474,3.43515789 L7.16636842,3.43421053 Z" id="Shape"></path>
                </g>
            </g>
            <g id="Group-Copy-2" transform="translate(24.000000, 541.000000)">
                <text id="Lorem-ipsum-dolor-si" font-family="Roboto-Regular, Roboto" font-size="13" font-weight="normal" letter-spacing="0.200000003" fill="#6B6B6B">
                    <tspan x="0" y="12">Lorem ipsum </tspan>
                    <tspan x="81.5171875" y="12" font-family="Roboto-Bold, Roboto" font-weight="bold">dolor sit amet</tspan>
                    <tspan x="165.173633" y="12">, consectetuer </tspan>
                    <tspan x="0" y="27">adipiscing elit, sed diam nonummy nibh euismod</tspan>
                </text>
                <text id="Há-3-dias" font-family=".SFNSText, .SF NS Text" font-size="11" font-weight="normal" letter-spacing="0.169230774" fill="#727272">
                    <tspan x="15" y="48">Há 3 dias</tspan>
                </text>
                <g id="clock" transform="translate(2.000000, 39.000000)" fill-rule="nonzero" fill="#727272">
                    <path d="M7.73052632,8.10615789 C8.54952632,7.26205263 9,6.15268421 9,4.97368421 C9,3.85105263 8.59168421,2.79094737 7.84515789,1.96342105 L8.17105263,1.63752632 L8.47752632,1.94352632 C8.52394737,1.98994737 8.58457895,2.01268421 8.64473684,2.01268421 C8.70489474,2.01268421 8.766,1.98947368 8.81194737,1.94352632 C8.90431579,1.85115789 8.90431579,1.701 8.81194737,1.60863158 L7.86457895,0.661263158 C7.77221053,0.568894737 7.62205263,0.568894737 7.52968421,0.661263158 C7.43731579,0.753631579 7.43731579,0.903789474 7.52968421,0.996157895 L7.83615789,1.30215789 L7.51026316,1.62805263 C6.68273684,0.881526316 5.62263158,0.473210526 4.5,0.473210526 C3.37736842,0.473210526 2.31726316,0.881526316 1.48973684,1.62805263 L1.16384211,1.30215789 L1.46984211,0.996157895 C1.56221053,0.903789474 1.56221053,0.753631579 1.46984211,0.661263158 C1.37747368,0.568894737 1.22731579,0.568894737 1.13494737,0.661263158 L0.187578947,1.60863158 C0.0952105263,1.701 0.0952105263,1.85115789 0.187578947,1.94352632 C0.234,1.98994737 0.294631579,2.01268421 0.355263158,2.01268421 C0.415894737,2.01268421 0.476526316,1.98947368 0.522947368,1.94352632 L0.828947368,1.63752632 L1.15484211,1.96342105 C0.408315789,2.79094737 -1.77635684e-15,3.85105263 -1.77635684e-15,4.97368421 C-1.77635684e-15,6.15268421 0.450473684,7.26205263 1.26947368,8.10615789 L0.306,9.06963158 C0.213631579,9.162 0.213631579,9.31215789 0.306,9.40452632 C0.352421053,9.45094737 0.413052632,9.47415789 0.473684211,9.47415789 C0.534315789,9.47415789 0.594947368,9.45094737 0.641368421,9.40452632 L1.61715789,8.42921053 C2.42478947,9.10563158 3.43421053,9.47415789 4.50047368,9.47415789 C5.56673684,9.47415789 6.57615789,9.10563158 7.38378947,8.42921053 L8.35910526,9.40452632 C8.40552632,9.45094737 8.46615789,9.47415789 8.52678947,9.47415789 C8.58742105,9.47415789 8.64805263,9.45094737 8.694,9.40452632 C8.78636842,9.31215789 8.78636842,9.162 8.694,9.06963158 L7.73052632,8.10615789 Z M0.473684211,4.97368421 C0.473684211,2.75352632 2.27984211,0.947368421 4.5,0.947368421 C6.72015789,0.947368421 8.52631579,2.75352632 8.52631579,4.97368421 C8.52631579,7.19384211 6.72015789,9 4.5,9 C2.27984211,9 0.473684211,7.19384211 0.473684211,4.97368421 Z" id="Shape"></path>
                    <path d="M7.16636842,3.43421053 C7.101,3.321 6.95605263,3.28215789 6.84284211,3.34752632 L4.51231579,4.69326316 L2.69573684,3.42142105 C2.58868421,3.34657895 2.44089474,3.37263158 2.36605263,3.47968421 C2.29121053,3.58673684 2.31726316,3.73452632 2.42431579,3.80936842 L4.36452632,5.16789474 C4.365,5.16836842 4.36547368,5.16836842 4.36547368,5.16884211 C4.36973684,5.17168421 4.374,5.17452632 4.37826316,5.17689474 C4.37921053,5.17736842 4.38015789,5.17831579 4.38110526,5.17878947 C4.38536842,5.18115789 4.38963158,5.18352632 4.39389474,5.18589474 C4.39484211,5.18636842 4.39578947,5.18684211 4.39673684,5.18731579 C4.40147368,5.18968421 4.40621053,5.19157895 4.41142105,5.19394737 C4.41426316,5.19536842 4.41757895,5.19631579 4.42042105,5.19726316 C4.42231579,5.19773684 4.42421053,5.19868421 4.42657895,5.19963158 C4.42989474,5.20057895 4.43321053,5.20152632 4.43652632,5.20247368 C4.43842105,5.20294737 4.44031579,5.20342105 4.44221053,5.20389474 C4.44552632,5.20484211 4.44884211,5.20531579 4.45263158,5.20626316 C4.45452632,5.20673684 4.45642105,5.20721053 4.45831579,5.20721053 C4.46163158,5.20768421 4.46494737,5.20815789 4.46826316,5.20863158 C4.47063158,5.20910526 4.473,5.20910526 4.47536842,5.20957895 C4.47821053,5.21005263 4.48105263,5.21005263 4.48389474,5.21052632 C4.48815789,5.211 4.49242105,5.211 4.49668421,5.211 C4.49763158,5.211 4.49857895,5.211 4.49952632,5.211 C4.49952632,5.211 4.49952632,5.211 4.49952632,5.211 C4.49952632,5.211 4.49952632,5.211 4.5,5.211 C4.509,5.211 4.51752632,5.21052632 4.52652632,5.20957895 C4.527,5.20957895 4.52747368,5.20957895 4.52794737,5.20957895 C4.53647368,5.20863158 4.545,5.20721053 4.55352632,5.20484211 C4.55447368,5.20484211 4.55494737,5.20436842 4.55589474,5.20436842 C4.56394737,5.20247368 4.572,5.20010526 4.57957895,5.19726316 C4.581,5.19678947 4.58242105,5.19631579 4.58336842,5.19584211 C4.59094737,5.193 4.59805263,5.19015789 4.60515789,5.18636842 C4.60705263,5.18542105 4.60847368,5.18447368 4.61036842,5.18352632 C4.61273684,5.18210526 4.61557895,5.18115789 4.61794737,5.17973684 L7.07921053,3.75868421 C7.19242105,3.69331579 7.23126316,3.54836842 7.16589474,3.43515789 L7.16636842,3.43421053 Z" id="Shape"></path>
                </g>
            </g>
            <path d="M0.5,393.5 L368.586946,393.5" id="Line" stroke="#DDDDDD" stroke-linecap="square"></path>
            <path d="M0.5,509.5 L368.586946,509.5" id="Line-Copy" stroke="#DDDDDD" stroke-linecap="square"></path>
            <path d="M-0.5,623.5 L367.586946,623.5" id="Line-Copy-2" stroke="#DDDDDD" stroke-linecap="square"></path>
        </g>
    </g>
</svg>