<?xml version="1.0" encoding="UTF-8"?>
<svg width="360px" height="640px" viewBox="0 0 360 640" version="1.1" xmlns="http://www.w3.org/2000/svg" xmlns:xlink="http://www.w3.org/1999/xlink">
    <!-- Generator: Sketch 46.2 (44496) - http://www.bohemiancoding.com/sketch -->
    <title>onboarding 3</title>
    <desc>Created with Sketch.</desc>
    <defs>
        <rect id="path-1" x="0" y="0" width="360" height="640"></rect>
        <linearGradient x1="0%" y1="0%" x2="100%" y2="100%" id="linearGradient-2">
            <stop stop-color="#FAD295" offset="0%"></stop>
            <stop stop-color="#F145A9" offset="33.8208008%"></stop>
            <stop stop-color="#115B84" offset="100%"></stop>
        </linearGradient>
        <rect id="path-3" x="0" y="0" width="360" height="640"></rect>
    </defs>
    <g id="App" stroke="none" stroke-width="1" fill="none" fill-rule="evenodd">
        <g id="onboarding-3">
            <g id="BG">
                <use fill="#FFFFFF" fill-rule="evenodd" xlink:href="#path-1"></use>
                <rect stroke="#979797" stroke-width="1" x="0.5" y="0.5" width="359" height="639"></rect>
            </g>
            <g id="BG">
                <use fill="url(#linearGradient-2)" fill-rule="evenodd" xlink:href="#path-3"></use>
                <rect stroke="#979797" stroke-width="1" x="0.5" y="0.5" width="359" height="639"></rect>
            </g>
            <g id="Group" transform="translate(-77.000000, 202.000000)">
                <circle id="Oval" fill-opacity="0.593353714" fill="#F363B2" fill-rule="nonzero" cx="266.5" cy="266.5" r="266.5"></circle>
                <g transform="translate(273.000000, 98.000000)" id="Shape">
                    <path d="M208.94811,251.262016 C206.02687,255.887725 204.079377,260.756892 202.862194,265.869517 C201.645011,270.738685 198.967208,274.877477 195.559095,278.529352 C194.828785,279.503185 193.368166,280.720477 192.150983,280.720477 C189.229743,280.720477 186.795377,281.937769 184.361011,282.668144 C181.196335,283.641977 178.275095,283.641977 175.353856,281.69431 C172.919489,279.990102 170.241687,279.016269 168.050757,277.798977 C164.399208,278.285894 162.208278,279.990102 160.747658,282.911602 C160.017348,284.372352 159.043602,285.589644 158.313292,287.050394 C153.931433,296.301812 146.628334,302.631729 137.377743,306.527063 C135.43025,307.257438 133.482757,308.231271 131.535264,309.205105 C127.640278,310.665855 123.745292,311.883146 119.606869,310.909313 C114.007827,309.93548 108.408784,308.961646 103.053179,307.257438 C95.0197702,304.822854 89.6641645,299.223312 85.0388686,292.893395 C83.5782489,290.945728 82.6045024,288.754603 81.6307559,286.806936 C79.9266996,283.885436 78.9529531,283.641977 75.5448404,284.859269 C71.1629812,286.320019 67.0245586,286.320019 63.3730092,283.155061 C61.1820796,281.207394 58.99115,279.259727 57.043657,277.068602 C56.0699106,276.094768 55.0961641,275.364393 53.6355443,275.364393 C49.983995,275.120935 47.7930654,272.92981 45.8455724,269.764851 C43.6546428,266.112976 40.97684,262.704559 38.7859104,259.296142 C36.5949807,258.809225 34.8909244,258.322308 33.186868,258.07885 C28.8050088,257.105017 26.127206,258.809225 26.127206,263.434934 C25.8837694,269.034476 25.8837694,274.877477 27.1009525,280.477019 C28.8050088,288.511144 30.0221919,296.54527 31.4828117,304.822854 C31.9696849,308.231271 31.9696849,311.883146 32.4565582,315.291563 C32.9434314,320.16073 33.6737413,325.029898 34.6474878,329.899065 C35.3777976,333.794398 35.6212343,337.93319 35.6212343,341.828524 C38.0556005,343.289274 40.7334033,344.506566 43.6546428,345.480399 C49.4971217,347.428066 55.5830373,348.888816 61.6689529,349.86265 C59.7214599,346.941149 58.5042768,343.776191 58.7477134,340.124316 C56.0699106,331.846731 56.0699106,323.082231 54.1224176,314.804647 C53.6355443,312.613521 52.9052345,310.178938 52.4183612,307.987813 C52.1749246,307.257438 52.1749246,306.527063 52.1749246,305.796688 C52.1749246,305.553229 52.6617978,305.066312 52.9052345,304.579396 C53.1486711,305.066312 53.6355443,305.309771 53.878981,305.553229 C55.0961641,308.718188 56.3133472,312.126605 57.5305303,315.291563 C58.0174035,316.508855 58.7477134,317.726147 58.99115,319.186897 C60.4517698,326.490648 61.9123895,334.037857 63.6164459,341.585066 C64.1033191,344.506566 64.5901923,347.428066 64.833629,350.593025 C65.8073755,350.836483 66.781122,350.836483 67.9983051,351.079941 C83.5782489,353.027608 99.1581928,353.271067 114.981573,352.78415 C138.108052,352.053775 161.721405,350.593025 183.874137,344.506566 C183.630701,343.776191 183.630701,343.045816 183.630701,342.315441 C183.630701,338.176649 183.874137,334.037857 184.361011,330.142523 C184.847884,325.760273 185.82163,321.378022 186.55194,316.995772 C187.28225,312.126605 188.986306,307.744354 193.124729,302.875187 C193.124729,304.579396 193.368166,305.553229 193.124729,306.040146 C191.177236,309.448563 191.177236,313.100438 191.177236,316.752314 C191.177236,319.430355 190.933799,322.108397 190.690363,325.029898 C190.446926,330.142523 189.960053,335.01169 189.47318,340.124316 C189.47318,341.098149 189.229743,342.071982 188.986306,343.045816 C195.072222,341.098149 200.914701,338.907024 206.75718,336.228982 C208.704673,329.16869 210.408729,322.108397 212.356222,315.048105 C215.764335,301.170979 217.955265,287.050394 217.955265,272.686351 C217.955265,270.495226 217.955265,268.304101 217.955265,266.112976 C218.198701,261.487267 217.468391,257.105017 215.277462,252.966225 C212.599659,250.775099 210.895603,250.775099 208.94811,251.262016 Z" fill="#FFFFFF" fill-rule="nonzero"></path>
                    <path d="M56.2758737,269.187237 C51.1672283,266.275757 47.274927,261.908538 44.5989699,256.81345 C39.9768621,255.35771 39.9768621,255.35771 38.2739803,251.233114 C37.0576361,248.321635 35.841292,245.410156 34.381679,242.7413 C32.4355284,238.616704 31.2191842,234.249485 30.4893777,229.882266 C30.2461089,227.94128 30.0028401,226.000294 29.2730336,224.059308 C27.0836141,218.964219 26.8403453,213.86913 26.8403453,208.531418 C26.8403453,207.318302 26.5970765,205.862562 26.3538076,203.678953 C25.3807323,204.649446 24.6509258,205.134693 24.6509258,205.619939 C24.407657,206.833056 24.407657,208.046172 24.407657,209.016665 C24.8941947,215.32487 24.6509258,221.633075 25.86727,227.698657 C27.0836141,233.278992 29.5163024,238.859328 31.4624531,244.19704 C32.4355284,246.865896 33.8951414,249.534751 35.3547543,252.688854 C33.6518725,252.688854 32.922066,252.446231 31.9489907,252.446231 C30.4893777,252.446231 28.7864959,252.446231 27.326883,252.688854 C24.407657,253.174101 22.2182375,254.62984 21.488431,257.783943 C21.2451622,258.754436 20.7586246,259.967552 20.2720869,260.938045 C16.6230545,261.180669 13.2172908,260.695422 10.0547961,258.511813 C7.86537659,256.81345 4.70288181,256.81345 3,253.90197 C3,253.174101 3,252.203607 3.24326883,251.233114 C4.94615064,246.138026 6.89230127,241.28556 9.81152723,236.918341 C11.7576779,234.006862 12.974022,230.610136 13.9470973,227.21341 C16.3797856,218.478973 19.0557428,209.987158 19.7855492,201.010097 C20.0288181,198.341241 20.2720869,195.672385 20.2720869,192.760906 C20.2720869,184.026468 20.0288181,175.29203 20.2720869,166.557592 C20.7586246,158.308401 20.0288181,150.05921 19.7855492,142.052642 C19.5422804,134.53132 19.5422804,127.252622 19.2990116,119.731301 C19.2990116,116.334575 18.8124739,113.180473 18.8124739,109.783747 C18.5692051,104.446035 18.3259363,99.350946 18.3259363,94.013234 C18.3259363,92.5574944 18.5692051,91.344378 19.0557428,89.8886384 C21.488431,80.9115773 23.6778505,71.691893 26.1105388,62.7148319 C26.5970765,60.7738457 27.326883,59.0754828 28.0566894,57.1344966 C28.5432271,55.9213803 29.0297648,54.9508872 29.2730336,53.9803941 C30.4893777,47.9148123 34.1384102,42.8197236 37.7874426,38.2098814 C42.6528192,31.9016763 48.0047335,25.8360945 54.5729919,21.2262523 C57.9787555,18.8000196 61.3845191,16.6164102 65.2768204,15.1606705 C74.5210359,11.7639447 84.0085202,9.33771199 93.9825423,9.58033526 C101.037338,9.58033526 108.092134,9.33771199 115.14693,9.33771199 C115.390199,9.33771199 115.876737,9.09508872 116.120006,8.85246544 C116.606543,7.88197236 115.633468,7.63934908 115.14693,7.15410254 C113.930586,6.18360945 114.173855,4.97049309 115.390199,4.48524654 C116.606543,4.24262327 117.579619,4 118.795963,4 C123.661339,4.24262327 128.526716,4 133.392093,4.72786982 C142.393039,6.18360945 151.150717,7.88197236 159.178589,12.2491913 C162.827621,14.1901774 166.476653,16.1311636 169.882417,18.3147731 C177.66702,23.1672385 184.721816,29.2328203 190.316999,36.5115185 C191.046805,37.4820116 192.019881,38.6951279 192.992956,39.665621 C199.317945,45.2459563 203.210247,52.7672777 207.832355,59.8033526 C208.80543,61.2590922 209.291967,62.9574552 210.021774,64.6558181 C214.400613,74.8459955 217.07657,85.7640427 219.265989,96.68209 C220.968871,105.659151 222.428484,114.636212 222.185215,124.09852 C222.185215,128.708362 222.428484,133.318204 223.888097,137.928046 C224.861173,140.596902 224.374635,143.751005 224.374635,146.662484 C224.131366,156.852662 224.131366,167.042839 223.888097,177.233016 C223.644828,187.180571 225.34771,197.128125 226.564054,206.833056 C226.807323,209.259288 227.293861,211.928144 227.293861,214.354377 C227.293861,218.721596 228.023667,222.846192 229.240012,226.970787 C230.942893,233.764239 232.889044,240.55769 235.321732,247.108519 C236.538076,250.747868 236.294808,253.90197 233.132313,256.570826 C230.699624,258.754436 228.996743,261.180669 228.510205,264.577394 C228.266936,265.547887 228.023667,266.518381 227.293861,267.24625 C226.320786,268.459367 225.104441,269.42986 223.158291,268.944613 C222.185215,266.275757 222.428484,263.606901 222.671753,260.938045 C222.915022,256.570826 221.21214,252.931477 219.752527,249.049505 C218.779452,246.623272 216.833301,244.924909 213.914075,244.682286 C213.184269,244.682286 212.454462,244.439663 211.481387,244.439663 C210.265043,241.770807 209.291967,239.101951 208.075623,236.433095 C206.129473,238.131458 205.886204,240.55769 205.399666,242.7413 C203.210247,250.019998 201.264096,257.298696 199.074677,264.577394 C197.371795,270.642976 192.749687,274.282325 187.154504,276.708558 C183.505472,278.406921 179.61317,278.406921 175.964138,275.980688 C175.720869,275.738065 175.234331,275.738065 174.991063,275.495442 C169.882417,271.856093 164.530503,271.856093 158.93532,273.554455 C154.556481,275.010195 150.907448,273.797079 147.501685,271.128223 C146.285341,270.15773 145.312265,269.187237 143.609383,267.731497 C144.825728,267.24625 145.798803,266.761004 146.528609,266.761004 C152.367061,266.033134 156.989169,262.393785 161.854546,259.482306 C163.07089,258.754436 163.800696,257.541319 164.530503,256.328203 C169.395879,247.351142 174.747794,238.616704 177.423751,228.66915 C178.883364,223.331438 179.856439,217.993726 180.829514,212.656014 C182.045859,205.619939 183.505472,198.341241 183.262203,191.062543 C185.451622,177.960886 184.721816,164.859229 184.478547,152.000196 C184.235278,142.537888 184.235278,132.832958 183.505472,123.37065 C182.775665,115.364082 181.559321,107.600137 178.396826,100.078816 C177.423751,97.6525831 176.693944,94.9837271 175.720869,92.5574944 C174.991063,97.8952064 177.423751,102.990295 177.180482,108.57063 C176.207407,108.085384 175.720869,108.085384 175.234331,107.600137 C172.558374,104.931281 169.395879,102.990295 166.719922,100.564062 C161.124739,95.7115969 154.313212,93.2853642 147.744954,90.3738849 C141.176695,87.4624056 134.365168,84.7935497 127.79691,81.8820704 C122.931533,79.6984609 118.309425,77.2722282 115.390199,71.9345162 C114.417124,67.8099206 116.363275,63.685325 117.822888,59.5607293 C118.309425,58.347613 119.039232,57.1344966 119.282501,55.678757 C119.525769,52.5246544 118.795963,49.8557985 115.390199,48.6426821 C115.14693,39.1803745 114.903662,30.2033134 114.660393,20.9836291 C114.660393,19.7705127 114.417124,18.5573963 114.173855,17.5869032 C113.930586,17.1016567 113.20078,16.6164102 112.957511,16.1311636 C111.254629,16.6164102 111.254629,17.5869032 111.254629,18.5573963 C111.254629,23.6524851 111.254629,28.7475738 111.254629,33.8426625 C111.254629,34.5705323 111.497898,35.2984021 111.741167,36.0262719 C113.20078,39.9082443 112.957511,43.5475934 111.741167,47.4295657 C111.497898,47.9148123 111.497898,48.6426821 111.497898,49.6131752 C112.957511,50.5836683 114.417124,51.7967846 115.633468,53.009901 C116.363275,54.9508872 115.14693,56.1640035 114.417124,57.3771199 C112.714242,60.2885992 111.497898,63.2000784 112.714242,66.8394275 C113.444049,69.2656602 111.01136,73.6328791 108.821941,74.8459955 C106.145984,76.3017351 103.226758,77.5148515 100.307532,78.7279678 C95.9286929,80.4263308 91.549854,81.8820704 87.171015,83.5804333 C77.4402619,87.7050289 69.4123905,93.5279875 64.7902827,102.990295 C64.5470139,103.718165 64.0604762,104.203411 63.5739386,104.931281 C63.5739386,104.931281 63.3306697,104.931281 62.8441321,105.173905 C62.1143256,102.747672 62.6008632,100.321439 63.3306697,97.8952064 C64.5470139,93.5279875 65.763358,89.1607686 66.9797022,85.0361729 C67.222971,84.3083031 66.9797022,83.33781 66.7364333,82.1246937 C64.5470139,83.33781 64.0604762,85.0361729 63.5739386,86.7345358 C61.8710568,91.1017547 60.4114438,95.4689736 58.708562,99.8361925 C57.9787555,101.777179 57.9787555,103.718165 57.4922178,105.659151 C55.789336,114.150966 55.3027984,122.64278 54.5729919,131.134595 C54.5729919,132.590334 54.5729919,133.803451 54.8162607,135.25919 C55.789336,140.596902 55.789336,145.691991 54.8162607,151.029703 C54.5729919,152.970689 54.5729919,154.911675 54.5729919,156.852662 C54.5729919,159.764141 55.0595295,162.67562 55.0595295,165.587099 C55.0595295,176.505147 56.5191425,187.423194 58.4652931,198.098618 C59.4383685,203.193706 59.4383685,208.288795 60.168175,213.141261 C61.3845191,221.633075 63.8172074,229.882266 67.222971,237.888834 C67.9527775,239.829821 68.9258528,241.770807 69.6556593,243.954416 C72.0883476,251.718361 75.9806489,258.754436 80.8460255,265.062641 C81.8191008,266.275757 82.7921761,267.488874 82.0623696,269.187237 C83.7652514,270.400353 85.4681332,271.856093 87.171015,272.826586 C88.630628,273.797079 90.3335098,274.524949 92.5229293,275.738065 C90.3335098,277.193805 88.1440904,277.679051 86.1979397,277.921674 C84.9815956,278.164298 83.7652514,277.921674 82.7921761,278.164298 C76.2239177,279.862661 69.8989281,278.892167 64.0604762,275.980688 C60.168175,274.282325 57.248949,272.583962 56.2758737,269.187237 C57.9787555,268.216743 58.9518308,271.613469 61.3845191,270.15773 C59.4383685,266.518381 57.4922178,263.121655 55.789336,259.482306 C53.8431854,255.600333 52.3835724,251.718361 50.6806906,247.593765 C48.9778088,243.954416 48.73454,239.829821 46.5451205,235.705225 C46.0585828,236.918341 45.815314,237.403588 45.5720452,237.646211 C45.0855075,241.28556 45.5720452,244.682286 47.0316582,248.079012 C49.2210776,253.416724 51.4104971,258.511813 53.8431854,263.606901 C54.5729919,265.547887 55.3027984,267.24625 56.2758737,269.187237 Z M192.749687,257.298696 C196.885257,246.138026 201.020827,234.977355 205.399666,223.816685 C207.589086,218.236349 209.048699,212.413391 210.021774,206.347809 C210.265043,204.892069 210.508312,203.193706 210.75158,201.737967 C214.400613,183.783845 215.860226,165.344476 215.616957,147.147731 C215.616957,143.751005 215.616957,140.596902 215.373688,137.200176 C215.373688,135.744437 215.373688,134.53132 215.130419,133.075581 C213.914075,127.980492 213.184269,122.64278 213.427538,117.305068 C213.427538,115.606705 213.184269,113.908342 211.238118,112.209979 C211.238118,118.032938 211.238118,123.37065 211.238118,128.708362 C211.238118,132.832958 211.724656,136.957553 211.724656,141.082149 C211.724656,150.05921 211.724656,159.036271 211.724656,168.013332 C211.724656,172.380551 211.481387,176.505147 210.75158,180.872365 C209.778505,187.90844 208.562161,195.187139 207.345817,202.223213 C206.129473,210.229781 204.183322,217.993726 201.507365,225.515048 C198.588139,234.492109 195.912182,243.46917 192.992956,252.446231 C192.749687,253.90197 192.263149,255.600333 192.749687,257.298696 C192.506418,257.541319 192.263149,257.783943 192.019881,258.026566 C192.263149,257.783943 192.506418,257.541319 192.749687,257.298696 Z M177.423751,252.446231 C177.910288,252.203607 178.396826,251.960984 178.640095,251.718361 C180.586246,248.564258 182.289127,245.167533 183.262203,241.528184 C185.93816,231.823253 188.614117,222.360945 191.533343,212.898637 C195.425644,201.010097 197.858332,188.63631 200.291021,176.505147 C200.53429,174.806784 200.53429,173.108421 200.777558,171.167435 C201.264096,152.485443 200.047752,133.803451 198.34487,115.121459 C198.34487,114.636212 198.101601,114.150966 197.858332,113.665719 C196.39872,114.150966 196.39872,115.121459 196.39872,116.091952 C196.155451,120.459171 196.155451,124.583766 196.155451,128.950985 C196.155451,143.023135 196.39872,157.095285 196.39872,171.167435 C196.39872,172.623174 196.39872,174.321537 196.155451,175.777277 C194.452569,184.269091 192.992956,192.760906 190.803536,201.010097 C187.88431,212.656014 184.721816,224.301931 181.559321,236.190472 C180.342977,240.55769 179.126633,244.924909 177.910288,249.049505 C177.180482,250.262621 176.693944,251.233114 177.423751,252.446231 Z M39.0037868,124.583766 C38.5172491,124.583766 38.2739803,124.583766 37.7874426,124.341143 C28.2999583,150.05921 30.2461089,176.505147 33.6518725,203.193706 C33.6518725,203.921576 33.8951414,204.649446 35.1114855,204.406823 C35.1114855,203.921576 35.3547543,203.43633 35.3547543,202.70846 C34.381679,187.423194 33.8951414,172.380551 34.381679,157.095285 C34.6249478,149.573963 35.841292,142.052642 37.0576361,134.53132 C37.5441738,131.134595 38.2739803,127.980492 39.0037868,124.583766 Z M49.4643464,91.1017547 C48.73454,91.5870013 48.2480023,91.8296245 48.0047335,92.3148711 C46.7883893,94.013234 46.7883893,95.9542202 46.7883893,97.8952064 C46.7883893,100.321439 46.5451205,102.990295 46.3018517,105.416528 C46.0585828,108.57063 45.5720452,111.724733 45.5720452,114.636212 C45.3287763,118.518184 45.5720452,122.400157 45.5720452,126.282129 C45.815314,136.957553 46.3018517,147.632977 46.7883893,158.551024 C47.274927,158.065778 47.5181958,157.580531 47.5181958,157.095285 C47.7614646,142.537888 47.7614646,128.223115 48.0047335,113.665719 C48.0047335,111.239486 48.4912711,109.055877 48.4912711,106.629644 C48.73454,104.203411 48.73454,101.534555 48.9778088,99.1083227 C49.2210776,96.9247133 49.4643464,94.9837271 49.7076153,92.8001176 C49.9508841,92.3148711 49.7076153,91.8296245 49.4643464,91.1017547 Z" fill="#FFFFFF"></path>
                    <path d="M113.563594,76 C114.533468,77.2145984 115.260874,77.7004378 115.503343,78.4291968 C116.958154,81.1013133 119.382841,82.5588313 122.049996,84.0163494 C129.808992,88.3889036 138.052926,91.3039398 146.054391,94.9477349 C150.418826,96.8910924 155.268199,98.3486104 159.147697,101.020727 C165.209413,105.150361 171.271129,109.279996 175.878033,115.352988 C176.605439,116.324667 177.332845,117.296345 177.332845,118.510944 C178.060251,123.126418 179.272594,127.741892 179.030125,132.357365 C179.030125,136.24408 179.515063,140.130795 179.515063,144.01751 C179.515063,145.960867 179.757531,147.904225 180,149.847582 C180,157.378092 180,164.665683 180,172.196193 C180,175.597068 179.272594,178.269185 177.332845,180.941301 C174.66569,184.585096 172.241004,188.471811 169.573849,191.872687 C165.936819,196.974 162.057321,201.832394 157.935354,206.690787 C156.238074,208.634145 154.055856,210.334582 151.873638,212.03502 C150.176358,213.492538 148.236609,214.464217 146.781797,215.921735 C142.902299,219.56553 138.295394,221.751807 133.203553,223.695165 C127.384306,226.124361 121.807527,226.367281 115.98828,225.638522 C112.593719,225.152683 109.199158,224.181004 105.804597,222.966406 C96.590789,219.32261 87.6194494,215.192976 78.6481098,210.334582 C75.7384862,208.877064 73.0713312,206.933707 70.1617076,204.990349 C69.4343017,204.50451 69.191833,203.775751 68.7068957,203.289912 C67.9794898,202.318233 67.2520839,201.103634 66.2822094,200.131956 C63.1301171,196.73108 60.4629621,193.330205 61.190368,188.228892 C61.4328366,186.771373 60.2204935,185.313855 59.9780248,183.856337 C58.7656816,178.512104 58.2807444,173.167871 58.0382757,167.580719 C57.7958071,156.163494 58.7656816,144.989189 59.2506189,133.571964 C59.4930875,129.442329 59.7355562,125.312695 59.9780248,121.18306 C59.9780248,119.239703 60.4629621,117.539265 61.6753053,115.595908 C64.3424603,111.223353 66.524678,106.60788 69.191833,102.478245 C71.1315821,99.5632088 73.3137998,96.8910924 75.9809548,94.4618956 C80.3453903,90.5751807 85.4372317,87.6601446 91.0140103,85.7167871 C98.7730067,83.2875904 106.532003,80.8583936 113.563594,76 Z M148.236609,178.755024 C142.174893,177.783345 136.598114,177.540426 131.021335,178.269185 C125.929494,178.755024 121.080121,179.726703 115.98828,180.212542 C107.501878,180.941301 99.0154753,181.91298 90.2866044,181.427141 C89.0742612,181.427141 87.861918,181.67006 86.8920435,181.91298 C86.4071062,182.1559 85.922169,182.641739 85.194763,183.127578 C86.8920435,184.342177 88.589324,185.070936 89.5591985,186.528454 C92.9537594,191.386847 96.590789,195.759402 101.197693,199.403197 C103.864848,201.589474 106.774472,202.804072 110.169033,203.046992 C113.806062,203.289912 117.443092,203.289912 121.32259,203.289912 C125.929494,203.289912 129.566524,201.346554 132.476147,197.945679 C133.930959,196.488161 135.628239,195.030643 137.083051,193.573124 C140.235144,190.658088 143.872173,188.228892 145.084516,183.856337 C145.811922,181.91298 147.266734,181.184221 148.236609,178.755024 Z M77.9207039,146.446707 C77.6782353,149.604663 77.6782353,152.033859 77.6782353,154.705976 C77.6782353,156.163494 78.4056412,157.621012 80.1029217,157.621012 C83.0125453,158.106851 86.1646376,159.07853 88.3468553,156.892253 C90.529073,154.463056 89.5591985,151.3051 89.0742612,148.632984 C88.8317926,147.661305 88.3468553,146.932546 87.6194494,145.960867 C87.1345121,145.232108 86.6495749,144.746269 85.922169,144.503349 C83.0125453,143.288751 80.1029217,142.317072 76.9508294,142.802912 C75.4960176,143.045831 74.2836744,143.531671 73.3137998,144.503349 C73.0713312,144.989189 72.8288626,145.717948 72.8288626,145.960867 C73.0713312,146.446707 73.5562685,146.932546 74.0412058,146.932546 C75.2535489,146.932546 76.4658921,146.689626 77.9207039,146.446707 Z M109.926564,138.187438 C109.199158,139.644956 108.714221,140.373715 108.471752,141.102474 C107.986815,145.232108 107.744346,149.361743 107.501878,153.248458 C107.259409,157.378092 107.501878,161.507727 105.31966,165.151522 C104.592254,166.36612 104.834723,168.309478 105.562129,169.524076 C107.01694,172.924952 112.108782,174.38247 115.745811,172.924952 C116.230749,172.682032 116.958154,171.953273 116.958154,171.710353 C116.958154,170.981594 116.473217,170.252835 115.98828,169.766996 C114.290999,169.038237 112.593719,168.309478 110.896439,167.823639 C111.381376,164.179843 111.866313,161.021888 112.108782,157.621012 C112.35125,154.463056 112.108782,151.3051 111.866313,148.147145 C111.381376,145.232108 111.623844,141.831233 109.926564,138.187438 Z M149.69142,144.746269 C150.903764,144.746269 151.873638,144.989189 152.601044,144.989189 C153.813387,144.989189 154.540793,143.531671 153.813387,142.317072 C153.085981,141.345394 152.358575,140.616635 150.903764,140.616635 C148.479077,140.616635 146.296859,140.616635 143.872173,140.373715 C141.205018,140.373715 139.0228,141.345394 138.295394,143.77459 C137.32552,146.446707 137.083051,149.361743 138.780332,152.276779 C139.0228,152.519699 139.265269,152.762618 139.507738,153.005538 C143.144767,155.434735 148.236609,153.248458 148.964014,148.875904 C149.69142,147.418386 149.69142,146.203787 149.69142,144.746269 Z M131.99121,123.126418 C132.233679,123.369337 132.476147,123.855177 132.718616,124.098096 C134.173428,123.855177 135.628239,123.612257 137.083051,123.369337 C145.569454,121.42598 153.813387,120.211382 162.29979,122.883498 C162.784727,123.126418 163.512133,122.640578 164.724476,122.397659 C163.99707,121.42598 163.512133,120.697221 163.027195,120.211382 C160.844978,118.996783 158.420291,118.025104 155.753136,118.025104 C153.32845,118.025104 150.661295,118.025104 148.236609,118.025104 C143.387236,118.025104 138.780332,119.482622 134.173428,120.940141 C133.203553,121.42598 132.718616,122.397659 131.99121,123.126418 Z M67.0096153,124.583936 C69.4343017,125.312695 70.6466448,126.041454 71.858988,125.798534 C77.6782353,124.583936 83.2550139,125.069775 89.0742612,125.798534 C91.0140103,126.041454 92.7112908,126.041454 95.1359771,126.041454 C94.4085712,123.855177 92.9537594,123.369337 91.4989476,123.126418 C86.8920435,121.911819 82.0426708,121.42598 77.193298,121.42598 C74.0412058,121.6689 71.1315821,122.397659 67.0096153,124.583936 Z M112.593719,207.905385 C115.260874,210.820422 118.655435,210.577502 121.565059,210.334582 C124.717151,209.848743 127.869243,208.877064 130.051461,205.962028 C128.35418,204.74743 126.899369,205.476189 125.444557,205.962028 C122.292464,207.176626 119.140372,207.905385 115.745811,207.662466 C115.018405,207.662466 113.806062,207.905385 112.593719,207.905385 Z" fill="#FFFFFF"></path>
                    <path d="M83.9031442,282.555692 C87.3183954,281.338008 90.4897,280.363861 93.6610047,279.389714 C96.3444163,278.415566 98.5399349,276.710809 100.247561,274.518978 C100.491507,274.031904 100.9794,273.544831 100.9794,273.057757 C100.9794,272.327147 100.735454,271.596537 100.247561,270.865926 C100.003614,270.622389 99.027828,270.378853 98.5399349,270.622389 C95.6125768,273.057757 92.9291652,271.596537 90.4897,269.891779 C86.0986628,266.238727 82.4394651,261.855065 80,256.740793 C83.4152512,255.036036 86.3426093,256.740793 89.513914,257.227867 C90.2457535,257.958477 90.9775931,258.932624 91.7094326,259.906771 C96.3444163,266.238727 102.930972,270.135316 110.249368,272.570684 C114.396458,274.031904 118.543549,274.762515 122.934586,274.762515 C126.593784,275.006051 130.009035,274.031904 132.936393,272.08361 C135.375858,270.622389 137.815323,269.648242 140.742682,268.917632 C141.718468,270.378853 142.9382,271.840073 143.426093,273.544831 C144.401879,276.223735 146.353451,277.684956 148.792917,278.659103 C150.744489,279.389714 152.940007,280.120324 154.891579,280.850934 C154.891579,281.338008 155.135526,282.068618 154.891579,282.555692 C151.232382,290.835942 145.621612,297.167898 137.32743,300.577413 C133.424286,302.038634 130.009035,304.230465 125.861944,305.204612 C123.910372,305.691686 121.9588,306.178759 120.007228,305.935223 C111.956993,304.717539 104.150705,303.743392 97.0762559,299.603266 C93.1731117,297.411435 89.513914,294.732531 87.5623419,290.348869 C86.8305023,288.887648 85.8547163,287.669964 85.1228768,286.45228 C84.6349837,284.747523 84.3910372,283.773376 83.9031442,282.555692 Z" fill="#FFFFFF"></path>
                    <path d="M163.113412,247.619867 C157.274473,248.343569 152.651979,251.962079 146.56975,250.755909 C146.326461,248.584803 146.326461,246.654931 146.083172,244.483824 C145.839883,242.312718 145.353305,240.382846 145.110016,238.21174 C144.623437,235.316932 144.136859,234.59323 140.9741,234.59323 C140.000944,234.59323 139.027787,234.59323 138.05463,234.59323 C137.324763,234.59323 136.594896,234.351996 135.865028,234.351996 C134.891871,231.698421 134.891871,231.698421 135.135161,229.286081 C135.37845,229.044847 135.621739,228.562379 136.108317,228.562379 C141.217389,227.597443 144.866726,224.702635 148.516064,221.325359 C149.002642,220.842891 149.48922,220.601656 149.975798,220.360422 C160.92381,213.60587 168.465774,203.715275 175.521159,193.342212 C176.494315,191.894808 177.467472,190.447404 178.683918,189 C179.900363,192.859744 180.386942,196.478255 179.657074,199.131829 C177.224183,208.539956 174.791291,217.948082 172.3584,227.114975 C170.412087,234.351996 166.76275,240.62408 163.113412,247.619867 Z" fill="#FFFFFF"></path>
                    <path d="M77.9477756,253.037004 C75.5106383,250.834402 75.0232108,248.142332 73.8046422,245.694996 C72.5860735,242.513459 71.3675048,239.576656 69.9052224,236.395119 C66.9806576,230.032045 64.787234,223.179504 63.3249516,216.326962 C62.5938104,213.390159 63.3249516,210.208622 63.3249516,207.027085 C65.2746615,206.782352 66.2495164,208.250753 67.2243714,209.229688 C70.6363636,213.634893 74.7794971,216.81643 79.8974855,219.019032 C87.9400387,222.200569 95.4951644,226.116307 103.537718,229.542578 C104.756286,231.989914 104.512573,234.681983 105,237.374053 C103.537718,238.108254 102.319149,239.087188 100.856867,239.576656 C98.9071567,240.55559 97.688588,242.023992 97.9323017,244.226594 C98.4197292,247.897598 96.7137331,250.589668 95.4951644,253.281738 C92.0831721,255.239607 89.6460348,252.547537 86.72147,252.792271 C83.5531915,253.281738 80.6286267,253.037004 77.9477756,253.037004 Z" fill="#FFFFFF"></path>
                    <path d="M102.82276,243.290133 C106.000756,242.067752 106.978601,242.312228 107.956446,244.268039 C108.445369,245.49042 108.68983,246.957279 109.178752,248.17966 C110.156597,250.8689 111.623365,251.357853 114.067977,249.890995 C114.801361,249.402042 115.779206,248.913089 116.757051,248.17966 C117.734896,249.402042 118.46828,250.379948 119.201663,251.357853 C120.668431,253.069187 121.890737,253.313664 123.601966,251.846806 C124.090888,251.602329 124.33535,251.113377 124.824272,250.624424 C125.313195,250.135471 125.802117,249.890995 126.046578,249.646519 C126.535501,249.646519 127.024423,249.402042 127.268884,249.646519 C128.735652,249.890995 130.202419,251.113377 131.669187,249.890995 C133.380416,248.668613 135.091644,247.446231 134.847183,245.245944 C134.847183,242.556704 136.313951,240.84537 137.536257,238.889559 C138.269641,237.667177 138.269641,237.911654 141.203176,238.400606 C140.958714,242.067752 142.669943,245.49042 141.447637,249.646519 C142.181021,250.135471 142.914404,250.624424 143.647788,251.357853 C145.359017,253.313664 145.359017,255.024998 144.13671,257.225285 C141.936559,260.892431 138.758563,263.337194 135.336106,265.537481 C133.869338,266.515387 132.402571,267.248816 130.691342,268.226721 C126.29104,270.915961 121.646276,271.64939 116.51259,270.427009 C114.801361,269.938056 113.090132,269.449103 111.378903,269.204627 C106.000756,267.982245 101.355992,265.781958 98.1779962,261.136907 C97.2001512,259.914525 96.2223062,258.692144 95,257.225285 C97.6890737,255.758427 99.6447637,254.047093 100.622609,251.357853 C102.82276,246.22385 103.067221,246.468326 102.82276,243.290133 Z" fill="#FFFFFF"></path>
                    <path d="M132,231 C131.76,234.449275 132.48,237.405797 130.8,240.608696 C129.84,242.333333 129.84,244.304348 129.6,246.521739 C126.96,247.014493 124.08,247.507246 120.96,248 C120.96,248 120.48,248 120.24,247.753623 C116.16,244.304348 116.16,244.304348 110.88,246.028986 C109.44,243.811594 110.4,241.101449 109.92,238.637681 C109.44,236.42029 108.72,234.202899 108,231.246377 C116.16,232.231884 123.6,232.724638 132,231 Z" fill="#FFFFFF"></path>
                    <path d="M147,263.251861 C148.25,261.007443 149.25,258.763025 150.5,256.518608 C150.5,256.269228 150.75,256.269228 151,256.019848 C153.75,254.27419 156.75,252.777911 161,253.027291 C160,254.27419 159.5,255.271709 158.75,255.770468 C155.25,258.513646 151.75,261.506203 148,264 C147.5,263.75062 147.25,263.501241 147,263.251861 Z" fill="#FFFFFF"></path>
                    <path d="M141,183 C139.063158,187.672929 136.642105,191.11614 133.010526,193.82152 C131.073684,195.297182 129.621053,197.018787 128.168421,198.740393 C126.473684,200.461998 124.778947,201.199829 122.357895,200.953886 C117.757895,200.461998 113.157895,199.970111 108.557895,199.23228 C107.347368,198.986336 106.136842,198.494449 105.410526,197.756618 C101.778947,194.313407 97.4210526,191.608027 95,186.689155 C95.4842105,185.459436 96.6947368,185.951324 97.4210526,186.197267 C98.8736842,186.689155 100.084211,187.672929 101.536842,188.164816 C110.978947,191.11614 120.421053,192.099915 129.621053,186.935098 C130.589474,186.443211 131.8,185.70538 132.768421,185.70538 C134.947368,185.459436 136.884211,184.475662 138.336842,183 C139.063158,183 139.789474,183 141,183 Z" fill="#FFFFFF"></path>
                    <path d="M127,183.158053 C124.142857,186.108368 117.47619,186.529842 107,185.476158 C107.47619,185.054684 107.714286,184.63321 108.190476,184.422474 C109.380952,184.211737 110.333333,184.001 111.52381,184.001 C115.571429,183.579526 119.619048,183.368789 123.428571,183.158053 C124.619048,182.947316 125.809524,182.947316 127,183.158053 Z" fill="#FFFFFF"></path>
                    <path d="M39.0774542,258.450249 C36.8930002,257.965209 35.1939805,257.480169 33.4949607,257.237649 C29.1260528,256.267569 26.4561646,257.965209 26.4561646,262.573091 C26.2134475,268.151053 26.2134475,273.971535 27.427033,279.549497 C29.1260528,287.55266 30.3396383,295.555822 31.795941,303.801505 C32.2813752,307.196786 32.2813752,310.834588 32.7668094,314.229869 C33.2522436,319.080271 33.9803949,323.930672 34.9512634,328.781074 C35.9221318,333.631476 36.1648489,338.481877 35.6794147,343.332279 C35.6794147,344.059839 35.1939805,344.7874 34.9512634,346 C33.9803949,345.02992 33.2522436,344.544879 33.2522436,344.059839 C30.0969212,335.086596 27.6697502,326.113353 27.427033,316.65507 C27.1843159,308.166867 25.7280133,299.921184 24.5144278,291.675501 C23.7862764,287.067619 22.815408,282.459738 22.0872567,277.851856 C21.8445396,275.911696 21.8445396,273.971535 21.6018225,272.031374 C21.6018225,269.848693 21.6018225,267.666013 21.6018225,265.968372 C20.6309541,264.513252 19.4173685,264.998292 18.6892172,264.998292 C15.5338948,265.240812 12.6212895,264.755772 9.95140137,262.815611 C7.76694741,261.36049 5.09705924,260.14789 2.66988817,259.17781 C0.72815132,258.450249 0,256.995129 0,255.054968 C0.242717107,253.114808 0.485434213,251.174647 0.970868426,249.234486 C2.42717107,244.384085 4.61162503,239.776203 7.2815132,235.410841 C8.98053294,232.5006 10.4368356,229.590359 11.1649869,226.195078 C13.3494409,217.464355 16.5047632,208.976152 17.4756317,200.002909 C18.203783,192.727306 17.9610659,185.694224 18.203783,178.418621 C18.203783,177.933581 18.203783,176.963501 17.7183488,176.720981 C15.5338948,174.78082 16.019329,172.113099 16.019329,169.687898 C15.7766119,147.618571 15.5338948,125.549243 15.2911777,103.479915 C15.2911777,96.6893529 15.7766119,89.8987906 17.9610659,83.3507483 C21.1163883,73.1649047 24.0289936,62.7365411 25.4852962,52.0656573 C25.9707304,49.1554163 27.1843159,46.4876954 28.6406186,44.0624946 C32.5240923,37.2719322 37.3784344,30.96641 42.9609279,25.388448 C49.999724,18.1128455 57.7666714,12.0498434 67.7180727,9.38212244 C72.3296978,8.16952202 76.6986057,6.95692159 81.3102307,5.74432117 C87.6208755,4.28920066 94.1742374,4.77424083 100.484882,5.01676091 C101.941185,5.01676091 103.15477,5.01676091 104.611073,5.259281 C107.766395,5.74432117 110.679001,5.01676091 113.348889,2.83408015 C116.261494,0.16635922 119.902251,-0.318680949 123.785724,0.16635922 C125.727461,0.408879305 127.669198,0.651399389 129.610935,0.651399389 C142.232224,0.651399389 154.36808,3.56164041 165.533067,9.62464252 C170.630126,12.5348835 175.727185,15.4451246 180.581527,18.8404057 C184.465001,21.7506468 188.105758,25.1459279 191.503797,28.5412091 C195.387271,32.6640506 199.270745,36.786892 202.911501,41.1522535 C205.095955,43.8199745 206.794975,46.9727356 208.979429,49.8829766 C213.833771,56.4310189 216.746376,63.7066214 219.173547,71.4672641 C219.901699,74.1349851 220.872567,76.5601859 222.571587,78.7428667 C224.513324,81.1680675 225.484192,84.3208286 225.969626,87.4735897 C228.882232,104.692516 230.581251,121.911442 229.8531,139.372888 C229.367666,148.103611 230.095817,156.834334 230.095817,165.807577 C230.095817,168.475298 230.338534,171.385539 230.338534,174.05326 C230.095817,185.209184 231.55212,196.122588 233.493857,207.278512 C233.736574,209.461192 233.979291,211.643873 233.979291,213.584034 C233.979291,217.706875 234.707442,221.587197 235.678311,225.710038 C237.134613,232.01556 239.07635,238.078562 241.260804,244.141564 C242.47439,247.779366 241.988955,251.417167 241.260804,255.054968 C241.018087,256.510089 239.561784,257.965209 238.348199,259.42033 C236.891896,261.36049 234.950159,262.573091 234.464725,265.240812 C233.008422,270.818774 230.095817,274.941615 224.027889,274.941615 C222.814304,284.399898 221.600718,293.130622 220.144416,302.103865 C219.901699,304.529066 219.416264,307.196786 218.688113,309.621987 C216.746376,316.89759 215.047356,323.930672 212.862903,330.963755 C211.892034,334.359036 210.435731,337.511797 209.222146,340.907078 C208.736712,341.877159 207.523126,342.362199 206.794975,343.089759 C205.095955,341.392118 204.853238,339.936998 205.338672,337.996837 C207.523126,329.751154 209.70758,321.505471 211.892034,313.017268 C215.290074,299.193624 217.474528,285.127459 217.474528,270.818774 C217.474528,268.636093 217.474528,266.453412 217.474528,264.270731 C217.717245,259.66285 216.989093,255.297488 214.804639,251.174647 C213.10562,250.204567 211.4066,250.204567 209.464863,250.689607 C206.552258,255.297488 204.610521,260.14789 203.396935,265.240812 C202.18335,270.091213 199.513462,274.214055 196.115422,277.851856 C195.387271,278.821937 193.930968,280.034537 192.717383,280.034537 C189.804777,280.034537 187.377606,281.247137 184.950435,281.974698 C181.795113,282.944778 178.882508,282.944778 175.969902,281.004617 C173.542731,279.306977 170.872843,278.336896 168.688389,277.124296 C165.047632,277.609336 162.863179,279.306977 161.406876,282.217218 C160.678725,283.672338 159.707856,284.884939 158.979705,286.340059 C154.610797,295.555822 147.329284,301.861345 138.106034,305.741666 C136.164297,306.469226 134.22256,307.439307 132.280823,308.409387 C128.397349,309.864507 124.513876,311.077108 120.387685,310.107027 C114.805191,309.136947 109.222698,308.166867 103.882922,306.469226 C95.8732571,304.044025 90.5334808,298.466063 85.9218557,292.160541 C84.4655531,290.220381 83.4946847,288.0377 82.5238162,286.097539 C80.8247965,283.187298 79.8539281,282.944778 76.4558886,284.157378 C72.0869807,285.612499 67.9607899,285.612499 64.3200333,282.459738 C62.1355793,280.519577 59.9511253,278.579416 58.0093885,276.396736 C57.0385201,275.426655 56.0676516,274.699095 54.611349,274.699095 C50.9705924,274.456575 48.7861384,272.273894 46.8444016,269.121133 C43.6890792,265.240812 41.2619081,261.845531 39.0774542,258.450249 Z M56.5530858,268.878613 L56.5530858,268.878613 C57.5239543,272.273894 60.4365595,274.214055 63.5918819,275.669175 C69.6598096,278.579416 75.7277373,279.792017 82.2810991,277.851856 C83.4946847,277.609336 84.7082702,277.851856 85.6791386,277.609336 C87.8635926,277.366816 89.8053294,276.881776 91.9897834,275.426655 C89.8053294,274.214055 88.1063097,273.486495 86.6500071,272.516414 C84.9509873,271.303814 83.2519676,270.091213 81.5529478,268.878613 C82.5238162,267.180972 81.3102307,265.968372 80.3393623,264.755772 C75.4850202,258.450249 71.6015465,251.417167 69.1743754,243.656524 C68.4462241,241.716364 67.4753556,239.776203 66.7472043,237.593522 C63.3491648,229.590359 60.9219938,221.344676 59.7084082,212.856474 C58.9802569,207.763552 58.9802569,202.67063 58.0093885,197.820228 C56.0676516,187.149345 54.611349,176.235941 54.611349,165.322537 C54.611349,162.412296 54.3686319,159.502055 54.1259148,156.591814 C54.1259148,154.651653 54.1259148,152.711492 54.3686319,150.771332 C55.0967832,145.43589 55.0967832,140.342968 54.3686319,135.007526 C54.1259148,133.794926 54.1259148,132.339805 54.1259148,130.884685 C54.8540661,122.396482 55.3395003,113.665759 57.0385201,105.420076 C57.5239543,103.479915 57.5239543,101.539755 58.2521056,99.5995939 C59.7084082,95.2342324 61.407428,90.8688709 63.1064477,86.5035094 C63.5918819,84.8058688 64.3200333,83.3507483 66.2617701,81.8956278 C66.2617701,83.1082282 66.7472043,84.0783085 66.5044872,84.8058688 C65.2909017,89.1712303 64.0773161,93.5365918 62.8637306,97.6594333 C62.1355793,100.084634 61.6501451,102.509835 62.3782964,104.935036 C62.8637306,104.935036 63.1064477,104.935036 63.1064477,104.692516 C63.5918819,103.964955 64.0773161,103.479915 64.3200333,102.752355 C69.1743754,93.0515517 77.1840399,87.2310696 86.6500071,83.3507483 C91.018915,81.6531077 95.3878229,80.1979872 99.7567308,78.5003466 C102.669336,77.2877462 105.581941,76.0751457 108.25183,74.6200252 C110.436284,73.4074248 112.863455,69.0420633 112.135303,66.6168624 C111.164435,62.9790612 112.135303,60.0688201 113.834323,57.1585791 C114.562474,55.7034586 115.77606,54.7333783 115.047909,52.7932176 C113.834323,51.8231373 112.135303,50.6105368 110.921718,49.3979364 C110.921718,48.4278561 110.921718,47.9428159 111.164435,47.2152557 C112.37802,43.3349343 112.620737,39.697133 111.164435,35.8168117 C110.921718,35.0892514 110.679001,34.3616912 110.679001,33.6341309 C110.679001,28.5412091 110.679001,23.4482874 110.679001,18.3553656 C110.679001,17.3852852 110.921718,16.4152049 112.37802,15.9301647 C112.620737,16.4152049 113.348889,16.657725 113.591606,17.3852852 C113.834323,18.5978857 114.07704,19.567966 114.07704,20.7805664 C114.319757,29.9963296 114.562474,38.9695728 114.805191,48.4278561 C118.203231,49.6404565 118.688665,52.3081774 118.688665,55.4609385 C118.688665,56.673539 117.717797,57.8861394 117.232362,59.3412599 C115.533343,63.4641013 113.834323,67.5869428 114.805191,71.7097842 C117.960514,76.802706 122.329422,79.4704269 127.183764,81.6531077 C133.737126,84.3208286 140.533205,87.2310696 147.086567,90.1413106 C153.639928,93.0515517 160.436007,95.4767525 166.018501,100.327154 C168.688389,102.752355 171.843711,104.692516 174.5136,107.360237 C174.756317,107.602757 175.484468,107.845277 176.455337,108.330317 C176.698054,102.752355 174.270883,97.6594333 174.999034,92.3239914 C176.212619,94.7491923 176.698054,97.4169132 177.668922,99.842114 C180.824244,107.360237 182.03783,115.120879 182.765981,123.124042 C183.494133,132.582325 183.494133,142.283129 183.73685,151.741412 C184.222284,164.837497 184.950435,177.933581 182.523264,190.787146 C182.765981,198.062748 181.309679,205.095831 180.096093,212.371433 C179.125225,217.706875 178.154356,223.042317 176.698054,228.377759 C174.028165,238.321082 168.688389,247.051805 163.834047,256.025049 C163.105896,257.237649 162.377744,258.450249 161.164159,259.17781 C156.309817,262.088051 151.940909,265.725852 145.872981,266.453412 C144.902113,266.453412 144.173961,266.938452 142.960376,267.423493 C144.416678,268.878613 145.630264,269.848693 146.84385,270.818774 C150.241889,273.486495 153.882646,274.699095 158.251554,273.243975 C163.834047,271.546334 169.41654,271.546334 174.270883,275.184135 C174.5136,275.426655 174.999034,275.426655 175.241751,275.669175 C178.882508,278.094376 182.523264,278.094376 186.406738,276.396736 C191.989231,273.971535 196.358139,270.333734 198.299876,264.270731 C200.48433,256.995129 202.426067,249.719526 204.610521,242.443924 C205.338672,240.261243 205.581389,237.836042 207.280409,236.138402 C208.493995,238.806123 209.464863,241.473843 210.678449,244.141564 C211.4066,244.141564 212.377468,244.384085 213.10562,244.384085 C216.018225,244.626605 217.959962,246.324245 218.93083,248.749446 C220.387133,252.629767 222.086153,256.267569 221.843435,260.63293 C221.843435,263.300651 221.358001,265.968372 222.32887,268.636093 C224.270607,269.121133 225.484192,268.151053 226.45506,266.938452 C226.940495,266.210892 227.425929,265.240812 227.668646,264.270731 C228.396797,261.11797 230.095817,258.450249 232.280271,256.267569 C235.435593,253.599848 235.678311,250.204567 234.464725,246.809285 C232.037554,240.261243 230.095817,233.470681 228.396797,226.680118 C227.425929,222.557277 226.697778,218.191915 226.45506,214.069074 C226.45506,211.643873 225.969626,208.976152 225.726909,206.550951 C224.270607,196.607628 222.814304,186.906824 223.057021,176.963501 C223.299738,166.777657 223.542455,156.591814 223.542455,146.40597 C223.542455,143.495729 224.027889,140.342968 223.057021,137.675247 C221.600718,133.067366 221.358001,128.459484 221.358001,123.851602 C221.358001,114.635839 220.144416,105.662596 218.445396,96.4468328 C216.260942,85.533429 213.591054,74.6200252 209.222146,64.4341817 C208.493995,62.7365411 208.00856,61.0389005 207.037692,59.58378 C202.426067,52.5506975 198.542593,45.0325749 192.231948,39.4546129 C191.26108,38.4845326 190.290212,37.5144523 189.56206,36.3018518 C183.73685,29.0262493 176.940771,22.9632472 169.173823,18.1128455 C165.775784,15.9301647 162.135027,13.990004 158.494271,12.0498434 C150.484606,7.68448185 141.74679,5.98684125 132.766257,4.53172074 C127.911915,3.80416049 123.057573,4.04668058 118.203231,3.80416049 C116.989645,3.80416049 115.77606,4.04668058 114.805191,4.28920066 C113.591606,4.53172074 113.348889,5.74432117 114.562474,6.95692159 C115.047909,7.44196176 116.018777,7.68448185 115.533343,8.65456218 C115.290626,8.89708227 114.805191,9.13960235 114.562474,9.13960235 C107.523678,9.38212244 100.484882,9.62464252 93.446086,9.38212244 C83.4946847,9.13960235 74.0287175,11.5648032 64.8054675,14.9600844 C60.9219938,16.4152049 57.5239543,18.5978857 54.1259148,21.0230865 C47.5725529,25.8734882 42.2327766,31.6939702 37.3784344,37.9994924 C33.7376778,42.8498941 30.0969212,47.7002958 28.8833357,53.7632979 C28.6406186,54.9758984 27.9124673,55.9459787 27.6697502,56.916059 C26.9415988,58.6136996 26.2134475,60.5538603 25.7280133,62.494021 C23.3008422,71.4672641 20.8736712,80.6830273 18.6892172,89.6562705 C18.4465001,90.8688709 17.9610659,92.3239914 17.9610659,93.7791119 C17.9610659,99.1145538 18.203783,104.207476 18.4465001,109.542917 C18.6892172,112.938199 18.9319343,116.09096 18.9319343,119.486241 C19.1746514,127.004364 19.1746514,134.279966 19.4173685,141.798089 C19.6600856,150.043772 20.388237,158.289454 19.9028027,166.292617 C19.4173685,175.02334 19.9028027,183.754063 19.9028027,192.484786 C19.9028027,195.152507 19.6600856,197.820228 19.4173685,200.730469 C18.4465001,209.703712 16.019329,218.191915 13.592158,226.922638 C12.6212895,230.31792 11.407704,233.470681 9.46596716,236.623442 C6.79607899,241.231323 4.61162503,245.839205 2.91260528,250.932127 C2.66988817,251.902207 2.66988817,252.872287 2.66988817,253.599848 C4.36890792,256.510089 7.52423031,256.510089 9.70868426,258.207729 C12.6212895,260.39041 16.019329,260.87545 19.9028027,260.63293 C20.388237,259.42033 20.8736712,258.450249 21.1163883,257.480169 C22.0872567,254.569928 24.0289936,252.872287 26.9415988,252.387247 C28.3979015,252.144727 30.0969212,252.144727 31.5532239,252.144727 C32.5240923,252.144727 33.2522436,252.144727 34.9512634,252.387247 C33.4949607,249.234486 32.0386581,246.566765 31.0677896,243.899044 C29.1260528,238.321082 26.4561646,232.985641 25.4852962,227.407679 C24.2717107,221.344676 24.5144278,215.039154 24.0289936,208.733632 C24.0289936,207.521032 24.0289936,206.308431 24.2717107,205.338351 C24.2717107,204.853311 24.999862,204.368271 25.9707304,203.39819 C26.2134475,205.580871 26.4561646,206.793471 26.4561646,208.248592 C26.4561646,213.584034 26.6988817,218.676956 28.8833357,223.769877 C29.611487,225.467518 29.8542041,227.650199 30.0969212,229.590359 C30.8250725,233.955721 32.0386581,238.321082 33.9803949,242.443924 C35.1939805,245.354165 36.6502831,248.021886 37.8638686,250.932127 C39.5628884,254.812448 39.5628884,254.812448 44.1745134,256.510089 C47.3298358,261.603011 51.2133095,265.968372 56.5530858,268.878613 Z M113.106172,76.3176658 C106.067376,81.1680675 98.5431453,83.5932684 91.018915,86.2609893 C85.4364215,88.20115 80.3393623,91.111391 75.9704544,94.9917123 C73.3005662,97.1743931 71.1161122,100.084634 69.1743754,102.994875 C66.5044872,107.117717 64.3200333,111.968118 61.6501451,116.09096 C60.6792767,117.7886 60.1938424,119.486241 59.9511253,121.668922 C59.7084082,125.791763 59.7084082,129.914605 59.222974,134.037446 C58.4948227,145.43589 57.5239543,156.591814 58.0093885,167.990258 C58.2521056,173.56822 58.7375398,178.903662 59.9511253,184.239104 C60.1938424,185.694224 61.407428,187.149345 61.1647109,188.604465 C60.6792767,193.697387 63.1064477,197.092668 66.2617701,200.487949 C67.2326385,201.45803 67.9607899,202.67063 68.6889412,203.64071 C69.1743754,204.368271 69.6598096,204.853311 70.1452438,205.338351 C72.815132,207.278512 75.7277373,209.218672 78.6403425,210.673793 C87.3781584,215.281674 96.3586913,219.647036 105.824658,223.284837 C108.979981,224.497438 112.620737,225.467518 116.018777,225.952558 C121.843988,226.680118 127.426481,226.437598 133.251692,224.012397 C138.106034,222.072237 142.717659,219.889556 146.84385,216.251755 C148.300152,214.796634 150.484606,213.826554 151.940909,212.371433 C154.125363,210.673793 156.309817,208.976152 158.008836,207.035991 C162.135027,202.18559 165.775784,197.335188 169.659258,192.242266 C172.329146,188.604465 174.756317,184.724144 177.426205,181.328862 C179.367942,178.661142 180.33881,175.993421 180.096093,172.598139 C179.853376,165.080017 180.096093,157.804414 180.096093,150.286292 C180.096093,148.346131 179.853376,146.40597 179.610659,144.46581 C179.367942,140.585488 178.882508,136.705167 179.125225,132.824846 C179.367942,127.974444 178.154356,123.609082 177.426205,119.001201 C177.183488,117.7886 176.698054,116.81852 175.969902,115.84844 C171.358277,109.785438 165.29035,105.420076 159.222422,101.539755 C155.096231,98.8720337 150.484606,97.4169132 146.115698,95.4767525 C138.106034,92.0814713 129.853652,88.9287102 122.086705,84.5633487 C119.416816,83.1082282 116.989645,81.6531077 115.533343,78.9853867 C114.805191,78.0153064 114.07704,77.5302662 113.106172,76.3176658 Z M83.7374018,281.974698 C84.222836,283.187298 84.4655531,284.157378 84.9509873,285.127459 C85.6791386,286.582579 86.8927242,287.79518 87.3781584,289.00778 C89.3198952,293.373142 92.7179347,296.040863 96.8441255,298.223543 C103.882922,302.346385 111.892586,303.316465 119.659534,304.529066 C121.60127,304.771586 123.543007,304.286545 125.484744,303.801505 C129.610935,302.831425 133.008974,300.891264 136.892448,299.193624 C145.387547,295.798342 150.97004,289.49282 154.36808,281.247137 C154.610797,280.762097 154.36808,280.277057 154.36808,279.549497 C152.183626,278.821937 150.241889,278.094376 148.300152,277.366816 C145.872981,276.396736 143.931244,274.941615 142.960376,272.273894 C142.474942,270.576254 141.261356,269.363653 140.290488,267.666013 C137.377882,268.393573 134.950711,269.363653 132.52354,270.818774 C129.610935,272.758934 126.212895,273.729015 122.572139,273.486495 C118.203231,273.243975 114.07704,272.516414 109.950849,271.303814 C102.669336,268.878613 96.1159742,264.998292 91.5043492,258.69277 C90.7761979,257.722689 90.0480466,256.995129 89.3198952,256.025049 C86.1645728,255.540008 83.2519676,253.842368 79.8539281,255.540008 C82.5238162,260.87545 85.9218557,265.240812 90.2907637,268.636093 C92.4752176,270.576254 95.3878229,271.788854 98.3004282,269.363653 C98.5431453,269.121133 99.7567308,269.363653 99.9994479,269.606173 C100.484882,270.091213 100.727599,271.061294 100.727599,271.788854 C100.727599,272.273894 100.242165,272.758934 99.9994479,273.243975 C98.3004282,275.426655 96.1159742,277.124296 93.446086,278.094376 C90.2907637,279.792017 87.1354413,281.004617 83.7374018,281.974698 Z M163.105896,247.536846 C166.503935,240.503763 170.387409,234.198241 172.329146,226.922638 C174.756317,217.464355 177.183488,208.006072 179.610659,198.790309 C180.33881,196.122588 179.853376,192.727306 178.63979,188.604465 C177.426205,190.059586 176.455337,191.514706 175.484468,192.969827 C168.445672,203.39819 160.921442,213.098994 149.999172,220.132076 C149.513738,220.374596 149.028303,220.859636 148.542869,221.102156 C144.902113,224.497438 141.018639,227.407679 136.164297,228.377759 C135.92158,228.377759 135.678863,228.862799 135.193428,229.105319 C134.950711,231.53052 134.950711,231.53052 135.92158,234.198241 C136.649731,234.198241 137.377882,234.440761 138.106034,234.440761 C139.076902,234.440761 140.047771,234.440761 141.018639,234.440761 C144.173961,234.683281 144.659396,235.168321 145.14483,238.078562 C145.387547,240.261243 145.872981,242.201404 146.115698,244.384085 C146.358415,246.566765 146.358415,248.506926 146.601132,250.689607 C152.66906,251.659687 157.523402,248.264406 163.105896,247.536846 Z M78.1549083,251.902207 C80.8247965,251.902207 83.7374018,252.144727 86.6500071,251.902207 C89.5626123,251.659687 92.2325005,254.327408 95.3878229,252.387247 C96.3586913,249.719526 98.3004282,246.809285 97.814994,243.414004 C97.5722769,241.231323 98.7858624,239.776203 100.727599,238.806123 C102.183902,238.078562 103.397487,237.351002 104.85379,236.623442 C104.368356,233.955721 104.611073,231.288 103.397487,228.862799 C95.63054,225.224998 87.8635926,221.587197 79.8539281,218.434435 C74.5141517,216.251755 70.3879609,213.098994 67.2326385,208.733632 C66.2617701,207.521032 65.5336188,206.308431 63.3491648,206.550951 C63.3491648,209.703712 62.8637306,212.856474 63.3491648,215.766715 C65.0481846,222.557277 66.9899214,229.347839 69.9025267,235.653361 C71.3588293,238.563602 72.5724149,241.716364 73.7860004,244.869125 C74.9995859,247.051805 75.7277373,249.719526 78.1549083,251.902207 Z M102.183902,243.171484 C102.426619,246.081725 102.183902,246.081725 100.242165,251.174647 C99.2712966,253.842368 97.3295598,255.540008 94.6596716,256.995129 C95.8732571,258.450249 96.8441255,259.66285 97.814994,260.87545 C100.970316,265.483332 105.581941,267.666013 110.921718,268.878613 C112.620737,269.363653 114.319757,269.606173 116.018777,270.091213 C121.115836,271.546334 125.727461,270.576254 130.096369,267.908533 C131.552672,266.938452 133.251692,266.210892 134.707994,265.240812 C138.106034,263.058131 141.504073,260.63293 143.44581,256.995129 C144.659396,254.812448 144.659396,253.114808 142.960376,251.174647 C142.474942,250.447087 141.504073,249.962046 140.775922,249.477006 C141.989507,245.354165 140.533205,241.958884 140.533205,238.321082 C137.620599,237.836042 137.377882,237.836042 136.892448,238.806123 C135.678863,240.746283 134.22256,242.443924 134.22256,245.111645 C134.22256,247.294326 132.52354,248.506926 131.067238,249.719526 C129.368218,250.932127 128.154632,249.477006 126.69833,249.477006 C126.212895,249.477006 125.970178,249.477006 125.484744,249.477006 C124.99931,249.719526 124.513876,249.962046 124.271159,250.447087 C123.785724,250.932127 123.543007,251.417167 123.057573,251.659687 C121.358553,253.114808 120.144968,252.872287 118.688665,251.174647 C117.960514,250.204567 116.989645,249.234486 116.261494,248.021886 C115.047909,248.749446 114.319757,249.234486 113.591606,249.719526 C111.164435,251.174647 109.465415,250.689607 108.737264,248.021886 C108.25183,246.809285 108.25183,245.354165 107.523678,244.141564 C106.55281,242.443924 105.339224,242.201404 102.183902,243.171484 Z M132.52354,230.31792 C124.028441,232.01556 116.504211,231.53052 108.25183,230.56044 C108.979981,233.228161 109.708132,235.410841 110.193566,237.836042 C110.679001,240.261243 109.708132,242.928964 111.164435,245.111645 C116.261494,243.414004 116.261494,243.414004 120.630402,246.809285 C120.873119,247.051805 121.358553,247.051805 121.358553,247.051805 C124.513876,246.566765 127.183764,246.081725 130.096369,245.596685 C130.581803,243.414004 130.581803,241.231323 131.309955,239.776203 C133.008974,236.623442 132.280823,233.713201 132.52354,230.31792 Z M146.601132,263.058131 C146.84385,263.300651 147.086567,263.543171 147.329284,263.785691 C150.97004,261.36049 154.36808,258.450249 157.766119,255.782528 C158.494271,255.297488 158.979705,254.327408 159.950573,253.114808 C155.824382,252.872287 152.911777,254.327408 150.241889,256.025049 C149.999172,256.025049 149.999172,256.267569 149.756455,256.510089 C148.785586,258.69277 147.572001,260.87545 146.601132,263.058131 Z" fill="#3C3C3C"></path>
                    <path d="M63.7050036,353 C60.8958027,348.655172 57.8525018,344.551724 58.3207019,339.241379 C55.7456011,331.034483 55.7456011,322.344828 53.8728006,314.137931 C53.4046004,311.965517 52.7023002,309.551724 52.2341001,307.37931 C52,306.655172 52,305.931034 52,305.206897 C52,304.965517 52.4682001,304.482759 52.7023002,304 C52.9364003,304.482759 53.4046004,304.724138 53.6387005,304.965517 C54.8092009,308.103448 55.9797012,311.482759 57.1502016,314.62069 C57.6184017,315.827586 58.3207019,317.034483 58.554802,318.482759 C59.9594024,325.724138 61.3640029,333.206897 63.0027034,340.689655 C63.7050036,344.310345 64.1732037,347.931034 63.9391036,351.551724 C63.9391036,352.034483 63.7050036,352.517241 63.7050036,353 Z" fill="#3C3C3C"></path>
                    <path d="M39,124.181298 C38.2912714,127.565535 37.5825427,130.949771 37.110057,134.334007 C36.1650854,141.827674 34.7476281,149.32134 34.5113853,156.815006 C34.0388995,172.04407 34.5113853,187.031402 35.4563568,202.260466 C35.4563568,202.743928 35.2201139,203.469122 35.2201139,203.952584 C34.0388995,204.194315 33.8026566,203.469122 33.8026566,202.743928 C30.4952563,176.395231 28.3690704,150.046533 37.8187856,124.181298 C38.2912714,123.939567 38.7637571,123.939567 39,124.181298 Z" fill="#3C3C3C"></path>
                    <path d="M49.6885715,91 C49.9087847,91.7338129 50.1289979,92.2230216 49.9087847,92.7122302 C49.6885715,94.9136691 49.4683583,96.8705036 49.248145,99.0719424 C49.0279318,101.517986 49.0279318,104.208633 48.8077186,106.654676 C48.5875054,109.100719 48.3672921,111.302158 48.3672921,113.748201 C48.1470789,128.42446 48.1470789,142.856115 47.9268657,157.532374 C47.9268657,158.021583 47.7066525,158.510791 47.266226,159 C46.8257996,148.23741 46.3853731,137.47482 46.1651599,126.467626 C45.9449467,122.553957 45.9449467,118.640288 46.1651599,114.726619 C46.1651599,111.546763 46.6055864,108.366906 46.8257996,105.431655 C47.0460128,102.985612 47.0460128,100.294964 47.266226,97.8489209 C47.266226,95.8920863 47.4864393,93.9352518 48.3672921,92.2230216 C48.5875054,91.7338129 49.0279318,91.4892086 49.6885715,91 Z" fill="#3C3C3C"></path>
                    <path d="M56.8574972,269.509592 C56.122854,267.797423 55.3882107,266.085254 54.4086864,264.128489 C52.2047566,258.991983 49.7559458,253.61088 47.552016,248.474374 C46.0827295,245.050036 45.8378484,241.625698 46.0827295,237.956764 C46.0827295,237.467573 46.5724917,236.978382 47.0622538,236 C49.2661836,240.158125 49.5110647,244.316249 51.2252323,247.985182 C52.9393999,251.898711 54.6535675,256.056836 56.3677351,259.970365 C58.0819026,263.639298 60.0409513,267.063636 62,270.732569 C59.5511892,271.955547 58.5716648,268.531209 56.8574972,269.509592 C56.6126161,269.264996 56.8574972,269.509592 56.8574972,269.509592 Z" fill="#3C3C3C"></path>
                    <path d="M148,178.893684 C146.788462,181.280448 145.576923,181.996477 144.85,183.905888 C143.638462,188.202063 140.003846,190.588827 136.853846,193.452944 C135.157692,194.885003 133.461538,196.078384 132.25,197.749119 C129.342308,201.090589 125.707692,203 121.103846,203 C117.469231,203 113.834615,202.761324 109.957692,202.761324 C106.565385,202.522647 103.657692,201.329265 100.992308,199.181178 C96.3884615,195.601032 92.5115385,191.304857 89.3615385,186.531329 C88.3923077,185.337947 86.6961538,184.383241 85,183.189859 C85.7269231,182.712506 86.2115385,182.235153 86.6961538,181.996477 C87.9076923,181.757801 89.1192308,181.519124 90.0884615,181.519124 C98.5692308,181.996477 107.05,180.803095 115.773077,180.325742 C120.861538,179.84839 125.707692,179.13236 130.796154,178.416331 C136.369231,177.700302 141.942308,177.938978 148,178.893684 Z M141.215385,182.235153 C140.003846,182.47383 139.276923,182.235153 139.034615,182.47383 C137.338462,183.905888 135.642308,184.860594 133.461538,185.09927 C132.25,185.09927 131.280769,185.815299 130.311538,186.292652 C121.103846,191.304857 111.653846,190.350151 102.203846,187.486034 C100.75,187.008681 99.5384615,186.053976 98.0846154,185.576623 C97.3576923,185.337947 96.3884615,184.621917 95.6615385,186.053976 C98.0846154,190.588827 102.203846,193.452944 106.080769,196.794414 C106.807692,197.510443 108.019231,197.987796 109.230769,198.226472 C113.834615,198.942501 118.438462,199.419854 123.042308,199.897207 C125.465385,200.135883 127.161538,199.419854 128.857692,197.749119 C130.553846,196.078384 132.007692,194.168973 133.703846,192.975591 C136.853846,190.111475 139.276923,186.770005 141.215385,182.235153 Z M127.161538,183.189859 C125.95,183.189859 124.738462,182.951183 123.769231,182.951183 C119.65,183.189859 115.530769,183.667212 111.653846,183.905888 C110.442308,183.905888 109.230769,184.144565 108.261538,184.383241 C107.776923,184.383241 107.534615,185.09927 107.05,185.576623 C117.469231,187.008681 124.253846,186.531329 127.161538,183.189859 Z" fill="#3C3C3C"></path>
                    <path d="M77.9506022,146.848059 C76.4939933,147.095906 75.2801525,147.343753 74.3090799,147.343753 C73.8235436,147.343753 73.0952391,146.848059 73.0952391,146.352366 C72.852471,145.856672 73.0952391,145.113132 73.5807754,144.865285 C74.551848,143.626051 75.7656888,143.378204 77.2222977,143.130358 C80.3782837,142.634664 83.2915016,143.626051 86.2047194,144.865285 C86.9330239,145.113132 87.4185602,145.856672 87.9040965,146.352366 C88.3896328,147.095906 89.1179373,148.087293 89.3607054,149.07868 C89.8462417,152.052841 90.8173143,155.274849 88.632401,157.50547 C86.2047194,159.983938 83.0487334,158.744704 80.3782837,158.24901 C78.9216748,158.001163 77.9506022,156.76193 77.9506022,155.274849 C77.707834,152.796381 77.707834,150.070067 77.9506022,146.848059 Z" fill="#3C3C3C"></path>
                    <path d="M109.155452,139 C110.866589,142.909942 110.866589,146.08677 110.866589,149.507969 C111.111037,152.684797 111.355486,155.861624 111.111037,159.038452 C110.866589,162.21528 110.377693,165.636479 109.888797,169.30205 C111.599934,170.035164 113.311071,170.523907 115.022207,171.257021 C115.511104,171.501392 116,172.478877 116,173.211992 C116,173.456363 115.266656,174.189477 114.777759,174.433848 C111.111037,175.900077 105.977627,174.433848 104.510938,171.012649 C104.022042,169.790792 103.777594,167.59145 104.26649,166.613965 C106.466523,162.704023 106.222075,158.794081 106.466523,154.639768 C106.710971,150.485454 106.955419,146.331141 107.444316,142.421199 C107.688764,140.954971 108.422108,140.221857 109.155452,139 Z" fill="#3C3C3C"></path>
                    <path d="M149.946822,145.522994 C149.946822,147.030659 149.946822,148.538324 149.696627,149.794711 C148.946041,154.317705 143.691942,156.327925 139.939013,154.066428 C139.688818,153.81515 139.188427,153.563873 139.188427,153.312595 C137.437061,150.548543 137.937451,147.533214 138.688037,144.517884 C139.438623,142.00511 141.69038,141 144.442527,141 C146.94448,141 149.196237,141 151.698189,141.251277 C152.949165,141.251277 153.949946,142.00511 154.700532,143.01022 C155.451117,144.015329 154.700532,145.522994 153.449556,145.774272 C152.198579,145.522994 151.197798,145.522994 149.946822,145.522994 Z" fill="#3C3C3C"></path>
                    <path d="M132,123.04 C132.727941,122.32 133.455882,121.12 134.426471,120.88 C139.036765,119.44 143.647059,118 148.5,118 C150.926471,118 153.595588,118 156.022059,118 C158.691176,118 160.875,118.96 163.301471,120.16 C163.786765,120.4 164.272059,121.12 165,122.32 C163.786765,122.56 163.058824,123.04 162.573529,122.8 C154.080882,120.16 145.830882,121.36 137.338235,123.28 C135.882353,123.52 134.426471,123.76 132.970588,124 C132.242647,123.76 132,123.52 132,123.04 Z" fill="#3C3C3C"></path>
                    <path d="M67,125.421053 C71.1034483,122.789474 74,122 77.137931,122 C81.9655172,122 86.7931034,122.526316 91.3793103,123.842105 C92.8275862,124.105263 94.2758621,124.894737 95,127 C92.8275862,127 90.8965517,127 88.9655172,126.736842 C83.1724138,125.947368 77.6206897,125.421053 71.8275862,126.736842 C70.862069,127.263158 69.4137931,126.210526 67,125.421053 Z" fill="#3C3C3C"></path>
                    <path d="M112,208.52132 C113.232877,208.52132 114.465753,208.286479 115.452055,208.286479 C118.90411,208.286479 122.109589,207.816797 125.315068,206.64259 C126.794521,206.172907 128.273973,205.468384 130,206.64259 C127.780822,209.460686 124.575342,210.400051 121.369863,210.869733 C118.164384,211.104575 114.712329,211.339416 112,208.52132 Z" fill="#3C3C3C"></path>
                </g>
            </g>
            <rect id="BG" fill="#944F96" x="30" y="551" width="148" height="45"></rect>
            <g id="arrow-right" transform="translate(55.000000, 567.000000)" fill="#FFFFFF">
                <g id="Group-2">
                    <path d="M98.8726573,6.17648631 L93.6838187,1.12317448 C93.5151814,0.958941841 93.2410378,0.958941841 93.0724005,1.12317448 C92.9037633,1.28740711 92.9037633,1.55439042 93.0724005,1.71862305 L97.5226944,6.05268017 L83.4324032,6.05268017 C83.1937166,6.05268017 83,6.24133714 83,6.47378949 C83,6.70624183 83.1937166,6.89489881 83.4324032,6.89489881 L97.5226944,6.89489881 L93.0724005,11.2289559 C92.9037633,11.3931886 92.9037633,11.6601719 93.0724005,11.8244045 C93.1571515,11.9069419 93.2678468,11.9473684 93.378542,11.9473684 C93.4892372,11.9473684 93.5999324,11.9060997 93.6846835,11.8244045 L98.8735221,6.77109267 C99.0421593,6.60686003 99.0421593,6.33987672 98.8735221,6.17564409 L98.8726573,6.17648631 Z" id="Shape" fill-rule="nonzero"></path>
                    <text id="PRXIMO" font-family="Roboto-Black, Roboto" font-size="11" font-weight="700" letter-spacing="3.20000005">
                        <tspan x="1.10639632" y="10">PRXIMO</tspan>
                    </text>
                </g>
            </g>
            <text id="PURELAS" font-family="Roboto-Black, Roboto" font-size="20" font-weight="700" letter-spacing="10.21" fill="#FFFFFF">
                <tspan x="105.512578" y="133">PURELA</tspan>
                <tspan x="241.967891" y="133">S</tspan>
            </text>
            <text id="Lorem-ipsum-dolor" font-family="Roboto-Black, Roboto" font-size="16" font-weight="700" fill="#FFFFFF">
                <tspan x="30" y="407">Lorem ipsum dolo</tspan>
                <tspan x="159.953125" y="407" letter-spacing="3.20000005">r</tspan>
            </text>
            <text id="Ut-wisi-enim-ad-mini" font-family="Roboto-Regular, Roboto" font-size="13" font-weight="normal" fill="#FFFFFF">
                <tspan x="30" y="437">Ut wisi enim ad minim </tspan>
                <tspan x="30" y="452">veniam, quis nostrud </tspan>
                <tspan x="30" y="467">exerci tation ullamcorper</tspan>
            </text>
            <path d="M168.02166,49 C169.753183,52.9514263 171.351513,54.7273482 168.998417,60.2327061 C166.512126,66.0488504 164.025835,67.0256075 165.668563,68.5795392 C167.311291,70.1334708 170.552348,70.7994416 170.552348,70.7994416 C170.552348,70.7994416 170.463552,71.8205967 169.797581,72.7973537 C169.087213,73.7741108 169.220407,75.1948483 170.596746,76.0384112 C171.617901,76.6599839 171.795494,76.74878 171.839892,76.74878 C171.839892,76.74878 171.307115,77.2371585 170.996329,78.3027117 C170.641144,79.4570609 171.395911,80.5670121 172.639057,80.9221965 C173.882202,81.2773809 174.414978,81.410575 174.681367,81.8101574 C174.992153,82.2541379 174.770163,82.342934 174.681367,84.207652 C174.592571,86.0723701 174.237386,87.848292 176.679279,89.2246315 C179.121172,90.6009709 183.383384,89.4022237 186.89083,87.2267193 C189.909897,85.3620013 197.368769,82.9645067 203.140515,86.0723701 C199.100293,91.2669417 193.062159,94.9075816 186.047267,95.7955426 C171.928688,97.5714645 159.008856,87.5819037 157.232934,73.4633244 C155.900992,63.5625597 160.385195,54.2833677 168.02166,49 Z" id="Shape" fill="#FFFFFF" fill-rule="nonzero"></path>
        </g>
    </g>
</svg>