<?xml version="1.0" encoding="UTF-8" standalone="no"?>
<svg
   xmlns:dc="http://purl.org/dc/elements/1.1/"
   xmlns:cc="http://creativecommons.org/ns#"
   xmlns:rdf="http://www.w3.org/1999/02/22-rdf-syntax-ns#"
   xmlns:svg="http://www.w3.org/2000/svg"
   xmlns="http://www.w3.org/2000/svg"
   xmlns:xlink="http://www.w3.org/1999/xlink"
   xmlns:sodipodi="http://sodipodi.sourceforge.net/DTD/sodipodi-0.dtd"
   xmlns:inkscape="http://www.inkscape.org/namespaces/inkscape"
   width="360px"
   height="640px"
   viewBox="0 0 360 640"
   version="1.1"
   id="svg5524"
   sodipodi:docname="onboarding 2.svg">
  <metadata
     id="metadata5528">
    <rdf:RDF>
      <cc:Work
         rdf:about="">
        <dc:format>image/svg+xml</dc:format>
        <dc:type
           rdf:resource="http://purl.org/dc/dcmitype/StillImage" />
      </cc:Work>
    </rdf:RDF>
  </metadata>
  <sodipodi:namedview
     pagecolor="#ffffff"
     bordercolor="#666666"
     borderopacity="1"
     objecttolerance="10"
     gridtolerance="10"
     guidetolerance="10"
     inkscape:pageopacity="0"
     inkscape:pageshadow="2"
     inkscape:window-width="640"
     inkscape:window-height="480"
     id="namedview5526"
     showgrid="false" />
  <!-- Generator: Sketch 46.2 (44496) - http://www.bohemiancoding.com/sketch -->
  <title
     id="title5401">onboarding 2</title>
  <desc
     id="desc5403">Created with Sketch.</desc>
  <defs
     id="defs5414">
    <rect
       id="path-1"
       x="0"
       y="0"
       width="360"
       height="640" />
    <linearGradient
       x1="0"
       y1="0"
       x2="480"
       y2="480"
       id="linearGradient-2"
       gradientTransform="scale(0.75,1.3333333)"
       gradientUnits="userSpaceOnUse">
      <stop
         stop-color="#FAD295"
         offset="0%"
         id="stop5406" />
      <stop
         stop-color="#F145A9"
         offset="33.8208008%"
         id="stop5408" />
      <stop
         stop-color="#115B84"
         offset="100%"
         id="stop5410" />
    </linearGradient>
    <rect
       id="path-3"
       x="0"
       y="0"
       width="360"
       height="640" />
  </defs>
  <use
     height="100%"
     width="100%"
     y="0"
     x="0"
     style="fill:#ffffff;fill-rule:evenodd;stroke:none;stroke-width:1"
     id="use5416"
     xlink:href="#path-1" />
  <rect
     style="fill:none;fill-rule:evenodd;stroke:#979797;stroke-width:1"
     id="rect5418"
     height="639"
     width="359"
     y="0.5"
     x="0.5" />
  <use
     height="100%"
     width="100%"
     y="0"
     x="0"
     style="fill:url(#linearGradient-2);fill-rule:evenodd;stroke:none;stroke-width:1"
     id="use5421"
     xlink:href="#path-3"
     transform="translate(-532.88136)" />
  <rect
     style="fill:none;fill-rule:evenodd;stroke:#979797;stroke-width:1"
     id="rect5423"
     height="639"
     width="359"
     y="0.5"
     x="0.5" />
  <circle
     style="fill:#f363b2;fill-opacity:0.59335369;fill-rule:nonzero;stroke:none;stroke-width:1"
     r="260.5"
     cy="462.5"
     cx="195.5"
     id="Oval" />
  <g
     style="fill:none;fill-rule:evenodd;stroke:none;stroke-width:1"
     id="Shape"
     transform="matrix(-1,0,0,1,167,306)">
    <path
       style="fill:#ffffff;fill-rule:nonzero"
       inkscape:connector-curvature="0"
       id="path5428"
       d="m 79.744593,333.87324 c 0,-1.83803 0.407105,-3.67606 0.610658,-5.30986 0.407105,-10.21127 0.610657,-20.62676 0.81421,-30.83803 0,-2.24648 0.407105,-4.49296 1.221315,-6.53521 1.017763,-3.26761 2.035525,-6.53521 1.424868,-10.21127 -0.203553,-1.42957 -0.203553,-3.06338 -0.203553,-4.49296 0.203553,-4.49295 -0.81421,-8.98591 -1.424867,-13.47887 0,-0.20422 -0.407105,-0.40845 -0.610658,-0.8169 -2.239077,4.08451 -3.460393,8.37324 -4.07105,13.27465 -0.81421,-0.40845 -1.62842,-0.40845 -2.035525,-0.8169 -2.239078,-1.6338 -4.681708,-3.26761 -5.903023,-6.12676 -0.407105,-0.81691 -1.221315,-1.42958 -1.62842,-2.04226 -2.646183,-3.47183 -4.681708,-7.35211 -5.495918,-11.84507 0,-0.40845 -0.203552,-0.8169 -0.407105,-1.22535 0,-0.20423 -0.203552,-0.20423 -0.610657,-0.40845 -0.203553,0.40845 -0.610658,0.61268 -0.610658,1.02113 -0.407105,3.06338 -0.81421,5.92253 0.81421,8.78169 1.424868,2.4507 1.831973,5.10563 2.035525,7.76056 0.203553,4.08451 -0.407105,8.16901 -2.239077,11.84507 -0.610658,1.22535 -1.017763,2.4507 -0.81421,3.88028 0.203552,2.85916 0.203552,2.85916 -0.610658,5.30986 1.424868,4.90141 3.053288,9.80282 4.07105,14.90845 1.017763,5.10564 1.424868,10.21127 2.035525,15.3169 0.610658,4.28874 1.221315,8.57747 1.831973,13.07043 0,0.8169 0.203552,1.6338 0.203552,2.4507 3.867498,1.02113 7.938548,1.83803 11.806046,2.65493 -0.407105,-2.4507 -0.407105,-4.28873 -0.203553,-6.12676 z" />
    <path
       style="fill:#ffffff;fill-rule:nonzero"
       inkscape:connector-curvature="0"
       id="path5430"
       d="m 185.58964,331.39237 c -0.61554,-5.94255 -2.46215,-11.47528 -2.87251,-17.41783 -0.20518,-2.25407 -0.82072,-4.50814 -1.23107,-6.76221 -1.23108,-4.50815 -1.64144,-9.22121 -1.43626,-13.93427 0,-1.22949 0.20518,-2.45899 -0.20518,-3.68848 -0.82072,-2.86882 -1.0259,-5.94255 -1.0259,-9.01629 0,-4.50814 -1.02589,-9.01628 -0.41035,-13.52443 -1.23108,-3.48356 -0.20518,-7.17204 0,-10.65561 0.20518,-4.50814 0,-9.01629 -0.20518,-13.72935 0,-0.81966 -0.41036,-1.63932 -0.41036,-2.6639 -3.07769,0.20492 -3.07769,0.20492 -4.9243,1.43441 0,2.86882 0,5.53272 0,8.19662 0,3.68849 -0.20518,7.58188 0.41035,11.27036 0.41036,2.25408 0,4.91798 0.20518,7.17205 0,0.81966 0,1.84424 0.20518,2.6639 2.25697,7.17205 1.0259,10.65562 -5.53984,14.13918 -0.20518,0 -0.20518,0.20492 -0.61554,0.61475 0,2.45899 -1.43625,4.30323 -3.69322,5.53272 -1.84662,1.02458 -3.48805,2.45899 -3.69323,4.71306 -0.20518,1.22949 -1.23108,2.04916 -2.66733,2.25407 -1.0259,0.20492 -2.05179,0.20492 -3.28287,0.40983 0,1.2295 0.20518,2.25408 0.20518,3.27865 0,2.45899 -0.41036,2.86882 -2.87251,3.07374 -3.07769,0.20491 -3.07769,0.20491 -5.74502,1.84424 -0.41036,1.63932 -0.82072,3.27865 -1.43625,4.71306 -0.61554,1.63932 -1.64144,2.45899 -3.48805,2.45899 -0.61554,0 -1.23108,0 -1.84662,0.20491 -0.82071,0.40983 -1.43625,1.02458 -2.05179,1.63933 -0.41036,0.40983 -0.61554,1.02457 -0.61554,1.63932 -0.41036,2.04916 -1.84661,3.07374 -3.69322,3.48357 -2.0518,0.61474 -3.69323,-0.20492 -4.51395,-2.25408 -0.61554,0.20492 -1.23107,0.40984 -1.84661,0.40984 -2.87251,0.40983 -4.71912,-0.81967 -5.53984,-3.48357 -0.41036,-1.22949 -0.61554,-2.25407 -1.0259,-3.48357 -0.20518,-0.61474 -0.61554,-1.02457 -1.23107,-1.63932 -1.23108,0 -2.46215,0 -3.89841,-0.20492 -2.25697,-0.20491 -3.28287,-0.81966 -3.89841,-3.07373 -0.61554,-1.84424 -0.82071,-3.8934 -1.43625,-5.94255 -1.23108,0.20491 -2.05179,0.40983 -3.07769,0.40983 -2.46215,0.20491 -3.69323,-0.61475 -4.10359,-3.07374 -0.20518,-0.81966 -0.20518,-1.84424 -0.20518,-2.6639 0,-1.02458 -0.20517,-2.04916 -0.20517,-3.27865 -1.23108,-0.61475 -2.462157,-1.22949 -3.693232,-1.84424 -1.846614,-0.81966 -2.667331,-2.04916 -2.256973,-3.8934 0,-0.61474 0.20518,-1.22949 0.20518,-1.84424 0.615538,-2.45899 0.205179,-4.71306 -1.231076,-6.96713 -0.820717,-1.63932 -1.436255,-3.27865 -1.846613,-5.12289 -1.436255,-4.50814 -2.87251,-9.01629 -3.488048,-13.72935 -0.20518,-1.63932 -0.410359,-3.27865 -0.20518,-4.91797 0.20518,-1.84424 0,-3.8934 -0.205179,-5.94256 0,-0.61474 -0.820717,-1.22949 -1.231076,-1.84424 -4.308764,2.66391 -3.693227,6.76222 -3.488047,10.65562 0.205179,3.68848 1.025896,7.58187 1.641434,11.27036 0,0.20491 0.205179,0.61474 0.205179,0.81966 0.410359,6.14747 1.025897,12.29494 1.436255,18.64732 0,1.02458 -0.205179,2.04916 -0.410358,3.07373 -0.820717,3.68849 -1.641435,7.37697 -2.462152,11.06545 0,0.40983 -0.205179,0.81966 -0.205179,1.43441 -0.205179,5.3278 -0.410359,10.65561 -0.615538,15.98342 0,3.07373 0,6.14747 0,9.01628 0,1.43441 -0.205179,3.07374 -0.205179,4.50815 -0.205179,2.45899 -0.410359,4.91797 -0.615538,7.17205 0,0 0,0 0,0 5.129482,1.02457 10.464143,1.84424 15.593626,2.45898 7.181274,1.02458 14.772904,1.84424 22.159364,1.43441 7.18127,-0.40983 14.15737,-1.63932 21.33864,-2.86882 12.9263,-2.45898 25.64741,-5.12289 38.77889,-6.76221 1.64143,-0.20492 3.48805,-0.40983 5.12948,-0.81966 0,-0.20492 -0.41036,-1.02458 -0.41036,-2.04916 z" />
    <path
       style="fill:#ffffff"
       inkscape:connector-curvature="0"
       id="path5432"
       d="m 75.577146,86.43284 c 3.484501,-2.45247 6.764031,-4.904941 10.043561,-6.948667 3.27953,-2.043725 6.969002,-3.678706 10.453502,-5.313687 1.024853,0.204373 2.049707,0.408746 3.07456,0.408746 1.229821,0.204372 2.459651,0 3.484501,-0.817491 0.81988,-0.613118 1.63976,-1.226235 2.66462,-1.839353 2.25467,-1.430608 3.4845,-1.226235 5.5342,0.81749 1.63977,1.634981 3.48451,3.065589 5.12427,4.496197 1.63977,1.430608 3.68947,1.430608 5.53421,0.81749 1.02485,-0.408745 2.0497,-0.81749 2.86959,-1.430608 2.25467,-1.430608 4.71432,-1.430608 6.76403,0.204373 3.68947,2.861216 7.99385,3.269961 12.29823,3.474333 1.84474,0 3.27953,0.613118 4.30439,2.043726 0.40994,0.408745 0.81988,0.81749 1.22982,1.430608 1.84474,2.452471 4.30438,3.883079 7.37894,3.269961 2.45965,-0.408745 4.50936,0.613118 6.14912,2.248098 0.81988,0.613118 1.63977,1.430608 2.45965,2.043726 1.84474,1.226236 3.27953,2.656843 3.89444,4.904942 0.20497,0.81749 0.61491,1.839353 1.22983,2.452471 2.0497,1.839355 2.0497,4.291825 1.84473,6.744295 -0.40994,6.33555 -1.02485,12.6711 -1.43479,19.00665 -0.20497,4.29182 -0.20497,8.78802 -0.40994,13.07984 0,1.83936 0,3.67871 -0.61492,5.31369 -0.40994,1.02186 -0.20497,2.04372 -0.20497,3.06559 0.20497,3.47433 0,6.94866 -0.81988,10.423 -1.63976,7.76616 -3.4845,15.32794 -6.969,22.48098 -0.61491,1.43061 -1.4348,2.65684 -1.84474,4.08745 -1.22982,3.47434 -3.27953,6.33555 -5.32923,9.40114 -3.89444,5.51806 -8.60877,10.01426 -13.73303,14.30608 -3.07456,2.65684 -6.55907,4.29182 -10.24854,5.51806 -0.61491,0.20437 -1.43479,0.61312 -2.25467,0.61312 -6.76403,0.20437 -13.73303,1.02186 -20.29209,-1.83936 -2.04971,-0.81749 -3.89445,-1.4306 -5.94415,-2.24809 -4.714328,-1.63498 -8.81374,-3.88308 -12.503211,-7.15304 -0.614912,-0.61312 -1.229824,-1.02187 -1.844736,-1.43061 -7.173972,-4.08745 -12.093267,-10.423 -17.012562,-16.75855 -0.819883,-1.22624 -1.434795,-2.65685 -2.049706,-4.08745 -1.434795,-3.67871 -2.664619,-7.35742 -3.894442,-11.03612 -0.614912,-1.63498 -0.819883,-3.26996 -1.024854,-4.90494 -1.024853,-6.53993 -2.049706,-13.07985 -3.074559,-19.61977 -0.204971,-1.02186 -0.409941,-2.04373 -0.409941,-3.06559 0.20497,-6.13118 -1.024853,-12.05798 -2.254677,-17.98478 -1.434794,-6.7443 -0.819883,-13.07985 2.049706,-19.4154 1.024853,-2.2481 2.664618,-4.496195 1.639765,-7.357411 -0.204971,-0.613118 0.204971,-1.430608 0.819883,-2.043726 1.639765,-2.043726 3.4845,-4.087451 5.329236,-6.131177 0.614912,-0.81749 1.639765,-1.226236 2.664618,-1.839353 1.024853,-0.613118 2.254677,-0.81749 3.484501,0 0.614912,0.204372 1.229824,0.408745 1.844735,0.613117 z m 34.025124,80.31842 c -0.61491,0.81749 -1.43479,1.63498 -2.04971,2.65684 -0.81988,1.43061 -2.0497,2.2481 -3.27953,3.06559 -1.63976,1.02186 -3.4845,1.83935 -5.534203,2.2481 -3.4845,0.61312 -3.894441,2.04373 -1.639765,4.90494 1.229824,1.63498 2.254677,3.06559 3.279528,4.70057 1.22983,1.83935 2.25468,3.88308 3.4845,5.9268 0.81989,1.43061 1.63977,2.65685 3.07456,3.06559 2.66462,1.02187 4.50936,3.06559 6.14912,5.31369 3.07456,4.08745 7.78888,4.4962 11.27339,0.81749 1.22982,-1.22623 1.84473,-2.65684 2.86958,-4.08745 1.02486,-1.43061 2.04971,-3.06559 3.27953,-4.29182 4.50936,-4.08746 7.99386,-8.9924 10.65848,-14.51046 1.43479,-2.65684 0.81988,-4.08745 -2.04971,-4.49619 -1.43479,-0.20438 -2.66462,-0.20438 -4.09941,-0.40875 -1.22983,0 -2.45965,0 -3.68947,0 -2.04971,0.20437 -3.89445,-0.20437 -5.12427,-2.2481 -0.20497,-0.40874 -0.61491,-0.81749 -0.81988,-1.02186 -2.04971,-1.83935 -4.09941,-2.2481 -6.55906,-0.81749 -1.22982,0.61312 -2.45965,1.63498 -3.4845,2.2481 -2.66462,-0.40875 -3.27953,-3.06559 -5.73918,-3.06559 z m -2.04971,-44.96197 c 0,5.51806 0,10.21863 0,14.71483 0,5.51806 0.40995,11.03612 -2.45964,16.3498 -0.81989,1.63499 -0.20497,3.47434 1.43479,4.70057 2.86959,2.2481 6.14912,3.88308 9.63362,4.90495 0.40994,0.20437 1.02485,-0.20438 1.84474,-0.20438 -0.61492,-2.04372 -1.84474,-3.06559 -3.27953,-3.88308 -0.81989,-0.61311 -1.84474,-1.02186 -2.86959,-1.4306 -1.4348,-0.61312 -2.66462,-1.43061 -3.4845,-3.26996 2.66461,-5.10932 2.66461,-10.83175 2.45964,-16.55418 -0.20497,-2.86122 0,-5.72243 0,-8.58365 0,-2.04373 -0.61491,-3.88308 -1.63976,-5.51806 -0.20497,-0.20437 -0.61491,-0.40874 -1.63977,-1.22624 z m 39.14939,9.60552 c -0.81988,-0.40875 -1.22982,-0.8175 -1.84473,-1.02187 -1.4348,-0.20437 -3.07456,-0.20437 -4.50935,0 -5.32924,0.40875 -8.4038,5.10932 -6.76404,10.21863 0.20497,0.61312 0.20497,1.22624 0.61492,1.63498 0.81988,1.83935 1.84473,2.45247 3.89444,2.45247 2.0497,0 3.4845,-1.22623 4.30438,-2.86121 1.22982,-2.45247 2.45965,-4.90495 1.02485,-7.76616 0,-0.20437 0.20497,-0.61312 0.20497,-0.81749 0.81989,-0.20437 1.84474,-0.81749 3.07456,-1.83935 z m -63.54089,6.53992 c -0.204971,0.61312 -0.204971,1.22623 -0.409941,1.83935 -0.614912,2.04373 -0.614912,4.08745 0.409941,6.13118 0.819882,1.83935 2.254677,2.65684 4.304383,2.65684 2.049706,-0.20437 3.894442,-1.22623 4.509354,-3.26996 0.614912,-2.2481 1.024853,-4.70057 -0.204971,-6.53992 -1.229824,-2.2481 -3.484501,-4.08745 -6.149119,-4.29183 -2.254677,-0.20437 -4.509354,0.20438 -6.76403,0.40875 -0.409942,0 -1.024854,0.81749 -0.819883,1.22623 0,0.40875 0.614912,1.02187 1.229824,1.22624 1.024853,0.20437 2.254677,0.40874 3.894442,0.61312 z m 63.54089,-23.0941 c -0.40994,-0.61312 -0.61491,-1.22624 -0.81988,-1.43061 -1.22982,-0.20437 -2.45965,-0.61312 -3.4845,-0.40875 -5.73918,0.8175 -10.65847,3.26997 -14.96286,6.94867 -0.20497,0.20437 -0.20497,0.61312 -0.40994,1.02187 0.61492,0.20437 1.4348,0.61311 1.84474,0.61311 0.81988,-0.20437 1.63976,-0.61311 2.45965,-1.22623 4.30438,-2.45247 9.01871,-4.29183 13.938,-5.10932 0.40994,0 0.81988,-0.20437 1.43479,-0.40874 z m -69.89498,2.04372 c -0.409941,1.22624 0.204971,1.63498 0.819883,1.83936 1.229824,0.20437 2.664618,0.20437 4.099412,0.40874 1.844736,0.20437 3.894442,0.40875 5.739178,0.81749 2.049706,0.40875 3.894442,1.02187 5.944148,1.63498 0.819883,-0.81749 0.614912,-1.83935 0,-2.45247 -0.614912,-0.81749 -1.639765,-1.43061 -2.459647,-1.83935 -4.714325,-1.02186 -9.428649,-1.43061 -14.142974,-0.40875 z" />
    <path
       style="fill:#ffffff"
       inkscape:connector-curvature="0"
       id="path5434"
       d="m 19.611762,220.28253 c 0.815967,-0.40903 1.631933,-0.81805 2.447899,-1.02256 2.243908,-0.81805 2.855883,-2.24963 2.651891,-4.70378 -0.407983,-2.86316 -1.019958,-5.72633 -2.243907,-8.18047 -0.611975,-1.22707 -1.427942,-2.45415 -2.4479,-3.27219 -2.243907,-2.04512 -4.691806,-3.88573 -6.935714,-5.72634 -1.019958,-0.81804 -1.835925,-1.63609 -2.651891,-2.45414 -2.039916,-1.63609 -3.2638656,-3.68121 -3.6718488,-6.54438 -0.2039916,-1.84061 -1.019958,-3.88573 -1.6319328,-5.72633 -1.4279412,-4.70378 -1.4279412,-9.20304 -0.4079832,-13.90681 0.2039916,-0.81805 0.4079832,-1.43158 0.4079832,-2.24963 0.6119748,-6.33987 3.059874,-12.0662 6.5277316,-17.179 3.263865,-4.70377 6.119748,-9.61206 9.179622,-14.52035 0.203991,-0.40902 0.407983,-0.81804 0.815966,-1.02255 1.427941,-0.81805 1.835925,-2.24964 1.835925,-3.88573 0.203991,-1.6361 -0.407984,-2.86317 -1.22395,-4.29475 -1.22395,-2.04512 -3.059874,-3.27219 -5.09979,-4.49926 -1.835924,-1.02256 -3.671849,-2.04512 -5.303782,-3.27219 -1.631933,-1.02256 -2.6518906,-2.86317 -3.0598738,-4.70378 -1.6319328,-7.36242 1.2239498,-13.29327 5.9157568,-18.610579 2.447899,-2.863166 5.303781,-5.317309 7.955672,-7.975964 2.243908,-2.249631 3.671849,-4.703773 4.895799,-7.56694 1.223949,-2.863166 1.019958,-5.726333 -0.407984,-8.180476 -1.835924,-3.067678 -3.671848,-6.339868 -5.915756,-8.998523 -3.059874,-3.476702 -3.059874,-7.362428 -1.019958,-11.043642 2.039916,-3.885726 4.895798,-7.157917 8.363656,-10.021083 3.467857,-2.863167 7.139706,-5.726333 10.811555,-8.180476 2.243907,-1.431583 4.079832,-3.476702 6.935714,-4.090238 1.631933,-0.409024 2.855883,-1.840607 3.467857,-3.476702 0.611975,-1.636095 1.019958,-3.476702 1.22395,-5.317309 0.203991,-2.454143 1.019958,-4.29475 2.243907,-6.339869 1.835925,-2.658655 4.283824,-4.4992618 6.731723,-6.5443807 1.22395,-1.0225595 2.651891,-1.4315833 4.283824,-1.2270714 1.835924,0.2045119 3.467857,-0.4090238 5.09979,-1.0225595 2.447899,-0.8180475 4.895799,-1.2270713 7.547689,-1.4315832 1.835925,-0.2045119 3.671849,0 5.507774,0 2.039916,0 4.079832,-0.2045119 5.915756,1.4315832 0.815967,0.8180476 2.243908,0.8180476 3.467857,1.0225595 5.507774,1.6360952 10.811551,3.6812141 15.707351,6.9534041 1.42794,1.02256 2.65189,1.840607 3.46786,3.272191 -0.20399,1.227071 -1.01996,1.227071 -1.63193,1.227071 -3.26387,0 -6.73173,0 -9.995591,0 -5.915757,0 -10.811555,2.249631 -15.095379,6.339869 -1.835924,1.840607 -3.671849,3.681214 -5.507773,5.521821 -3.059874,3.27219 -3.671849,4.908285 -3.467857,9.612059 -1.22395,1.636095 -3.467858,2.249631 -5.303782,3.27219 -3.059874,1.636095 -5.507773,3.681214 -7.139706,6.748893 -0.203992,0.409024 -0.203992,0.818047 -0.407983,1.227071 l 0.203991,-0.204512 c -1.631933,0.818048 -2.243907,2.249631 -2.855882,3.885726 l 0.203991,-0.204512 c -2.243907,1.636096 -3.671848,4.090238 -5.09979,6.339869 -2.243907,3.476702 -4.283823,6.953405 -6.527731,10.430107 -1.631933,2.658654 -2.855882,5.317309 -4.487815,7.975964 -1.835925,-0.818048 -2.855883,-2.454143 -3.671849,-3.885726 -0.815966,-1.227072 -0.611975,-2.658655 -0.203992,-3.885726 0.815967,-2.454143 1.835925,-4.703774 3.467858,-6.748893 1.223949,-1.431583 2.243907,-3.27219 3.263865,-4.908285 1.019958,-1.636095 1.427941,-3.476703 0.611975,-5.112798 -1.019958,-2.658654 0,-4.294749 2.243908,-5.726333 2.039916,-1.431583 4.079832,-3.067678 6.119748,-4.703773 0.815966,-0.613536 1.427941,-1.227072 2.243907,-1.636096 3.059874,-1.227071 4.895799,-3.681214 6.935715,-5.726333 1.631933,-1.840607 1.631933,-2.454142 -0.407983,-4.499261 C 64.285923,30.7 63.87794,30.495488 63.469957,29.881952 c 0.407983,-0.818047 0.611974,-1.636095 1.223949,-2.24963 2.4479,-2.454143 5.09979,-4.703774 8.771639,-5.521822 2.447899,-0.409023 4.691807,-1.022559 6.935715,-1.636095 2.039916,-0.613535 3.87584,-1.227071 6.119748,-2.045119 -0.815967,-0.818047 -2.039916,-1.022559 -3.059874,-1.022559 -4.283824,0.409024 -8.363656,0.818047 -12.443488,1.840607 -4.079832,1.022559 -6.935715,3.681214 -9.587605,6.54438 -2.039916,2.454143 -2.243908,5.112798 0,7.975964 -1.631933,1.840607 -2.855883,3.681214 -5.303782,4.499262 -0.815966,0.204512 -1.427941,1.02256 -2.243908,1.431583 -2.243907,1.636095 -4.283823,3.272191 -6.527731,4.908286 -0.407983,0.204512 -0.815966,0.613536 -1.019958,0.818047 -2.651891,1.840608 -3.87584,4.499262 -2.651891,7.566941 1.22395,3.067678 0,5.317309 -1.835924,7.56694 -2.039916,2.454142 -3.671849,5.112797 -4.691807,8.180475 -1.631933,4.090238 -1.019958,6.339869 2.243908,9.203036 0.815966,0.818047 1.835924,1.636095 2.65189,2.454142 0.203992,0 0.203992,0.204512 0.203992,0.409024 0,0.204512 0.203992,0.613536 0,0.818048 -0.611975,3.681214 -1.019958,7.157916 -1.835924,10.634618 -0.815967,3.885726 -0.815967,7.362429 1.019958,11.04364 1.631932,3.27219 2.855882,6.95341 2.855882,10.83913 0,3.27219 0.407983,6.54438 0.611975,10.02109 0.203991,1.22707 0.407983,2.45414 1.019958,3.4767 0.407983,1.02256 1.22395,2.04512 1.835924,3.06768 -0.203991,0.40902 -0.203991,0.81804 -0.407983,1.02256 -4.283824,4.29475 -4.487815,9.81657 -3.671849,15.13388 1.427941,8.79401 5.915757,16.15644 11.219538,23.10984 1.631933,2.04512 4.079832,2.65865 6.527732,3.27219 1.019958,2.86317 2.039916,5.93085 2.855882,8.99852 0.611975,2.04512 1.427941,3.88573 2.855883,5.72634 1.223949,1.63609 2.039915,3.4767 2.447899,5.72633 0.203991,1.63609 1.019958,3.4767 1.835924,5.1128 1.019958,1.8406 1.631933,3.68121 1.427941,5.72633 -0.203991,2.65866 -0.611974,5.31731 -1.019958,8.18048 -0.203991,1.8406 -0.611975,3.68121 -0.407983,5.31731 0.203992,3.27219 1.631933,6.13535 4.691807,7.77145 1.22395,0.61353 2.447899,1.02256 3.671849,1.63609 0.203991,0.81805 0.815966,1.6361 0.815966,2.65866 0.203992,3.68121 1.22395,7.15791 3.263866,10.22559 0.611975,0.81805 0.611975,2.04512 0.407983,3.06768 -0.203991,1.43158 -0.611975,3.06768 -1.019958,4.49926 -1.631933,4.29475 -3.467857,8.5895 -5.09979,13.08876 -0.611975,1.6361 -1.019958,3.47671 -1.427941,5.1128 -0.407983,1.43158 -0.611975,2.86317 -1.019958,4.70377 -0.611975,-0.40902 -1.22395,-0.61353 -1.427941,-1.02256 -1.631933,-2.24963 -3.263866,-4.49926 -4.691807,-6.54438 -2.651891,-3.88572 -4.079832,-7.97596 -3.875841,-12.88425 0.203992,-2.45414 -0.611975,-5.11279 1.019958,-7.56694 0,-3.06767 0.203992,-6.13535 0,-8.99852 -0.407983,-4.49926 0,-8.79401 1.019958,-13.08876 0.815967,-3.4767 0.611975,-6.9534 0,-10.43011 -0.407983,-2.45414 -1.631933,-4.49926 -3.671849,-6.13535 -1.835924,-1.43159 -3.263865,-3.06768 -5.09979,-4.49927 -1.631932,-1.22707 -2.039916,-2.86316 -1.835924,-4.90828 0.203992,-2.86317 0.407983,-5.72633 0.203992,-8.5895 -1.427942,2.86317 -1.835925,5.93084 -2.4479,8.79401 -0.407983,2.45414 0.203992,4.70377 2.243908,6.54438 1.835924,1.6361 3.467857,3.27219 5.303782,4.90829 1.223949,1.02256 2.039916,2.24963 2.447899,3.68121 0.611975,3.06768 1.019958,6.33987 0.203991,9.40755 -0.815966,3.68121 -1.427941,7.36243 -2.039916,11.04364 -0.203991,0.81805 0,1.84061 0,2.65866 0,3.27219 0,6.74889 -0.203991,10.02108 0,1.22707 -0.407983,2.24963 -1.22395,3.27219 -0.815966,0.81805 -1.427941,1.84061 -2.243907,2.86317 -2.651891,3.68121 -2.855883,7.97596 -2.4479,12.27071 0,0.81805 0.407984,1.84061 1.019958,2.45414 2.4479,2.86317 2.651891,6.13536 2.039916,9.40755 -0.407983,2.24963 -1.223949,4.29475 -0.611974,6.54438 -0.203992,-0.20451 -0.611975,-0.40902 -0.815967,-0.61354 -0.407983,-0.61353 -0.815966,-1.22707 -1.019958,-2.04512 -1.835924,-3.27218 -4.283824,-5.72633 -7.955672,-6.13535 -5.711765,-0.81805 -7.343698,-5.1128 -9.179622,-9.61206 -0.407984,-1.02256 -0.407984,-2.45414 -0.815967,-3.4767 -2.039916,-5.31731 -0.203991,-9.61206 2.855883,-13.90681 1.019958,-1.43159 1.835924,-2.65866 2.65189,-4.09024 1.019958,-1.84061 1.631933,-3.88573 1.631933,-6.13536 0,-3.27219 0,-6.54438 -1.019958,-9.81657 -0.611975,-1.63609 -1.427941,-2.86316 -2.447899,-4.09024 -1.22395,0.20452 -0.815966,1.02256 -0.815966,1.43159 0.203991,3.27219 0.407983,6.54438 0.815966,10.02108 0.407983,4.09024 -1.019958,7.56694 -3.467857,10.43011 -2.243908,2.45414 -3.059874,5.52182 -4.283824,8.38498 -1.019958,2.65866 -0.203991,5.31731 0.815966,7.97597 1.019958,2.24963 0.815967,2.24963 0.611975,5.1128 -3.263865,-0.81805 -6.119748,-2.24963 -8.771639,-4.29475 -1.427941,-1.22708 -1.631932,-2.86317 -1.223949,-4.49927 0.815966,-4.09023 1.223949,-7.97596 2.855882,-11.86169 0.611975,-1.43158 0.815967,-2.86316 1.22395,-4.29475 0.203991,-1.63609 0,-3.06767 -1.427941,-4.09023 -1.22395,-1.02256 -1.427942,-2.45415 -0.815967,-3.68122 1.22395,-3.27219 2.447899,-6.54438 3.875841,-9.61206 0.815966,-1.63609 1.835924,-3.27219 1.427941,-5.11279 -0.407983,-2.86317 -1.019958,-5.93085 -1.631933,-8.79401 0,-0.20452 -0.407983,-0.40903 -1.019958,-0.81805 0.203992,2.04512 0.407983,3.88572 0.815967,5.52182 0.407983,2.86316 0,5.72633 -1.427942,8.38499 -1.835924,3.27219 -3.263865,6.74889 -4.895798,10.22559 -0.815967,1.84061 -0.611975,3.68122 0.611975,5.1128 2.243907,2.45414 1.835924,4.70377 0.407983,7.36243 -2.243908,3.88572 -3.263866,8.38498 -3.671849,13.08876 0,0.61353 -0.203992,1.22707 -0.203992,1.8406 0,0 -0.203991,0.20452 -0.611974,0.40903 -1.835925,-0.61354 -3.059874,-2.24963 -4.283824,-3.4767 -1.019958,-1.02256 -2.243908,-2.04512 -3.059874,-3.47671 -1.22395,-2.04511 -1.22395,-4.29475 -0.815967,-6.54438 0.815967,-3.4767 1.631933,-7.15791 1.631933,-10.83913 0,-0.61353 0.203992,-1.22707 0.407983,-1.8406 1.22395,-4.90829 2.243908,-8.38499 3.263866,-11.86169 0.203992,-0.20452 0,0 0,0 z m 13.871429,-85.895 c -2.447899,1.43158 -2.855882,3.27219 -3.467857,4.90829 -1.835925,5.52182 -2.039916,10.63461 2.447899,15.13388 0.815966,0.81804 1.835924,1.63609 2.651891,2.45414 1.835924,1.43158 3.263866,3.27219 3.467857,5.72633 0.407983,6.13536 0.203992,12.0662 -3.87584,17.179 -1.427942,1.84061 -2.855883,3.88573 -3.875841,6.13536 -2.243907,5.31731 -2.243907,9.40754 3.671849,11.86169 2.447899,1.02256 4.487815,2.45414 6.32374,4.09024 3.671849,3.27219 5.711765,7.15791 5.915756,12.27071 0,2.24963 0,4.49926 0,6.74889 0,0.81805 0.407984,1.84061 0.611975,2.65866 0.203992,0.20451 0.815966,0.61353 1.019958,0.61353 0.407983,0 0.815967,-0.40902 1.019958,-0.61353 0.203992,-0.40903 0.407983,-1.02256 0.407983,-1.6361 0,-3.06768 0,-6.13536 0,-8.99852 -0.203991,-4.09024 -2.65189,-7.36243 -4.487815,-10.83913 -2.855882,-2.04512 -5.09979,-5.31731 -8.771639,-6.33987 -1.631933,-0.40903 -3.059874,-1.43158 -3.87584,-2.65866 -0.611975,-2.45414 0,-4.70377 1.427941,-6.54438 1.22395,-1.8406 2.243907,-3.88572 3.671849,-5.72633 1.835924,-2.45414 3.059874,-5.31731 3.467857,-8.38499 0.407983,-3.4767 0.407983,-6.9534 0.203992,-10.4301 0,-1.22708 -0.815967,-2.65866 -1.427942,-3.68122 -1.019958,-1.63609 -2.243907,-3.27219 -4.079832,-4.29475 -2.039916,-1.22707 -3.671848,-3.4767 -4.079832,-5.72633 -0.611975,-3.27219 -0.815966,-6.54438 0.203992,-9.81657 0.815966,-1.43159 1.019958,-2.45414 1.427941,-4.09024 z m 1.019958,-49.082854 c -2.039916,2.454143 -3.671849,3.885726 -4.691807,5.521821 -2.039916,3.27219 -3.87584,6.748893 -5.507773,10.430103 -1.427941,2.86317 -1.631933,5.72634 -0.815966,8.79401 1.427941,0.61354 2.65189,1.22708 3.87584,1.6361 3.059874,1.22707 4.895799,3.27219 4.487815,6.9534 -0.203991,2.24964 0,4.70378 0,7.77146 2.039916,-3.88573 1.427941,-7.15792 1.631933,-10.43011 0.203992,-2.24963 -0.815966,-3.68121 -2.651891,-4.90828 -1.631933,-1.02257 -3.263865,-2.24964 -4.691807,-3.2722 -0.407983,-2.65865 0.203992,-4.70377 1.22395,-6.74889 2.039916,-4.090236 3.87584,-8.180474 6.935714,-11.657176 0.407984,-0.409024 0.611975,-1.02256 0.815967,-1.636095 0,-0.409024 -0.203992,-0.818048 -0.611975,-2.454143 z m 23.867018,96.325104 c 0,-0.20451 0,-0.20451 0,-0.40903 -0.203992,0.20452 -0.203992,0.20452 -0.407984,0.40903 0.203992,0 0.203992,0 0.407984,0 z" />
    <path
       style="fill:#ffffff"
       inkscape:connector-curvature="0"
       id="path5436"
       d="m 62.292032,49.415596 c 1.225237,-0.817667 2.858888,-1.226501 3.879919,-2.248585 5.309363,-4.701588 11.435551,-7.76784 17.970152,-10.425259 6.738808,-2.861836 13.886027,-5.110421 21.237457,-6.541339 11.02714,-2.044169 21.85007,-1.635335 32.673,2.453002 1.42944,0.613251 2.85889,1.022084 4.28833,1.430918 7.75984,2.044168 14.49865,6.132505 20.62484,11.038509 3.87992,3.066253 6.7388,6.745756 8.98507,11.242927 0.61262,1.430917 1.22524,2.657419 1.83786,4.088336 1.22524,3.475087 3.06309,6.541339 5.30936,9.403175 0.81683,0.817668 1.22524,2.044169 1.63365,3.066253 0.20421,0.204417 0.20421,0.61325 0.40841,0.817667 5.10516,12.469427 3.67572,8.381091 3.67572,21.054935 0,1.839751 -0.40841,3.679503 -1.02103,5.314835 -2.45048,5.92809 -4.90095,12.0606 -7.35143,17.98869 0,0.20441 -0.40841,0.20441 -0.81682,0.40883 0,-1.02209 0,-2.04417 0,-3.06625 0.2042,-2.86184 0.40841,-5.72368 0.61261,-8.58551 0.20421,-2.65742 -0.2042,-5.11042 -1.63365,-7.359008 -1.83785,-2.861836 -3.4715,-5.928088 -5.30936,-8.994341 -2.04206,-3.066253 -5.10516,-4.49717 -8.16825,-6.132505 -0.81683,-0.408834 -1.83786,-0.408834 -2.65468,-0.204417 -3.0631,0.408834 -5.51357,-0.61325 -7.55563,-3.066253 -0.20421,-0.408833 -0.61262,-0.61325 -1.02104,-0.817667 -1.42944,-1.226501 -3.06309,-1.839752 -4.90095,-2.044168 -2.45047,-0.204417 -5.10515,-0.408834 -7.55563,-1.022085 -1.22524,-0.204416 -2.24627,-1.022084 -3.2673,-1.430917 -1.63365,-0.817668 -3.06309,-1.839752 -5.10516,-1.839752 -2.24627,0 -4.49253,-0.204417 -6.5346,1.430918 -2.04206,1.635335 -4.28833,1.226501 -6.12618,-0.408834 -1.83786,-1.635334 -3.47151,-3.270669 -5.51357,-5.314838 -3.87992,-1.430918 -7.14722,0.817668 -10.21032,3.475087 -0.816823,-0.204417 -1.429442,-0.408834 -2.246267,-0.613251 -1.63365,-0.408834 -3.063094,-0.204417 -4.696745,0.817668 -2.042062,1.430917 -4.288331,2.248585 -6.330394,3.475086 -2.246269,1.226501 -4.696745,2.248585 -6.534601,3.88392 -2.858888,2.248585 -5.717776,4.292753 -9.801901,3.88392 -0.612619,-1.839752 0,-3.475087 0.408412,-5.314838 0.612619,-2.453002 1.021032,-5.110421 1.021032,-7.563423 0.204206,-4.292754 0.408412,-8.381091 1.021031,-12.673844 0.408412,-2.248586 1.225238,-4.292754 2.042063,-6.541339 0.816825,-2.248586 0.816825,-3.475087 -0.204207,-3.475087 -1.63365,0 -1.837856,1.430918 -2.246269,2.453002 -1.837856,4.088337 -3.063094,8.176674 -3.2673,12.673845 0,3.88392 -0.816825,7.76784 -1.021031,11.65176 -0.204207,3.270669 0,6.541338 0,10.425258 -2.042063,2.248586 -4.288332,4.906005 -6.738808,7.563424 -0.612618,0.817667 -1.021031,1.839751 -1.63365,2.657419 -1.225237,2.044168 -2.246269,4.29275 -3.471506,6.33692 -1.633651,-0.20441 -1.429444,-1.43092 -1.429444,-2.04417 -0.204207,-1.226498 -0.204207,-2.657416 -0.204207,-4.088334 0.204207,-5.314837 0.204207,-10.629675 0.408413,-15.944513 0,-1.022084 0.204206,-2.044169 0.204206,-3.27067 0.204206,-0.204417 0.408413,-0.408833 0.408413,-0.61325 0,0 -0.204207,-0.204417 -0.204207,-0.204417 0,0.408834 -0.204206,0.61325 -0.204206,1.022084 -0.204206,0.204417 -0.612619,0.204417 -0.816825,0.408834 -0.204206,0.817667 -0.612619,1.635335 -0.612619,2.657419 -0.612619,6.950172 -1.225238,13.900345 -1.429444,20.850517 -0.204206,2.86184 1.021032,5.72367 0.612619,8.58551 -0.408413,2.65742 -0.612619,5.31484 -0.612619,7.97226 0,2.65741 0.408413,5.31483 2.246269,7.56342 1.225238,1.63533 1.225238,3.88392 1.021032,6.33692 -0.816825,-0.20442 -1.429444,-0.40883 -1.837857,-0.61325 -2.246269,-1.43092 -3.675713,-3.47509 -5.105157,-5.72367 -0.408412,-0.81767 -0.612619,-1.63534 -0.816825,-2.65742 -0.408412,-3.6795 -0.816825,-7.56342 -1.225238,-11.24293 -0.408412,-3.6795 -1.63365,-7.15459 -3.2673,-10.42526 -1.429444,-2.861832 -1.225238,-5.723668 -0.816825,-8.78992 0.612619,-4.088337 1.63365,-7.972257 2.450475,-11.856177 0.612619,-3.066253 2.042063,-5.928089 3.675713,-8.789924 2.246269,-4.088337 4.492538,-8.176674 6.330395,-12.469428 0.612619,-1.430918 1.63365,-2.657419 2.246269,-3.88392 0.612619,-0.817667 1.021031,-1.839751 1.429444,-2.861836 l -0.204206,0.204417 c 1.837856,-0.61325 2.654681,-2.044168 3.063094,-3.475086 z m 87.400288,-4.088337 c 4.08412,4.701587 8.16825,8.789924 10.61872,14.104762 2.85889,6.132505 6.12619,12.265011 6.94302,19.010766 0,0.204417 0.2042,0.613251 0.2042,0.817668 0.20421,0.408834 0.61262,0.817667 0.81683,0.817667 0.40841,-0.204417 1.22524,-0.408833 1.42944,-0.817667 0.61262,-2.453002 1.02103,-5.110421 0,-7.563423 -1.63365,-4.292754 -3.2673,-8.381091 -5.10515,-12.673844 -0.81683,-1.839752 -2.04207,-3.679504 -3.2673,-5.314838 -2.04207,-2.861836 -4.49254,-5.314838 -6.53461,-8.176674 -1.42944,-2.248585 -3.4715,-2.861836 -5.71777,-3.88392 -0.61262,0.817667 -1.02103,1.226501 -1.42944,1.839752 -0.40842,-0.204417 -0.40842,-0.408834 -0.61262,-0.408834 -0.81683,-0.817667 -1.22524,-2.248585 -2.85889,-1.635335 -1.02103,0.408834 -0.81683,1.635335 0.2042,3.679503 2.85889,5.110421 5.10516,10.629676 5.92199,16.557765 0.2042,1.022084 0.40841,2.044168 0.61262,3.066252 0.2042,0.408834 0.61262,0.817667 1.22523,1.226501 1.02103,-2.248585 1.22524,-4.292753 1.02103,-6.541339 -0.40841,-3.066252 -1.42944,-5.928088 -2.45047,-8.585507 -0.20421,-1.635335 -1.42944,-3.066253 -1.02103,-5.519255 z m 28.38467,59.076471 c 0.61262,-0.20442 0.81683,-0.20442 1.02103,-0.20442 0.40841,-0.81767 0.81683,-1.63533 0.81683,-2.453 1.22523,-8.176676 0.61262,-16.148933 -1.63365,-24.12119 -0.20421,-1.022084 -1.02103,-2.044168 -1.63365,-3.066252 -0.20421,-0.408834 -1.02103,-0.408834 -1.83786,-0.817668 0.40841,1.839752 0.81683,3.27067 1.02103,4.701587 0.40841,5.723672 0.81683,11.447344 1.22524,17.171015 -0.20421,2.861836 0.20421,5.723668 1.02103,8.789928 z M 127.43383,40.012421 c 0.81683,1.022085 1.42945,1.430918 1.63365,2.044169 1.22524,3.679503 2.24627,7.154589 3.2673,10.834092 1.02104,4.088337 1.83786,8.176674 2.65469,12.469428 0.2042,0.61325 0.61261,1.226501 1.02103,2.044168 1.22524,-2.248585 1.63365,-4.292754 1.02103,-6.541339 -0.61262,-2.657419 -1.02103,-5.314838 -1.42945,-7.972257 -0.61261,-4.292753 -3.06309,-7.76784 -4.49253,-11.856176 -0.20421,-0.408834 -0.81683,-1.022085 -1.22524,-1.226501 -0.61262,-0.204417 -1.22524,0.204416 -2.45048,0.204416 z M 99.049162,42.66984 c -0.204207,1.430918 -0.612619,2.044169 -0.612619,2.861836 -0.204206,6.336922 -0.204206,12.673844 -0.408413,19.010766 0,0.817668 0,1.635335 0.408413,2.248585 0.204206,0.613251 0.816825,1.022085 1.225238,1.430918 1.225239,-1.022084 1.429439,-2.248585 1.429439,-3.475086 0,-5.928088 0,-11.856177 -0.2042,-17.579848 0,-1.022085 -0.40841,-2.044169 -0.61262,-3.066253 0,-0.408834 -0.408413,-0.61325 -1.225238,-1.430918 z m 16.540708,21.872602 c 0.40841,0 0.61262,0 1.02103,0 0.40841,-5.928088 1.02103,-11.65176 0.61262,-17.579848 -0.20421,-2.657419 -0.81682,-5.519255 -2.04206,-8.381091 -1.42945,1.226502 -1.02103,2.453003 -1.02103,3.475087 0.2042,4.292753 0.40841,8.38109 0.61261,12.673844 0.20421,2.453002 0,4.906004 0.20421,7.154589 0.20421,1.022085 0.40841,1.839752 0.61262,2.657419 z m -28.793085,9.403175 c 0.408413,-0.408834 0.816825,-0.61325 0.816825,-0.817667 0.408413,-9.607592 1.63365,-19.215184 1.021031,-28.822775 0,-0.408834 -0.408412,-0.613251 -0.612618,-1.226501 -0.408413,0.408834 -0.816825,0.817667 -0.816825,1.022084 -0.204207,1.226501 -0.204207,2.453002 -0.204207,3.679503 0,5.519255 0,11.242927 -0.816825,16.762181 -0.408412,2.657419 -0.204206,5.519255 -0.204206,8.176674 0.204206,0.408834 0.612619,0.817667 0.816825,1.226501 z M 57.391081,73.536783 V 73.12795 l -0.204206,0.408833 z" />
    <path
       style="fill:#ffffff"
       inkscape:connector-curvature="0"
       id="path5438"
       d="m 93.288604,253.38106 c 1.224443,0 2.448886,-0.20554 3.469255,-0.20554 3.469251,0 6.938511,0 10.407771,-0.20554 4.08147,0 6.53036,-1.02772 9.79554,-3.90532 0.40815,-1.64434 0.61222,-3.28868 1.02037,-4.72748 0.20407,-1.4388 0.40815,-2.67205 0.40815,-4.11085 -0.61222,-5.34411 -0.61222,-10.68822 -2.44889,-15.62125 -0.81629,-2.26097 -1.63259,-4.52194 -2.24481,-6.57737 0.20407,-0.41108 0.20407,-0.61662 0.40815,-0.82217 0.20407,0 0.20407,-0.20554 0.40814,-0.20554 5.71407,0 11.42814,0 17.34628,0 0.61222,1.64434 0.40815,3.28868 0.20407,4.93302 -0.40814,7.194 1.42852,14.18245 3.67333,20.96536 0.8163,2.26097 2.04074,3.69977 4.48963,4.72749 5.71407,2.67205 11.63221,2.67205 17.75442,1.23325 2.04074,-0.41108 4.08148,-1.02771 6.12222,-1.64434 1.63259,-0.41109 3.26518,-0.82217 4.89777,-0.41109 0,4.11086 0,8.01617 0,11.92148 0,3.90532 0,7.81063 0,11.92148 -3.8774,3.28868 -7.55073,6.37183 -11.22406,9.86605 -1.22444,1.23326 -2.04074,3.08314 -3.46926,4.3164 -1.42851,1.02771 -3.46925,1.23326 -4.6937,2.46651 -2.85703,2.67206 -5.50999,5.54966 -8.36702,8.22171 -1.42852,1.4388 -3.06111,2.8776 -4.6937,4.3164 -1.02037,1.02771 -2.04074,2.26097 -2.85704,3.49422 -0.81629,1.23326 -1.63259,2.26097 -3.26518,2.67206 -0.61222,-0.61663 -1.42851,-1.23326 -2.24481,-2.05543 -0.61222,-0.61663 -1.22444,-1.4388 -2.04074,-1.84988 -6.12221,-3.69977 -10.61184,-9.45497 -16.3259,-13.56582 -2.04074,-1.4388 -4.08148,-3.08314 -6.12222,-4.52194 -2.04074,-1.4388 -3.46926,-3.28868 -4.285551,-5.54966 -2.65296,-6.98845 -4.489624,-14.18244 -6.122215,-21.37644 -0.204074,-0.61663 -0.204074,-1.23326 -0.204074,-1.84988 -0.204074,-0.82217 0,-1.23326 0.204074,-1.84989 z m 26.325526,12.33257 c 0.61222,-1.84989 0,-3.08314 -1.22444,-3.69977 -2.65296,-1.64435 -5.30592,-3.28869 -8.16296,-4.72749 -1.42851,-0.61662 -3.0611,-0.61662 -4.28555,0.82217 4.48963,2.46652 8.77518,4.93303 13.67295,7.60509 z m 23.06034,-9.45497 c -5.91814,1.23326 -6.12221,1.4388 -8.16295,4.3164 3.26518,-0.41109 5.91814,-1.02772 8.16295,-4.3164 z" />
    <path
       style="fill:#ffffff"
       inkscape:connector-curvature="0"
       id="path5440"
       d="m 99.206051,285.32877 c 3.090769,2.05479 5.975489,4.31507 8.654159,6.57534 3.29683,2.87671 6.59365,5.9589 9.89047,8.83562 0.82421,0.61643 1.64842,1.43835 2.47262,2.05479 2.88472,1.84932 5.76944,3.90411 7.62391,6.78082 3.09077,0.20548 5.56338,-0.82192 7.2118,-3.28767 1.2363,-2.05479 3.09077,-3.69863 4.94523,-5.13699 3.29682,-2.87671 6.18154,-5.9589 9.27232,-8.83561 1.85446,-1.84932 3.70892,-3.49315 6.18154,-4.52055 0.61815,-0.20548 1.44236,-0.61644 1.85446,-1.23288 4.12103,-4.10959 9.06627,-7.19178 12.77519,-11.71233 0.61816,-0.61643 1.23631,-1.02739 2.26657,-1.84931 0.82421,2.26027 1.03026,3.90411 -0.4121,5.34247 -1.85447,1.84931 -3.70893,3.49315 -5.9755,5.75342 0,0.41096 -0.20605,1.23288 -0.20605,2.05479 -0.20605,1.64384 -1.03025,2.87672 -2.47261,3.49316 -2.88472,1.23287 -4.73919,3.08219 -5.76945,5.9589 -1.85446,0.20548 -3.50287,0.41096 -5.35733,0.61644 -0.41211,1.84931 -0.61816,3.69863 -1.03026,5.13698 -2.88472,1.0274 -5.56339,2.0548 -8.44811,3.0822 -0.20605,1.02739 -0.4121,1.84931 -0.61815,2.67123 -0.41211,1.84931 -1.23631,3.08219 -3.09078,4.10959 -2.88472,1.64383 -5.15128,4.10959 -7.00575,6.78082 -2.47261,-1.0274 -2.47261,-1.0274 -4.53313,-3.08219 -0.4121,0 -0.8242,0.20548 -1.23631,0.20548 -0.4121,0.20548 -0.8242,0.20548 -1.23631,0.41096 -0.20605,-0.41096 -0.61815,-0.41096 -0.61815,-0.82192 -0.20605,-0.82192 -0.4121,-1.43836 -0.61815,-2.26028 -1.23631,-3.49315 -3.29683,-6.16438 -7.62391,-5.75342 -0.4121,0 -0.8242,-0.20548 -1.64841,-0.20548 -0.4121,-0.82192 -0.82421,-1.64384 -1.23631,-2.67123 -0.20605,-0.61644 -0.20605,-1.23288 -0.4121,-1.84932 -0.82421,-2.46575 -2.26657,-4.52055 -5.76944,-3.49315 -0.61816,0.20548 -1.03026,0.20548 -2.06052,0.41096 -0.20605,-1.64384 -0.4121,-2.87671 -0.20605,-4.31507 0.20605,-2.67123 -0.82421,-4.31507 -3.29682,-5.34246 -0.61816,-0.20548 -1.03026,-0.41096 -1.648414,-0.82192 C 99,288.20548 98.793948,286.9726 99.206051,285.32877 Z" />
    <path
       style="fill:#ffffff"
       inkscape:connector-curvature="0"
       id="path5442"
       d="m 122,25.488587 c -3.25926,0.80857 -5.2963,0.404285 -7.33333,0.606428 -5.90741,0.202142 -11.61111,0.80857 -17.111114,3.638566 -2.037038,1.010713 -4.481482,1.414998 -6.925926,2.021425 -3.870371,1.010713 -7.537037,1.819283 -11,3.840709 C 79.222222,35.797857 78.814815,35.797857 78,36 c 0,-0.80857 0,-1.212855 0.203704,-1.819283 0.203703,-0.606428 0.407407,-1.212855 0.814814,-1.61714 3.666667,-3.840709 6.925926,-7.88356 11.611112,-10.511413 2.648148,-1.414998 5.5,-2.223568 8.759259,-2.021426 1.425921,0 2.648151,0 4.074071,0 8.14815,0 8.14815,0 15.27778,3.234281 1.01852,0.404285 1.62963,1.212855 3.25926,2.223568 z" />
    <path
       style="fill:#ffffff"
       inkscape:connector-curvature="0"
       id="path5444"
       d="m 58.972225,167 c -0.616666,-0.81871 -1.233331,-1.63743 -1.849996,-2.45614 -4.316657,-5.52632 -7.605539,-11.66667 -9.866645,-18.21638 -1.027775,-2.86549 -1.027775,-5.93567 -1.23333,-9.00584 -0.205555,-2.25147 1.027775,-4.09357 3.083326,-5.32164 2.672216,1.22807 4.316657,3.27485 5.344432,5.93567 1.027776,3.27486 2.261106,6.54971 2.877772,10.02924 C 58.355559,154.10526 59.17778,160.45029 60,166.79532 59.58889,167 59.17778,167 58.972225,167 Z" />
    <path
       style="fill:#ffffff"
       inkscape:connector-curvature="0"
       id="path5446"
       d="m 101,178.27579 c 1.24528,-1.23673 2.90566,-1.03061 4.3585,-1.23673 6.64151,-0.20612 13.07548,-1.44284 19.717,-1.0306 0.83019,0 1.86792,0 2.69811,-0.41224 3.11321,-1.03061 6.43397,-0.41224 9.75473,-0.41224 0.20755,0.82448 0.62264,1.44284 0.41509,1.85508 -2.07547,7.21424 -6.01887,12.57338 -13.49058,14.84071 -1.24528,0.41224 -2.49056,1.03061 -3.9434,1.44285 -2.28302,0.61836 -4.77359,1.23672 -7.05661,-0.20612 -0.62264,-0.41225 -1.45283,-0.41225 -2.07547,-0.61837 -1.86793,-0.61836 -3.11321,-1.64896 -4.15095,-3.50405 -2.07547,-3.50406 -4.15095,-7.21424 -6.22642,-10.71829 z" />
    <path
       style="fill:#ffffff"
       inkscape:connector-curvature="0"
       id="path5448"
       d="m 115,196.1152 c 2.46154,-1.65826 5.33333,-0.92126 8,-1.10551 0,2.02677 -0.82051,3.50078 -2.46154,3.86928 -1.02564,0.18425 -2.05128,0.18425 -3.07692,-0.18425 -1.02564,-0.3685 -2.25641,-1.10551 -2.46154,-2.57952 z" />
    <path
       style="fill:#ffffff"
       inkscape:connector-curvature="0"
       id="path5450"
       d="m 124,172.56525 c -2.2,0.54483 -4.2,0.54483 -6,0.18161 0.8,-1.99772 1.8,-2.90577 3,-2.72416 1.8,0 2.4,1.08966 3,2.54255 z" />
    <path
       style="fill:#ffffff"
       inkscape:connector-curvature="0"
       id="path5452"
       d="m 108,173.87705 c 0.57143,-1.32787 0.95238,-1.9918 1.33333,-2.87705 1.33334,0.22131 1.90477,1.32787 2.66667,2.21311 -0.38095,0.88525 -0.38095,0.88525 -4,0.66394 z" />
    <path
       style="fill:#3c3c3c"
       inkscape:connector-curvature="0"
       id="path5454"
       d="m 19.947325,220.41335 c 0.410425,-1.84113 1.026062,-3.4777 1.026062,-5.31883 0.410424,-4.50055 -1.026062,-8.18282 -4.719884,-11.04681 -3.48861,-2.65942 -6.5667943,-5.72797 -9.8501916,-8.59196 -2.6677602,-2.45485 -4.3094588,-5.5234 -4.9250958,-9.0011 -1.43648625,-6.34169 -2.25733555,-12.88794 -0.4104246,-19.22963 0.6156369,-2.04571 0.8208493,-4.09141 1.2312739,-6.13712 0.8208493,-3.47769 1.846911,-6.75082 3.6938219,-9.61481 2.2573356,-3.68227 4.5146712,-7.56911 7.3876442,-11.04681 2.872972,-3.47769 4.514671,-7.5691 6.361582,-11.45594 1.026061,-2.25028 0.615637,-3.27313 -1.436487,-4.70513 -2.052123,-1.22742 -4.309458,-2.45484 -6.156369,-3.68226 -1.026062,-0.81829 -2.257336,-1.63657 -3.0781853,-2.65942 -1.6416986,-2.45485 -2.2573356,-5.11426 -3.8990342,-7.56911 -0.615637,-0.81828 -0.4104247,-2.0457 -0.2052123,-3.06856 0.6156369,-5.93254 2.6677602,-11.251374 6.7720068,-15.547355 2.257336,-2.250275 4.514671,-4.500551 6.772007,-6.750826 0.820849,-0.818282 1.846911,-1.636564 2.462548,-2.659417 4.925095,-6.137115 4.719883,-9.819384 1.026061,-15.342788 -2.66776,-4.09141 -4.104246,-8.38739 -3.899034,-13.297082 0,-1.841135 0.410425,-3.477699 1.231274,-5.318833 3.283397,-6.137115 6.977219,-11.660519 12.928376,-15.751929 4.309459,-2.863987 8.003281,-6.341685 12.723165,-8.796531 1.436486,-0.818282 2.462547,-1.841135 3.078184,-3.273129 1.026062,-2.250275 2.052124,-4.500551 2.667761,-6.750826 0.615637,-2.250276 2.052123,-4.0914102 3.899034,-5.5234037 2.257335,-1.636564 4.514671,-3.0685575 7.182431,-3.682269 1.846911,-0.409141 3.48861,-1.0228525 5.130308,-1.8411345 3.283398,-1.6365641 6.772007,-2.45484607 10.465829,-2.65941658 3.899034,-0.2045705 7.798068,0 11.902315,0 1.231274,0 2.462548,0.40914101 3.48861,0.81828201 3.693821,1.63656397 7.387639,3.47769857 11.081469,5.31883307 2.87297,1.4319935 5.54073,3.0685575 8.00328,5.1142627 1.84691,1.431993 3.89903,3.068557 2.87297,6.137115 1.43649,0.613711 2.46255,1.227423 3.48861,1.636564 4.10425,1.227423 7.38764,3.477698 10.0554,6.750826 0.61564,0.818282 1.84691,1.227424 2.66776,1.431994 7.18243,1.227423 13.74923,4.09141 20.31602,6.546256 5.54074,2.250276 10.67104,5.318833 15.18572,9.205673 4.10424,3.477698 7.38764,7.569108 9.43976,12.683371 0.61564,1.431993 1.23128,2.659416 1.84691,4.09141 1.23128,3.477698 3.2834,6.341685 5.54074,9.205672 1.43648,1.636564 2.25733,3.88684 3.28339,5.932545 2.46255,4.705122 4.10425,9.410243 3.89904,14.729076 0,3.068558 -0.20522,6.137115 -0.20522,9.001102 0,2.250278 0.20522,4.500548 0.41043,6.750828 0.20521,3.06856 -0.20521,5.93254 -1.43649,8.79653 -1.84691,4.70512 -2.46254,9.61481 -5.13031,13.70622 0.41043,0.40914 0.41043,0.61372 0.41043,0.61372 3.89903,0.81828 5.13031,3.68226 5.33552,7.36453 0.20521,3.06856 0.41042,5.93255 -1.23127,8.79653 -1.02607,1.84114 -1.43649,4.09141 -2.05213,5.93255 -1.64169,4.09141 -4.30946,7.77368 -6.772,11.25138 -1.43649,2.0457 -3.69383,3.27312 -5.95116,4.09141 -1.6417,0.61371 -2.46255,1.63656 -2.87297,3.27312 -1.84691,7.15997 -5.54074,13.50166 -8.2085,20.25248 -0.20521,0.40915 -0.41042,0.81829 -0.61563,1.22743 -5.54074,8.38739 -12.10753,15.9565 -20.52124,21.68447 -1.6417,1.02285 -3.28339,2.04571 -4.92509,3.06856 -0.61564,4.50055 -0.41043,11.66052 0.20521,15.54736 0.61564,3.27312 1.23127,6.54625 1.84691,9.81938 0.20521,1.84114 1.23127,3.06856 2.87297,3.88684 1.6417,0.61371 3.2834,1.63656 5.13031,1.84113 3.69382,0.40915 7.59286,0.40915 11.28668,-0.61371 3.89903,-1.02285 8.00328,-1.63656 12.10753,-2.65941 0.41042,-1.432 0.82085,-2.86399 1.23127,-4.29598 1.43649,-1.22743 3.48861,-1.63657 5.13031,-2.25028 2.66776,-1.02285 3.48861,-0.40914 5.13031,2.04571 0.20521,0.20457 0.20521,0.61371 0.41042,0.81828 0,0.20457 0.20521,0.20457 0.41043,0.40914 1.84691,0.40914 3.89903,0 5.74594,-0.61371 1.23128,-0.40914 2.25734,-0.81828 3.48861,-1.02286 4.51467,-0.61371 8.00328,0.40915 11.49189,3.68227 5.13031,4.9097 7.38764,11.04681 7.59286,17.79764 C 211,264.19144 211,268.69199 211,272.98797 c 0,1.43199 0,2.86399 -0.41043,4.09141 -2.25733,5.5234 -2.46254,11.45595 -2.87297,17.38849 -0.61563,9.20567 -1.43648,18.41135 -2.05212,27.61702 -0.20521,2.04571 0,3.88684 0,5.93254 0,1.22743 -0.20521,2.45485 -0.20521,3.88684 -0.82085,-0.40914 -1.43649,-0.61371 -1.84691,-1.02285 -1.02607,-1.22742 -1.02607,-2.86399 -0.82085,-4.29598 0.20521,-4.90969 0.41042,-10.02395 0.41042,-14.93365 0,-3.06855 0,-6.13711 0,-9.0011 0,-1.43199 0,-2.65941 0.41043,-4.09141 3.28339,-13.09251 4.10424,-26.59416 3.48861,-40.09582 -0.20522,-4.70512 -1.6417,-9.61481 -5.54074,-13.09251 -0.41042,-0.40914 -0.82085,-0.81828 -1.23127,-1.22742 -2.46255,-3.4777 -5.95116,-3.4777 -9.43977,-2.65942 -2.25733,0.61371 -4.51467,1.432 -6.97722,1.63657 -1.84691,0.20457 -2.46255,1.22742 -2.46255,3.27312 0,4.29598 0.20522,8.79654 0.20522,13.09252 0,2.65941 0.20521,5.11426 -0.61564,7.56911 -0.61564,1.63656 0.20521,3.27312 0.41042,4.90969 0.82085,5.11426 2.05213,10.22852 1.6417,15.75193 -0.20521,3.27312 0.41043,6.54625 0.82085,9.81938 0.61564,7.56911 3.2834,14.72908 4.10425,22.29818 0.41042,4.09141 1.43649,7.97825 2.46255,12.06966 0.41042,1.63657 0.41042,3.27313 -1.23128,4.70513 -1.84691,-1.432 -2.66776,-3.4777 -2.87297,-5.52341 -0.61564,-5.93254 -2.46255,-11.45595 -2.87297,-17.38849 -0.20521,-2.25028 -0.82085,-4.50055 -1.23128,-6.75083 -1.23127,-4.50055 -1.64169,-9.20567 -1.43648,-13.91079 0,-1.22742 0.20521,-2.45485 -0.20521,-3.68227 -0.82085,-2.86399 -1.02607,-5.93254 -1.02607,-9.0011 0,-4.50055 -1.02606,-9.0011 -0.41042,-13.50165 -1.23127,-3.4777 -0.20521,-7.15997 0,-10.63767 0.20521,-4.50055 0,-9.0011 -0.20521,-13.70623 0,-0.81828 -0.41043,-1.63656 -0.41043,-2.65941 -3.07818,0.20457 -3.07818,0.20457 -4.92509,1.43199 0,2.86399 0,5.52341 0,8.18282 0,3.68227 -0.20522,7.56911 0.41042,11.25138 0.41043,2.25028 0,4.90969 0.20521,7.15997 0,0.81828 0,1.84113 0.20522,2.65941 2.25733,7.15997 1.02606,10.63767 -5.54074,14.11537 -0.20521,0 -0.20521,0.20457 -0.61563,0.61371 0,2.45485 -1.43649,4.29598 -3.69383,5.5234 -1.84691,1.02286 -3.48861,2.45485 -3.69382,4.70512 -0.20521,1.22743 -1.23127,2.04571 -2.66776,2.25028 -1.02606,0.20457 -2.05212,0.20457 -3.2834,0.40914 0,1.22742 0.20522,2.25028 0.20522,3.27313 0,2.45485 -0.41043,2.86399 -2.87297,3.06856 -3.07819,0.20457 -3.07819,0.20457 -5.74595,1.84113 -0.41043,1.63657 -0.82085,3.27313 -1.43649,4.70512 -0.61563,1.63657 -1.6417,2.45485 -3.48861,2.45485 -0.61563,0 -1.23127,0 -1.84691,0.20457 -0.82085,0.40914 -1.43648,1.02285 -2.05212,1.63656 -0.41043,0.40914 -0.61564,1.02286 -0.61564,1.63657 -0.41042,2.0457 -1.84691,3.06855 -3.69382,3.4777 -2.05212,0.61371 -3.69382,-0.20457 -4.51467,-2.25028 -0.61564,0.20457 -1.23127,0.40914 -1.84691,0.40914 -2.87297,0.40914 -4.71988,-0.81828 -5.54073,-3.4777 -0.41043,-1.22742 -0.61564,-2.25027 -1.02607,-3.4777 -0.20521,-0.61371 -0.61563,-1.02285 -1.23127,-1.63656 -1.23127,0 -2.46255,0 -3.89903,-0.20457 -2.25734,-0.20457 -3.2834,-0.81828 -3.89904,-3.06856 -0.61563,-1.84113 -0.82085,-3.88684 -1.43648,-5.93254 -1.23128,0.20457 -2.05213,0.40914 -3.07819,0.40914 -2.46255,0.20457 -3.69382,-0.61371 -4.10425,-3.06856 -0.20521,-0.81828 -0.20521,-1.84113 -0.20521,-2.65942 0,-1.02285 -0.20521,-2.0457 -0.20521,-3.27312 -1.23127,-0.61371 -2.462548,-1.22743 -3.693822,-1.84114 -1.846911,-0.81828 -2.66776,-2.0457 -2.257336,-3.88684 0,-0.61371 0.205213,-1.22742 0.205213,-1.84113 0.615637,-2.45485 0.205212,-4.70512 -1.231274,-6.9554 -0.82085,-1.63656 -1.436487,-3.27313 -1.846911,-5.11426 -1.436487,-4.50055 -2.872973,-9.0011 -3.48861,-13.70622 -0.205212,-1.63657 -0.410424,-3.27313 -0.205212,-4.9097 0.205212,-1.84113 0,-3.88684 -0.205212,-5.93254 0,-0.61371 -0.82085,-1.22742 -1.231274,-1.84114 -4.309459,2.65942 -3.693822,6.75083 -3.48861,10.63767 0.205212,3.68227 1.026062,7.56911 1.641699,11.25138 0,0.20457 0.205212,0.61371 0.205212,0.81828 0.410425,6.13712 1.026062,12.27423 1.436486,18.61592 0,1.02285 -0.205212,2.0457 -0.410424,3.06855 -0.82085,3.68227 -1.641699,7.36454 -2.462548,11.04681 0,0.40914 -0.205213,0.81828 -0.205213,1.43199 -0.205212,5.31884 -0.410424,10.63767 -0.615637,15.9565 0,3.06856 0,6.13712 0,9.0011 0,1.432 -0.205212,3.06856 -0.205212,4.50056 -0.205212,2.45484 -0.410425,4.90969 -0.615637,7.15996 0,0.81829 0,1.432 -0.205212,2.25028 -0.205212,0.81828 -0.410425,1.84113 -1.436486,2.0457 -0.82085,0.20457 -1.846911,-0.81828 -1.846911,-2.25027 0,-2.65942 0,-5.5234 0.205212,-8.18282 0,-1.84114 0.410425,-3.68227 0.615637,-5.31883 0.410425,-10.22853 0.615637,-20.66163 0.820849,-30.89015 0,-2.25028 0.410425,-4.50055 1.231274,-6.54626 1.026062,-3.27312 2.052123,-6.54625 1.436486,-10.22852 -0.205212,-1.43199 -0.205212,-3.06856 -0.205212,-4.50055 0.205212,-4.50055 -0.820849,-9.0011 -1.436486,-13.50166 0,-0.20457 -0.410425,-0.40914 -0.615637,-0.81828 -2.257336,4.09141 -3.48861,8.38739 -4.104247,13.29709 -0.820849,-0.40915 -1.641698,-0.40915 -2.052123,-0.81829 -2.257336,-1.63656 -4.719883,-3.27312 -5.951157,-6.13711 -0.410425,-0.81828 -1.231274,-1.432 -1.641699,-2.04571 -2.66776,-3.4777 -4.719883,-7.36454 -5.540733,-11.86509 0,-0.40914 -0.205212,-0.81828 -0.410424,-1.22742 0,-0.20457 -0.205213,-0.20457 -0.615637,-0.40914 -0.205213,0.40914 -0.615637,0.61371 -0.615637,1.02285 -0.410425,3.06856 -0.82085,5.93255 0.820849,8.79653 1.436486,2.45485 1.846911,5.11427 2.052123,7.77368 0.205213,4.09141 -0.410424,8.18282 -2.257335,11.86509 -0.615637,1.22742 -1.026062,2.45485 -0.82085,3.88684 0.205213,2.86399 0.205213,2.86399 -0.615637,5.31883 1.436487,4.9097 3.078185,9.81939 4.104247,14.93365 1.026061,5.11426 1.436486,10.22853 2.052123,15.34279 0.615637,4.29598 1.231274,8.59196 1.846911,13.09251 0.205212,1.84114 0.205212,3.88684 0.205212,5.93255 0,1.02285 -0.615637,1.63656 -1.641698,1.84113 -1.026062,0.20457 -2.052123,-0.81828 -2.052123,-2.0457 0,-4.50056 -1.436487,-9.00111 -1.846911,-13.50166 -0.410425,-5.11426 -1.026062,-10.22852 -1.641699,-15.34279 -0.820849,-6.75082 -2.462548,-13.29708 -4.514671,-19.84333 -0.205213,-0.81829 -0.82085,-1.84114 -0.82085,-2.65942 0.410425,-3.68227 -1.026061,-7.15997 -1.641698,-11.04681 -1.231274,-1.02285 -2.462548,-2.25027 -4.309459,-2.86398 -3.488609,-1.02286 -6.15637,-3.27313 -8.618918,-5.93255 -1.436486,-1.63656 -2.872972,-2.86399 -5.130308,-3.27313 -1.231274,-0.20457 -2.462548,-1.22742 -3.693822,-1.63656 -0.615637,-0.20457 -1.436486,-0.61371 -2.052123,-0.40914 -2.257335,0.40914 -3.488609,-0.40914 -4.514671,-2.25028 -0.410425,-0.81828 -1.026062,-1.43199 -1.641699,-2.25027 -1.231274,-0.20457 -2.462548,-0.40914 -3.488609,-0.81829 -6.772007,-2.65941 -11.4918903,-8.18282 -9.439767,-16.36564 0.615637,-2.65941 1.436486,-5.31883 1.846911,-7.97825 0.615637,-4.90969 3.078185,-9.20567 5.540733,-13.29708 -0.205213,0 0.410424,-0.20457 0.820849,-0.40914 -1.026062,3.4777 -2.052123,6.9554 -3.283397,10.63767 -0.205213,0.61371 -0.410425,1.22742 -0.410425,1.84113 0.205212,3.68227 -0.820849,7.15997 -1.641698,10.84224 -0.615637,2.25027 -0.410425,4.70512 0.820849,6.54625 0.820849,1.22743 1.846911,2.25028 3.078185,3.4777 1.436486,1.432 2.66776,2.86399 4.309458,3.4777 0.410425,-0.20457 0.615637,-0.40914 0.615637,-0.40914 0,-0.61371 0.205213,-1.22742 0.205213,-1.84113 0.410424,-4.50056 1.436486,-9.00111 3.693822,-13.09252 1.436486,-2.65941 2.052123,-4.90969 -0.410425,-7.36453 -1.436486,-1.432 -1.436486,-3.27313 -0.615637,-5.11427 1.641699,-3.4777 3.078185,-6.95539 4.925096,-10.22852 1.436486,-2.65942 1.846911,-5.31884 1.436486,-8.38739 -0.205212,-1.84114 -0.410425,-3.4777 -0.820849,-5.52341 0.615637,0.40915 1.026061,0.61371 1.026061,0.81829 0.615637,2.86398 1.231274,5.93254 1.641699,8.79653 0.205212,1.84113 -0.820849,3.4777 -1.436486,5.11426 -1.436487,3.06856 -2.667761,6.34169 -3.899034,9.61481 -0.410425,1.432 -0.410425,2.65942 0.820849,3.68227 1.436486,1.02285 1.641698,2.45485 1.436486,4.09141 -0.205212,1.432 -0.615637,3.06856 -1.231274,4.29598 -1.641698,3.88684 -2.052123,7.97825 -2.872972,11.86509 -0.410425,1.63657 -0.205213,3.4777 1.231274,4.50055 2.66776,2.04571 5.540732,3.4777 8.82413,4.29598 0.410424,-2.65941 0.410424,-2.65941 -0.615637,-5.11426 -1.026062,-2.65942 -1.846911,-5.31883 -0.82085,-7.97825 1.231274,-2.86399 2.052124,-5.93254 4.309459,-8.38739 2.462548,-2.86399 3.899034,-6.34168 3.48861,-10.43309 -0.410425,-3.27313 -0.615637,-6.54626 -0.82085,-10.02396 0,-0.40914 -0.410424,-1.22742 0.82085,-1.43199 1.026061,1.22742 1.846911,2.45484 2.462548,4.09141 1.026061,3.27313 1.026061,6.54625 1.026061,9.81938 0,2.25028 -0.615637,4.29598 -1.641698,6.13712 -0.82085,1.43199 -1.641699,2.86398 -2.667761,4.09141 -3.078184,4.29598 -4.925095,8.59196 -2.872972,13.91079 0.410425,1.02285 0.410425,2.45485 0.820849,3.4777 1.846911,4.29598 3.48861,8.79653 9.234555,9.61481 3.693822,0.61371 6.156369,3.06856 8.003281,6.13712 0.410424,0.61371 0.615637,1.43199 1.026061,2.0457 0.205212,0.20457 0.615637,0.40914 0.820849,0.61372 -0.615637,-2.45485 0.205213,-4.50056 0.615637,-6.54626 0.615637,-3.27313 0.410425,-6.54626 -2.052123,-9.41024 -0.615637,-0.61372 -1.026062,-1.63657 -1.026062,-2.45485 -0.410424,-4.29598 -0.205212,-8.59196 2.462548,-12.27423 0.615637,-1.02285 1.436487,-2.04571 2.257336,-2.86399 0.820849,-1.02285 1.231274,-2.0457 1.231274,-3.27313 0,-3.27312 0,-6.75082 0.205212,-10.02395 0,-0.81828 -0.205212,-1.84114 0,-2.65942 0.615637,-3.68227 1.231274,-7.36454 2.052123,-11.0468 0.615637,-3.27313 0.410425,-6.34169 -0.205212,-9.41025 -0.410424,-1.63656 -1.231274,-2.65941 -2.462548,-3.68227 -1.846911,-1.63656 -3.488609,-3.27312 -5.33552,-4.90969 -2.052123,-1.84113 -2.66776,-3.88684 -2.257336,-6.54625 0.615637,-3.06856 1.026062,-6.13712 2.462548,-8.79654 0,2.86399 0,5.72798 -0.205212,8.59196 -0.205213,1.84114 0.205212,3.4777 1.846911,4.9097 1.846911,1.43199 3.283397,3.06855 5.130308,4.50055 2.052123,1.63656 3.283397,3.4777 3.693822,6.13711 0.615637,3.4777 0.820849,6.9554 0,10.4331 -1.026062,4.29598 -1.231274,8.59196 -1.026062,13.09251 0.205212,3.06856 0,6.13712 0,9.0011 -1.641699,2.25028 -1.026062,4.90969 -1.026062,7.56911 -0.205212,4.70512 1.231274,9.0011 3.899035,12.88794 1.641698,2.25028 3.078185,4.50055 4.719883,6.54626 0.205212,0.40914 0.82085,0.61371 1.436486,1.02285 0.410425,-1.84113 0.615637,-3.27313 1.026062,-4.70512 0.410425,-1.84113 0.820849,-3.4777 1.436486,-5.11426 1.641699,-4.29598 3.48861,-8.59196 5.130308,-13.09251 0.615637,-1.432 0.82085,-2.86399 1.026062,-4.50056 0.205212,-1.02285 0.205212,-2.25027 -0.410425,-3.06855 -2.052123,-3.06856 -3.078184,-6.54626 -3.283397,-10.22853 0,-0.81828 -0.615637,-1.63656 -0.820849,-2.65941 -1.231274,-0.61372 -2.462548,-1.02286 -3.693822,-1.63657 -3.078185,-1.63656 -4.514671,-4.29598 -4.719883,-7.77368 0,-1.84113 0.205212,-3.68227 0.410424,-5.31883 0.410425,-2.65942 0.615637,-5.31883 1.026062,-8.18282 0.205212,-2.04571 -0.410425,-3.88684 -1.436486,-5.72798 -0.82085,-1.63656 -1.641699,-3.27312 -1.846911,-5.11426 -0.205213,-2.25027 -1.026062,-4.09141 -2.462548,-5.72797 -1.436487,-1.63657 -2.052124,-3.68227 -2.872973,-5.72798 -1.026061,-3.06855 -2.052123,-5.93254 -2.872972,-9.0011 -2.462548,-0.81828 -4.925096,-1.22742 -6.566795,-3.27313 -5.33552,-6.95539 -9.850191,-14.31993 -11.286678,-23.11646 -0.820849,-5.52341 -0.820849,-10.84224 3.693822,-15.13822 0.205212,-0.20457 0.205212,-0.61371 0.410425,-1.02285 -0.615637,-1.02285 -1.436486,-1.84114 -1.846911,-3.06856 -0.410425,-1.02285 -0.820849,-2.25028 -1.026062,-3.4777 -0.410424,-3.27313 -0.615637,-6.54625 -0.615637,-10.02395 0,-3.88684 -1.231274,-7.56911 -2.872972,-10.84224 -1.846911,-3.682268 -1.846911,-7.159967 -1.026062,-11.046806 0.820849,-3.477699 1.231274,-7.159968 1.846911,-10.637667 0,-0.20457 0,-0.613711 0,-0.818281 0,-0.204571 -0.205212,-0.204571 -0.205212,-0.409142 -0.82085,-0.818281 -1.846911,-1.636563 -2.66776,-2.454846 -3.283398,-2.863987 -3.899035,-5.114262 -2.257336,-9.205672 1.026061,-3.068558 2.66776,-5.727974 4.719883,-8.18282 1.846911,-2.045705 2.872973,-4.500551 1.846911,-7.569109 -1.026061,-3.068557 0,-5.727974 2.667761,-7.569108 0.410424,-0.204571 0.820849,-0.613712 1.026061,-0.818282 2.257336,-1.636564 4.309459,-3.273128 6.566795,-4.909692 0.820849,-0.613712 1.436486,-1.227423 2.257335,-1.431994 2.257336,-0.818282 3.693822,-2.659416 5.335521,-4.500551 -2.257336,-2.659417 -2.052124,-5.523403 0,-7.978249 2.66776,-2.863988 5.540732,-5.523404 9.644979,-6.546257 4.104247,-1.227423 8.413705,-1.431993 12.517952,-1.841134 1.026061,-0.204571 2.257335,0 3.078185,1.022852 -2.257336,0.818282 -4.104247,1.431994 -6.15637,2.045705 -2.257336,0.613712 -4.719884,1.227423 -6.977219,1.636564 -3.693822,0.818282 -6.15637,3.068558 -8.82413,5.523404 -0.615637,0.613712 -0.820849,1.431994 -1.231274,2.250275 0.410425,0.409141 0.615637,0.818282 1.026062,1.227423 1.84691,2.045705 2.052123,2.863988 0.410424,4.500552 -2.052123,2.250275 -3.899034,4.705121 -6.977219,5.727974 -0.820849,0.409141 -1.436486,1.022852 -2.257336,1.636564 -2.052123,1.636564 -4.104246,3.273128 -6.156369,4.705121 -2.052124,1.431994 -3.283397,3.068558 -2.257336,5.727974 0.820849,1.841135 0.410425,3.682269 -0.615637,5.114263 -1.026061,1.636564 -2.052123,3.477698 -3.283397,4.909692 -1.641699,2.045705 -2.66776,4.29598 -3.488609,6.750826 -0.410425,1.227423 -0.615637,2.659417 0.205212,3.88684 1.026061,1.431994 1.846911,3.068557 3.693822,3.886839 1.436486,-2.659416 2.872972,-5.318833 4.514671,-7.978249 2.052123,-3.477699 4.309459,-6.955397 6.566794,-10.433096 1.436486,-2.250275 2.872973,-4.705121 5.130308,-6.341685 -0.410424,1.022852 -0.820849,1.841134 -1.436486,2.863987 -0.820849,1.227423 -1.846911,2.454846 -2.257336,3.886839 -1.84691,4.295981 -4.104246,8.387391 -6.361582,12.478801 -1.436486,2.863987 -3.078185,5.727974 -3.693821,8.796531 -0.82085,3.88684 -1.846911,7.77368 -2.462548,11.86509 -0.410425,3.068557 -0.615637,5.932544 0.820849,8.796534 1.641699,3.27313 2.66776,6.75082 3.283397,10.43309 0.410425,3.68227 0.820849,7.56911 1.231274,11.25138 0.205212,0.81828 0.205212,1.84113 0.820849,2.65942 1.436487,2.25027 2.872973,4.29598 5.130309,5.72797 0.410424,0.20457 1.026061,0.40914 1.84691,0.61371 0,-2.45484 0.205213,-4.70512 -1.026061,-6.34168 -1.846911,-2.25028 -2.257336,-4.90969 -2.257336,-7.56911 0,-2.65942 0.410425,-5.31883 0.615637,-7.97825 0.410425,-2.86399 -0.615637,-5.72797 -0.615637,-8.59196 0.410425,-6.955399 1.026062,-13.910796 1.436487,-20.866194 0,-0.818282 0.410424,-1.841134 0.615636,-2.659416 0,-0.204571 0.410425,-0.204571 0.82085,-0.409141 l -0.205213,-0.204571 c 0,1.022853 -0.205212,2.045706 -0.205212,3.068558 -0.205212,5.318833 -0.410425,10.637666 -0.410425,15.956499 0,1.431994 0,2.659417 0.205213,4.09141 0.205212,0.613715 0,1.841135 1.436486,2.045705 1.026062,-2.045705 2.257336,-4.09141 3.48861,-6.341685 0.410424,-1.022853 0.820849,-1.841135 1.641698,-2.659417 2.257336,-2.659416 4.719884,-5.523403 6.772007,-7.569108 0,-3.88684 -0.205212,-7.159968 0,-10.433096 0.205212,-3.88684 0.820849,-7.773679 1.026062,-11.660519 0.205212,-4.500551 1.231274,-8.591961 3.283397,-12.683371 0.410425,-1.022852 0.615637,-2.454846 2.257335,-2.454846 1.026062,0 1.026062,1.431994 0.205213,3.477699 -0.820849,2.045705 -1.641699,4.29598 -2.052123,6.546256 -0.615638,4.09141 -0.82085,8.38739 -1.026062,12.683371 0,2.659416 -0.410425,5.114262 -1.026062,7.569109 -0.410424,1.636563 -1.026061,3.477698 -0.410424,5.318833 4.104246,0.409141 6.977219,-1.636564 9.850191,-3.88684 2.052123,-1.636564 4.309459,-2.659417 6.566795,-3.88684 2.052123,-1.227423 4.514671,-2.045705 6.361582,-3.477698 1.641698,-1.022853 3.078185,-1.227423 4.719883,-0.818282 0.615633,0.204571 1.436483,0.409141 2.257333,0.613711 3.07819,-2.659416 6.36159,-4.909692 10.26062,-3.477698 2.05212,1.841134 3.69382,3.682269 5.54073,5.318833 1.84691,1.841134 4.10425,2.045705 6.15637,0.409141 2.05212,-1.431993 4.30946,-1.431993 6.5668,-1.431993 1.84691,0 3.48861,1.022852 5.1303,1.841134 1.02607,0.613712 2.05213,1.227423 3.2834,1.431994 2.46255,0.40914 5.13031,0.818281 7.59286,1.022852 1.84691,0.204571 3.48861,0.818282 4.92509,2.045705 0.41043,0.204571 0.82085,0.613711 1.02607,0.818282 2.05212,2.454846 4.51467,3.477699 7.59285,3.068558 0.82085,-0.204571 1.84691,0 2.66776,0.20457 3.07819,1.636564 6.36158,3.273128 8.20849,6.137115 1.84691,2.863987 3.48861,5.932545 5.33552,9.001102 1.43649,2.250278 1.84692,4.705118 1.6417,7.364538 -0.20521,2.86399 -0.41042,5.72797 -0.61563,8.59196 0,1.02285 0,2.04571 0,3.06856 0.41042,-0.20457 0.82085,-0.20457 0.82085,-0.40914 2.46254,-5.93255 4.92509,-12.06966 7.38764,-18.002206 0.61564,-1.636564 1.02606,-3.477699 1.02606,-5.318833 0,-12.683371 1.43649,-8.796532 -3.69382,-21.070762 -0.20521,-0.204571 -0.20521,-0.613712 -0.41043,-0.818282 -0.61563,-1.022853 -1.02606,-2.250276 -1.64169,-3.068558 -2.25734,-2.863987 -4.10425,-5.932544 -5.33553,-9.410243 -0.41042,-1.431993 -1.02606,-2.863987 -1.84691,-4.09141 -2.25733,-4.500551 -5.1303,-8.18282 -9.02934,-11.251377 -6.15637,-4.909692 -12.92837,-8.796532 -20.72644,-11.046807 -1.43649,-0.409141 -2.87298,-0.818282 -4.30946,-1.431994 -10.67104,-3.886839 -21.75251,-4.500551 -32.83397,-2.454846 -7.182435,1.431993 -14.364867,3.682269 -21.342086,6.546256 -6.361582,2.659417 -12.723164,5.727974 -18.058684,10.433096 -1.026062,1.022852 -2.66776,1.431993 -3.899034,2.250275 0.205212,-0.409141 0.205212,-0.818282 0.410424,-1.227423 1.641699,-3.068557 4.104247,-5.114262 7.182432,-6.750826 1.846911,-1.022853 3.899034,-1.636564 5.33552,-3.273128 -0.205212,-4.705122 0.410425,-6.341686 3.48861,-9.614814 1.846911,-1.841135 3.488609,-3.682269 5.540732,-5.523404 4.309459,-3.886839 9.234555,-6.341685 15.185716,-6.341685 3.28339,0 6.772,0 10.0554,0 0.82085,0 1.6417,0 1.6417,-1.227423 -0.82085,-1.431994 -2.25734,-2.454846 -3.48861,-3.273128 C 103.67395,8.0691698 98.338433,6.0234648 92.797701,4.3869008 91.566427,3.9777598 90.12994,3.9777598 89.309091,3.3640483 87.46218,1.5229137 85.410057,1.9320547 83.357934,1.9320547 c -1.846911,0 -3.693822,-0.2045705 -5.540733,0 -2.462548,0.409141 -5.130308,0.6137115 -7.592856,1.4319936 -1.846911,0.6137115 -3.283398,1.227423 -5.130308,1.0228525 -1.641699,-0.2045705 -3.078185,0.2045705 -4.309459,1.227423 -2.462548,2.045705 -4.925096,3.8868395 -6.772007,6.5462562 -1.231274,2.045705 -2.052123,3.886839 -2.257336,6.341685 -0.205212,1.841135 -0.615637,3.477699 -1.231274,5.318834 -0.615637,1.636564 -1.641698,3.068557 -3.488609,3.477698 -2.872973,0.613712 -4.719884,2.454846 -6.977219,4.09141 -3.693822,2.659417 -7.387644,5.318833 -10.876253,8.18282 -3.283398,2.863987 -6.361583,6.137115 -8.413706,10.023955 -1.846911,3.682269 -1.846911,7.364538 1.026062,11.046807 2.257335,2.863987 4.104246,5.932544 5.951157,9.001102 1.436487,2.659416 1.641699,5.318833 0.410425,8.18282 -1.231274,2.863987 -2.66776,5.318833 -4.925096,7.569109 -2.66776,2.659416 -5.540733,5.114262 -8.003281,7.978249 -4.719883,5.318833 -7.5928556,11.251381 -5.951157,18.615911 0.4104247,2.04571 1.436486,3.68227 3.078185,4.70513 1.846911,1.22742 3.693822,2.25027 5.33552,3.27312 2.052124,1.22743 3.899034,2.45485 5.130308,4.50056 0.82085,1.43199 1.231274,2.65941 1.231274,4.29598 -0.205212,1.63656 -0.410424,2.86398 -1.846911,3.88684 -0.410424,0.20457 -0.615637,0.61371 -0.820849,1.02285 -3.078185,4.90969 -6.15637,9.81938 -9.234554,14.5245 -3.48861,5.31884 -5.7459456,10.84224 -6.5667949,17.18393 0,0.81828 -0.4104246,1.43199 -0.4104246,2.25027 -1.0260616,4.70512 -0.8208493,9.41024 0.4104246,13.9108 0.615637,1.84113 1.231274,3.68226 1.6416986,5.72797 0.4104247,2.65942 1.6416986,4.70512 3.6938223,6.54626 1.026061,0.81828 1.84691,1.63656 2.66776,2.45484 2.257335,1.84114 4.719883,3.68227 6.977219,5.72798 1.026061,0.81828 1.846911,2.0457 2.462548,3.27312 1.436486,2.65942 2.052123,5.31884 2.257335,8.18282 0.410425,2.45485 -0.205212,3.88684 -2.66776,4.70512 -1.026062,1.432 -1.846911,1.84114 -2.66776,2.25028 z M 76.585927,87.237954 c -0.615637,-0.20457 -1.231274,-0.409141 -1.846911,-0.613711 -1.231274,-0.613712 -2.257336,-0.613712 -3.48861,0 -0.820849,0.613711 -1.846911,1.022852 -2.66776,1.841134 -1.846911,2.045705 -3.693822,4.09141 -5.33552,6.137115 -0.410425,0.613712 -0.82085,1.431994 -0.82085,2.045705 0.82085,2.863987 -0.615637,5.114263 -1.641698,7.364543 -2.872973,6.34168 -3.48861,12.68337 -2.052123,19.43419 1.231273,5.93255 2.462547,11.86509 2.257335,18.00221 0,1.02285 0.205212,2.0457 0.410425,3.06855 1.026061,6.54626 2.052123,13.09252 3.078185,19.63877 0.205212,1.63657 0.615637,3.27313 1.026061,4.90969 1.231274,3.68227 2.462548,7.36454 3.899034,11.04681 0.615637,1.432 1.231274,2.86399 2.052124,4.09141 4.925095,6.34169 9.850191,12.68337 17.032623,16.77478 0.615637,0.40914 1.231274,0.81828 1.846911,1.432 3.693821,3.27313 7.798068,5.72797 12.517947,7.15996 2.05213,0.61372 4.10425,1.432 5.95116,2.25028 6.5668,2.65942 13.54402,1.84113 20.31602,1.84113 0.82085,0 1.43649,-0.40914 2.25734,-0.61371 3.69382,-1.22742 7.18243,-3.06856 10.26061,-5.5234 5.13031,-4.29598 9.8502,-8.79653 13.74923,-14.31994 2.05212,-3.06855 4.10425,-5.93254 5.33552,-9.41024 0.41042,-1.43199 1.23127,-2.86399 1.84691,-4.09141 3.48861,-7.15997 5.33552,-14.72907 6.97722,-22.50275 0.61564,-3.4777 0.82085,-6.9554 0.82085,-10.4331 0,-1.02285 -0.20521,-2.25028 0.20521,-3.06856 0.61564,-1.84113 0.61564,-3.4777 0.61564,-5.31883 0.20521,-4.29598 0.20521,-8.79653 0.41042,-13.09251 0.41043,-6.34169 1.02606,-12.68337 1.43649,-19.02506 0.20521,-2.45484 0.20521,-4.90969 -1.84691,-6.750826 -0.61564,-0.613711 -1.02606,-1.636564 -1.23128,-2.454846 -0.61563,-2.045705 -2.05212,-3.682269 -3.89903,-4.909692 -0.82085,-0.613711 -1.6417,-1.227423 -2.46255,-2.045705 -1.84691,-1.636564 -3.69382,-2.454846 -6.15637,-2.250275 -3.28339,0.409141 -5.54073,-0.818282 -7.38764,-3.273128 -0.41043,-0.409141 -0.82085,-0.818282 -1.23128,-1.431994 -1.23127,-1.431993 -2.46254,-1.841134 -4.30945,-2.045705 -4.30946,-0.20457 -8.61892,-0.818282 -12.31274,-3.477698 -2.05213,-1.636565 -4.51467,-1.636565 -6.77201,-0.204571 -0.82085,0.613711 -1.84691,1.022853 -2.87297,1.431994 -2.05213,0.818282 -3.89904,0.818282 -5.54073,-0.818283 -1.6417,-1.431993 -3.48861,-2.863986 -5.13031,-4.500551 -2.05213,-2.045705 -3.2834,-2.250275 -5.54074,-0.818282 -0.82084,0.613712 -1.84691,1.227423 -2.66776,1.841135 -1.02606,0.818282 -2.25733,1.022853 -3.48861,0.818282 -1.026057,-0.20457 -2.052119,-0.409141 -3.078181,-0.409141 -3.488609,1.841134 -7.182431,3.273128 -10.465828,5.318833 -3.48861,2.045705 -6.566795,4.500551 -10.055404,6.955397 z m 16.82741,166.724956 c -0.205212,0.61371 -0.205212,1.02286 -0.205212,1.432 0,0.61371 0,1.22742 0.205212,1.84113 1.641699,7.15997 3.48861,14.31994 6.15637,21.27533 1.026063,2.45485 2.257333,4.09141 4.309463,5.52341 2.05212,1.43199 4.10424,3.06856 6.15637,4.50055 5.74594,4.29598 10.26061,10.02395 16.41698,13.50165 0.82085,0.40914 1.23128,1.22742 2.05212,1.84114 0.82085,0.61371 1.43649,1.43199 2.25734,2.0457 1.6417,-0.40914 2.46255,-1.43199 3.2834,-2.65942 0.82085,-1.22742 1.84691,-2.45484 2.87297,-3.47769 1.43649,-1.432 3.07818,-2.86399 4.71988,-4.29599 2.87298,-2.65941 5.54074,-5.72797 8.41371,-8.18282 1.23127,-1.22742 3.48861,-1.43199 4.71988,-2.45484 1.43649,-1.02285 2.05213,-3.06856 3.48861,-4.29598 3.69382,-3.27313 7.59286,-6.54626 11.28668,-9.81939 0,-4.09141 0,-7.97824 0,-11.86508 0,-3.88684 0,-7.77368 0,-11.86509 -1.84691,-0.40915 -3.48861,0 -4.9251,0.40914 -2.05212,0.61371 -4.10424,1.22742 -6.15637,1.63656 -5.95115,1.43199 -11.90231,1.43199 -17.85347,-1.22742 -2.25733,-1.02285 -3.69382,-2.45485 -4.51467,-4.70512 -2.46255,-6.75083 -4.10425,-13.70623 -3.69382,-20.8662 0,-1.63656 0.20521,-3.27312 -0.20521,-4.90969 -5.95116,0 -11.69711,0 -17.44305,0 -0.20521,0 -0.41043,0 -0.41043,0.20457 0,0 -0.20521,0.20457 -0.41042,0.81829 0.61564,2.0457 1.43649,4.29598 2.25734,6.54625 1.84691,5.11426 2.05212,10.4331 2.46254,15.54736 0.20522,1.43199 -0.20521,2.65942 -0.41042,4.09141 -0.20521,1.63656 -0.61564,3.27313 -1.02606,4.70512 -3.48861,2.86399 -5.95116,3.88684 -9.85019,3.88684 -3.48861,0 -6.97722,0 -10.465833,0.20457 -1.231274,0.40914 -2.462548,0.40914 -3.48861,0.61371 z m -0.205212,-4.70512 c 5.540733,0 11.081465,0 16.416985,0 2.05212,0 4.10425,-0.40914 6.15637,-1.63656 -0.61564,-4.29598 -1.6417,-8.59196 -1.6417,-12.88794 -0.20521,-5.31884 -2.25733,-10.02396 -3.69382,-14.93365 -0.82085,-2.45485 -2.46255,-3.88684 -4.92509,-4.70512 -6.977224,-2.04571 -13.544019,-5.11427 -19.289964,-9.81939 -0.205212,-0.20457 -0.410425,-0.40914 -0.820849,-0.40914 -3.078185,-1.43199 -5.335521,-3.88684 -7.798069,-6.13711 -1.026061,-1.02286 -2.052123,-2.45485 -3.693822,-3.27313 -0.205212,0.40914 -0.205212,0.61371 -0.205212,0.61371 2.257336,3.06856 2.462548,6.75083 2.462548,10.4331 0,1.84113 -0.205212,3.68227 -0.410424,5.31883 0,1.84113 -0.205213,3.68227 -0.205213,5.5234 0,2.25028 1.231274,3.88684 3.48861,4.90969 0.615637,0.20458 1.026061,0.61372 1.641698,0.61372 2.052123,0.40914 3.283397,1.63656 3.693822,3.68227 1.436486,5.31883 3.48861,10.63766 3.693822,16.36564 0,0.61371 0.205212,1.22742 0.205212,1.63656 2.872973,0.61371 2.872973,0.61371 4.925096,4.70512 z m 6.15637,35.79984 c -0.615637,1.63656 -0.410425,2.86399 1.231275,3.68227 0.61564,0.20457 1.02606,0.61371 1.6417,0.81828 2.46254,0.81828 3.48861,2.65942 3.2834,5.31883 0,1.22743 0.20521,2.65942 0.20521,4.29598 0.82085,-0.20457 1.43648,-0.20457 2.05212,-0.40914 3.48861,-1.02285 4.9251,1.02286 5.74595,3.4777 0.20521,0.61371 0.20521,1.22742 0.41042,1.84114 0.41042,1.02285 0.82085,1.84113 1.23127,2.65941 0.82085,0.20457 1.23128,0.40914 1.6417,0.20457 4.30946,-0.61371 6.36158,2.25028 7.59286,5.72798 0.20521,0.61371 0.41042,1.43199 0.61564,2.25027 0,0.20457 0.41042,0.40914 0.61563,0.81828 0.41043,-0.20457 0.82085,-0.20457 1.23128,-0.40914 0.41042,-0.20457 0.82085,-0.20457 1.23127,-0.20457 2.05212,2.04571 2.05212,2.04571 4.51467,3.06856 1.84691,-2.65942 4.10425,-5.11426 6.97722,-6.75083 1.84691,-1.02285 2.66776,-2.25027 3.07819,-4.09141 0.20521,-0.81828 0.41042,-1.63656 0.61563,-2.65941 2.66776,-1.02286 5.33552,-2.04571 8.41371,-3.06856 0.20521,-1.63656 0.61564,-3.27313 1.02606,-5.11426 1.84691,-0.20457 3.48861,-0.40914 5.33552,-0.61371 0.82085,-2.86399 2.87297,-4.9097 5.74594,-5.93255 1.43649,-0.61371 2.25734,-2.0457 2.46255,-3.4777 0.20522,-0.81828 0.20522,-1.84113 0.20522,-2.0457 2.25733,-2.04571 4.10424,-3.88684 5.95115,-5.72798 1.43649,-1.43199 1.23128,-3.06855 0.41043,-5.31883 -1.02606,0.81828 -1.84691,1.22742 -2.25734,1.84114 -3.69382,4.50055 -8.61892,7.5691 -12.72316,11.66051 -0.61564,0.61372 -1.23128,0.81829 -1.84691,1.22743 -2.46255,1.02285 -4.30946,2.65941 -6.15637,4.50055 -3.07819,3.06856 -5.95116,6.13711 -9.23456,8.79653 -1.84691,1.63656 -3.69382,3.06856 -4.92509,5.11426 -1.6417,2.45485 -4.10425,3.4777 -7.18244,3.27313 -1.84691,-2.86399 -4.71988,-4.90969 -7.59285,-6.75083 -0.82085,-0.61371 -1.6417,-1.22742 -2.46255,-2.0457 -3.2834,-2.86399 -6.56679,-5.93255 -9.85019,-8.79653 -3.07818,-3.06856 -5.95116,-5.31884 -9.234555,-7.15997 z M 122.55349,25.866803 c -1.6417,-1.227422 -2.46255,-2.045704 -3.2834,-2.250275 -7.18243,-3.068558 -7.18243,-3.068558 -15.39092,-3.273128 -1.43649,0 -2.66776,0 -4.10425,0 -3.078185,-0.204571 -5.951158,0.613711 -8.82413,2.045705 -4.719884,2.659416 -8.208494,6.750826 -11.697103,10.637666 -0.410425,0.409141 -0.615637,1.022853 -0.820849,1.636564 -0.205213,0.409141 -0.205213,1.022853 -0.205213,1.841135 0.82085,-0.204571 1.231274,-0.204571 1.641699,-0.409141 3.48861,-2.045705 7.387644,-2.863987 11.081466,-3.88684 2.257335,-0.613712 4.925095,-1.022853 6.977219,-2.045705 5.540731,-2.863987 11.286681,-3.477699 17.237831,-3.682269 2.05213,0 4.30946,0.20457 7.38765,-0.613712 z M 59.963728,167.63416 c 0.205213,0 0.615637,-0.20457 0.82085,-0.20457 -0.82085,-6.34169 -1.436487,-12.68337 -2.66776,-18.82049 -0.615638,-3.47769 -1.846912,-6.75082 -2.872973,-10.02395 -0.820849,-2.65942 -2.462548,-4.70512 -5.335521,-5.93254 -2.052123,1.22742 -3.078184,3.06855 -3.078184,5.31883 0.205212,3.06856 0.205212,5.93254 1.231273,9.0011 2.257336,6.54626 5.540733,12.68337 9.850192,18.20677 0.82085,1.02286 1.436486,1.63657 2.052123,2.45485 z m 112.866782,-6.13711 c 0.20521,0.20457 0.41042,0.40914 0.82085,0.61371 0.82085,-0.61371 1.84691,-1.02286 2.25733,-1.84114 1.84691,-2.65941 3.89904,-5.31883 5.33552,-8.38739 1.6417,-3.27313 3.2834,-6.75082 4.30946,-10.43309 0.82085,-2.86399 1.23128,-6.13712 -0.41042,-9.20568 -1.23128,0 -2.46255,0 -3.48861,0 -1.6417,2.65942 -3.07819,5.31884 -4.9251,7.97825 -1.84691,2.65942 -2.46255,5.72798 -2.66776,9.00111 -0.20521,3.06855 -0.61564,5.93254 -0.82085,9.0011 0,0.81828 -0.20521,2.0457 -0.41042,3.27313 z m 2.87297,-28.63987 c 1.84691,-0.61372 2.87297,-1.84114 3.69382,-3.27313 2.25734,-3.88684 4.30946,-7.56911 5.33552,-11.86509 0.41043,-1.84114 1.23128,-3.4777 1.84691,-5.11426 0.41043,-1.22743 0.82085,-2.25028 1.02606,-3.4777 0.20522,-0.61371 0.20522,-1.63657 -1.02606,-1.63657 -1.64169,4.70513 -4.10424,9.00111 -5.13031,13.9108 -0.20521,1.22742 -0.82084,2.45484 -1.43648,3.88684 -0.61564,1.63656 -1.43649,3.06855 -3.07819,3.88684 -1.84691,0.61371 -1.6417,2.0457 -1.23127,3.68227 z" />
    <path
       style="fill:#3c3c3c"
       inkscape:connector-curvature="0"
       id="path5456"
       d="m 109.83987,167.2453 c 2.44822,0 3.2643,2.43411 5.71252,2.83979 1.0201,-0.60853 2.24421,-1.4199 3.46832,-2.23126 2.44823,-1.4199 4.48841,-1.01421 6.5286,0.81136 0.40804,0.20285 0.61206,0.60853 0.81608,1.01422 1.22411,2.02842 2.85626,2.4341 5.10047,2.23126 1.22411,0 2.44822,0 3.67233,0 1.42813,0 2.65225,0.20284 4.08038,0.40568 2.85626,0.40569 3.46832,1.82558 2.04019,4.46253 -2.85627,5.27389 -6.12057,10.34495 -10.60898,14.40179 -1.22411,1.21705 -2.24421,2.83979 -3.2643,4.25968 -1.02009,1.4199 -1.83617,2.83979 -2.85626,4.05684 -3.46832,3.65116 -8.16075,3.24548 -11.22103,-0.81137 -1.63215,-2.23126 -3.2643,-4.25968 -6.12057,-5.27389 -1.42813,-0.60853 -2.44822,-1.82558 -3.06028,-3.04263 -1.02009,-2.02842 -2.2442,-3.854 -3.46831,-5.88242 -1.020099,-1.62274 -2.244211,-3.24548 -3.264305,-4.66537 -2.244206,-2.83979 -1.836169,-4.25968 1.63215,-4.86821 2.040185,-0.40568 3.672335,-1.01421 5.508505,-2.23126 1.22411,-0.81137 2.44823,-1.62274 3.2643,-3.04263 0.40804,-0.81137 1.22411,-1.62274 2.04019,-2.43411 z m -8.97683,10.95347 c 2.04019,3.65116 4.08038,7.09948 5.91655,10.54779 0.81607,1.62274 2.2442,2.83979 4.08037,3.44832 0.81608,0.20284 1.42813,0.20284 2.04019,0.60852 2.24421,1.4199 4.69243,0.81137 6.93664,0.20285 1.22411,-0.40569 2.44822,-1.01421 3.87635,-1.4199 7.34468,-2.23126 11.22103,-7.50516 13.26122,-14.60463 0.20402,-0.40568 -0.20402,-1.01421 -0.40804,-1.82558 -3.2643,0 -6.32458,-0.40568 -9.58888,0.40569 -0.81607,0.20284 -1.83617,0.40568 -2.65224,0.40568 -6.5286,-0.40568 -12.85318,0.81137 -19.38178,1.01421 -1.22411,0 -2.85626,0 -4.08038,1.21705 z m 13.87328,18.05295 c 0.20402,1.62274 1.22411,2.4341 2.65224,2.83979 1.0201,0.20284 2.04019,0.40568 3.06028,0.20284 1.42814,-0.20284 2.44823,-2.02842 2.44823,-4.25968 -2.85626,0.20284 -5.71253,-0.60853 -8.16075,1.21705 z m 9.38486,-23.73253 c -0.61206,-1.62273 -1.42813,-2.83978 -3.06028,-3.04263 -1.42813,0 -2.24421,1.01421 -3.06028,3.04263 2.04019,0.60853 3.87636,0.81137 6.12056,0 z m -15.91346,0.81137 c 4.08037,0 4.08037,0 4.08037,-0.60852 -0.61205,-0.81137 -1.42813,-1.82558 -2.85626,-2.02842 -0.40804,0.81136 -0.81607,1.62273 -1.22411,2.63694 z" />
    <path
       style="fill:#3c3c3c"
       inkscape:connector-curvature="0"
       id="path5458"
       d="m 107.86373,122 c 0.795,0.8183 1.39125,1.02288 1.59,1.43203 0.99375,1.63662 1.59001,3.4778 1.59001,5.52356 0,2.86407 0,5.72814 0,8.59221 0.19875,5.72814 0.19875,11.45627 -2.38501,16.57068 0.795,1.84119 1.98751,2.45492 3.37876,3.27322 0.99375,0.40915 1.78875,0.81831 2.7825,1.43204 1.39126,0.8183 2.58376,1.84118 3.18001,3.88694 -0.795,0.20458 -1.39125,0.40916 -1.78875,0.20458 -3.37876,-1.22746 -6.36002,-2.86407 -9.34127,-4.90983 -1.78876,-1.22746 -2.38501,-3.06864 -1.39126,-4.70526 2.78251,-5.1144 2.38501,-10.84254 2.38501,-16.3661 0.19875,-4.70526 0,-9.41051 0,-14.93407 z" />
    <path
       style="fill:#3c3c3c"
       inkscape:connector-curvature="0"
       id="path5460"
       d="m 147,131.88328 c -1.25084,0.79495 -2.29321,1.39117 -3.33558,1.98738 0,0.19874 -0.20847,0.59622 -0.20847,0.79495 1.45931,2.78234 0.20847,5.1672 -1.04237,7.55206 -0.83389,1.5899 -2.29321,2.78233 -4.37794,2.78233 -2.08474,0 -3.1271,-0.59622 -3.961,-2.38486 -0.20847,-0.59621 -0.41695,-1.19243 -0.62542,-1.5899 -1.66779,-4.96846 1.45932,-9.53944 6.87963,-9.93691 1.45931,-0.19874 3.1271,0 4.58641,0 0.8339,0 1.25085,0.39747 2.08474,0.79495 z" />
    <path
       style="fill:#3c3c3c"
       inkscape:connector-curvature="0"
       id="path5462"
       d="m 83.501848,138.54473 c -1.481267,-0.20057 -2.962533,-0.20057 -4.232191,-0.60172 -0.423219,-0.20058 -1.058048,-0.60173 -1.269657,-1.20346 0,-0.40115 0.634829,-1.20346 0.846438,-1.20346 2.327705,-0.20057 4.65541,-0.8023 6.983115,-0.40115 2.750924,0.20058 4.86702,2.20634 6.348287,4.2121 1.269657,1.80518 0.846438,4.41267 0.211609,6.41843 -0.423219,1.80519 -2.539315,3.00864 -4.65541,3.20922 -2.116095,0.20058 -3.597362,-0.8023 -4.4438,-2.60749 -0.846439,-2.00576 -1.058048,-4.01152 -0.42322,-6.01728 0.21161,-0.60173 0.42322,-1.20346 0.634829,-1.80519 z" />
    <path
       style="fill:#3c3c3c"
       inkscape:connector-curvature="0"
       id="path5464"
       d="m 147,115.75291 c -0.83333,0.2119 -1.04167,0.63569 -1.45833,0.63569 -5,0.84758 -9.79167,2.54274 -14.16667,5.29738 -0.83333,0.42379 -1.66667,1.05948 -2.5,1.27137 -0.625,0.2119 -1.25,-0.42379 -1.875,-0.63568 0.20833,-0.63569 0.20833,-1.05948 0.41667,-1.05948 4.375,-3.81411 9.58333,-6.35686 15.20833,-7.20444 1.25,-0.21189 2.5,0.2119 3.54167,0.42379 0.41666,-0.21189 0.625,0.63569 0.83333,1.27137 z" />
    <path
       style="fill:#3c3c3c"
       inkscape:connector-curvature="0"
       id="path5466"
       d="m 77.164016,117.71957 c 4.685815,-1.32011 9.371631,-0.66005 13.853715,0.66005 1.018656,0.22002 1.83358,1.10009 2.444773,1.98017 0.611194,0.66005 0.814925,1.76014 0,2.64021 -2.03731,-0.66005 -3.870891,-1.32011 -5.908201,-1.76014 -1.833581,-0.44004 -3.870892,-0.66006 -5.704472,-0.88007 -1.426117,-0.22002 -2.648504,-0.22002 -4.074622,-0.44004 -0.611193,-0.22002 -1.018655,-0.88007 -0.611193,-2.20018 z" />
    <path
       style="fill:#3c3c3c"
       inkscape:connector-curvature="0"
       id="path5468"
       d="m 33.0605,134 c -0.406006,1.62929 -0.60901,2.6476 -0.812013,3.6659 -0.812013,3.25858 -0.60901,6.72083 -0.203003,9.77575 0.406006,2.24027 2.030033,4.27688 4.060066,5.70251 1.82703,1.01831 3.04505,2.6476 4.060067,4.27689 0.60901,1.22197 1.421023,2.44394 1.421023,3.66591 0.203003,3.46224 0.203003,6.92448 -0.203003,10.38672 -0.406007,3.05492 -1.624027,5.70252 -3.451057,8.35012 -1.21802,1.83295 -2.43604,3.86956 -3.65406,5.70252 -1.421023,2.03661 -2.030033,4.07322 -1.421023,6.51716 0.812013,1.42563 2.233037,2.24027 3.857063,2.6476 3.65406,1.22196 5.684093,4.27688 8.729143,6.3135 1.82703,3.46224 4.26307,6.51716 4.466073,10.79405 0.203004,3.05492 0,6.10984 0,8.96109 0,0.61099 -0.203003,1.22197 -0.406006,1.6293 C 49.300766,222.79634 48.89476,223 48.488753,223 c -0.406007,0 -1.015017,-0.20366 -1.015017,-0.61098 -0.406006,-0.81465 -0.60901,-1.6293 -0.60901,-2.6476 0,-2.24028 0,-4.48055 0,-6.72083 -0.203003,-4.88787 -2.233036,-8.96109 -5.887096,-12.21968 -1.82703,-1.62929 -3.857063,-3.25858 -6.293103,-4.07322 -5.887096,-2.44394 -6.0901,-6.51716 -3.65406,-11.81236 1.015017,-2.24027 2.233037,-4.27689 3.857063,-6.10984 4.060067,-5.09153 4.26307,-10.99771 3.857063,-17.10755 -0.203003,-2.44394 -1.82703,-4.07323 -3.451056,-5.70252 -0.812013,-0.81464 -1.82703,-1.42563 -2.639043,-2.44393 -4.466073,-4.48055 -4.26307,-9.57208 -2.43604,-15.07094 0,-1.22197 0.406007,-3.05492 2.842046,-4.48055 z" />
    <path
       style="fill:#3c3c3c"
       inkscape:connector-curvature="0"
       id="path5470"
       d="M 34.390667,85 C 34.796889,86.427861 35,87.039801 35,87.447761 c -0.203111,0.611941 -0.406222,1.223881 -0.812443,1.631841 -3.046663,3.467662 -4.874661,7.547264 -6.90577,11.626868 -1.015554,2.0398 -1.624886,4.0796 -1.218665,6.73134 1.421776,1.0199 3.046663,2.24378 4.67155,3.26368 1.827998,1.22388 2.640441,2.65174 2.640441,4.89553 -0.203111,3.26368 0.406222,6.52736 -1.624887,10.40298 0,-3.0597 -0.203111,-5.30348 0,-7.75124 0.203111,-3.46767 -1.421776,-5.71145 -4.468439,-6.93533 -1.218665,-0.40796 -2.43733,-1.0199 -3.859106,-1.63184 -0.812443,-3.0597 -0.406222,-5.91542 0.812444,-8.77114 1.624886,-3.467664 3.452884,-6.935326 5.483993,-10.402987 C 30.734672,88.875622 32.359559,87.447761 34.390667,85 Z" />
    <path
       style="fill:#3c3c3c"
       inkscape:connector-curvature="0"
       id="path5472"
       d="m 63,49 c -0.642857,1.68421 -1.285714,3.157895 -3,4 0.428571,-1.684211 1.285714,-3.157895 3,-4 z" />
    <path
       style="fill:#3c3c3c"
       inkscape:connector-curvature="0"
       id="path5474"
       d="m 58.4,181.4 c -0.2,0 -0.2,0 -0.4,0 0.2,-0.2 0.2,-0.2 0.4,-0.4 0,0 0,0.2 0,0.4 z" />
    <path
       style="fill:#3c3c3c"
       inkscape:connector-curvature="0"
       id="path5476"
       d="m 150.02101,45.260598 c -0.41117,2.466703 0.61675,3.905613 1.23351,5.344523 1.02792,2.87782 2.26143,5.550082 2.46701,8.633461 0.20559,2.261145 0.20559,4.111172 -1.02792,6.577875 -0.41117,-0.411117 -1.02792,-0.822234 -1.23351,-1.233351 -0.41117,-1.027794 -0.61675,-2.055586 -0.61675,-3.083379 -0.82234,-5.9612 -3.08377,-11.305723 -5.96196,-16.650247 -1.02792,-1.850027 -1.2335,-3.288937 -0.20558,-3.700054 1.64468,-0.616676 2.05584,0.822234 2.87818,1.644469 0.20559,0.205558 0.20559,0.205558 0.61676,0.411117 0.41117,-0.616676 0.82234,-1.027793 1.43909,-1.850028 2.05585,1.027793 4.11169,1.644469 5.75637,3.905614 1.85026,2.87782 4.31728,5.344523 6.57871,8.222343 1.23351,1.644469 2.46702,3.494496 3.28935,5.344524 1.85027,4.111172 3.28936,8.427902 5.13962,12.744633 1.02792,2.466703 0.61675,5.138964 0,7.605668 C 170.16831,79.588883 169.55155,80 168.9348,80 c -0.20559,0 -0.61676,-0.411117 -0.82234,-0.822234 -0.20558,-0.205559 -0.20558,-0.616676 -0.20558,-0.822235 -1.02793,-6.988992 -4.1117,-12.950191 -6.98988,-19.116949 -2.6726,-4.933406 -6.7843,-9.250137 -10.89599,-13.977984 z" />
    <path
       style="fill:#3c3c3c"
       inkscape:connector-curvature="0"
       id="path5478"
       d="m 128,39.292421 c 1.24023,-0.206773 1.86034,-0.413546 2.48045,-0.206773 0.41341,0.206773 1.03352,0.827092 1.24023,1.240638 1.44693,4.13546 3.72067,7.6506 4.54749,11.992833 0.41341,2.688048 0.82682,5.376097 1.44693,8.064146 0.62011,2.274502 0.2067,4.135459 -1.03352,6.616735 -0.41341,-0.827092 -1.03352,-1.447411 -1.03352,-2.06773 -1.03352,-4.135459 -1.65364,-8.477692 -2.68716,-12.613151 -1.03352,-3.721914 -2.06704,-7.237054 -3.30727,-10.958968 -0.2067,-0.620319 -0.82681,-1.033865 -1.65363,-2.06773 z" />
    <path
       style="fill:#3c3c3c"
       inkscape:connector-curvature="0"
       id="path5480"
       d="m 98.8,42 c 0.8,0.806452 1.2,1.008065 1.4,1.209677 0.2,1.008065 0.6,2.016129 0.6,3.024194 0,5.846774 0.2,11.693548 0.2,17.33871 0,1.209677 -0.2,2.419354 -1.4,3.427419 -0.4,-0.403226 -1,-1.008065 -1.2,-1.41129 -0.2,-0.604839 -0.4,-1.411291 -0.4,-2.217742 0,-6.25 0.2,-12.5 0.4,-18.75 C 98.2,44.016129 98.6,43.41129 98.8,42 Z" />
    <path
       style="fill:#3c3c3c"
       inkscape:connector-curvature="0"
       id="path5482"
       d="m 115.40327,63.795276 c -0.19317,-0.818898 -0.57951,-1.637796 -0.57951,-2.456693 -0.19317,-2.456693 -0.19317,-4.913386 -0.19317,-7.165355 -0.19317,-4.299212 -0.38634,-8.3937 -0.5795,-12.692913 0,-1.023622 -0.38634,-2.456693 0.96584,-3.480315 1.15901,2.866142 1.73852,5.527559 1.93169,8.393701 0.19317,5.937008 -0.19317,11.669291 -0.57951,17.606299 -0.19317,-0.204724 -0.5795,-0.204724 -0.96584,-0.204724 z" />
    <path
       style="fill:#3c3c3c"
       inkscape:connector-curvature="0"
       id="path5484"
       d="m 86.899468,73 c -0.21164,-0.611842 -0.846558,-1.019737 -0.846558,-1.427632 0,-2.651315 -0.21164,-5.506579 0.211639,-8.157894 0.634919,-5.506579 0.846558,-11.013158 0.846558,-16.723685 0,-1.223684 0,-2.447368 0.21164,-3.671052 0,-0.407895 0.423279,-0.611842 0.846558,-1.019737 0.211639,0.611842 0.634918,1.019737 0.634918,1.223684 0.634919,9.585526 -0.423279,19.171053 -1.058197,28.756579 0,0.611842 -0.423279,0.611842 -0.846558,1.019737 z" />
    <polygon
       style="fill:#3c3c3c"
       id="polygon5486"
       points="57.2,73.4 57,73.4 57.2,73 " />
    <path
       style="fill:#3c3c3c"
       inkscape:connector-curvature="0"
       id="path5488"
       d="m 56.088889,77 c 0,-0.4 0.2,-0.6 0.2,-1 0,0 0.2,0.2 0.2,0.2 -0.2,0.4 -0.4,0.6 -0.4,0.8 -0.2,0 0,0 0,0 z" />
    <path
       style="fill:#3c3c3c"
       inkscape:connector-curvature="0"
       id="path5490"
       d="m 118.78735,266 c -4.93875,-2.727 -9.26016,-5.24423 -13.78735,-7.76147 1.23469,-1.46838 2.88094,-1.46838 4.32141,-0.83907 2.88094,1.46838 5.5561,3.14654 8.23125,4.82469 1.02891,0.62931 1.85204,1.88793 1.23469,3.77585 z" />
    <path
       style="fill:#3c3c3c"
       inkscape:connector-curvature="0"
       id="path5492"
       d="m 142,257 c -2.2,3.04762 -4.8,3.80952 -8,4 2,-2.66667 2.2,-2.85714 8,-4 z" />
  </g>
  <text
     id="PURELAS"
     font-size="20"
     font-weight="bold"
     letter-spacing="10.21"
     style="font-weight:bold;font-size:20px;font-family:Ubuntu-Bold, Ubuntu;letter-spacing:10.21000004;fill:#ffffff;fill-rule:evenodd;stroke:none;stroke-width:1">
    <tspan
       x="98.864998"
       y="133"
       id="tspan5505">PURELAS</tspan>
  </text>
  <path
     d="m 168.02166,49 c 1.73152,3.951426 3.32985,5.727348 0.97676,11.232706 -2.48629,5.816144 -4.97259,6.792902 -3.32986,8.346833 1.64273,1.553932 4.88379,2.219903 4.88379,2.219903 0,0 -0.0888,1.021155 -0.75477,1.997912 -0.71037,0.976757 -0.57717,2.397494 0.79917,3.241057 1.02115,0.621573 1.19874,0.710369 1.24314,0.710369 0,0 -0.53278,0.488379 -0.84356,1.553932 -0.35519,1.154349 0.39958,2.2643 1.64273,2.619484 1.24314,0.355185 1.77592,0.488379 2.04231,0.887961 0.31078,0.443981 0.0888,0.532777 0,2.397495 -0.0888,1.864718 -0.44398,3.64064 1.99791,5.016979 2.44189,1.37634 6.7041,0.177593 10.21155,-1.997912 3.01907,-1.864718 10.47794,-4.262212 16.24968,-1.154349 -4.04022,5.194572 -10.07835,8.835212 -17.09324,9.723173 C 171.92869,97.571465 159.00886,87.581904 157.23293,73.463324 155.90099,63.56256 160.38519,54.283368 168.02166,49 Z"
     id="path5520"
     inkscape:connector-curvature="0"
     style="fill:#ffffff;fill-rule:nonzero;stroke:none;stroke-width:1" />
</svg>
