<?xml version="1.0" encoding="UTF-8"?>
<svg width="360px" height="640px" viewBox="0 0 360 640" version="1.1" xmlns="http://www.w3.org/2000/svg" xmlns:xlink="http://www.w3.org/1999/xlink">
    <!-- Generator: Sketch 46.2 (44496) - http://www.bohemiancoding.com/sketch -->
    <title>onboarding 1</title>
    <desc>Created with Sketch.</desc>
    <defs>
        <rect id="path-1" x="0" y="0" width="360" height="640"></rect>
        <linearGradient x1="0%" y1="0%" x2="100%" y2="100%" id="linearGradient-2">
            <stop stop-color="#FAD295" offset="0%"></stop>
            <stop stop-color="#F145A9" offset="33.8208008%"></stop>
            <stop stop-color="#115B84" offset="100%"></stop>
        </linearGradient>
        <rect id="path-3" x="0" y="0" width="360" height="640"></rect>
    </defs>
    <g id="App" stroke="none" stroke-width="1" fill="none" fill-rule="evenodd">
        <g id="onboarding-1">
            <g id="BG">
                <use fill="#FFFFFF" fill-rule="evenodd" xlink:href="#path-1"></use>
                <rect stroke="#979797" stroke-width="1" x="0.5" y="0.5" width="359" height="639"></rect>
            </g>
            <g id="BG">
                <use fill="url(#linearGradient-2)" fill-rule="evenodd" xlink:href="#path-3"></use>
                <rect stroke="#979797" stroke-width="1" x="0.5" y="0.5" width="359" height="639"></rect>
            </g>
            <g id="Group" transform="translate(-71.000000, 202.000000)">
                <circle id="Oval" fill-opacity="0.593353714" fill="#F363B2" fill-rule="nonzero" cx="263.5" cy="263.5" r="263.5"></circle>
                <g transform="translate(266.000000, 98.000000)" id="Shape">
                    <path d="M172.034359,345.401867 C173.439785,337.973379 174.845211,330.54489 176.484875,322.876773 C177.421826,318.0842 178.827252,313.291627 179.99844,308.738682 C182.575055,296.757249 185.15167,285.015445 187.494047,273.034012 C188.19676,268.720696 187.962522,264.40738 187.962522,260.094064 C187.962522,258.416663 187.025571,256.978891 185.15167,256.499634 C183.746243,256.020377 182.575055,255.780748 180.701153,255.301491 C179.764203,258.416663 180.232678,261.052578 180.232678,263.448865 C180.232678,264.647008 180.466916,266.08478 180.232678,267.282924 C180.232678,268.960324 178.593014,269.67921 177.187588,268.960324 C175.782162,268.241438 174.610973,267.282924 172.97131,266.08478 C172.268596,267.282924 171.800121,268.241438 171.097408,269.199953 C170.394695,270.398096 168.755031,270.398096 167.81808,269.199953 C166.88113,268.00181 165.944179,266.564038 164.77299,264.886637 C164.070277,266.08478 163.601802,266.803666 163.133326,267.522552 C161.962138,268.960324 160.088236,268.960324 159.151286,267.522552 C158.214335,266.08478 157.277384,264.40738 156.574671,262.729979 C154.935007,258.656292 153.295343,254.822233 151.421442,250.508917 C146.50245,247.154116 141.817696,250.269289 136.898705,251.467432 C135.259041,254.103347 134.32209,256.739263 133.619377,259.375178 C131.745475,265.845152 130.574287,272.554754 126.826484,278.066213 C126.358009,278.785099 125.889533,279.743614 125.655295,280.4625 C123.078681,288.849503 119.330878,296.51762 115.583075,304.425366 C114.880362,305.623509 114.646124,307.061281 114.177648,308.499053 C113.709173,309.457568 113.240698,310.416083 112.772222,311.374597 C112.069509,312.572741 110.429845,312.812369 109.492895,311.853855 C108.321706,310.89534 107.384755,309.936825 106.447805,308.738682 C104.808141,306.821653 103.402715,304.664995 101.763051,302.987594 C99.8891492,301.310194 98.9521984,298.913907 97.5467722,296.757249 C97.0782968,296.038363 96.6098214,295.079848 96.1413461,294.360962 C91.2223545,286.932474 86.3033629,279.743614 81.618609,272.315126 C79.5104698,268.960324 77.8708059,265.126266 75.7626667,261.292207 C74.5914782,259.135549 73.4202898,257.21852 72.483339,255.541119 C67.3301097,255.541119 62.4111182,255.780748 57.7263643,255.541119 C54.915512,255.301491 53.0416104,256.739263 50.9334712,257.937406 C50.4649958,258.177035 49.9965204,258.895921 49.7622827,259.614806 C49.2938073,261.052578 48.3568565,262.250722 46.7171927,262.250722 C44.6090534,262.250722 44.3748158,260.333692 43.6721027,258.895921 C43.2036273,257.697777 42.7351519,256.260005 42.2666765,255.061862 C40.8612504,255.061862 40.8612504,256.020377 40.8612504,256.499634 C40.8612504,258.416663 40.8612504,260.573321 40.8612504,262.49035 C40.8612504,263.688494 40.392775,264.647008 39.2215865,264.886637 C38.050398,265.126266 37.1134473,264.647008 36.6449719,263.448865 C35.9422588,262.250722 35.4737834,260.81295 34.5368326,259.614806 C33.5998818,258.177035 32.8971688,256.020377 30.7890295,256.020377 C28.4466526,256.260005 28.915128,258.895921 28.6808903,260.333692 C28.2124149,262.250722 28.4466526,264.40738 28.2124149,266.324409 C27.2754641,278.305842 29.6178411,289.808018 31.7259803,301.310194 C33.3656442,310.416083 35.2395457,319.521972 37.1134473,328.388232 C37.8161603,331.982662 39.2215865,335.337464 40.392775,338.692265 C41.095488,340.848923 41.5639634,343.005581 41.3297257,345.401867 C44.8432911,345.881125 48.1226189,346.360382 51.6361843,346.839639 C51.1677089,346.360382 50.6992335,345.641496 50.6992335,344.92261 C48.5910942,336.05635 46.7171927,327.190089 44.6090534,318.563457 C44.1405781,316.167171 43.9063404,313.531255 44.8432911,311.134969 C45.0775288,310.416083 45.5460042,309.936825 46.482955,308.499053 C47.4199058,310.176454 48.1226189,311.134969 48.3568565,312.093483 C49.2938073,321.199372 52.573135,329.826004 54.4470366,338.452636 C55.1497497,341.088551 55.6182251,343.724467 56.3209381,346.360382 C56.5551758,346.839639 56.3209381,347.318897 55.8524627,347.798154 C57.0236512,348.037783 58.4290774,348.277411 59.6002658,348.51704 C75.528429,351.152955 91.2223545,354.268128 107.150518,356.185157 C122.610205,358.102186 138.772606,359.060701 154.232294,356.185157 C160.79095,354.987014 166.646892,352.830356 172.034359,349.954812 C172.034359,349.954812 172.034359,349.954812 172.034359,349.715183 C171.800121,348.756669 171.800121,347.079268 172.034359,345.401867 Z M166.412654,304.904624 C166.178416,308.978311 165.709941,313.291627 165.475703,317.365314 C165.475703,317.365314 165.709941,317.365314 165.709941,317.365314 C165.709941,319.282343 165.944179,321.439001 165.709941,323.35603 C165.241466,329.586376 164.538753,335.577092 164.77299,341.807437 C164.77299,343.964095 164.77299,346.360382 162.899089,347.798154 C162.430613,348.277411 161.493663,348.277411 161.025187,348.277411 C160.79095,348.277411 160.322474,347.558525 160.322474,347.079268 C160.322474,341.088551 160.088236,335.097835 160.556712,329.107118 C161.025187,323.35603 161.259425,317.604943 161.493663,311.853855 C161.493663,308.259425 162.196376,304.904624 163.367564,301.789451 C163.601802,301.310194 164.304515,300.591308 164.77299,300.591308 C165.944179,300.351679 166.178416,301.549822 166.178416,302.268708 C166.412654,302.987594 166.412654,303.946109 166.412654,304.904624 Z" fill="#FFFFFF" fill-rule="nonzero"></path>
                    <path d="M77.5459066,79.3557166 C76.6129041,79.1180919 76.3796535,79.5933413 75.9131523,80.3062154 C70.7816388,88.147831 66.5831277,96.4646959 63.0843685,105.019186 C60.985113,110.484554 57.952855,115.237048 55.3870982,120.464792 C54.6873464,121.652916 53.9875945,122.36579 52.8213415,123.078664 C51.4218378,123.553913 50.2555847,124.266787 49.3225822,124.979662 C48.856081,126.643035 50.4888353,126.643035 51.1885872,127.355909 C51.1885872,129.494531 49.5558329,131.157904 48.6228304,132.583652 C45.823823,137.098522 42.791565,141.613392 39.9925577,146.128261 C38.593054,148.504508 37.6600515,150.880755 36.9602997,153.494627 C35.3275454,160.385744 33.4615405,167.039236 31.5955355,173.692728 C30.6625331,177.019474 28.7965282,180.34622 27.1637739,183.435341 C26.2307714,185.098714 25.7642702,186.524462 25.5310196,188.42546 C24.8312677,192.94033 24.1315159,197.692824 23.1985134,202.207693 C22.4987616,205.772064 23.6650147,208.861185 24.3647665,211.950307 C25.7642702,210.524558 25.5310196,208.623561 25.9975208,207.197812 C26.464022,205.534439 26.9305233,203.633442 27.3970245,201.970069 C27.8635257,200.069071 28.5632776,198.168073 28.7965282,196.267076 C29.2630294,194.603703 29.2630294,192.702705 29.49628,191.039332 C29.7295306,189.375959 29.49628,187.474961 31.3622849,186.049213 C32.528538,187.712586 33.6947911,188.90071 34.3945429,190.564083 C35.7940466,192.702705 36.7270491,194.841327 38.8263046,196.5047 C39.2928058,196.97995 39.7593071,197.692824 39.9925577,198.168073 C40.4590589,201.01957 40.6923095,203.871066 40.9255601,206.722563 C40.9255601,207.910687 40.6923095,209.336435 40.9255601,210.524558 C41.8585626,218.128549 43.0248157,225.73254 43.9578181,233.574156 C44.1910687,235.950403 44.65757,238.564275 44.8908206,240.940522 C45.1240712,242.128645 45.1240712,243.554394 45.5905724,244.742517 C45.823823,245.217767 46.5235749,245.455391 47.2233267,246.168265 C48.6228304,243.554394 48.3895798,241.178146 48.1563292,239.039524 C47.9230786,236.425652 47.4565773,234.049405 46.9900761,231.673158 C46.9900761,230.960284 46.5235749,230.24741 46.5235749,229.534536 C46.2903243,221.455295 44.4243193,213.61368 43.4913169,205.534439 C43.4913169,204.821565 43.4913169,204.108691 43.7245675,203.158192 C46.7568255,203.395817 48.3895798,206.009689 50.7220859,206.722563 C53.2878427,207.673062 55.3870982,208.861185 57.7196044,210.049309 C57.952855,214.564179 58.1861056,218.841423 58.4193562,223.118668 C58.6526068,227.158288 58.8858574,231.435533 59.1191081,235.237529 C60.7518624,235.950403 61.4516142,235.237529 61.4516142,234.049405 C61.4516142,230.009785 61.2183636,225.73254 60.985113,221.69292 C60.985113,219.791922 60.5186117,217.890925 60.2853611,215.752302 C60.2853611,214.801803 60.2853611,213.61368 60.2853611,212.187931 C63.0843685,213.61368 65.6501253,214.801803 68.4491326,215.989927 C68.4491326,218.366174 68.4491326,220.504796 68.4491326,222.881044 C68.4491326,225.019666 68.4491326,227.158288 68.6823832,229.296911 C68.6823832,229.77216 69.3821351,230.24741 70.0818869,230.960284 C71.7146412,225.970165 70.0818869,221.217671 71.24814,216.702801 C74.5136486,216.702801 77.312656,217.6533 80.1116634,218.128549 C80.8114152,220.267172 80.344914,221.930545 79.6451621,223.593918 C78.2456584,227.395913 77.5459066,231.197909 77.0794054,234.999904 C76.6129041,238.801899 75.2134005,242.603895 72.1811425,245.455391 C71.4813906,243.316769 70.7816388,241.415771 70.0818869,239.752398 C69.1488845,237.613776 67.5161302,237.376151 65.8833759,238.801899 C64.7171228,239.990023 64.017371,241.178146 63.0843685,242.603895 C62.3846167,243.792018 61.6848648,244.980142 60.7518624,246.643515 C59.5856093,244.504892 58.4193562,242.603895 57.4863538,240.940522 C56.3201007,239.039524 55.1538476,237.376151 54.2208452,235.475153 C53.2878427,233.81178 53.7543439,231.197909 51.4218378,229.77216 C50.4888353,231.673158 50.9553365,233.098906 50.9553365,234.762279 C51.1885872,237.138526 51.4218378,239.752398 51.6550884,242.128645 C52.1215896,245.455391 49.0893316,247.594014 49.0893316,250.683135 C47.4565773,252.584133 45.823823,254.722755 43.7245675,256.861378 C42.5583144,254.722755 41.625312,252.821757 40.6923095,250.92076 C39.0595552,250.92076 38.1265528,251.871259 37.8933021,253.297007 C37.4268009,255.910879 36.0272972,257.336627 33.9280417,259 C32.2952874,256.148503 30.6625331,253.534632 29.0297788,251.158384 C27.3970245,250.207886 26.464022,250.683135 25.5310196,251.871259 C24.8312677,252.584133 24.8312677,254.009881 23.431764,253.772256 C22.0322604,243.079144 18.5335011,232.861282 16.200995,222.405794 C13.8684888,212.425556 11.5359827,202.445318 9.43672717,192.46508 C8.2704741,186.762087 7.80397287,181.059094 7.10422103,175.356101 C6.40446918,169.415483 5.47146673,163.474865 4.77171488,157.771872 C3.83871242,152.068879 4.07196304,146.365886 4.07196304,140.425268 C4.07196304,139.237144 4.07196304,138.286646 4.07196304,137.098522 C3.60546181,120.940041 5.47146673,105.25681 7.80397287,89.3359545 C8.97022594,81.0190896 10.8362309,72.7022246 12.7022358,64.3853596 C13.168737,62.7219866 13.6352382,61.0586136 14.3349901,59.1576159 C16.200995,54.1674969 18.0669999,49.177378 19.9330048,43.9496343 C21.3325085,40.1476388 23.1985134,36.8208928 25.297769,33.4941469 C26.9305233,31.1178997 28.5632776,28.7416526 30.4292825,26.6030302 C32.7617886,23.5139089 35.3275454,20.900037 38.593054,18.9990393 C40.9255601,17.5732911 43.0248157,16.1475428 45.3573218,14.7217945 C47.6898279,13.0584215 50.2555847,11.8702979 53.0545921,11.3950485 C57.2531031,10.4445496 61.2183636,9.25642608 65.4168746,8.30592723 C71.9478919,6.88017894 78.4789091,6.88017894 85.0099263,7.11780366 C88.0421843,7.11780366 90.8411916,8.06830251 93.4069484,10.2069249 C94.3399508,10.9197991 95.2729533,11.3950485 95.9727051,12.1079226 C98.5384619,14.4841698 101.104219,15.6722933 104.602978,14.9594192 C107.168735,14.4841698 108.801489,16.3851675 110.434243,18.0485405 C111.367246,18.9990393 112.066998,20.4247876 113,21.6129112 C112.766749,23.2762842 112.300248,24.7020325 112.066998,26.3654055 L112.300248,26.1277807 C111.600496,27.553529 110.434243,29.216902 109.967742,30.6426503 C106.235732,41.3357624 101.337469,51.5536251 96.672457,61.5338631 C93.8734496,67.4744809 90.607941,73.4150987 87.1091818,78.8804671 C81.2779164,88.147831 74.9801498,96.9399454 68.9156339,105.969684 C67.9826314,107.157808 66.8163783,108.345932 65.183624,110.484554 C65.4168746,108.821181 65.183624,107.870682 65.4168746,107.157808 C67.9826314,99.3161925 71.9478919,91.9498264 75.4466511,84.5834603 C75.6799017,83.157712 76.3796535,81.2567143 77.5459066,79.3557166 C77.7791572,78.6428424 78.4789091,77.9299683 77.0794054,76.7418447 C77.312656,77.9299683 77.312656,78.6428424 77.5459066,79.3557166 Z M68.215882,55.3556205 C67.5161302,56.5437441 66.8163783,57.7318676 66.3498771,58.9199912 C60.0521105,70.8012269 54.2208452,82.9200873 48.856081,95.2765724 C45.3573218,102.880563 42.0918132,110.722179 39.5260564,118.801419 C37.6600515,124.504412 35.560796,129.969781 33.9280417,135.672774 C31.5955355,143.276765 29.49628,150.880755 27.6302751,158.484746 C26.464022,162.999616 25.7642702,167.514485 24.8312677,172.26698 C24.5980171,172.979854 24.5980171,173.692728 24.8312677,174.405602 C25.0645183,175.118476 25.5310196,175.83135 26.2307714,175.83135 C26.6972726,175.83135 27.6302751,175.593726 27.8635257,175.118476 C28.5632776,173.217478 29.2630294,171.316481 29.7295306,169.415483 C31.1290343,164.425364 32.2952874,159.19762 33.4615405,154.207501 C34.8610442,149.455007 36.0272972,144.464888 37.4268009,139.712394 C40.9255601,129.019282 43.9578181,118.088545 47.9230786,107.395433 C52.8213415,94.0884488 58.6526068,81.2567143 64.017371,68.187355 C65.6501253,64.1477349 67.5161302,60.1081148 68.215882,55.3556205 Z M34.3945429,200.781945 C34.1612923,200.781945 33.9280417,200.54432 33.6947911,200.54432 C33.4615405,201.970069 32.9950392,203.633442 32.9950392,205.05919 C32.528538,214.564179 32.0620368,224.069167 31.8287862,233.574156 C31.5955355,237.8514 32.9950392,242.128645 34.1612923,246.168265 C34.6277935,247.594014 35.7940466,248.306888 37.4268009,248.306888 C38.1265528,246.40589 37.4268009,244.742517 37.1935503,243.079144 C36.7270491,240.465272 35.7940466,237.8514 35.7940466,235.237529 C35.0942948,223.831542 34.6277935,212.187931 34.3945429,200.781945 Z M79.4119115,73.6527234 L79.8784127,73.6527234 L79.6451621,73.177474 L79.4119115,73.6527234 Z M81.7444177,70.5636022 L81.9776683,70.0883527 L81.7444177,70.0883527 L81.7444177,70.5636022 Z M83.8436732,66.9992315 L84.0769238,67.2368562 L84.3101744,66.7616068 L83.8436732,66.9992315 Z" fill="#FFFFFF"></path>
                    <path d="M53.2983778,138.467972 C53.2983778,141.53778 53.2983778,144.135309 53.2983778,146.968978 C53.2983778,148.621951 53.5345829,150.274924 55.4242236,150.983341 C57.7862744,151.691759 60.3845304,151.45562 61.5655558,149.094229 C62.5103761,147.441256 63.2189914,145.552143 62.9827863,143.426892 C62.5103761,140.120945 61.5655558,138.704111 58.2586846,137.759555 C56.8414541,137.287277 55.1880185,137.051138 53.2983778,136.57886 C54.9518134,133.036774 57.3138643,129.966966 59.43971,127.133298 C61.3293507,124.535768 63.2189914,121.702099 65.3448371,119.10457 C71.0137592,112.020398 76.210271,104.463949 81.4067829,96.9074993 C82.3516032,95.490665 83.2964236,94.0738307 85.4222693,93.8376916 C86.3670897,93.8376916 87.0757049,92.6569964 87.7843202,91.9485792 C88.4929354,91.0040231 89.2015507,89.8233278 89.6739609,88.6426326 C94.3980626,78.7247925 98.8859592,69.0430915 103.610061,59.1252514 C103.846266,58.4168343 104.318676,57.9445562 104.791086,57 C105.499702,57.9445562 105.735907,58.4168343 105.972112,59.1252514 C108.097957,63.3757543 110.932418,67.3901182 114.475495,70.6960648 C117.073751,73.2935944 119.435802,76.363402 122.034057,78.9609316 C122.506468,79.4332097 122.978878,80.1416268 123.451288,80.6139049 C128.6478,84.1559906 131.718466,89.5871888 135.261542,94.3099697 C137.859798,97.6159164 140.221849,100.921863 142.5839,104.22781 C144.473541,107.061478 146.363181,109.895147 148.489027,112.492677 C151.323488,116.034762 152.032103,120.285265 153.213129,124.299629 C153.449334,125.480324 153.449334,126.661019 153.449334,128.077854 C153.213129,130.911522 153.921744,133.745191 154.866564,136.34272 C157.228615,133.509052 157.228615,133.509052 157.228615,131.3838 C156.99241,127.841715 156.52,124.299629 156.283795,120.757543 C156.283795,120.049126 155.811385,119.340709 155.811385,118.632292 C156.04759,116.50704 155.57518,114.14565 158.409641,113.437233 C158.645846,113.437233 159.118256,113.201094 159.354461,112.728816 C160.063076,111.784259 160.299281,110.367425 161.952717,110.367425 C164.078563,110.367425 165.731998,111.311981 166.913024,113.201094 C168.330254,115.326345 169.51128,117.451597 169.51128,120.049126 C169.51128,123.591212 169.98369,127.133298 169.98369,130.675383 C170.219895,134.689747 167.857844,140.593223 165.023383,144.607587 C164.787178,144.135309 164.314768,143.89917 164.078563,143.426892 C163.842357,142.954614 163.606152,142.482336 163.369947,141.773919 C162.425127,141.773919 161.244102,141.53778 160.299281,141.53778 C158.645846,141.30164 157.46482,142.010058 156.756205,143.426892 C155.811385,144.843726 154.866564,146.024421 154.157949,147.441256 C152.504513,151.219481 149.433847,154.289288 148.961437,158.303652 C148.725232,159.956625 148.489027,161.845738 148.489027,163.498711 C148.252822,168.457631 148.252822,173.416551 148.016617,178.61161 C148.016617,181.20914 147.071796,183.334391 144.945951,184.515086 C142.347695,186.16806 140.694259,188.765589 138.804618,191.12698 C137.151183,193.48837 135.261542,195.613622 133.135696,197.502734 C131.482261,198.919568 130.301235,200.808681 128.884005,202.225515 C126.049544,204.823045 123.215083,207.420574 120.144417,210.018104 C119.435802,210.490382 118.490981,210.96266 118.018571,211.434938 C113.058264,216.157719 106.680727,216.157719 100.30319,215.92158 C96.0514982,215.685441 91.7998066,215.449302 87.5481151,214.268607 C79.9895524,212.379494 71.9585795,211.907216 65.1086321,207.420574 C60.8569405,204.586906 56.1328388,202.461654 51.6449422,199.627986 C44.7949948,195.141344 39.834688,188.765589 36.0554066,181.681418 C34.8743812,179.556166 34.6381761,177.430915 35.5829965,175.069524 C39.834688,162.554155 45.0311999,150.747202 51.6449422,139.412528 C51.6449422,138.94025 52.1173524,138.94025 53.2983778,138.467972 Z M80.4619626,129.258549 C79.9895524,129.966966 79.5171422,130.439244 79.5171422,130.911522 C79.5171422,135.634303 79.2809371,140.593223 79.2809371,145.316004 C79.2809371,152.400176 81.1705778,159.720486 76.6826812,166.096241 C76.6826812,166.33238 76.4464761,166.33238 76.4464761,166.568519 C75.7378609,169.166048 76.4464761,171.055161 79.0447321,172.471995 C82.8240134,174.361107 86.6032948,175.777942 90.8549863,174.361107 C91.3273965,174.124968 91.7998066,173.65269 92.744627,172.944273 C89.2015507,171.999717 86.1308846,171.055161 83.0602185,170.110604 C82.1153982,169.874465 81.4067829,169.166048 80.4619626,168.457631 C81.1705778,167.040797 81.8791931,165.623963 82.5878083,164.443267 C83.0602185,163.262572 83.5326287,162.081877 83.5326287,160.901182 C83.5326287,156.650679 84.0050388,152.164037 83.2964236,148.149673 C82.5878083,143.426892 82.3516032,138.94025 81.8791931,134.217469 C81.642988,132.564496 81.8791931,130.911522 80.4619626,129.258549 Z M119.672007,122.646656 C119.199596,122.646656 118.727186,122.410517 118.254776,122.646656 C115.892725,124.06349 114.003085,125.716463 111.168624,126.188741 C110.460008,126.188741 109.751393,127.133298 109.278983,127.841715 C107.153137,131.3838 106.444522,134.925886 106.916932,138.94025 C107.153137,140.357084 107.861752,141.30164 108.806573,142.010058 C110.932418,143.190753 113.294469,143.190753 115.420315,141.773919 C117.546161,140.357084 118.727186,138.467972 118.018571,135.870442 C116.601341,131.3838 117.309956,127.133298 119.908212,123.355073 C119.908212,123.118934 119.672007,122.882795 119.672007,122.646656 Z M78.5723219,183.806669 C79.5171422,184.515086 79.9895524,184.987365 80.6981677,184.987365 C84.0050388,185.459643 87.5481151,185.931921 90.8549863,185.931921 C101.24801,185.931921 109.515188,181.681418 115.18411,172.944273 C115.420315,172.708134 115.18411,171.999717 115.420315,170.819022 C113.76688,171.999717 112.349649,172.944273 111.168624,173.65269 C108.334163,175.541803 105.499702,177.430915 102.665241,179.083888 C99.1221643,180.973001 95.3428829,181.917557 91.3273965,181.917557 C87.31191,182.153696 83.2964236,182.153696 78.5723219,183.806669 Z M128.17539,106.353061 C127.70298,104.700088 126.994364,104.700088 126.285749,104.700088 C118.018571,103.991671 110.460008,106.5892 102.901446,109.659008 C101.24801,110.367425 99.5945744,111.311981 99.1221643,113.201094 C98.8859592,113.673372 99.1221643,114.381789 99.3583693,114.617928 C99.5945744,114.854067 100.30319,115.090206 100.7756,115.090206 C101.011805,115.090206 101.484215,114.854067 101.72042,114.854067 C107.625547,111.784259 113.76688,109.659008 120.380622,108.714452 C122.978878,108.006035 125.577134,107.061478 128.17539,106.353061 Z M108.097957,187.348755 C103.846266,187.348755 100.539395,188.293311 97.4687287,190.418563 C96.9963185,190.654702 96.7601134,191.363119 96.7601134,191.599258 C96.9963185,192.071536 97.7049338,192.543814 98.1773439,193.016092 C98.413549,193.252231 98.8859592,193.252231 99.1221643,193.252231 C101.24801,192.307675 103.373856,191.599258 105.499702,190.654702 C106.444522,189.946285 106.916932,188.765589 108.097957,187.348755 Z" fill="#FFFFFF"></path>
                    <path d="M113.24959,26.0246393 C113.723952,25.3146112 114.435495,24.604583 115.147038,23.8945549 C116.095762,24.604583 116.807305,25.3146112 117.756029,26.0246393 C118.230391,25.7879632 118.704752,25.7879632 118.704752,25.7879632 C119.179114,22.9478507 121.788105,20.5810903 120.6022,17.0309497 C122.736829,16.7942737 124.159915,17.9776539 125.820182,18.451006 C127.480449,18.924358 129.140716,19.6343862 130.800983,20.3444143 C133.647155,21.7644705 136.493327,23.1845268 139.339499,24.8412591 C143.371575,26.9713434 146.454928,30.284808 149.538281,33.3615965 C152.621634,36.6750611 154.993444,40.4618778 156.890892,44.4853705 C158.551159,48.0355111 160.685788,51.3489757 162.346055,54.8991163 C164.480684,60.1059892 166.378131,65.3128621 168.038398,70.519735 C169.698665,75.7266079 171.121751,80.9334808 172.307656,86.1403537 C173.25638,89.6904943 173.730742,93.477311 174.205104,97.2641276 C175.391009,105.784465 176.576914,114.304803 177.762819,122.82514 C178,123.771844 178,124.955224 178,126.138605 C178,133.948914 178,141.522547 178,149.332857 C178,150.279561 177.762819,150.989589 177.762819,151.699617 C176.576914,152.409645 176.102552,151.699617 175.865371,151.226265 C174.442285,148.622829 172.782018,146.019392 169.935846,144.599336 C170.173027,143.652632 170.173027,142.942604 170.410208,142.232575 C173.25638,134.658942 173.019199,126.611957 172.544837,118.801647 C172.307656,114.068127 169.935846,109.807958 165.429408,107.441197 C164.006322,106.731169 162.108874,106.494493 160.211426,106.257817 C158.78834,106.021141 157.602435,106.257817 155.704987,106.257817 C154.756263,108.151226 153.807539,110.517986 152.621634,112.884746 C152.147272,112.174718 151.67291,111.938042 151.435729,111.46469 C147.640833,104.127733 142.897213,97.2641276 137.679232,91.1105506 C133.884336,86.3770297 130.08944,81.6435089 125.108639,77.8566923 C123.922734,76.9099881 123.211191,75.7266079 122.262467,74.7799037 C119.653476,72.1764673 117.044486,69.3363548 114.435495,66.7329183 C111.826504,63.8928058 109.217513,60.8160173 106.845703,57.7392288 C104.711074,55.3724684 104.473893,52.7690319 105.896979,49.6922434 C108.980332,43.0653142 110.87778,35.965033 112.775228,28.8647518 C113.486771,27.6813716 113.486771,26.7346674 113.24959,26.0246393 C113.486771,25.7879632 113.24959,26.0246393 113.24959,26.0246393 Z M150.487005,92.2939308 C150.961367,88.9804662 150.961367,88.9804662 150.012643,87.3237339 C147.878014,84.2469454 145.743385,81.1701568 143.371575,78.0933683 C135.544603,66.7329183 127.480449,55.3724684 119.653476,44.2486944 C118.941933,43.3019903 118.467572,42.5919621 117.756029,41.645258 C117.281667,41.1719059 116.807305,40.4618778 115.858581,41.4085819 C118.230391,44.9587226 120.365019,48.5088632 122.736829,52.0590038 C128.429173,60.3426652 133.884336,68.6263267 139.57668,76.9099881 C142.660032,81.4068329 146.217747,85.9036776 149.538281,90.4005224 C149.775462,90.8738745 150.012643,91.5839026 150.487005,92.2939308 Z" fill="#FFFFFF"></path>
                    <path d="M93.4060675,245.707825 C101.014678,248.775069 108.38552,249.482894 115.280824,245 C117.658515,246.887534 120.036206,248.775069 122.413897,250.662603 C125.029357,252.550138 128.120355,251.134487 130.973584,252.078254 C131.211353,254.673614 129.784739,256.79709 129.071431,259.39245 C124.31605,258.684625 119.560668,259.39245 115.280824,260.808101 C115.043055,260.808101 115.043055,261.515926 114.805286,261.98781 C116.46967,262.459693 118.134053,263.167519 120.273975,263.639402 C122.651666,261.98781 125.267126,260.572159 128.358124,261.98781 C128.358124,262.459693 128.595893,262.931577 128.595893,263.167519 C127.169279,267.414471 126.455971,271.897365 123.840511,275.672434 C122.889435,277.088085 122.176128,278.739678 121.46282,280.39127 C118.609591,288.649233 114.805286,296.671255 111.238749,304.457334 C111.00098,304.929218 110.763211,305.401101 110.525442,305.872985 C109.098828,306.344868 108.147751,305.401101 107.672213,304.693276 C106.721137,302.5698 105.056753,300.918207 103.1546,299.502556 C102.203524,298.794731 101.727986,297.37908 101.014678,296.435313 C100.063602,294.78372 99.1125257,292.896186 97.9236802,291.480535 C94.3571438,287.233583 91.7416838,282.278805 89.1262238,277.324027 C86.9863019,273.313016 84.608611,269.537947 82.4686892,265.762879 C81.993151,264.819111 81.5176128,263.875344 81.0420746,262.695635 C85.3219183,262.695635 88.8884547,262.695635 92.6927602,262.695635 C93.6438365,263.875344 94.5949129,265.055053 95.5459893,265.99882 C96.2592966,266.706646 97.9236802,265.99882 98.1614493,265.055053 C98.3992184,263.167519 97.9236802,261.751868 96.2592966,261.044043 C95.5459893,260.808101 94.5949129,260.336217 93.6438365,260.336217 C88.6506856,260.572159 83.8953037,259.864334 78.9021527,258.920566 C78.4266146,257.976799 77.7133073,256.79709 77,255.381439 C78.6643837,254.909556 80.0909982,254.437672 81.5176128,254.20173 C86.0352256,253.729847 89.601762,251.60637 91.9794529,247.59536 C92.217222,247.359418 92.4549911,246.887534 92.4549911,246.651593 C92.6927602,246.651593 92.9305293,246.415651 93.4060675,245.707825 Z" fill="#FFFFFF"></path>
                    <path d="M176.705057,262.392097 C176.220828,261.917933 175.978713,261.206687 175.252369,260.732523 C173.557567,259.072948 171.378535,259.31003 170.652191,261.680851 C170.410076,262.629179 170.167962,263.81459 170.167962,264.762918 C168.957388,265.237082 168.473159,264.525836 167.98893,263.81459 C167.262586,262.866261 166.536242,261.917933 165.809898,260.969605 C162.662408,260.258359 162.420293,263.103343 160.967605,265 C158.788573,261.443769 156.851656,258.12462 156.367427,254.331307 C154.914739,243.899696 153.462051,233.231003 152.493592,222.799392 C151.525134,211.656535 152.009363,200.513678 153.704166,189.607903 C153.94628,188.659574 154.188395,187.948328 154.43051,187 C157.820115,188.18541 161.20972,189.133739 164.841439,190.319149 C164.841439,191.030395 164.841439,192.215805 164.841439,193.164134 C164.841439,205.729483 164.599325,218.294833 164.599325,230.860182 C164.599325,235.601824 165.083554,240.106383 165.567783,244.848024 C165.809898,246.981763 166.294127,249.115502 167.746815,250.775076 C168.231045,251.24924 168.715274,251.486322 169.925847,252.197568 C169.925847,251.012158 169.925847,250.300912 169.925847,249.589666 C168.473159,241.054711 168.473159,232.519757 168.231045,223.74772 C168.231045,214.50152 168.231045,205.018237 168.231045,195.772036 C168.231045,193.87538 168.473159,191.741641 168.473159,189.844985 C168.715274,188.659574 169.683732,187.948328 170.652191,187.948328 C172.346994,187.948328 174.283911,187.948328 176.220828,187.948328 C176.220828,199.802432 176.220828,211.182371 176.220828,222.799392 C176.220828,227.541033 175.978713,232.282675 176.462943,236.787234 C176.947172,242.240122 177.189287,247.930091 177.189287,253.382979 C177.189287,254.331307 177.431401,255.516717 177.91563,256.465046 C178.157745,258.361702 177.91563,260.021277 176.705057,262.392097 Z" fill="#FFFFFF"></path>
                    <path d="M138.012736,196.978689 C138.012736,199.541448 138.012736,201.87123 138.012736,204.201011 C138.252482,208.161639 138.492227,212.355246 138.731972,216.315874 C138.971718,217.713743 139.451208,219.111612 139.930699,220.276503 C140.170444,220.742459 141.129425,220.975437 142.088406,221.441393 C142.328151,220.742459 142.567897,220.509481 142.567897,220.043525 C141.36917,214.452049 141.848661,208.860574 141.608916,203.269098 C141.608916,200.473361 141.36917,197.677623 141.129425,194.881885 C140.88968,193.01806 141.36917,191.387213 142.567897,189.989344 C144.246114,187.892541 145.92433,185.795738 147.602547,183.698934 C147.842293,183.465956 148.561528,183.232978 149.280764,183 C149.520509,183.931913 149.760255,184.397869 149.760255,185.096803 C149.280764,189.057432 148.801274,193.251038 147.842293,196.978689 C146.164076,204.201011 146.403821,211.423333 147.123057,218.412678 C147.842293,225.635 149.041019,232.624344 150,239.846667 C150,240.545601 150,241.244536 150,241.710492 C148.801274,242.409426 148.801274,241.710492 148.321783,241.011557 C148.082038,240.545601 147.602547,239.846667 147.123057,239.613689 C145.92433,239.147732 144.725604,238.681776 143.526878,238.448798 C142.088406,235.420082 141.36917,232.391366 140.649934,229.36265 C140.410189,228.430738 140.170444,227.265847 139.930699,226.333934 C139.211463,224.470109 137.533246,224.237131 135.615284,225.169044 C135.135793,225.402022 134.896048,225.867978 134.416557,226.100956 C132.978086,225.402022 133.217831,224.004153 132.978086,222.839262 C132.498595,220.276503 132.25885,217.713743 131.779359,214.918006 C129.381907,212.821202 130.101143,210.025465 130.101143,207.462705 C130.101143,206.064836 130.340888,204.433989 131.299869,203.502077 C132.978086,201.172295 134.896048,199.075492 136.81401,196.978689 C136.81401,196.978689 137.293501,196.978689 138.012736,196.978689 Z" fill="#FFFFFF"></path>
                    <path d="M164.380646,150.400593 C164.837309,149.437914 165.065641,148.956575 165.522304,148.475235 C165.978967,148.234566 166.435631,147.993896 166.892294,147.753226 C174.883899,151.363272 180.820521,160.990059 179.907194,168.691489 C179.678863,170.857516 178.993868,173.023543 178.080542,174.948901 C176.710552,178.558946 175.112231,181.928322 172.372252,184.575688 C171.230594,185.538367 170.317268,186.501046 168.718946,186.501046 C168.262283,186.501046 167.577289,186.741716 167.120625,186.741716 C160.955672,187.945064 156.845704,184.816358 153.42073,180.002964 C152.964067,179.280955 152.507404,178.318277 152.507404,177.596267 C151.594077,167.72881 151.594077,158.102023 155.247383,148.715905 C156.160709,146.549878 157.530699,144.62452 159.12902,143.180502 C159.357351,142.939833 160.270678,142.939833 160.499009,143.180502 C160.955672,143.421172 161.184004,144.143181 161.184004,144.62452 C160.955672,145.827869 160.727341,147.271887 160.042346,148.234566 C157.530699,151.844611 157.530699,156.176665 156.845704,160.26805 C156.160709,163.637426 156.389041,167.247471 156.389041,170.616847 C156.389041,175.189571 159.814014,180.002964 163.923983,181.206313 C165.293973,181.687652 166.663962,181.446982 168.033952,180.965643 C170.317268,179.762295 171.915589,178.077607 173.51391,175.91158 C173.970573,175.43024 174.198905,174.467562 174.198905,173.986222 C173.970573,168.932159 174.655568,163.878095 172.828915,158.824032 C171.687257,154.251308 169.17561,151.363272 164.380646,150.400593 Z" fill="#FFFFFF"></path>
                    <path d="M115,220.165305 C115,224.711421 115,229.018268 115,233.085846 C110.319149,235.717808 105.170213,234.760731 100.255319,235 C98.8510638,235 97.6808511,234.282192 96.2765957,233.803654 C96.0425532,228.53973 95.106383,223.515075 93,219.208228 C93.7021277,217.533343 94.8723404,218.011882 95.8085106,218.251151 C97.212766,218.49042 98.6170213,218.729689 99.787234,219.208228 C102.12766,220.165305 104.468085,220.404574 107.042553,219.447497 C108.212766,218.968959 109.851064,219.447497 111.255319,219.447497 C112.425532,220.165305 113.595745,220.165305 115,220.165305 Z" fill="#FFFFFF"></path>
                    <path d="M165.159398,175.879172 C163.375902,176.338629 162.356762,175.419715 161.847192,174.271073 C161.337622,173.12243 161.082837,171.973788 160.828051,170.825145 C159.808911,165.771119 159.554126,160.487364 161.082837,155.433337 C161.847192,153.365781 162.866332,152.676595 164.649827,153.136052 C167.197678,153.595509 168.216818,154.97388 167.962033,157.271165 C167.707248,159.56845 167.197678,161.636006 166.942893,163.933291 C166.433323,167.608947 166.178538,171.054874 165.668968,174.730529 C165.668968,175.189986 165.159398,175.649443 165.159398,175.879172 Z" fill="#FFFFFF"></path>
                    <path d="M113.485437,237 C113.720451,238.568906 113.955465,239.353359 113.955465,240.137811 C114.190479,241.706717 113.485437,242.752654 112.075355,243.275623 C107.610095,245.106013 103.144835,245.367497 98.4445614,244.583044 C95.1543697,243.798591 94.6843424,243.014138 95.1543697,238.045937 C101.264726,238.045937 107.140068,239.353359 113.485437,237 Z" fill="#FFFFFF"></path>
                    <path d="M179.239028,254.949083 C178.302749,258.019908 178.770888,260.618298 178.770888,262.980471 C178.770888,264.161557 179.004958,265.578861 178.770888,266.759947 C178.770888,268.413468 177.132399,269.12212 175.72798,268.413468 C174.32356,267.704816 173.153211,266.759947 171.514721,265.578861 C170.812512,266.759947 170.344372,267.704816 169.642162,268.649686 C168.939953,269.830772 167.301463,269.830772 166.365184,268.649686 C165.428904,267.468599 164.492624,266.051295 163.322275,264.397775 C162.620065,265.578861 162.151925,266.287513 161.683786,266.996165 C160.513436,268.413468 158.640877,268.413468 157.704597,266.996165 C156.768318,265.578861 155.832038,263.92534 155.129828,262.271819 C153.491339,258.256125 151.85285,254.476649 149.98029,250.224738 C145.064822,246.917696 140.383424,249.98852 135.467956,251.169607 C133.829467,253.767997 132.893187,256.366387 132.190978,258.964777 C130.318419,265.342644 129.148069,271.956727 125.402951,277.389725 C124.934811,278.098377 124.466671,279.043246 124.232601,279.751898 C121.657832,288.019503 117.912714,295.578456 114.167595,303.373626 C113.465385,304.554712 113.231316,305.972016 112.763176,307.38932 C112.295036,308.334189 111.826896,309.279058 111.358756,310.223927 C110.656547,311.405013 109.018057,311.641231 108.081778,310.696361 C106.911428,309.751492 105.975149,308.806623 105.038869,307.625537 C103.40038,305.735799 101.99596,303.609843 100.357471,301.956322 C98.4849117,300.302801 97.5486321,297.940628 96.1442127,295.814673 C95.6760729,295.106021 95.2079331,294.161152 94.7397932,293.4525 C89.8243253,286.129764 84.9088573,279.043246 80.2274593,271.72051 C78.1208301,268.413468 76.4823408,264.633992 74.3757117,260.854515 C73.2053622,258.72856 72.0350127,256.838822 71.098733,255.185301 C65.9491952,255.185301 61.0337272,255.421518 56.3523292,255.185301 C53.5434903,254.949083 51.6709311,256.366387 49.564302,257.547473 C49.0961622,257.783691 48.6280224,258.492343 48.3939524,259.200994 C47.9258126,260.618298 46.989533,261.799384 45.3510437,261.799384 C43.2444146,261.799384 43.0103447,259.909646 42.308135,258.492343 C41.8399952,257.311256 41.3718554,255.893952 40.9037156,254.712866 C39.4992961,254.712866 39.4992961,255.657735 39.4992961,256.13017 C39.4992961,258.019908 39.4992961,260.145863 39.4992961,262.035602 C39.4992961,263.216688 39.0311563,264.161557 37.8608068,264.397775 C36.6904573,264.633992 35.7541777,264.161557 35.2860379,262.980471 C34.5838282,261.799384 34.1156884,260.382081 33.1794088,259.200994 C32.2431291,257.783691 31.5409194,255.657735 29.4342903,255.657735 C27.0935913,255.893952 27.5617311,258.492343 27.3276612,259.909646 C26.8595214,261.799384 27.0935913,263.92534 26.8595214,265.815078 C25.9232418,277.625942 28.2639408,288.964372 30.3705699,300.302801 C32.0090592,309.279058 33.8816185,318.255314 35.7541777,326.995354 C36.4563874,330.538613 37.8608068,333.845655 39.0311563,337.152697 C39.9674359,339.987304 40.6696456,343.058129 39.2652262,345.892736 C36.2223175,345.892736 35.7541777,345.656519 35.2860379,343.530563 C34.3497583,339.987304 33.6475486,336.680262 32.477199,333.137003 C27.795801,317.310445 25.455102,301.011453 22.6462631,284.712461 C22.4121932,283.295157 22.4121932,281.877853 22.4121932,280.46055 C22.4121932,275.736204 22.4121932,271.248076 22.4121932,266.52373 C22.6462631,262.744254 22.6462631,259.200994 20.7737039,255.657735 C19.6033544,253.53178 19.6033544,250.93339 19.3692845,248.334999 C18.9011447,245.500392 18.6670748,242.665785 17.9648651,239.831177 C15.624166,230.854921 13.5175369,221.878664 11.1768379,212.902407 C8.13392913,201.563978 5.09102039,190.225549 4.15474078,178.178467 C3.45253107,169.674645 1.81404175,161.170823 0.643692233,152.667001 C0.643692233,151.958349 0.40962233,151.249697 0.40962233,150.541045 C-0.0585174758,137.785312 -0.292587379,125.029579 0.643692233,112.510063 C1.57997185,101.171634 3.21846117,90.0694217 5.32509029,78.9672096 C7.19764952,69.0460838 9.07020874,59.3611753 13.5175369,50.1487014 C15.1560262,46.6054422 16.3263757,42.8259657 17.9648651,39.2827065 C19.3692845,36.2118818 20.7737039,33.1410572 22.880333,30.3064498 C27.795801,23.692366 32.9453388,17.3144994 39.733366,12.5901538 C40.6696456,11.881502 41.6059253,10.9366329 42.5422049,9.99176374 C45.1169738,7.86580821 47.6917427,6.21228725 50.7346515,5.26741813 C58.2248884,3.37767989 65.7151253,0.779289809 73.673502,0.543072528 C78.1208301,0.306855248 82.5681583,-0.401796592 87.0154864,0.306855248 C92.867234,1.25172437 98.9530515,1.72415893 103.868519,5.97606997 C104.570729,6.68472181 105.741079,6.92093909 106.677358,7.39337365 C107.379568,7.62959093 108.081778,7.86580821 108.783987,7.86580821 C112.060966,8.1020255 114.167595,11.4090674 117.678644,10.7004156 C120.955622,9.99176374 123.998531,11.4090674 126.80737,12.8263711 C131.956908,14.9523266 137.574585,17.0782821 142.255984,20.1491068 C149.044011,24.6372351 154.427619,30.5426671 158.406807,37.6291855 C160.747506,42.1173138 163.322275,46.3692249 165.428904,50.8573532 C167.769603,56.0541334 169.642162,61.4871308 171.280652,66.9201283 C172.919141,71.8806912 174.32356,76.841254 175.49391,81.8018169 C176.430189,85.8175107 177.132399,89.8332044 177.834609,93.8488982 C179.004958,100.462982 179.941238,107.313283 180.877518,113.927367 C181.345657,116.998192 181.579727,120.305234 181.579727,123.612276 C181.579727,134.242053 181.345657,144.635613 181.345657,155.265391 C181.345657,156.21026 181.813797,157.391347 181.813797,158.336216 C182.516007,163.769213 182.516007,168.965993 180.409378,174.162773 C179.707168,176.052512 179.473098,177.94225 179.239028,179.831988 C177.600539,192.115287 178.536819,204.398585 178.302749,216.918101 C178.068679,223.532185 177.600539,230.146269 177.366469,236.760353 C177.366469,240.776047 177.600539,244.555523 177.600539,248.807434 C179.707168,249.043651 181.813797,249.279869 183.452286,249.752303 C188.601824,251.169607 190.708453,254.004214 190.942523,259.437212 C191.176593,266.051295 190.708453,272.665379 189.304034,279.279463 C186.495195,292.507631 183.920426,305.499581 181.111587,318.727749 C179.941238,324.869398 179.004958,331.011048 177.834609,337.152697 C177.132399,340.695956 175.96205,344.002998 174.7917,347.31004 C174.55763,348.018692 173.621351,348.727344 172.919141,348.963561 C171.748791,349.199778 170.812512,348.254909 170.812512,347.073823 C170.578442,345.420302 170.578442,343.766781 170.812512,342.349477 C172.216931,335.026741 173.621351,327.704006 175.25984,320.145053 C176.196119,315.420707 177.600539,310.696361 178.770888,306.208233 C181.345657,294.397369 183.920426,282.822722 186.261125,271.011858 C186.963335,266.759947 186.729265,262.508036 186.729265,258.256125 C186.729265,256.602604 185.792986,255.185301 183.920426,254.712866 C182.281937,255.893952 180.877518,255.657735 179.239028,254.949083 Z M112.763176,24.6372351 C112.763176,25.5821042 112.763176,26.5269734 112.529106,27.2356252 C110.656547,34.3221436 108.783987,41.408662 105.741079,48.0227459 C104.336659,51.0935705 104.570729,53.4557433 106.677358,56.0541334 C109.252127,59.124958 111.592826,62.1957827 114.167595,65.03039 C116.742364,67.8649974 119.317133,70.4633875 121.891902,73.0617776 C122.828182,74.0066467 123.530391,75.4239504 124.700741,76.1326022 C129.616209,79.9120787 133.127257,84.6364243 137.106446,89.3607699 C142.255984,95.7386365 146.937382,102.35272 150.6825,109.675456 C150.91657,110.147891 151.38471,110.384108 151.85285,111.09276 C153.023199,108.730587 153.959479,106.604631 154.895758,104.478676 C156.534248,104.478676 157.938667,104.242459 159.343086,104.478676 C160.981576,104.714893 162.854135,104.714893 164.492624,105.659762 C168.939953,108.021935 171.280652,112.273846 171.514721,116.998192 C171.982861,124.793362 172.216931,132.824749 169.408092,140.383702 C169.174022,141.092354 169.174022,141.801006 168.939953,142.745875 C171.748791,144.399396 173.387281,146.761569 174.7917,149.359959 C175.02577,149.832394 175.72798,150.541045 176.664259,149.832394 C176.664259,149.123742 176.898329,148.41509 176.898329,147.470221 C176.898329,139.675051 176.898329,132.116098 176.898329,124.320927 C176.898329,123.139841 176.898329,122.194972 176.664259,121.013885 C175.49391,112.510063 174.32356,104.006241 173.153211,95.5024192 C172.685071,91.7229427 172.216931,87.9434662 171.280652,84.400207 C170.110302,79.2034268 168.705883,74.0066467 167.067393,68.8098665 C165.428904,63.6130863 163.556345,58.4163062 161.449716,53.219526 C160.045296,49.6762668 157.704597,46.3692249 156.066108,42.8259657 C154.193549,38.8102719 151.61878,35.0307954 148.809941,31.7237535 C145.767032,28.4167116 142.724123,25.345887 138.744935,23.2199314 C135.936096,21.5664105 133.127257,20.1491068 130.318419,18.7318031 C128.679929,18.0231513 127.04144,17.3144994 125.402951,16.8420649 C123.764461,16.3696303 122.360042,15.1885439 120.253413,15.4247612 C121.423762,18.9680204 118.848993,21.3301932 118.380853,24.1648005 C118.380853,24.4010178 117.678644,24.4010178 117.444574,24.4010178 C116.508294,23.692366 115.806085,22.9837141 114.869805,22.2750623 C113.699455,23.4561487 113.231316,24.1648005 112.763176,24.6372351 C112.997246,23.2199314 113.231316,21.8026277 113.699455,20.1491068 C112.763176,18.9680204 112.295036,17.5507167 111.124686,16.6058476 C109.486197,14.9523266 107.613638,13.0625884 105.272939,13.5350229 C101.76189,14.2436748 98.9530515,13.0625884 96.6123525,10.7004156 C95.9101428,9.99176374 94.7397932,9.51932918 94.0375835,8.81067734 C91.6968845,6.92093909 88.6539758,5.97606997 85.611067,5.73985269 C79.0571097,5.50363541 72.5031525,5.50363541 65.9491952,6.92093909 C61.7359369,7.86580821 57.7567486,9.04689462 53.5434903,9.99176374 C50.7346515,10.4641983 48.1598825,11.881502 45.8191835,13.2988057 C43.4784845,14.7161093 41.3718554,16.133413 39.0311563,17.5507167 C35.7541777,19.4404549 33.1794088,22.038845 30.8387097,25.1096697 C29.2002204,27.4718425 27.5617311,29.597798 25.6891719,31.9599708 C23.3484728,35.2670127 21.4759136,38.5740546 20.3055641,42.3535311 C18.4330049,47.314094 16.5604456,52.2746569 14.6878864,57.4714371 C13.9856767,59.124958 13.5175369,60.778479 13.0493971,62.6682172 C11.4109078,70.935822 9.53834855,78.9672096 8.13392913,87.4710316 C5.7932301,103.297589 3.92067088,119.124147 4.38881068,134.950705 C4.38881068,136.131791 4.38881068,137.07666 4.38881068,138.257747 C4.38881068,143.926962 4.38881068,149.596176 5.09102039,155.501608 C6.0273,161.40704 6.72950971,167.076255 7.43171942,172.981687 C8.13392913,178.650902 8.60206894,184.320117 9.77241845,189.989331 C11.8790476,199.910457 14.2197466,209.831583 16.5604456,219.752709 C18.9011447,230.146269 22.4121932,240.303612 23.8166126,250.93339 C25.455102,251.169607 25.455102,249.752303 25.9232418,249.043651 C26.8595214,248.098782 27.795801,247.626348 29.4342903,248.334999 C30.8387097,250.93339 32.477199,253.53178 34.3497583,256.13017 C36.2223175,254.476649 37.8608068,252.823128 38.3289466,250.460955 C38.5630165,249.043651 39.2652262,248.098782 41.1377855,248.098782 C42.0740651,249.98852 43.2444146,251.878259 44.1806942,254.004214 C46.0532534,251.642041 47.9258126,249.752303 49.564302,247.862565 C49.564302,244.79174 52.3731408,242.665785 52.1390709,239.358743 C51.905001,236.99657 51.6709311,234.39818 51.4368612,232.036007 C51.2027913,230.618703 50.7346515,228.965182 51.905001,227.075444 C54.2457,228.492748 53.5434903,231.091138 54.7138398,232.744659 C55.8841893,234.634397 57.0545389,236.287918 57.9908185,238.177656 C59.161168,240.067395 60.0974476,241.720916 61.2677971,243.846871 C62.2040767,242.19335 62.9062864,241.012264 63.6084961,239.831177 C64.5447758,238.413874 65.4810554,237.232787 66.417335,236.051701 C68.0558243,234.39818 69.6943136,234.870614 70.6305932,236.99657 C71.5668728,238.650091 72.0350127,240.539829 72.7372224,242.665785 C75.7801311,239.59496 77.1845505,236.051701 77.6526903,232.272224 C78.1208301,228.256531 79.0571097,224.477054 80.2274593,220.933795 C80.929669,219.280274 81.3978088,217.626753 80.6955991,215.500798 C77.8867602,215.028363 75.0779214,214.083494 71.8009428,214.083494 C70.6305932,218.571622 72.2690826,223.532185 70.6305932,228.256531 C69.9283835,227.547879 69.2261738,227.075444 69.2261738,226.60301 C68.9921039,224.477054 68.9921039,222.351099 68.9921039,220.225143 C68.9921039,217.86297 68.9921039,215.737015 68.9921039,213.374842 C66.1832651,211.957538 63.6084961,210.776452 60.7996573,209.595366 C60.7996573,211.012669 60.7996573,212.193756 60.7996573,213.138625 C61.0337272,215.028363 61.501867,216.918101 61.501867,219.044057 C61.7359369,223.05975 61.9700068,227.311662 61.9700068,231.327355 C61.9700068,232.508442 61.2677971,233.453311 59.6293078,232.508442 C59.3952379,228.492748 59.161168,224.477054 58.9270981,220.46136 C58.6930282,216.209449 58.4589583,211.957538 58.2248884,207.46941 C55.8841893,206.288324 53.5434903,205.107237 51.2027913,204.162368 C48.8620923,203.217499 47.2236029,200.855326 44.1806942,200.619109 C44.1806942,201.563978 43.9466243,202.27263 43.9466243,202.981282 C44.8829039,211.012669 46.7554631,218.807839 46.989533,226.839227 C46.989533,227.547879 47.2236029,228.256531 47.4576728,228.965182 C47.9258126,231.327355 48.3939524,233.925745 48.6280224,236.287918 C48.8620923,238.413874 49.0961622,240.776047 47.6917427,243.374437 C46.989533,242.665785 46.0532534,242.429567 46.0532534,241.957133 C45.5851136,240.776047 45.5851136,239.59496 45.3510437,238.177656 C45.1169738,235.815484 44.648834,233.217094 44.4147641,230.854921 C43.4784845,223.295968 42.308135,215.737015 41.3718554,207.941845 C41.1377855,206.760758 41.6059253,205.343454 41.3718554,204.162368 C41.1377855,201.327761 40.9037156,198.493153 40.4355757,195.658546 C40.4355757,194.949894 39.733366,194.241242 39.2652262,194.005025 C37.1585971,192.351504 35.9882476,190.225549 34.8178981,188.099593 C33.8816185,186.682289 32.7112689,185.264986 31.7749893,183.611465 C29.9024301,185.028768 30.1365,186.918507 29.9024301,188.572028 C29.6683602,190.225549 29.4342903,192.115287 29.2002204,193.768808 C28.7320806,195.658546 28.2639408,197.548284 27.795801,199.438022 C27.3276612,201.091543 27.0935913,202.981282 26.3913816,204.634803 C25.9232418,206.288324 26.1573117,207.941845 24.7528922,209.359148 C24.0506825,206.052106 22.6462631,202.981282 23.5825427,199.67424 C24.5188223,195.186111 25.2210321,190.461766 25.9232418,185.973637 C26.1573117,184.083899 26.8595214,182.666596 27.5617311,181.013075 C29.4342903,177.94225 31.0727796,174.635208 32.0090592,171.328166 C34.1156884,164.714082 35.7541777,157.863781 37.392667,151.249697 C38.0948767,148.651307 39.0311563,146.052917 40.4355757,143.926962 C43.2444146,139.438833 46.2873233,134.950705 49.0961622,130.462577 C50.0324418,128.809056 51.4368612,127.391752 51.6709311,125.265796 C50.9687214,124.557145 49.3302321,124.557145 49.7983719,122.903624 C50.9687214,122.431189 52.1390709,121.48632 53.3094204,121.013885 C54.4797699,120.541451 55.4160495,119.596582 55.8841893,118.415495 C58.4589583,113.454932 61.501867,108.49437 63.6084961,103.061372 C67.1195447,94.3213328 71.5668728,86.2899452 76.4823408,78.494775 C76.9504806,77.7861232 77.4186204,77.3136886 78.1208301,77.5499059 L77.8867602,77.5499059 C76.9504806,79.4396441 76.2482709,81.5655996 75.3119913,83.4553379 C71.8009428,90.7780736 67.8217544,98.1008093 65.2469855,105.89598 C65.0129156,106.604631 65.0129156,107.313283 65.0129156,109.203021 C66.6514049,107.077066 67.8217544,106.132197 68.758034,104.714893 C74.8438515,95.7386365 81.1637389,86.9985971 87.0154864,77.7861232 C90.526535,72.3531257 93.8035136,66.4476937 96.6123525,60.5422617 C101.52782,50.3849187 106.209218,40.2275756 109.954337,29.8340153 C110.890617,27.7080598 111.826896,26.2907561 112.763176,24.6372351 Z M52.1390709,136.604226 C50.9687214,137.07666 50.5005816,137.07666 50.5005816,137.312878 C44.1806942,148.651307 38.7970864,160.462171 34.5838282,172.981687 C33.8816185,175.34386 34.1156884,177.706033 35.051968,179.595771 C39.0311563,186.682289 43.7125544,193.060156 50.5005816,197.548284 C54.7138398,200.382892 59.3952379,202.508847 63.842566,205.343454 C70.6305932,209.831583 78.5889699,210.304017 86.0792068,212.193756 C90.0583952,213.138625 94.5057233,213.611059 98.7189816,213.847277 C105.038869,214.083494 111.124686,214.083494 116.274224,209.359148 C116.976434,208.650496 117.912714,208.414279 118.380853,207.941845 C121.189692,205.343454 124.232601,202.745064 127.04144,200.146674 C128.445859,198.729371 129.616209,196.839632 131.254698,195.422329 C133.361327,193.53259 135.233886,191.406635 136.872376,189.044462 C138.744935,186.682289 140.383424,184.083899 142.958193,182.430378 C144.830752,181.249292 146.001102,178.887119 146.001102,176.524946 C146.001102,171.564383 146.235172,166.603821 146.469242,161.40704 C146.469242,159.753519 146.703312,157.863781 146.937382,156.21026 C147.639591,151.958349 150.6825,148.887525 152.086919,145.344265 C152.789129,143.926962 153.725409,142.509658 154.661688,141.328572 C155.597968,140.147485 156.768318,139.438833 158.172737,139.438833 C159.109017,139.438833 160.279366,139.675051 161.215646,139.675051 C161.449716,140.383702 161.683786,140.856137 161.917855,141.328572 C162.151925,141.801006 162.620065,142.037223 162.854135,142.509658 C165.662974,138.730181 168.003673,132.824749 167.769603,128.572838 C167.535533,125.029579 167.301463,121.48632 167.301463,117.943061 C167.301463,115.344671 165.897044,113.218715 164.726694,111.09276 C163.556345,109.203021 161.917855,108.258152 159.811226,108.258152 C158.172737,108.258152 157.938667,109.675456 157.236457,110.620325 C157.002387,110.856542 156.768318,111.09276 156.300178,111.328977 C153.491339,112.037629 153.959479,114.636019 153.725409,116.525757 C153.725409,117.234409 153.959479,117.943061 154.193549,118.651713 C154.661688,122.194972 154.895758,125.738231 155.129828,129.28149 C155.363898,131.407446 155.129828,131.407446 152.789129,134.242053 C151.61878,131.407446 151.15064,128.809056 151.38471,125.974448 C151.38471,124.793362 151.61878,123.376058 151.15064,122.194972 C149.98029,118.179278 149.044011,113.927367 146.469242,110.384108 C144.362613,107.785718 142.490053,104.95111 140.617494,102.116503 C138.276795,98.8094611 135.936096,95.5024192 133.361327,92.1953773 C129.616209,87.4710316 126.5733,82.0380342 121.657832,78.494775 C121.189692,78.0223404 120.721552,77.5499059 120.253413,76.841254 C117.678644,74.0066467 115.572015,71.1720393 112.763176,68.5736492 C109.252127,65.2666073 106.443288,61.2509135 104.336659,56.9990025 C104.102589,56.5265679 103.63445,56.0541334 103.16631,54.873047 C102.4641,56.0541334 102.23003,56.5265679 101.99596,56.9990025 C97.3145622,66.9201283 92.867234,76.6050368 88.185836,86.5261625 C87.7176962,87.7072489 87.0154864,88.8883353 86.3132767,89.8332044 C85.611067,90.5418563 84.6747874,91.7229427 83.9725777,91.7229427 C81.8659486,91.95916 80.929669,93.3764637 79.9933894,94.7937673 C75.0779214,102.35272 69.6943136,109.911673 64.076636,116.998192 C61.9700068,119.596582 60.3315175,122.431189 58.2248884,125.029579 C56.1182592,128.100404 53.7775602,130.935011 52.1390709,134.47827 C54.0116301,134.950705 55.4160495,135.186922 57.0545389,135.659357 C60.3315175,136.604226 61.2677971,138.02153 61.7359369,141.328572 C61.9700068,143.454527 61.2677971,145.108048 60.3315175,146.997786 C59.161168,149.123742 56.5863991,149.596176 54.2457,148.887525 C52.3731408,148.41509 52.1390709,146.761569 52.1390709,144.871831 C52.1390709,142.509658 52.1390709,139.675051 52.1390709,136.604226 Z M92.1650243,245.027958 C91.6968845,245.500392 91.4628146,245.736609 91.2287447,245.972827 C90.9946748,246.209044 90.7606049,246.681479 90.7606049,246.917696 C88.4199059,250.93339 84.9088573,253.059345 80.4615292,253.53178 C79.0571097,253.767997 77.6526903,254.240431 76.014201,254.712866 C76.7164107,256.13017 77.4186204,257.311256 77.8867602,258.256125 C83.0362981,259.200994 87.7176962,259.909646 92.3990942,259.673429 C93.3353738,259.673429 94.0375835,259.909646 94.9738631,260.382081 C96.3782826,261.090733 97.0804923,262.508036 96.8464224,264.397775 C96.6123525,265.578861 95.2079331,266.051295 94.2716534,265.342644 C93.3353738,264.397775 92.3990942,263.216688 91.4628146,262.035602 C87.7176962,262.035602 83.9725777,262.035602 79.9933894,262.035602 C80.4615292,263.216688 80.929669,264.161557 81.3978088,265.106426 C83.5044379,268.885903 86.0792068,272.665379 87.9517661,276.681073 C90.526535,281.641636 93.1013039,286.365982 96.6123525,290.85411 C97.782702,292.271414 98.7189816,294.161152 99.6552612,295.814673 C100.357471,296.759542 100.825611,298.176846 101.76189,298.885497 C103.63445,300.302801 105.038869,301.956322 106.209218,304.082278 C106.677358,304.790929 107.613638,305.735799 109.018057,305.263364 C109.252127,304.790929 109.486197,304.318495 109.720267,303.84606 C113.231316,295.814673 117.210504,288.019503 119.785273,279.751898 C120.253413,278.098377 120.955622,276.444856 122.125972,275.027552 C124.700741,271.248076 125.402951,266.759947 126.80737,262.508036 C126.80737,262.271819 126.80737,261.799384 126.5733,261.32695 C123.530391,260.145863 120.955622,261.32695 118.614923,262.980471 C116.742364,262.271819 115.103875,261.799384 113.231316,261.32695 C113.465385,260.854515 113.465385,260.382081 113.699455,260.145863 C118.146784,258.72856 122.594112,258.019908 127.27551,258.72856 C127.977719,256.13017 129.382139,254.004214 129.148069,251.405824 C126.33923,250.460955 123.296321,251.878259 120.721552,249.98852 C118.380853,248.334999 116.040154,246.209044 113.699455,244.319306 C106.911428,248.807434 99.8893311,248.098782 92.1650243,245.027958 Z M174.08949,261.32695 C175.25984,259.200994 175.49391,257.311256 175.02577,255.421518 C174.7917,254.476649 174.32356,253.295562 174.32356,252.350693 C174.55763,246.917696 174.32356,241.248481 173.621351,235.815484 C173.153211,231.327355 173.387281,226.60301 173.387281,221.878664 C173.387281,210.540235 173.387281,198.965588 173.387281,187.154724 C171.514721,187.154724 169.876232,187.154724 168.003673,187.154724 C166.833323,187.154724 165.897044,187.863376 165.897044,189.044462 C165.662974,190.9342 165.662974,193.060156 165.662974,194.949894 C165.662974,204.162368 165.662974,213.611059 165.662974,222.823533 C165.662974,231.327355 165.897044,240.067395 167.301463,248.571217 C167.301463,249.279869 167.301463,249.98852 167.301463,251.169607 C166.365184,250.460955 165.662974,250.224738 165.194834,249.752303 C163.790415,248.098782 163.322275,245.972827 163.088205,243.846871 C162.620065,239.122526 162.151925,234.634397 162.151925,229.910052 C162.151925,217.390536 162.385995,204.87102 162.385995,192.351504 C162.385995,191.406635 162.385995,190.225549 162.385995,189.516897 C158.874947,188.33581 155.597968,187.154724 152.320989,186.209855 C152.086919,187.154724 151.61878,188.099593 151.61878,188.808245 C149.98029,199.910457 149.512151,211.012669 150.44843,221.878664 C151.38471,232.272224 152.789129,242.902002 154.193549,253.295562 C154.661688,257.075039 156.534248,260.382081 158.640877,263.92534 C159.811226,262.035602 160.045296,259.200994 163.322275,259.909646 C164.024485,260.618298 164.726694,261.563167 165.428904,262.744254 C165.897044,263.452905 166.365184,264.161557 167.535533,263.689123 C167.769603,262.744254 167.769603,261.563167 168.003673,260.618298 C168.705883,258.492343 170.812512,258.019908 172.451001,259.673429 C173.387281,260.145863 173.85542,260.618298 174.08949,261.32695 Z M136.872376,197.312067 C136.170166,197.312067 135.702026,197.312067 135.702026,197.312067 C133.829467,199.438022 131.956908,201.563978 130.318419,203.926151 C129.616209,205.107237 129.148069,206.524541 129.148069,207.941845 C129.148069,210.540235 128.445859,213.374842 130.786558,215.500798 C131.254698,218.099188 131.488768,220.697578 131.956908,223.532185 C132.190978,224.713271 131.956908,226.130575 133.361327,226.839227 C133.829467,226.60301 134.063537,226.130575 134.531677,225.894358 C136.404236,224.713271 138.042725,225.185706 138.744935,227.075444 C139.213075,228.020313 139.213075,229.2014 139.447145,230.146269 C140.149354,233.217094 140.851564,236.287918 142.255984,239.358743 C143.426333,239.831177 144.596683,240.067395 145.767032,240.539829 C146.235172,240.776047 146.703312,241.484698 146.937382,241.957133 C147.171452,242.665785 147.405521,243.374437 148.575871,242.665785 C148.575871,242.19335 148.575871,241.484698 148.575871,240.776047 C147.639591,233.453311 146.469242,226.366792 145.767032,219.044057 C145.064822,211.721321 144.596683,204.398585 146.469242,197.312067 C147.405521,193.296373 147.873661,189.280679 148.341801,185.264986 C148.341801,184.556334 148.107731,184.083899 147.873661,183.13903 C147.171452,183.611465 146.469242,183.611465 146.235172,183.847682 C144.596683,185.973637 142.958193,188.099593 141.319704,190.225549 C140.149354,191.642852 139.915285,193.296373 139.915285,195.186111 C140.149354,198.020719 140.383424,200.855326 140.383424,203.689934 C140.617494,209.359148 140.149354,215.028363 141.319704,220.697578 C141.319704,220.933795 141.085634,221.40623 140.851564,222.114881 C140.149354,221.642447 139.213075,221.40623 138.744935,220.933795 C138.042725,219.752709 137.574585,218.335405 137.574585,216.918101 C137.106446,212.902407 137.106446,208.650496 136.872376,204.634803 C136.872376,202.27263 136.872376,199.910457 136.872376,197.312067 Z M162.620065,148.887525 C167.535533,149.832394 170.110302,152.667001 171.514721,156.918912 C173.153211,161.879475 172.451001,166.840038 172.919141,171.800601 C172.919141,172.509253 172.685071,173.217904 172.216931,173.690339 C170.578442,175.580077 168.939953,177.469815 166.599253,178.650902 C165.194834,179.359554 163.790415,179.359554 162.385995,178.887119 C158.172737,177.706033 154.661688,172.981687 154.661688,168.493559 C154.661688,165.186517 154.427619,161.643258 155.129828,158.336216 C155.832038,154.320522 155.832038,150.068611 158.406807,146.525352 C159.109017,145.580483 159.343086,144.163179 159.577156,142.982092 C159.577156,142.509658 159.343086,141.801006 158.874947,141.564789 C158.406807,141.328572 157.704597,141.328572 157.470527,141.564789 C155.832038,143.21831 154.427619,144.871831 153.491339,146.997786 C149.74622,156.21026 149.74622,165.658951 150.6825,175.34386 C150.6825,176.288729 151.15064,176.997381 151.61878,177.706033 C155.129828,182.430378 159.343086,185.501203 165.662974,184.320117 C166.131114,184.320117 166.599253,184.083899 167.301463,184.083899 C168.705883,184.083899 169.876232,183.13903 171.046582,182.194161 C173.621351,179.595771 175.49391,176.052512 176.898329,172.74547 C177.600539,170.855732 178.302749,168.965993 178.770888,166.603821 C179.707168,159.044868 173.621351,149.359959 165.428904,146.052917 C164.960764,146.289134 164.492624,146.525352 164.024485,146.761569 C163.322275,147.470221 163.088205,147.942655 162.620065,148.887525 Z M142.255984,244.083088 C138.042725,242.429567 138.042725,242.429567 137.340516,238.177656 C137.106446,236.760353 137.340516,235.343049 135.467956,234.39818 C135.233886,235.815484 135.233886,236.99657 134.765747,238.177656 C134.531677,239.358743 133.595397,240.067395 132.425048,239.831177 C131.254698,239.831177 130.318419,239.122526 130.084349,237.941439 C129.850279,236.99657 129.850279,235.815484 129.616209,234.870614 C128.913999,232.272224 128.913999,229.2014 126.5733,227.075444 C125.87109,226.366792 125.63702,225.185706 125.402951,224.240837 C124.700741,219.988926 123.998531,215.737015 124.232601,211.485104 C124.232601,210.776452 123.998531,210.304017 123.998531,209.359148 C121.891902,209.595366 121.189692,211.012669 120.019343,212.193756 C118.848993,213.374842 117.678644,214.319711 116.976434,215.028363 C116.976434,222.587316 116.976434,229.437617 116.976434,236.524135 C116.976434,237.705222 117.210504,238.886308 117.678644,240.303612 C118.848993,244.79174 120.955622,246.681479 125.402951,246.917696 C127.977719,246.917696 130.786558,247.153913 133.361327,246.917696 C136.638306,246.209044 139.681215,245.972827 142.255984,244.083088 Z M112.763176,219.280274 C111.358756,219.280274 110.188407,219.044057 109.018057,219.044057 C107.613638,219.044057 106.209218,218.571622 104.804799,219.044057 C102.23003,219.752709 99.8893311,219.752709 97.5486321,218.807839 C96.1442127,218.335405 94.7397932,217.86297 93.5694437,217.86297 C92.6331641,217.626753 91.4628146,217.390536 90.7606049,218.807839 C92.867234,223.05975 93.8035136,228.020313 94.0375835,233.217094 C95.442003,233.689528 96.8464224,234.39818 98.0167719,234.39818 C102.93224,234.161963 107.847708,235.106832 112.763176,232.508442 C112.763176,228.020313 112.763176,223.768402 112.763176,219.280274 Z M75.7801311,249.279869 C78.8230398,248.571217 81.1637389,248.334999 83.5044379,247.626348 C86.0792068,246.917696 87.4836263,245.027958 88.4199059,242.429567 C90.0583952,236.524135 90.0583952,230.382486 88.8880457,224.477054 C88.4199059,222.351099 87.4836263,219.988926 86.3132767,218.099188 C85.8451369,217.154318 84.6747874,216.209449 83.270368,217.154318 C83.0362981,220.46136 83.0362981,224.00462 82.8022282,227.311662 C82.3340884,231.79979 81.6318787,236.051701 80.929669,240.539829 C80.6955991,242.19335 79.9933894,243.374437 78.3549,243.374437 C76.2482709,243.374437 75.7801311,244.79174 75.5460612,246.445261 C75.5460612,247.153913 75.7801311,247.626348 75.7801311,249.279869 Z M163.322275,176.052512 C163.556345,175.580077 163.790415,175.107643 163.790415,174.635208 C164.258554,170.855732 164.492624,167.312472 164.960764,163.532996 C165.194834,161.170823 165.662974,159.044868 165.897044,156.682695 C166.131114,154.320522 165.194834,152.903218 162.854135,152.430784 C160.981576,151.958349 160.279366,152.667001 159.577156,154.792957 C157.938667,159.989737 158.172737,165.186517 159.343086,170.619514 C159.577156,171.800601 159.811226,172.981687 160.279366,174.162773 C160.747506,175.580077 161.683786,176.524946 163.322275,176.052512 Z M112.529106,236.524135 C106.209218,238.650091 100.357471,237.469005 94.5057233,237.469005 C94.0375835,241.957133 94.5057233,242.665785 97.782702,243.374437 C102.4641,244.319306 106.911428,243.846871 111.358756,242.19335 C112.529106,241.720916 113.465385,240.776047 113.231316,239.358743 C112.763176,238.650091 112.763176,237.941439 112.529106,236.524135 Z M68.0558243,239.831177 C67.8217544,239.831177 67.3536146,239.831177 67.1195447,239.831177 C66.6514049,241.012264 66.1832651,241.957133 65.7151253,243.138219 C65.2469855,244.319306 64.5447758,245.736609 64.076636,246.917696 C63.6084961,247.862565 62.9062864,248.807434 61.9700068,250.224738 C65.2469855,250.697172 67.8217544,251.169607 70.1624534,249.752303 C69.2261738,246.209044 68.5239641,242.902002 68.0558243,239.831177 Z M55.4160495,238.886308 C54.7138398,243.374437 54.2457,246.445261 54.9479097,249.98852 C56.5863991,249.98852 57.9908185,249.98852 59.6293078,249.98852 C57.2886088,247.862565 57.2886088,245.027958 57.0545389,242.19335 C56.820469,241.484698 56.3523292,240.776047 55.4160495,238.886308 Z M167.535533,172.74547 C168.705883,168.493559 168.237743,165.186517 167.769603,162.115692 C167.067393,165.186517 166.599253,168.493559 167.535533,172.74547 Z M28.7320806,253.059345 C28.7320806,252.823128 28.4980107,252.350693 28.4980107,252.114476 C28.2639408,252.350693 27.795801,252.350693 27.5617311,252.586911 C27.795801,252.823128 27.795801,253.295562 28.0298709,253.53178 C28.0298709,253.53178 28.4980107,253.295562 28.7320806,253.059345 Z" fill="#3C3C3C"></path>
                    <path d="M166.445545,316.552564 C166.445545,318.440777 166.722772,320.565016 166.445545,322.45323 C165.891089,328.589922 165.059406,334.490588 165.336634,340.627281 C165.336634,342.75152 165.336634,345.111787 163.118812,346.527947 C162.564356,347 161.455446,347 160.90099,347 C160.623762,347 160.069307,346.29192 160.069307,345.819867 C160.069307,339.919201 159.792079,334.018535 160.346535,328.117869 C160.90099,322.45323 161.178218,316.78859 161.455446,311.123951 C161.455446,307.583551 162.287129,304.279178 163.673267,301.210832 C163.950495,300.738779 164.782178,300.030699 165.336634,300.030699 C166.722772,299.794672 167,300.974805 167,301.682885 C167,302.626992 167,303.571098 167,304.279178 C166.722772,308.291631 166.168317,312.540111 165.891089,316.552564 C166.168317,316.552564 166.168317,316.552564 166.445545,316.552564 Z" fill="#3C3C3C"></path>
                    <path d="M46.2552888,310 C47.1805355,311.633472 47.8744706,312.566884 48.1057823,313.500296 C49.031029,322.367714 52.2693924,330.768425 54.1198858,339.169136 C54.8138209,341.73602 55.2764442,344.302904 55.9703792,346.869788 C56.2016909,348.036553 55.0451325,349.203318 53.6572625,348.969965 C52.0380807,348.503259 50.8815224,347.569847 50.418899,345.703022 C48.3370939,337.068958 46.4866005,328.434894 44.4047954,320.034183 C43.9421721,317.700652 43.7108604,315.133768 44.6361071,312.800237 C45.0987305,311.866825 45.5613538,311.400119 46.2552888,310 Z" fill="#3C3C3C"></path>
                    <path d="M71,54 C70.2920143,58.5035615 68.4040524,62.5330639 66.7520858,66.5625663 C61.3241955,79.5991916 55.4243147,92.635817 50.4684148,105.672442 C46.4564958,116.101743 43.1525626,127.005102 39.8486293,137.908461 C38.1966627,142.649052 37.0166865,147.626673 35.8367104,152.367264 C34.420739,157.344885 33.2407628,162.322505 32.0607867,167.537155 C31.5887962,169.433392 30.8808105,171.329628 30.1728248,173.225865 C29.9368296,173.699924 28.9928486,174.173983 28.5208582,173.936953 C28.0488677,173.699924 27.340882,172.988835 27.1048868,172.514776 C26.8688915,171.803687 27.1048868,171.092599 27.1048868,170.38151 C28.0488677,165.877949 28.7568534,161.137358 29.9368296,156.633796 C31.8247914,149.04885 34.1847437,141.463905 36.3087008,133.878959 C37.9606675,128.19025 40.3206198,122.73857 41.9725864,117.049861 C44.568534,108.990856 47.8724672,101.168881 51.4123957,93.5839352 C56.8402861,81.2583985 62.7401669,69.1698913 69.1120381,57.3184137 C69.8200238,56.3702955 70.5280095,55.1851478 71,54 Z" fill="#3C3C3C"></path>
                    <path d="M34.9818289,198.467226 C35.5185995,209.680646 35.7869848,220.894066 36.5921408,232.107487 C36.8605261,234.677229 37.6656821,237.246971 38.2024528,239.816713 C38.7392234,241.452004 39.5443794,243.087294 38.4708381,244.956198 C36.5921408,245.189811 35.2502142,244.488972 34.7134435,242.853681 C33.3715169,238.882262 31.7612049,234.910842 32.0295903,230.472196 C32.5663609,221.127679 32.8347462,211.783162 33.3715169,202.438646 C33.3715169,201.036968 33.9082876,199.401678 34.1766729,198 C34.4450582,198.467226 34.7134435,198.467226 34.9818289,198.467226 Z" fill="#3C3C3C"></path>
                    <path d="M78.4321539,78 C78.2160769,77.1818182 78.2160769,76.3636364 78,75 C79.0803847,76.3636364 78.4321539,77.1818182 78.4321539,78 C78.2160769,78 78.4321539,78 78.4321539,78 Z" fill="#3C3C3C"></path>
                    <polygon fill="#3C3C3C" points="82 73.4330135 82.2160769 73 82.4321539 73.4330135"></polygon>
                    <polygon fill="#3C3C3C" points="83 69.2165067 83 69 83.2160769 69"></polygon>
                    <polygon fill="#3C3C3C" points="86 66 86.2160769 66 86 66.4330135"></polygon>
                    <path d="M79.1099303,129 C80.4818614,130.673271 80.2532062,132.346542 80.4818614,133.780774 C80.9391718,138.561548 81.167827,143.103284 81.8537925,147.884058 C82.5397581,152.186754 82.0824477,156.489451 82.0824477,160.792148 C82.0824477,161.987341 81.6251373,163.182535 81.167827,164.377728 C80.7105166,165.811961 80.024551,167.007154 79.1099303,168.441386 C80.024551,169.158503 80.7105166,169.875619 81.6251373,170.114657 C84.5976548,171.070812 87.5701722,172.026967 91,172.983122 C90.0853793,173.700238 89.6280689,174.417354 89.1707585,174.417354 C85.0549651,175.851586 81.3964822,174.417354 77.7379992,172.505044 C75.4514473,171.309851 74.5368266,169.158503 75.2227921,166.529077 C75.2227921,166.290038 75.2227921,166.290038 75.4514473,166.050999 C79.7958958,159.596954 77.9666544,152.186754 77.9666544,145.015593 C77.9666544,140.234819 77.9666544,135.215006 78.1953095,130.434232 C77.9666544,130.195194 78.6526199,129.717116 79.1099303,129 Z" fill="#3C3C3C"></path>
                    <path d="M117.784142,121 C118,121.233553 118,121.467107 118,121.70066 C115.841425,125.671067 115.193852,129.641474 116.27314,134.078988 C116.920712,136.648075 115.841425,138.516502 113.898707,139.917822 C111.95599,141.319143 110.013272,141.319143 107.854697,140.151376 C106.77541,139.450716 106.127837,138.516502 106.127837,137.115182 C105.696122,133.144775 106.343695,129.407921 108.286412,126.138174 C108.718127,125.437514 109.3657,124.5033 110.013272,124.5033 C112.603562,124.036194 114.54628,122.40132 116.488997,121 C116.920712,121 117.352427,121 117.784142,121 Z" fill="#3C3C3C"></path>
                    <path d="M78,183.5 C82.4129032,181.75 86.3612903,181.75 90.3096774,181.75 C94.2580645,182 97.9741935,180.75 101.458065,178.75 C104.477419,177 107.032258,175 109.819355,173 C110.980645,172 112.374194,171.25 114,170 C114,171.25 114,171.75 113.767742,172.25 C108.193548,181.5 100.064516,186 89.8451613,186 C86.5935484,186 83.1096774,185.5 79.8580645,185 C79.6258065,184.75 79.1612903,184.25 78,183.5 Z" fill="#3C3C3C"></path>
                    <path d="M128,106.081354 C125.326078,106.81612 122.652156,108.040731 119.978234,108.285653 C113.171886,109.265341 106.851707,111.46964 100.774611,114.653628 C100.531527,114.89855 100.045359,115.143472 99.8022754,114.89855 C99.3161078,114.89855 98.5868563,114.653628 98.3437725,114.408706 C98.1006886,114.163784 97.8576048,113.429017 98.1006886,112.939173 C98.8299401,110.979796 100.288443,110.000108 101.99003,109.265341 C109.768713,106.081354 117.547395,103.387211 126.055329,104.121977 C126.784581,104.366899 127.756916,104.366899 128,106.081354 Z" fill="#3C3C3C"></path>
                    <path d="M106,187 C104.860481,188.75 104.404674,190.208333 103.493059,190.791667 C101.669828,192.25 99.3907908,193.125 97.3396569,194 C97.1117532,194 96.6559456,194 96.4280419,193.708333 C95.9722343,193.125 95.288523,192.541667 95.0606193,191.958333 C94.8327155,191.666667 95.288523,190.791667 95.7443306,190.5 C98.4791758,188.166667 101.669828,187 106,187 Z" fill="#3C3C3C"></path>
                    <path d="M150.687878,91 C150.45029,90.2962749 149.975114,89.8271249 149.737526,89.1233998 C146.411291,84.6664745 143.085056,80.4441241 139.758821,75.7526237 C134.056704,67.542498 128.354587,59.3323723 122.890058,51.1222466 C120.514176,47.6036213 118.375882,44.084996 116,40.5663708 C116.950353,39.3934957 117.425529,40.3317957 117.900706,40.8009458 C118.61347,41.5046708 119.326235,42.4429709 119.801411,43.381271 C127.641822,54.6408719 135.719821,65.9004729 143.560232,76.9254988 C145.698526,79.9749741 148.074408,83.0244493 150.212702,86.0739246 C151.163055,87.7159497 151.163055,87.7159497 150.687878,91 Z" fill="#3C3C3C"></path>
                </g>
            </g>
            <rect id="BG" fill="#944F96" x="30" y="551" width="148" height="45"></rect>
            <g id="arrow-right" transform="translate(55.000000, 567.000000)" fill="#FFFFFF">
                <g id="Group-2">
                    <path d="M98.8726573,6.17648631 L93.6838187,1.12317448 C93.5151814,0.958941841 93.2410378,0.958941841 93.0724005,1.12317448 C92.9037633,1.28740711 92.9037633,1.55439042 93.0724005,1.71862305 L97.5226944,6.05268017 L83.4324032,6.05268017 C83.1937166,6.05268017 83,6.24133714 83,6.47378949 C83,6.70624183 83.1937166,6.89489881 83.4324032,6.89489881 L97.5226944,6.89489881 L93.0724005,11.2289559 C92.9037633,11.3931886 92.9037633,11.6601719 93.0724005,11.8244045 C93.1571515,11.9069419 93.2678468,11.9473684 93.378542,11.9473684 C93.4892372,11.9473684 93.5999324,11.9060997 93.6846835,11.8244045 L98.8735221,6.77109267 C99.0421593,6.60686003 99.0421593,6.33987672 98.8735221,6.17564409 L98.8726573,6.17648631 Z" id="Shape" fill-rule="nonzero"></path>
                    <text id="PRXIMO" font-family="Roboto-Black, Roboto" font-size="11" font-weight="700" letter-spacing="3.20000005">
                        <tspan x="1.10639632" y="10">PRXIMO</tspan>
                    </text>
                </g>
            </g>
            <text id="PURELAS" font-family="Roboto-Black, Roboto" font-size="20" font-weight="700" letter-spacing="10.21" fill="#FFFFFF">
                <tspan x="105.512578" y="133">PURELA</tspan>
                <tspan x="241.967891" y="133">S</tspan>
            </text>
            <text id="Lorem-ipsum-dolor" font-family="Roboto-Black, Roboto" font-size="16" font-weight="700" fill="#FFFFFF">
                <tspan x="30" y="407">Lorem ipsum dolo</tspan>
                <tspan x="159.953125" y="407" letter-spacing="3.20000005">r</tspan>
            </text>
            <text id="Ut-wisi-enim-ad-mini" font-family="Roboto-Regular, Roboto" font-size="13" font-weight="normal" fill="#FFFFFF">
                <tspan x="30" y="437">Ut wisi enim ad minim </tspan>
                <tspan x="30" y="452">veniam, quis nostrud </tspan>
                <tspan x="30" y="467">exerci tation ullamcorper</tspan>
            </text>
            <path d="M168.02166,49 C169.753183,52.9514263 171.351513,54.7273482 168.998417,60.2327061 C166.512126,66.0488504 164.025835,67.0256075 165.668563,68.5795392 C167.311291,70.1334708 170.552348,70.7994416 170.552348,70.7994416 C170.552348,70.7994416 170.463552,71.8205967 169.797581,72.7973537 C169.087213,73.7741108 169.220407,75.1948483 170.596746,76.0384112 C171.617901,76.6599839 171.795494,76.74878 171.839892,76.74878 C171.839892,76.74878 171.307115,77.2371585 170.996329,78.3027117 C170.641144,79.4570609 171.395911,80.5670121 172.639057,80.9221965 C173.882202,81.2773809 174.414978,81.410575 174.681367,81.8101574 C174.992153,82.2541379 174.770163,82.342934 174.681367,84.207652 C174.592571,86.0723701 174.237386,87.848292 176.679279,89.2246315 C179.121172,90.6009709 183.383384,89.4022237 186.89083,87.2267193 C189.909897,85.3620013 197.368769,82.9645067 203.140515,86.0723701 C199.100293,91.2669417 193.062159,94.9075816 186.047267,95.7955426 C171.928688,97.5714645 159.008856,87.5819037 157.232934,73.4633244 C155.900992,63.5625597 160.385195,54.2833677 168.02166,49 Z" id="Shape" fill="#FFFFFF" fill-rule="nonzero"></path>
        </g>
    </g>
</svg>