<?xml version="1.0" encoding="UTF-8"?>
<svg width="360px" height="640px" viewBox="0 0 360 640" version="1.1" xmlns="http://www.w3.org/2000/svg" xmlns:xlink="http://www.w3.org/1999/xlink">
    <!-- Generator: Sketch 46.2 (44496) - http://www.bohemiancoding.com/sketch -->
    <title>Splash Screen</title>
    <desc>Created with Sketch.</desc>
    <defs>
        <linearGradient x1="0%" y1="0%" x2="100%" y2="100%" id="linearGradient-1">
            <stop stop-color="#FAD295" offset="0%"></stop>
            <stop stop-color="#F145A9" offset="33.8208008%"></stop>
            <stop stop-color="#115B84" offset="100%"></stop>
        </linearGradient>
        <rect id="path-2" x="0" y="0" width="360" height="640"></rect>
    </defs>
    <g id="App" stroke="none" stroke-width="1" fill="none" fill-rule="evenodd">
        <g id="Splash-Screen">
            <g id="BG">
                <use fill="url(#linearGradient-1)" fill-rule="evenodd" xlink:href="#path-2"></use>
                <rect stroke="#979797" stroke-width="1" x="0.5" y="0.5" width="359" height="639"></rect>
            </g>
            <path d="M141.352999,208 C146.907023,220.674568 152.033815,226.371003 144.486039,244.029951 C136.51103,262.685775 128.536021,265.818815 133.805223,270.803195 C139.074425,275.787576 149.470419,277.923739 149.470419,277.923739 C149.470419,277.923739 149.185597,281.199189 147.049434,284.332228 C144.77086,287.465267 145.198093,292.022415 149.61283,294.728222 C152.88828,296.721974 153.457924,297.006796 153.600334,297.006796 C153.600334,297.006796 151.891404,298.573315 150.894528,301.991176 C149.755241,305.693859 152.176226,309.254131 156.16373,310.393418 C160.151235,311.532705 161.860165,311.959937 162.71463,313.241635 C163.711506,314.665744 162.999452,314.950566 162.71463,320.931822 C162.429809,326.913079 161.290522,332.609514 169.12312,337.024251 C176.955718,341.438988 190.627161,337.593895 201.87762,330.615762 C211.56156,324.634505 235.486586,316.944318 254,326.913079 C241.040611,343.575151 221.672732,355.252843 199.171814,358.10106 C153.885156,363.797495 112.443592,331.755049 106.747157,286.468391 C102.474831,254.710766 116.858329,224.946894 141.352999,208 Z" id="Shape" fill="#FFFFFF" fill-rule="nonzero"></path>
            <path d="M98.1412115,410.452148 L98.1412115,416 L94.199317,416 L94.199317,399.648438 L100.724219,399.648438 C101.974551,399.648438 103.080741,399.87866 104.042823,400.339111 C105.004904,400.799563 105.749851,401.454667 106.277686,402.304443 C106.805521,403.15422 107.069434,404.118159 107.069434,405.196289 C107.069434,406.791024 106.498558,408.065669 105.356788,409.020264 C104.215018,409.974858 102.648383,410.452148 100.656837,410.452148 L98.1412115,410.452148 Z M98.1412115,407.408691 L100.724219,407.408691 C101.487895,407.408691 102.070002,407.217775 102.470557,406.835938 C102.871113,406.4541 103.071387,405.915043 103.071387,405.21875 C103.071387,404.455074 102.865497,403.844892 102.453712,403.388184 C102.041926,402.931476 101.480408,402.699382 100.769141,402.691895 L98.1412115,402.691895 L98.1412115,407.408691 Z M134.194727,399.648438 L134.194727,410.351074 C134.194727,411.563971 133.936429,412.614009 133.419825,413.501221 C132.90322,414.388432 132.162017,415.064125 131.196192,415.52832 C130.230367,415.992515 129.088614,416.224609 127.770899,416.224609 C125.779352,416.224609 124.210846,415.708013 123.065332,414.674805 C121.919819,413.641596 121.33584,412.226571 121.313379,410.429688 L121.313379,399.648438 L125.277735,399.648438 L125.277735,410.508301 C125.322657,412.297698 126.153703,413.192383 127.770899,413.192383 C128.586984,413.192383 129.204653,412.967776 129.623926,412.518555 C130.043199,412.069334 130.252832,411.339361 130.252832,410.328613 L130.252832,399.648438 L134.194727,399.648438 Z M154.929883,410.227539 L152.796094,410.227539 L152.796094,416 L148.854199,416 L148.854199,399.648438 L155.289258,399.648438 C157.228395,399.648438 158.744493,400.078934 159.837598,400.939941 C160.930702,401.800948 161.477246,403.01757 161.477246,404.589844 C161.477246,405.72787 161.247024,406.67122 160.786572,407.419922 C160.326121,408.168624 159.605506,408.775063 158.624707,409.239258 L162.03877,415.831543 L162.03877,416 L157.816113,416 L154.929883,410.227539 Z M152.796094,407.184082 L155.289258,407.184082 C156.03796,407.184082 156.601349,406.987551 156.979444,406.594482 C157.357538,406.201414 157.546582,405.652998 157.546582,404.949219 C157.546582,404.245439 157.355666,403.69328 156.973828,403.292725 C156.59199,402.892169 156.030473,402.691895 155.289258,402.691895 L152.796094,402.691895 L152.796094,407.184082 Z M186.199219,409.070801 L180,409.070801 L180,412.967773 L187.322266,412.967773 L187.322266,416 L176.058105,416 L176.058105,399.648438 L187.344727,399.648438 L187.344727,402.691895 L180,402.691895 L180,406.139648 L186.199219,406.139648 L186.199219,409.070801 Z M205.070117,412.967773 L211.931933,412.967773 L211.931933,416 L201.128222,416 L201.128222,399.648438 L205.070117,399.648438 L205.070117,412.967773 Z M235.295019,412.945312 L229.893164,412.945312 L228.949804,416 L224.738379,416 L230.735449,399.648438 L234.441504,399.648438 L240.483496,416 L236.249609,416 L235.295019,412.945312 Z M230.836523,409.901855 L234.35166,409.901855 L232.588476,404.230469 L230.836523,409.901855 Z M262.308007,411.653809 C262.308007,411.077308 262.103989,410.628094 261.695947,410.306152 C261.287904,409.984211 260.571033,409.651043 259.545312,409.306641 C258.519591,408.962238 257.681057,408.629071 257.029687,408.307129 C254.910861,407.266434 253.851464,405.836435 253.851464,404.01709 C253.851464,403.111161 254.115378,402.311934 254.643212,401.619385 C255.171047,400.926836 255.917866,400.387779 256.883691,400.002197 C257.849516,399.616616 258.935117,399.423828 260.140527,399.423828 C261.315988,399.423828 262.36977,399.633461 263.301904,400.052734 C264.234037,400.472007 264.958395,401.069088 265.474999,401.843994 C265.991604,402.6189 266.249902,403.504227 266.249902,404.5 L262.319238,404.5 C262.319238,403.833656 262.11522,403.317059 261.707177,402.950195 C261.299135,402.583331 260.746976,402.399902 260.050683,402.399902 C259.346903,402.399902 258.791001,402.555256 258.382958,402.865967 C257.974916,403.176678 257.770898,403.571612 257.770898,404.050781 C257.770898,404.470054 257.995505,404.850015 258.444726,405.190674 C258.893947,405.531333 259.683815,405.883218 260.814355,406.246338 C261.944894,406.609458 262.873271,407.000649 263.599511,407.419922 C265.366447,408.438156 266.249902,409.841951 266.249902,411.631348 C266.249902,413.061368 265.710845,414.184403 264.632714,415.000488 C263.554584,415.816573 262.07592,416.224609 260.196679,416.224609 C258.871477,416.224609 257.671701,415.9869 256.597314,415.511475 C255.522927,415.036049 254.714341,414.384688 254.171533,413.557373 C253.628724,412.730058 253.357324,411.777349 253.357324,410.699219 L257.310449,410.699219 C257.310449,411.5752 257.536928,412.220945 257.989892,412.636475 C258.442857,413.052004 259.178445,413.259766 260.196679,413.259766 C260.84805,413.259766 261.362774,413.119386 261.740869,412.838623 C262.118963,412.55786 262.308007,412.162926 262.308007,411.653809 Z" id="PURELAS" fill="#FFFFFF"></path>
        </g>
    </g>
</svg>